<?xml version="1.0" encoding="UTF-8" standalone="no"?>
<!-- Created with Inkscape (http://www.inkscape.org/) -->

<svg
   width="20"
   height="20"
   viewBox="0 0 5.2916665 5.2916668"
   version="1.1"
   id="svg8"
   inkscape:version="1.1.1 (3bf5ae0d25, 2021-09-20)"
   sodipodi:docname="basiscurves.svg"
   inkscape:export-filename="D:\projects\git\dcc_platform\icons\basiscurves.png"
   inkscape:export-xdpi="96.000008"
   inkscape:export-ydpi="96.000008"
   xmlns:inkscape="http://www.inkscape.org/namespaces/inkscape"
   xmlns:sodipodi="http://sodipodi.sourceforge.net/DTD/sodipodi-0.dtd"
   xmlns="http://www.w3.org/2000/svg"
   xmlns:svg="http://www.w3.org/2000/svg"
   xmlns:rdf="http://www.w3.org/1999/02/22-rdf-syntax-ns#"
   xmlns:cc="http://creativecommons.org/ns#"
   xmlns:dc="http://purl.org/dc/elements/1.1/">
  <sodipodi:namedview
     id="base"
     pagecolor="#ffffff"
     bordercolor="#666666"
     borderopacity="1.0"
     inkscape:pageopacity="0.0"
     inkscape:pageshadow="2"
     inkscape:zoom="11.313709"
     inkscape:cx="-11.711456"
     inkscape:cy="0.088388344"
     inkscape:document-units="mm"
     inkscape:current-layer="layer1"
     showgrid="false"
     units="px"
     inkscape:window-width="1920"
     inkscape:window-height="1017"
     inkscape:window-x="-8"
     inkscape:window-y="-8"
     inkscape:window-maximized="1"
     showguides="false"
     inkscape:pagecheckerboard="0" />
  <defs
     id="defs2" />
  <metadata
     id="metadata5">
    <rdf:RDF>
      <cc:Work
         rdf:about="">
        <dc:format>image/svg+xml</dc:format>
        <dc:type
           rdf:resource="http://purl.org/dc/dcmitype/StillImage" />
        <dc:title />
      </cc:Work>
    </rdf:RDF>
  </metadata>
  <g
     inkscape:label="Layer 1"
     inkscape:groupmode="layer"
     id="layer1"
     transform="translate(0,-291.70832)">
    <g
       id="path4491">
      <path
         style="color:#000000;fill:#3a3a3a;stroke-linecap:round;-inkscape-stroke:none;paint-order:stroke fill markers"
         d="m 3.9003906,291.92578 c -0.1726998,0.004 -0.3252462,0.121 -0.3730468,0.28711 -0.00254,0.008 -0.3012067,0.91033 -0.6035157,1.31055 -0.1489529,0.19719 -0.4203887,0.42543 -0.7070312,0.65429 -0.2868177,0.22901 -0.5932049,0.46325 -0.8222657,0.75977 -0.47395683,0.61351 -0.390625,1.3457 -0.390625,1.3457 0.011054,0.10922 0.072868,0.21895 0.1582032,0.28125 0.085786,0.0626 0.1839064,0.083 0.2753906,0.0742 0.091484,-0.009 0.1836056,-0.0471 0.2558594,-0.125 0.071841,-0.0774 0.1115107,-0.19736 0.1015625,-0.30664 v -0.002 c -1.22e-4,-0.002 -0.026798,-0.45329 0.2265625,-0.78125 0.1332352,-0.17248 0.4023303,-0.39419 0.6914062,-0.625 0.2894095,-0.23109 0.6052179,-0.47915 0.84375,-0.79492 0.4678514,-0.61938 0.7286136,-1.55584 0.7304688,-1.5625 0.078812,-0.25137 -0.1233382,-0.52093 -0.3867188,-0.51563 z"
         id="path908" />
      <path
         style="color:#000000;fill:#bdbdbd;stroke-width:0.529167;stroke-linecap:round;-inkscape-stroke:none;paint-order:stroke fill markers"
         d="m 3.90625,292.18945 a 0.13230489,0.13230489 0 0 0 -0.125,0.0957 c 0,0 -0.2849268,0.91978 -0.6464844,1.39843 -0.1796363,0.23781 -0.4634401,0.47082 -0.7519531,0.70118 -0.288513,0.23036 -0.5808706,0.45798 -0.7792969,0.71484 -0.4015495,0.51978 -0.3359375,1.15625 -0.3359375,1.15625 a 0.13244624,0.13244624 0 1 0 0.2636719,-0.0254 c 0,0 -0.04695,-0.54391 0.28125,-0.96875 0.1664498,-0.21547 0.4450078,-0.43888 0.734375,-0.66992 0.2893672,-0.23105 0.5893218,-0.4707 0.7988281,-0.74805 0.4167165,-0.55168 0.6894531,-1.48242 0.6894531,-1.48242 A 0.13230489,0.13230489 0 0 0 3.90625,292.18945 Z"
         id="path910" />
    </g>
    <g
       id="path4497">
      <path
         style="color:#000000;fill:#3a3a3a;stroke-linecap:round;-inkscape-stroke:none;paint-order:stroke fill markers"
         d="m 2.5878906,291.79883 c -0.2025385,0.005 -0.3726019,0.16704 -0.3867187,0.36914 v -0.008 c 0,0 -0.056677,0.51533 -0.3652344,0.92382 -0.3344502,0.44275 -0.85787362,0.78125 -1.27734375,1.32422 -0.46984921,0.60821 -0.41992187,1.33985 -0.41992188,1.33985 0.005109,0.10997 0.0604262,0.22213 0.14257813,0.28906 0.082599,0.0673 0.17943412,0.0939 0.27148437,0.0898 0.0920503,-0.004 0.18730926,-0.039 0.26367188,-0.11328 0.0759323,-0.0739 0.11979173,-0.1908 0.11523438,-0.30078 v -0.002 c -7.74e-6,-0.002 -0.001142,-0.48373 0.25585937,-0.81641 0.3064985,-0.39674 0.840712,-0.74691 1.28125,-1.33008 0.4669894,-0.61823 0.5210131,-1.32204 0.5214844,-1.32812 0.023184,-0.23267 -0.1681778,-0.44322 -0.4023438,-0.4375 z"
         id="path914" />
      <path
         style="color:#000000;fill:#bdbdbd;stroke-width:0.529167;stroke-linecap:round;-inkscape-stroke:none;paint-order:stroke fill markers"
         d="m 2.59375,292.0625 a 0.13230489,0.13230489 0 0 0 -0.1289062,0.12305 c 0,0 -0.055565,0.57881 -0.4179688,1.05859 -0.371478,0.49176 -0.8956156,0.82952 -1.27929688,1.32617 -0.40024115,0.5181 -0.36523437,1.16407 -0.36523437,1.16407 a 0.13294172,0.13294172 0 1 0 0.265625,-0.0117 c 0,0 -0.0189624,-0.5637 0.31054687,-0.99024 0.34607078,-0.44797 0.87248948,-0.7896 1.27929688,-1.32812 0.4158698,-0.55056 0.4707031,-1.19532 0.4707031,-1.19532 A 0.13230489,0.13230489 0 0 0 2.59375,292.0625 Z"
         id="path916" />
    </g>
    <g
       id="path4520">
      <path
         style="color:#000000;fill:#3a3a3a;stroke-linecap:round;-inkscape-stroke:none;paint-order:stroke fill markers"
         d="m 4.7070312,292.58398 c -0.1852468,0.0236 -0.3313784,0.1771 -0.3457031,0.36329 v -0.006 c 0,0 -0.05688,0.51755 -0.3652343,0.92578 -0.3344486,0.44274 -0.8578721,0.78122 -1.2773438,1.32422 -0.4698479,0.6082 -0.4199219,1.33984 -0.4199219,1.33984 0.00511,0.10998 0.060426,0.22214 0.1425782,0.28906 0.082599,0.0673 0.1794341,0.0939 0.2714843,0.0899 0.09205,-0.004 0.1873093,-0.039 0.2636719,-0.11329 0.075932,-0.0739 0.1197917,-0.1908 0.1152344,-0.30078 v -0.002 c -6.7e-6,-0.002 -9.047e-4,-0.48598 0.2558594,-0.81836 0.3064975,-0.39674 0.8407114,-0.74691 1.2812499,-1.33008 0.4667989,-0.61799 0.5210105,-1.31813 0.5214844,-1.32422 0.026776,-0.24878 -0.1947211,-0.46975 -0.4433594,-0.4375 z"
         id="path920" />
      <path
         style="color:#000000;fill:#bdbdbd;stroke-width:0.529167;stroke-linecap:round;-inkscape-stroke:none;paint-order:stroke fill markers"
         d="M 4.7402344,292.8457 A 0.13230489,0.13230489 0 0 0 4.625,292.9668 c 0,0 -0.055563,0.58075 -0.4179688,1.06054 -0.3714774,0.49176 -0.8956151,0.82951 -1.2792968,1.32618 -0.4002409,0.5181 -0.3652344,1.16406 -0.3652344,1.16406 a 0.13294172,0.13294172 0 1 0 0.265625,-0.0117 c 0,0 -0.018962,-0.56565 0.3105469,-0.99219 0.34607,-0.44797 0.8724889,-0.7896 1.2792969,-1.32812 0.4158687,-0.55057 0.4707031,-1.19336 0.4707031,-1.19336 A 0.13230489,0.13230489 0 0 0 4.7402344,292.8457 Z"
         id="path922" />
    </g>
  </g>
</svg>
