<?xml version="1.0" encoding="UTF-8" standalone="no"?>
<!-- Created with Inkscape (http://www.inkscape.org/) -->

<svg
   width="20"
   height="20"
   viewBox="0 0 5.2916665 5.2916668"
   version="1.1"
   id="svg8"
   inkscape:version="1.1.1 (3bf5ae0d25, 2021-09-20)"
   sodipodi:docname="camera.svg"
   inkscape:export-filename="D:\projects\git\dcc_platform\icons\camera.png"
   inkscape:export-xdpi="96.000008"
   inkscape:export-ydpi="96.000008"
   xmlns:inkscape="http://www.inkscape.org/namespaces/inkscape"
   xmlns:sodipodi="http://sodipodi.sourceforge.net/DTD/sodipodi-0.dtd"
   xmlns="http://www.w3.org/2000/svg"
   xmlns:svg="http://www.w3.org/2000/svg"
   xmlns:rdf="http://www.w3.org/1999/02/22-rdf-syntax-ns#"
   xmlns:cc="http://creativecommons.org/ns#"
   xmlns:dc="http://purl.org/dc/elements/1.1/">
  <defs
     id="defs2" />
  <sodipodi:namedview
     id="base"
     pagecolor="#ffffff"
     bordercolor="#666666"
     borderopacity="1.0"
     inkscape:pageopacity="0.0"
     inkscape:pageshadow="2"
     inkscape:zoom="32"
     inkscape:cx="5.671875"
     inkscape:cy="11.3125"
     inkscape:document-units="px"
     inkscape:current-layer="path4507"
     showgrid="false"
     units="px"
     inkscape:window-width="1920"
     inkscape:window-height="1017"
     inkscape:window-x="-8"
     inkscape:window-y="-8"
     inkscape:window-maximized="1"
     showguides="false"
     inkscape:guide-bbox="true"
     inkscape:pagecheckerboard="0" />
  <metadata
     id="metadata5">
    <rdf:RDF>
      <cc:Work
         rdf:about="">
        <dc:format>image/svg+xml</dc:format>
        <dc:type
           rdf:resource="http://purl.org/dc/dcmitype/StillImage" />
        <dc:title />
      </cc:Work>
    </rdf:RDF>
  </metadata>
  <g
     inkscape:label="Layer 1"
     inkscape:groupmode="layer"
     id="layer1"
     transform="translate(0,-291.70832)">
    <g
       id="path4507">
      <path
         style="color:#000000;fill:#3a3a3a;-inkscape-stroke:none;paint-order:stroke fill markers"
         d="m 2.2832031,292.24219 c -0.5287945,-0.0375 -1.0156049,0.23706 -1.25,0.70898 -0.1013164,0.20384 -0.13275646,0.3567 -0.12109372,0.61524 0.0100249,0.22228 0.0454754,0.38748 0.12304682,0.53906 0.042494,0.0829 0.1088686,0.15109 0.1699219,0.22265 -0.05698,-0.0124 -0.077694,-0.0141 -0.171875,-0.0371 -0.14943128,-0.0366 -0.2601907,-0.0673 -0.3691406,-0.084 -0.1089499,-0.0167 -0.26634129,-0.0239 -0.390625,0.0918 -0.12428371,0.11573 -0.13109763,0.24285 -0.140625,0.35937 -0.009527,0.11653 -0.008749,0.25199 -0.0117188,0.43164 -0.00524,0.31681 -0.008599,0.48967 0.007813,0.62696 0.008206,0.0686 0.0199471,0.13663 0.0683594,0.21289 0.0484123,0.0763 0.14014625,0.12933 0.19140626,0.14648 l 0.001953,0.002 h 0.003906 c 0.12439055,0.0388 0.12196034,0.0135 0.16015625,0.01 0.0381959,-0.004 0.0783292,-0.01 0.125,-0.0176 0.0933417,-0.0158 0.20807404,-0.0378 0.32617189,-0.0664 0.060378,-0.0146 0.105204,-0.0266 0.1582031,-0.0391 6.503e-4,0.13345 -0.010836,0.25886 0.1054687,0.375 l 0.00195,0.002 c 0.069984,0.0681 0.1505222,0.0871 0.2148437,0.0977 0.064322,0.0106 0.1346952,0.0157 0.2402344,0.0195 0.2110783,0.008 0.558212,0.01 1.1660156,0.01 0.5860581,0 0.933339,-0.003 1.1484375,-0.01 0.1075493,-0.004 0.1822044,-0.006 0.2460938,-0.0156 0.063889,-0.009 0.1327021,-0.008 0.2246093,-0.0996 0.072647,-0.072 0.068895,-0.1007 0.082031,-0.13477 0.013137,-0.0341 0.023434,-0.0667 0.033203,-0.10351 0.019538,-0.0737 0.03605,-0.15882 0.048828,-0.24805 0.033813,-0.23805 0.043007,-0.28954 0.052734,-0.35156 0.00829,-10e-4 0.012637,0.002 0.021484,0 0.064384,-0.0124 0.1436975,-0.0505 0.1953125,-0.10156 0.10323,-0.10211 0.1227947,-0.19361 0.1621094,-0.31055 0.041527,-0.12367 0.077079,-0.1925 0.066406,-0.33398 -0.00534,-0.0707 -0.06059,-0.20463 -0.171875,-0.25782 -0.1103769,-0.0528 -0.1856707,-0.0299 -0.2363281,-0.0156 h -0.00195 c -0.031877,0.009 -0.00954,0.007 -0.033203,0.0117 -0.00124,-0.002 -6.946e-4,-0.004 -0.00195,-0.006 C 5.1151637,294.13197 5.2846975,293.57965 5,293.12305 c -0.2117137,-0.33969 -0.5857203,-0.5625 -0.9824219,-0.5625 -0.3507784,0.0167 -0.5842235,0.16524 -0.7716,0.39457 -0.2265994,-0.35166 -0.539863,-0.68143 -0.962775,-0.71293 z m -0.039063,0.52929 c 0.3558229,0.0265 0.5767872,0.19805 0.7089844,0.58204 0.00698,0.0203 0.00944,0.0414 0.046875,0.0957 0.00936,0.0136 0.021852,0.029 0.041016,0.0469 0.00958,0.009 0.019745,0.0183 0.033203,0.0274 0.013458,0.009 0.046275,0.0251 0.046875,0.0254 0.0012,5e-4 0.1178463,0.0215 0.1191406,0.0215 6.471e-4,-3e-5 0.037817,-0.004 0.054687,-0.008 0.01687,-0.004 0.031868,-0.01 0.044922,-0.0156 0.104434,-0.0469 0.1112045,-0.0846 0.1289062,-0.10937 0.017129,-0.024 0.028778,-0.0447 0.042969,-0.0684 l 0.00195,-0.002 c 0.033256,-0.0531 0.1178947,-0.13345 0.21875,-0.18946 0.1018154,-0.0565 0.2197633,-0.0879 0.2851562,-0.0879 0.150722,0 0.4360657,0.1586 0.5332031,0.31446 0.036291,0.0582 -0.063344,0.11806 -0.052734,0.18554 -0.01101,-0.0383 0.00657,-0.0696 -0.021484,-0.11132 -0.073296,-0.10914 -0.1326676,-0.12852 -0.1992188,-0.16211 -0.066551,-0.0336 -0.1237039,-0.0664 -0.2421875,-0.0664 -0.1655965,0 -0.2697849,0.0933 -0.3378906,0.18359 -0.068106,0.0903 -0.1113281,0.19759 -0.1113281,0.32618 0,0.1089 0.098491,0.16115 0.1601563,0.24218 l -0.1738282,0.17188 h 0.2890625 c 0.010586,0.005 0.0086,0.0248 0.019531,0.0293 0.04582,0.0188 0.093842,-0.0324 0.1445312,-0.0293 h 0.1894531 l -0.013672,-0.0352 c 0.05098,-0.0167 0.1043849,0.004 0.1484375,-0.0293 -0.034758,0.0335 0.00818,0.0935 -0.035156,0.11915 -0.041332,0.0245 -0.074568,0.0437 -0.1035156,0.0625 -0.028948,0.0188 -0.049063,0.021 -0.1015625,0.084 -0.013125,0.0158 -0.029333,0.0374 -0.044922,0.0762 -0.00779,0.0194 -0.019461,0.0716 -0.019531,0.0723 -7.02e-5,6.6e-4 0.00766,0.0971 0.00781,0.0976 1.546e-4,5.9e-4 0.044546,0.0913 0.044922,0.0918 3.757e-4,5.1e-4 0.056048,0.0562 0.056641,0.0566 5.93e-4,4.4e-4 0.032986,0.0228 0.046875,0.0293 0.013889,0.006 0.026857,0.0105 0.037109,0.0137 0.066237,0.0206 0.077831,0.0155 0.097656,0.0137 0.00484,0.0203 -0.00153,0.0248 0.011719,0.0527 0.025043,0.0529 0.090058,0.0737 0.1484375,0.10546 -0.052748,0.01 -0.1243487,0.0355 -0.1679687,0.0801 -0.047714,0.0487 -0.065513,0.095 -0.078125,0.13086 -0.050448,0.14357 -0.051408,0.2623 -0.097656,0.58789 -0.00754,0.0527 -0.017383,0.0972 -0.027344,0.14063 -0.032245,0.002 -0.047815,0.006 -0.1015625,0.008 -0.1983935,0.007 -0.545916,0.008 -1.1308594,0.008 -0.606787,0 -0.9543379,-0.003 -1.1464844,-0.01 -0.050723,-0.002 -0.062355,-0.004 -0.091797,-0.006 -3.534e-4,-0.009 0.013672,0.0303 0.013672,-0.0508 0,-0.0706 -0.00344,-0.1335 -0.00977,-0.18946 -0.00316,-0.028 -0.00449,-0.0533 -0.013672,-0.0879 -0.00459,-0.0173 -0.00946,-0.0361 -0.029297,-0.0723 -0.00496,-0.009 -0.010746,-0.0193 -0.019531,-0.0312 -0.00879,-0.012 -0.03668,-0.0406 -0.037109,-0.041 -4.288e-4,-3.9e-4 -0.069878,-0.0447 -0.070312,-0.0449 -4.345e-4,-2e-4 -0.1089352,-0.0234 -0.109375,-0.0234 -8.819e-4,0 -0.037759,8.8e-4 -0.044922,0.002 -0.00716,10e-4 -0.012157,0.003 -0.017578,0.004 -0.010843,0.002 -0.02202,0.005 -0.035156,0.008 -0.026272,0.006 -0.059395,0.0123 -0.099609,0.0215 -0.080429,0.0184 -0.18734824,0.0429 -0.30078122,0.0703 -0.0837988,0.0203 -0.15766218,0.0339 -0.22656251,0.0469 -0.004069,-0.0893 -0.007988,-0.19068 -0.003906,-0.4375 0.00268,-0.16209 0.003304,-0.26968 0.007813,-0.34961 0.0626726,0.0133 0.13062165,0.0274 0.25000001,0.0566 0.19203442,0.047 0.30496202,0.0735 0.40234382,0.0859 0.048691,0.006 0.096281,0.0111 0.1582031,0 0.061115,-0.011 0.1363507,-0.0496 0.1777344,-0.0898 -0.050877,0.0484 -0.059721,0.0377 -0.048828,0.0352 0.011882,-0.003 0.037214,-0.006 0.056641,-0.006 0.058634,0 0.112102,-0.004 0.171875,-0.0215 0.059773,-0.0171 0.1469679,-0.0424 0.2089844,-0.16406 0.031008,-0.0608 0.037812,-0.14303 0.021484,-0.20508 -0.016328,-0.062 -0.045199,-0.10329 -0.072266,-0.13281 -0.054134,-0.059 -0.104897,-0.0834 -0.1582031,-0.10742 -0.010395,-0.005 -0.094835,-0.0644 -0.1640625,-0.13477 -0.069228,-0.0704 -0.1343524,-0.15647 -0.15625,-0.19922 -0.045223,-0.0884 -0.055786,-0.13009 -0.064453,-0.32226 -0.011139,-0.24693 -0.027961,-0.16561 0.066406,-0.35547 0.1472781,-0.29652 0.3981088,-0.43935 0.7363281,-0.41602 z m -0.1640625,0.18946 c -0.2303422,0.0472 -0.4453125,0.26647 -0.4453125,0.54492 0,0.22912 0.1200268,0.43965 0.3085938,0.53711 0.050133,0.0259 0.1076922,-0.0297 0.1640625,-0.0215 l -0.023437,0.33985 0.4765625,-0.39649 c 5.195e-4,-4.3e-4 -5.179e-4,-0.002 0,-0.002 0.057639,-0.0484 0.011835,-0.13908 0.046875,-0.20703 l 0.046875,0.0234 0.023437,-0.34961 c -0.00721,-0.0595 0.065112,-0.11039 0.037109,-0.16407 -0.00477,-0.009 -0.01827,-0.003 -0.023437,-0.0117 l 0.00586,-0.0937 -0.074219,0.0625 c -0.1426142,-0.1754 -0.3457828,-0.3021 -0.5429688,-0.26172 z m 1.320313,0.1485 c 0.016893,0.0157 0.027996,0.0287 0.035156,0.0391 0.028642,0.0416 0.020524,0.0418 0.017578,0.0332 -0.010503,-0.0279 -0.035156,-0.0482 -0.052734,-0.0723 z m -1.207723,0.36069 c 0.022617,3.7e-4 0.051852,0.016 0.056527,0.0541 0.00467,0.0381 -0.034093,0.0494 -0.061695,0.048 -0.027601,-0.001 -0.047208,-0.019 -0.047208,-0.0571 0,-0.0381 0.029759,-0.0454 0.052376,-0.045 z m 1.9048665,0.2531 c 0.024319,0.0295 0.023325,0.0485 0.00759,0.0637 -0.019843,0.0192 -0.040873,0.0278 -0.066748,0.005 -0.025876,-0.0226 -0.026005,-0.0592 -0.012158,-0.0771 0.013146,-0.017 0.046994,-0.0212 0.071313,0.008 z m -1.0213622,0.44474 c -0.2949412,0 -0.4620193,6.8e-4 -0.5957031,0.0215 -0.066842,0.0104 -0.1445225,0.003 -0.2441407,0.12305 -0.049809,0.0599 -0.07375,0.16194 -0.064453,0.22852 0.0093,0.0666 0.031686,0.10324 0.048828,0.13085 l 0.00195,0.002 0.00195,0.004 c 1.916e-4,3e-4 0.038757,0.0466 0.039063,0.0469 3.059e-4,2.9e-4 0.023396,0.0206 0.033203,0.0273 0.019614,0.0135 0.034812,0.0201 0.046875,0.0254 0.024125,0.0106 0.03952,0.0142 0.052734,0.0176 0.026429,0.007 0.045153,0.009 0.066406,0.0117 0.042507,0.006 0.08974,0.0104 0.1484375,0.0137 0.1173952,0.006 0.275834,0.01 0.4648438,0.01 0.2944231,0 0.4409658,6.4e-4 0.5546875,-0.0117 0.056861,-0.006 0.1179084,-0.003 0.2089844,-0.0762 0.045538,-0.0368 0.083728,-0.10007 0.097656,-0.14844 0.013928,-0.0484 0.013672,-0.0782 0.013672,-0.0937 0,-0.0156 1.227e-4,-0.0455 -0.013672,-0.0937 -0.013795,-0.0483 -0.051999,-0.11336 -0.097656,-0.15039 -0.091314,-0.0741 -0.154066,-0.07 -0.2109375,-0.0762 -0.1137432,-0.0123 -0.258383,-0.0117 -0.5527344,-0.0117 z m 1.2832031,0.13086 c -0.01452,0 -0.030599,-0.0127 0.035156,0.008 0.00518,0.002 0.012825,0.005 0.019531,0.008 -0.01854,-10e-4 -0.036244,-0.0156 -0.054687,-0.0156 z"
         id="path825"
         sodipodi:nodetypes="ccccccsccccccccccccccscscccccccccccccccccccccccccccscccccsccccscscccccccccsccccccccccccccccsccscccccsscssscccccccccsccccccccccccscccccccccccccccccczzzzzcszszcccscccccscccscccsccccccccccc" />
      <path
         style="color:#000000;fill:#bdbdbd;stroke-width:0.529167;-inkscape-stroke:none;paint-order:stroke fill markers"
         d="m 1.4555437,296.1524 c -0.037253,-0.0372 -0.051982,-0.11598 -0.051982,-0.27881 0,-0.12492 -0.011551,-0.22699 -0.025624,-0.22699 -0.014112,0 -0.2097881,0.0448 -0.43485831,0.0992 -0.22506884,0.0545 -0.43677737,0.0903 -0.47045866,0.0798 -0.0890469,-0.0298 -0.0977878,-0.10139 -0.0873544,-0.73223 0.0120186,-0.72696 -0.0229897,-0.69436 0.5856697,-0.54537 0.38062367,0.0931 0.45054187,0.10209 0.49026767,0.0626 0.025768,-0.0261 0.1113289,-0.0458 0.1928217,-0.0458 0.1667211,0 0.1993544,-0.0641 0.063856,-0.1252 -0.1406599,-0.0633 -0.3626449,-0.28925 -0.4473639,-0.45461 -0.061397,-0.11997 -0.083796,-0.22328 -0.093142,-0.43051 -0.011401,-0.25273 -0.00466,-0.28815 0.093182,-0.485 0.1909849,-0.38452 0.5599095,-0.59332 0.9939335,-0.56255 0.4497761,0.0335 0.7804898,0.2997 0.9392927,0.76097 0.019855,0.0578 0.027789,0.0544 0.082759,-0.0373 0.1336441,-0.2177 0.4714787,-0.40538 0.7302131,-0.40538 0.273712,0 0.6038986,0.19085 0.7583243,0.43862 0.2454523,0.39366 0.094956,0.94277 -0.3268379,1.19227 -0.1614334,0.0955 -0.1707815,0.10662 -0.088781,0.10662 0.138516,0 0.2196475,0.0563 0.2196475,0.15284 0,0.0894 0.019845,0.0913 0.256353,0.0261 0.092787,-0.0261 0.097553,0.0373 0.020207,0.26764 -0.074311,0.22104 -0.1026058,0.24898 -0.2400039,0.23744 -0.1328858,-0.011 -0.1081275,-0.082 -0.2011691,0.57302 -0.022738,0.15878 -0.062619,0.30975 -0.089324,0.33621 -0.040928,0.0406 -0.2619474,0.048 -1.43295,0.048 -1.2145918,0 -1.3909469,-0.007 -1.4365457,-0.0514 z m 2.2304228,-1.65332 c 0,-0.0633 -0.022015,-0.0657 -0.6099985,-0.0657 -0.5854237,0 -0.6823422,0.0148 -0.6304395,0.0984 0.012263,0.0187 0.2594564,0.0335 0.6304395,0.0335 0.5879468,0 0.6099985,-0.003 0.6099985,-0.0657 z m 0.5292522,-0.59014 c 0.065796,-0.0652 0.087231,-0.21321 0.040852,-0.28216 -0.032841,-0.0489 -0.1569229,-0.11145 -0.2205864,-0.11145 -0.090732,0 -0.1840988,0.12369 -0.1840988,0.24414 0,0.19346 0.2259275,0.28628 0.363863,0.14947 z m -1.8242776,-0.14833 c 0.1257029,-0.10471 0.1582939,-0.24081 0.089428,-0.3728 -0.1494158,-0.28627 -0.5806253,-0.19793 -0.5806253,0.11887 0,0.28738 0.278375,0.4313 0.4912036,0.25384 z"
         id="path827" />
    </g>
  </g>
</svg>
