<?xml version="1.0" encoding="UTF-8" standalone="no"?>
<svg
   inkscape:export-ydpi="96.000008"
   inkscape:export-xdpi="96.000008"
   inkscape:export-filename="D:\projects\git\dcc_platform\icons\capsule.png"
   sodipodi:docname="capsule.svg"
   inkscape:version="1.1.1 (3bf5ae0d25, 2021-09-20)"
   id="svg8"
   version="1.1"
   viewBox="0 0 5.2916665 5.2916668"
   height="20"
   width="20"
   xmlns:inkscape="http://www.inkscape.org/namespaces/inkscape"
   xmlns:sodipodi="http://sodipodi.sourceforge.net/DTD/sodipodi-0.dtd"
   xmlns:xlink="http://www.w3.org/1999/xlink"
   xmlns="http://www.w3.org/2000/svg"
   xmlns:svg="http://www.w3.org/2000/svg"
   xmlns:rdf="http://www.w3.org/1999/02/22-rdf-syntax-ns#"
   xmlns:cc="http://creativecommons.org/ns#"
   xmlns:dc="http://purl.org/dc/elements/1.1/">
  <defs
     id="defs2">
    <linearGradient
       inkscape:collect="always"
       id="linearGradient933">
      <stop
         style="stop-color:#dfdfdf;stop-opacity:0"
         offset="0"
         id="stop929" />
      <stop
         style="stop-color:#494949;stop-opacity:1"
         offset="1"
         id="stop931" />
    </linearGradient>
    <linearGradient
       id="linearGradient887"
       inkscape:collect="always">
      <stop
         id="stop883"
         offset="0"
         style="stop-color:#dfdfdf;stop-opacity:1" />
      <stop
         id="stop885"
         offset="1"
         style="stop-color:#acacac;stop-opacity:1" />
    </linearGradient>
    <linearGradient
       inkscape:collect="always"
       id="linearGradient837-1">
      <stop
         style="stop-color:#bdbdbd;stop-opacity:1;"
         offset="0"
         id="stop851" />
      <stop
         style="stop-color:#838383;stop-opacity:1"
         offset="1"
         id="stop853" />
    </linearGradient>
    <linearGradient
       gradientTransform="translate(-6.0192708,0.76067708)"
       gradientUnits="userSpaceOnUse"
       y2="294.69659"
       x2="4.0851908"
       y1="294.69659"
       x1="3.2720833"
       id="linearGradient839"
       xlink:href="#linearGradient837-1"
       inkscape:collect="always" />
    <radialGradient
       gradientUnits="userSpaceOnUse"
       gradientTransform="matrix(0.18084472,0,0,0.19858043,0.95751667,291.5777)"
       r="5.0019531"
       fy="7.1864014"
       fx="8.1673098"
       cy="7.1864014"
       cx="8.1673098"
       id="radialGradient881"
       xlink:href="#linearGradient887"
       inkscape:collect="always" />
    <radialGradient
       inkscape:collect="always"
       xlink:href="#linearGradient933"
       id="radialGradient881-6"
       cx="9.8197803"
       cy="7.2270784"
       fx="9.8197803"
       fy="7.2270784"
       r="5.0019531"
       gradientTransform="matrix(0.48958682,0,0,0.81305579,-2.4392496,-4.5464872)"
       gradientUnits="userSpaceOnUse" />
  </defs>
  <sodipodi:namedview
     inkscape:document-rotation="0"
     inkscape:guide-bbox="true"
     showguides="true"
     inkscape:window-maximized="1"
     inkscape:window-y="-8"
     inkscape:window-x="-8"
     inkscape:window-height="1017"
     inkscape:window-width="1920"
     units="px"
     showgrid="false"
     inkscape:current-layer="layer1"
     inkscape:document-units="px"
     inkscape:cy="6.375"
     inkscape:cx="1.40625"
     inkscape:zoom="16"
     inkscape:pageshadow="2"
     inkscape:pageopacity="0.0"
     borderopacity="1.0"
     bordercolor="#666666"
     pagecolor="#ffffff"
     id="base"
     inkscape:pagecheckerboard="0" />
  <metadata
     id="metadata5">
    <rdf:RDF>
      <cc:Work
         rdf:about="">
        <dc:format>image/svg+xml</dc:format>
        <dc:type
           rdf:resource="http://purl.org/dc/dcmitype/StillImage" />
        <dc:title />
      </cc:Work>
    </rdf:RDF>
  </metadata>
  <g
     style="display:inline"
     transform="translate(0,-291.70832)"
     id="layer1"
     inkscape:groupmode="layer"
     inkscape:label="Layer 1">
    <g
       id="path861">
      <path
         style="color:#000000;fill:url(#radialGradient881);fill-rule:evenodd;stroke-width:0.264583;stroke-linecap:round;stroke-linejoin:round;-inkscape-stroke:none"
         d="m 2.6446553,292.10519 c -0.7318108,0 -1.3283672,0.58989 -1.3542168,1.32478 h -0.00118 c 0,0.008 4.436e-4,0.016 5.886e-4,0.0246 -1.457e-4,0.008 -5.886e-4,0.0158 -5.886e-4,0.0246 h 0.00118 v 1.74997 h -0.00118 c 0,0.008 4.43e-4,0.016 5.876e-4,0.0246 -1.447e-4,0.008 -5.876e-4,0.0158 -5.876e-4,0.0246 h 0.00118 c 0.025848,0.73489 0.6224049,1.32478 1.3542157,1.32478 0.7318108,0 1.3294791,-0.58989 1.355394,-1.32478 h 0.00118 c 0,-0.008 -4.52e-4,-0.0158 -6.027e-4,-0.0246 1.359e-4,-0.008 6.027e-4,-0.016 6.027e-4,-0.0246 h 0.00118 v -1.79917 h -0.00235 c -0.025916,-0.73489 -0.623585,-1.32478 -1.3553958,-1.32478 z"
         id="path24" />
      <path
         style="color:#000000;fill:#3a3a3a;fill-rule:evenodd;stroke-linecap:round;stroke-linejoin:round;-inkscape-stroke:none"
         d="m 2.6445313,291.97266 c -0.8029008,0 -1.4580524,0.64926 -1.4863282,1.45312 a 0.13230472,0.13230472 0 0 0 -0.00195,0.004 c 0,0.0111 0.00179,0.018 0.00195,0.0234 v 0.002 c 1.05e-5,4.2e-4 -6.5e-6,0.002 0,0.002 -1.671e-4,0.005 -0.00195,0.0103 -0.00195,0.0215 a 0.13230472,0.13230472 0 0 0 0.00195,0.002 v 1.74609 a 0.13230472,0.13230472 0 0 0 0,0.002 0.13230472,0.13230472 0 0 0 -0.00195,0 c 0,0.0129 0.00186,0.0219 0.00195,0.0273 -1.631e-4,0.005 -0.00195,0.0121 -0.00195,0.0234 a 0.13230472,0.13230472 0 0 0 0.070312,0.0684 l -0.068359,-0.0645 c 0.028274,0.80387 0.6834274,1.45313 1.4863282,1.45313 0.8029007,0 1.4599296,-0.64914 1.4882812,-1.45313 l -0.087891,0.084 a 0.13230472,0.13230472 0 0 0 0.087891,-0.0879 c 0,-0.0111 1.709e-4,-0.0179 0,-0.0234 v -0.004 c 1.481e-4,-0.004 -5.74e-5,-0.0115 0,-0.0215 5.2e-6,-9.1e-4 0,-0.001 0,-0.002 a 0.13230472,0.13230472 0 0 0 0.00195,0 v -1.79883 a 0.13230472,0.13230472 0 0 0 -0.00195,-0.004 c -0.028353,-0.80399 -0.6853805,-1.45312 -1.4882812,-1.45312 z m 0,0.26562 c 0.6607194,0 1.1991771,0.53148 1.2226562,1.19727 a 0.13230472,0.13230472 0 0 0 0.00195,0.002 v 1.79102 c 0,0.004 1.979e-4,0.0118 0,0.0234 a 0.13230472,0.13230472 0 0 0 0,0.004 c 1.369e-4,0.008 -1.272e-4,0.0117 0,0.0156 a 0.13230472,0.13230472 0 0 0 -0.00195,0.002 c -0.023478,0.66579 -0.5619368,1.19726 -1.2226562,1.19726 -0.6607195,0 -1.1992344,-0.53135 -1.2226563,-1.19726 1.112e-4,-0.004 -1.536e-4,-0.009 0,-0.0176 a 0.13230472,0.13230472 0 0 0 0,-0.002 0.13230472,0.13230472 0 0 0 0,-0.002 c -1.978e-4,-0.0118 0,-0.0203 0,-0.0234 v -1.75 c 0,-0.004 -2.061e-4,-0.0102 0,-0.0215 a 0.13230472,0.13230472 0 0 0 0,-0.002 0.13230472,0.13230472 0 0 0 0,-0.002 c -1.488e-4,-0.009 1.138e-4,-0.0136 0,-0.0176 0.023423,-0.66592 0.5619368,-1.19727 1.2226563,-1.19727 z"
         id="path26" />
    </g>
  </g>
  <g
     style="display:none"
     inkscape:label="Layer 2"
     id="layer2"
     inkscape:groupmode="layer">
    <path
       d="m 2.6446554,0.39687461 c -0.7318109,0 -1.3283674,0.58988973 -1.354217,1.32477719 h -0.00117 c 0,0.00793 4.434e-4,0.015985 5.884e-4,0.024598 -1.456e-4,0.00793 -5.884e-4,0.015758 -5.884e-4,0.024598 h 0.00118 v 1.7499709 h -0.00118 c 0,0.00793 4.429e-4,0.015986 5.875e-4,0.024598 -1.447e-4,0.00793 -5.875e-4,0.015758 -5.875e-4,0.024598 h 0.00118 c 0.025848,0.7348874 0.6224049,1.3247773 1.3542158,1.3247773 0.7318109,0 1.3294792,-0.5898899 1.3553941,-1.3247773 h 0.00117 c 0,-0.00793 -4.52e-4,-0.015758 -6.027e-4,-0.024598 1.358e-4,-0.00793 6.027e-4,-0.015986 6.027e-4,-0.024598 h 0.00117 V 1.7216518 h -0.00235 C 3.9741351,0.98676434 3.3764663,0.39687461 2.6446554,0.39687461 Z"
       style="fill:url(#radialGradient881-6);fill-opacity:1;fill-rule:evenodd;stroke:#3a3a3a;stroke-width:0.264583;stroke-linecap:round;stroke-linejoin:round;stroke-miterlimit:4;stroke-dasharray:none;stroke-opacity:1"
       id="path889" />
  </g>
</svg>
