<?xml version="1.0" encoding="UTF-8" standalone="no"?>
<!-- Created with Inkscape (http://www.inkscape.org/) -->

<svg
   width="20"
   height="20"
   viewBox="0 0 5.2916665 5.2916668"
   version="1.1"
   id="svg8"
   inkscape:version="1.4 (86a8ad7, 2024-10-11)"
   sodipodi:docname="GeometryLight.svg"
   inkscape:export-filename="..\GeometryLight.png"
   inkscape:export-xdpi="384"
   inkscape:export-ydpi="384"
   xml:space="preserve"
   xmlns:inkscape="http://www.inkscape.org/namespaces/inkscape"
   xmlns:sodipodi="http://sodipodi.sourceforge.net/DTD/sodipodi-0.dtd"
   xmlns="http://www.w3.org/2000/svg"
   xmlns:svg="http://www.w3.org/2000/svg"
   xmlns:rdf="http://www.w3.org/1999/02/22-rdf-syntax-ns#"
   xmlns:cc="http://creativecommons.org/ns#"
   xmlns:dc="http://purl.org/dc/elements/1.1/"><defs
     id="defs2" /><sodipodi:namedview
     id="base"
     pagecolor="#ffffff"
     bordercolor="#666666"
     borderopacity="1.0"
     inkscape:pageopacity="0.0"
     inkscape:pageshadow="2"
     inkscape:zoom="22.627417"
     inkscape:cx="8.8609319"
     inkscape:cy="6.1429902"
     inkscape:document-units="mm"
     inkscape:current-layer="layer1"
     showgrid="false"
     units="px"
     inkscape:window-width="1920"
     inkscape:window-height="1009"
     inkscape:window-x="3832"
     inkscape:window-y="449"
     inkscape:window-maximized="1"
     showguides="false"
     inkscape:showpageshadow="2"
     inkscape:pagecheckerboard="0"
     inkscape:deskcolor="#d1d1d1" /><metadata
     id="metadata5"><rdf:RDF><cc:Work
         rdf:about=""><dc:format>image/svg+xml</dc:format><dc:type
           rdf:resource="http://purl.org/dc/dcmitype/StillImage" /><dc:title /></cc:Work></rdf:RDF></metadata><g
     inkscape:label="Layer 1"
     inkscape:groupmode="layer"
     id="layer1"
     transform="translate(0,-291.70832)"><path
       style="fill:#8a8a8a;stroke-linecap:round;paint-order:fill markers stroke"
       d="m 0.25643717,294.32657 1.18482163,-0.70391 1.1848216,-0.70391 1.2036876,0.70775 1.2036876,0.70776 -1.1961415,0.72699 -1.1961415,0.72699 -1.1923677,-0.73083 z"
       id="path4" /><path
       style="fill:#3a3a3a;stroke-linecap:round;paint-order:fill markers stroke"
       d="M 2.625,292.76562 1.3730469,293.50977 0,294.32422 l 1.3789062,0.8457 1.2617188,0.77344 1.265625,-0.76953 1.3847656,-0.8418 -1.3945312,-0.82031 z m 0.00195,0.30665 1.1367188,0.66796 1.0117187,0.59571 -1.0058593,0.61133 -1.1289063,0.68554 -1.1230469,-0.6875 -1.00390623,-0.61719 0.99609373,-0.59179 z"
       id="path5" /><path
       style="fill:none;stroke:#3a3a3a;stroke-width:0.264583;stroke-linecap:butt;stroke-linejoin:miter;stroke-miterlimit:4;stroke-dasharray:none;stroke-opacity:1"
       d="m 1.4412588,293.62266 2.3960553,1.43859"
       id="path4653"
       inkscape:connector-curvature="0"
       sodipodi:nodetypes="cc" /><path
       style="fill:none;stroke:#3a3a3a;stroke-width:0.264583;stroke-linecap:butt;stroke-linejoin:miter;stroke-miterlimit:4;stroke-dasharray:none;stroke-opacity:1"
       d="M 1.4488049,295.05741 3.829768,293.6265"
       id="path4655"
       inkscape:connector-curvature="0"
       sodipodi:nodetypes="cc" /><path
       style="fill:#3a3a3a;paint-order:stroke fill markers"
       d="m 4.328125,291.70898 -0.8730469,1.55079 -0.59375,1.05859 0.6972657,0.01 v 0.18555 1.45508 l 0.8710937,-1.55078 0.5957031,-1.0586 -0.6972656,-0.01 v -0.18555 z m -0.5292969,2.01954 v 0.0742 l -0.041016,-0.002 z m 0.2890625,0.14648 0.039063,0.002 -0.039063,0.0703 z"
       id="path2" /><path
       style="fill:#bdbdbd;paint-order:stroke fill markers"
       d="m 3.8223788,294.51342 v -0.44553 l -0.2566682,-0.004 -0.2566682,-0.004 0.3769582,-0.67051 0.3769581,-0.67052 v 0.44553 0.44554 l 0.2566681,0.004 0.2566682,0.004 -0.3769581,0.67052 -0.3769581,0.67051 z"
       id="path3" /></g></svg>
