<?xml version="1.0" encoding="UTF-8" standalone="no"?>
<svg
   width="20"
   height="20"
   viewBox="0 0 5.2916665 5.2916668"
   version="1.1"
   id="svg8"
   inkscape:version="1.1.1 (3bf5ae0d25, 2021-09-20)"
   sodipodi:docname="ham_01.svg"
   inkscape:export-filename="D:\projects\git\dcc_platform\icons\ham_01.png"
   inkscape:export-xdpi="96.000008"
   inkscape:export-ydpi="96.000008"
   xmlns:inkscape="http://www.inkscape.org/namespaces/inkscape"
   xmlns:sodipodi="http://sodipodi.sourceforge.net/DTD/sodipodi-0.dtd"
   xmlns="http://www.w3.org/2000/svg"
   xmlns:svg="http://www.w3.org/2000/svg"
   xmlns:rdf="http://www.w3.org/1999/02/22-rdf-syntax-ns#"
   xmlns:cc="http://creativecommons.org/ns#"
   xmlns:dc="http://purl.org/dc/elements/1.1/">
  <defs
     id="defs2">
    <pattern
       y="0"
       x="0"
       height="6"
       width="6"
       patternUnits="userSpaceOnUse"
       id="EMFhbasepattern" />
  </defs>
  <sodipodi:namedview
     id="base"
     pagecolor="#ffffff"
     bordercolor="#666666"
     borderopacity="1.0"
     inkscape:pageopacity="0.0"
     inkscape:pageshadow="2"
     inkscape:zoom="16"
     inkscape:cx="18.15625"
     inkscape:cy="13.5"
     inkscape:document-units="px"
     inkscape:current-layer="layer1"
     showgrid="false"
     units="px"
     inkscape:window-width="1920"
     inkscape:window-height="1017"
     inkscape:window-x="-8"
     inkscape:window-y="-8"
     inkscape:window-maximized="1"
     inkscape:document-rotation="0"
     inkscape:pagecheckerboard="0" />
  <metadata
     id="metadata5">
    <rdf:RDF>
      <cc:Work
         rdf:about="">
        <dc:format>image/svg+xml</dc:format>
        <dc:type
           rdf:resource="http://purl.org/dc/dcmitype/StillImage" />
        <dc:title />
      </cc:Work>
    </rdf:RDF>
  </metadata>
  <g
     inkscape:label="Layer 1"
     inkscape:groupmode="layer"
     id="layer1"
     transform="translate(0,-292.76665)">
    <g
       id="path868">
      <path
         style="color:#000000;fill:#3a3a3a;stroke-linecap:round;stroke-linejoin:round;-inkscape-stroke:none;paint-order:stroke markers fill"
         d="m 1.0585937,294.88477 c -0.28796301,-2.5e-4 -0.52546621,0.23938 -0.5273437,0.52734 6.3849e-4,0.2887 0.23846179,0.52955 0.5273437,0.5293 h 3.1738282 c 0.2888819,2.5e-4 0.5267052,-0.2406 0.5273437,-0.5293 -0.00188,-0.28796 -0.2393807,-0.52759 -0.5273437,-0.52734 h -3.171875 z m -0.00195,0.52734 a 0.26460996,0.26460996 0 0 0 0.00195,0 h 3.1738282 a 0.26460996,0.26460996 0 0 0 0.00195,0 0.26460996,0.26460996 0 0 0 0,0.002 0.26460996,0.26460996 0 0 0 -0.00195,0 H 1.0585937 a 0.26460996,0.26460996 0 0 0 -0.00195,0 0.26460996,0.26460996 0 0 0 0,-0.002 z"
         id="path992" />
      <path
         style="color:#000000;fill:#bdbdbd;stroke-width:0.529167;stroke-linecap:round;stroke-linejoin:round;-inkscape-stroke:none;paint-order:stroke markers fill"
         d="m 1.058594,295.14844 a 0.26458332,0.26458332 0 0 0 -0.26562507,0.26367 0.26458332,0.26458332 0 0 0 0.26562507,0.26562 h 3.1738282 a 0.26458332,0.26458332 0 0 0 0.265625,-0.26562 0.26458332,0.26458332 0 0 0 -0.265625,-0.26367 z"
         id="path994" />
    </g>
    <path
       style="color:#000000;fill:#3a3a3a;stroke-linecap:round;stroke-linejoin:round;-inkscape-stroke:none;paint-order:stroke markers fill"
       d="M 1.0585937,296.47266 C 0.77009545,296.47241 0.53029113,296.71132 0.52929687,297 c 9.9426e-4,0.28868 0.24079858,0.52759 0.52929683,0.52734 h 3.1738282 c 0.2884982,2.5e-4 0.5283026,-0.23866 0.5292968,-0.52734 -9.942e-4,-0.28868 -0.2407986,-0.52759 -0.5292968,-0.52734 h -3.171875 z"
       id="path872" />
    <g
       id="path864">
      <path
         style="color:#000000;fill:#3a3a3a;stroke-linecap:round;stroke-linejoin:round;-inkscape-stroke:none;paint-order:stroke markers fill"
         d="m 1.0585937,293.29687 c -0.28796301,-2.4e-4 -0.52546621,0.23939 -0.5273437,0.52735 6.3849e-4,0.2887 0.23846179,0.52955 0.5273437,0.5293 h 3.1738282 c 0.2888819,2.5e-4 0.5267052,-0.2406 0.5273437,-0.5293 -0.00188,-0.28796 -0.2393807,-0.52759 -0.5273437,-0.52735 h -3.171875 z m -0.00195,0.52735 a 0.26460996,0.26460996 0 0 0 0.00195,0 h 3.1738282 a 0.26460996,0.26460996 0 0 0 0.00195,0 0.26460996,0.26460996 0 0 0 0,0.002 0.26460996,0.26460996 0 0 0 -0.00195,0 H 1.0585937 a 0.26460996,0.26460996 0 0 0 -0.00195,0 0.26460996,0.26460996 0 0 0 0,-0.002 z"
         id="path1002" />
      <path
         style="color:#000000;fill:#bdbdbd;stroke-width:0.529167;stroke-linecap:round;stroke-linejoin:round;-inkscape-stroke:none;paint-order:stroke markers fill"
         d="m 1.058594,293.56055 a 0.26458332,0.26458332 0 0 0 -0.26562507,0.26367 0.26458332,0.26458332 0 0 0 0.26562507,0.26562 h 3.1738282 a 0.26458332,0.26458332 0 0 0 0.265625,-0.26562 0.26458332,0.26458332 0 0 0 -0.265625,-0.26367 z"
         id="path1004" />
    </g>
  </g>
</svg>
