<?xml version="1.0" encoding="UTF-8" standalone="no"?>
<svg
   inkscape:export-ydpi="96.000008"
   inkscape:export-xdpi="96.000008"
   inkscape:export-filename="D:\projects\git\dcc_platform\icons\ham_00.png"
   sodipodi:docname="ham_00.svg"
   inkscape:version="1.1.1 (3bf5ae0d25, 2021-09-20)"
   id="svg8"
   version="1.1"
   viewBox="0 0 5.2916665 5.2916668"
   height="20"
   width="20"
   xmlns:inkscape="http://www.inkscape.org/namespaces/inkscape"
   xmlns:sodipodi="http://sodipodi.sourceforge.net/DTD/sodipodi-0.dtd"
   xmlns="http://www.w3.org/2000/svg"
   xmlns:svg="http://www.w3.org/2000/svg"
   xmlns:rdf="http://www.w3.org/1999/02/22-rdf-syntax-ns#"
   xmlns:cc="http://creativecommons.org/ns#"
   xmlns:dc="http://purl.org/dc/elements/1.1/">
  <defs
     id="defs2">
    <pattern
       id="EMFhbasepattern"
       patternUnits="userSpaceOnUse"
       width="6"
       height="6"
       x="0"
       y="0" />
  </defs>
  <sodipodi:namedview
     inkscape:document-rotation="0"
     inkscape:window-maximized="1"
     inkscape:window-y="-8"
     inkscape:window-x="-8"
     inkscape:window-height="1017"
     inkscape:window-width="1920"
     units="px"
     showgrid="false"
     inkscape:current-layer="layer1"
     inkscape:document-units="px"
     inkscape:cy="11.8125"
     inkscape:cx="11.03125"
     inkscape:zoom="16"
     inkscape:pageshadow="2"
     inkscape:pageopacity="0.0"
     borderopacity="1.0"
     bordercolor="#666666"
     pagecolor="#ffffff"
     id="base"
     inkscape:pagecheckerboard="0" />
  <metadata
     id="metadata5">
    <rdf:RDF>
      <cc:Work
         rdf:about="">
        <dc:format>image/svg+xml</dc:format>
        <dc:type
           rdf:resource="http://purl.org/dc/dcmitype/StillImage" />
        <dc:title />
      </cc:Work>
    </rdf:RDF>
  </metadata>
  <g
     transform="translate(0,-292.76665)"
     id="layer1"
     inkscape:groupmode="layer"
     inkscape:label="Layer 1">
    <g
       id="path868">
      <path
         style="color:#000000;fill:#3a3a3a;stroke-linecap:round;stroke-linejoin:round;-inkscape-stroke:none;paint-order:stroke markers fill"
         d="m 1.0585937,294.88477 c -0.2879629,-2.5e-4 -0.52546621,0.23938 -0.5273437,0.52734 6.3849e-4,0.2887 0.23846191,0.52955 0.5273437,0.5293 h 3.1738282 c 0.2888818,2.5e-4 0.5267052,-0.2406 0.5273437,-0.5293 -0.00188,-0.28796 -0.2393808,-0.52759 -0.5273437,-0.52734 h -3.171875 z m -0.00195,0.52734 a 0.26460978,0.26460978 0 0 0 0.00195,0 h 3.1738282 a 0.26460978,0.26460978 0 0 0 0.00195,0 0.26460978,0.26460978 0 0 0 0,0.002 0.26460978,0.26460978 0 0 0 -0.00195,0 H 1.0585937 a 0.26460978,0.26460978 0 0 0 -0.00195,0 0.26460978,0.26460978 0 0 0 0,-0.002 z"
         id="path994" />
      <path
         style="color:#000000;fill:#bdbdbd;stroke-width:0.529167;stroke-linecap:round;stroke-linejoin:round;-inkscape-stroke:none;paint-order:stroke markers fill"
         d="m 1.0585938,295.14844 a 0.26458332,0.26458332 0 0 0 -0.26562505,0.26367 0.26458332,0.26458332 0 0 0 0.26562505,0.26562 h 3.1738281 a 0.26458332,0.26458332 0 0 0 0.265625,-0.26562 0.26458332,0.26458332 0 0 0 -0.265625,-0.26367 z"
         id="path996" />
    </g>
    <g
       id="path872">
      <path
         style="color:#000000;fill:#3a3a3a;stroke-linecap:round;stroke-linejoin:round;-inkscape-stroke:none;paint-order:stroke markers fill"
         d="M 1.0585937,296.47266 C 0.77009557,296.47241 0.53029113,296.71132 0.52929687,297 c 9.9426e-4,0.28868 0.2407987,0.52759 0.52929683,0.52734 H 4.2324219 C 4.52092,297.52759 4.7607245,297.28868 4.7617187,297 4.7607245,296.71132 4.52092,296.47241 4.2324219,296.47266 h -3.171875 z"
         id="path1000" />
      <path
         style="color:#000000;fill:#bdbdbd;stroke-width:0.529167;stroke-linecap:round;stroke-linejoin:round;-inkscape-stroke:none;paint-order:stroke markers fill"
         d="M 1.0585938,296.73633 A 0.26458332,0.26458332 0 0 0 0.79296875,297 0.26458332,0.26458332 0 0 0 1.0585938,297.26367 H 4.2324219 A 0.26458332,0.26458332 0 0 0 4.4980469,297 0.26458332,0.26458332 0 0 0 4.2324219,296.73633 Z"
         id="path1002" />
    </g>
    <g
       id="path864">
      <path
         style="color:#000000;fill:#3a3a3a;stroke-linecap:round;stroke-linejoin:round;-inkscape-stroke:none;paint-order:stroke markers fill"
         d="m 1.0585937,293.29687 c -0.2879629,-2.4e-4 -0.52546621,0.23939 -0.5273437,0.52735 6.3849e-4,0.2887 0.23846191,0.52955 0.5273437,0.5293 h 3.1738282 c 0.2888818,2.5e-4 0.5267052,-0.2406 0.5273437,-0.5293 -0.00188,-0.28796 -0.2393808,-0.52759 -0.5273437,-0.52735 h -3.171875 z m -0.00195,0.52735 a 0.26460978,0.26460978 0 0 0 0.00195,0 h 3.1738282 a 0.26460978,0.26460978 0 0 0 0.00195,0 0.26460978,0.26460978 0 0 0 0,0.002 0.26460978,0.26460978 0 0 0 -0.00195,0 H 1.0585937 a 0.26460978,0.26460978 0 0 0 -0.00195,0 0.26460978,0.26460978 0 0 0 0,-0.002 z"
         id="path1006" />
      <path
         style="color:#000000;fill:#bdbdbd;stroke-width:0.529167;stroke-linecap:round;stroke-linejoin:round;-inkscape-stroke:none;paint-order:stroke markers fill"
         d="m 1.0585938,293.56055 a 0.26458332,0.26458332 0 0 0 -0.26562505,0.26367 0.26458332,0.26458332 0 0 0 0.26562505,0.26562 h 3.1738281 a 0.26458332,0.26458332 0 0 0 0.265625,-0.26562 0.26458332,0.26458332 0 0 0 -0.265625,-0.26367 z"
         id="path1008" />
    </g>
  </g>
</svg>
