<?xml version="1.0" encoding="UTF-8" standalone="no"?>
<svg
   width="20"
   height="20"
   viewBox="0 0 5.2916665 5.2916668"
   version="1.1"
   id="svg8"
   inkscape:version="1.1.1 (3bf5ae0d25, 2021-09-20)"
   sodipodi:docname="SceneLibSetAttribute.svg"
   inkscape:export-filename="D:\projects\git\dcc_platform\icons\SceneLibSetAttribute.png"
   inkscape:export-xdpi="96"
   inkscape:export-ydpi="96"
   xmlns:inkscape="http://www.inkscape.org/namespaces/inkscape"
   xmlns:sodipodi="http://sodipodi.sourceforge.net/DTD/sodipodi-0.dtd"
   xmlns="http://www.w3.org/2000/svg"
   xmlns:svg="http://www.w3.org/2000/svg"
   xmlns:rdf="http://www.w3.org/1999/02/22-rdf-syntax-ns#"
   xmlns:cc="http://creativecommons.org/ns#"
   xmlns:dc="http://purl.org/dc/elements/1.1/">
  <defs
     id="defs2" />
  <sodipodi:namedview
     id="base"
     pagecolor="#ffffff"
     bordercolor="#666666"
     borderopacity="1.0"
     inkscape:pageopacity="0.0"
     inkscape:pageshadow="2"
     inkscape:zoom="22.627418"
     inkscape:cx="24.770833"
     inkscape:cy="5.7894365"
     inkscape:document-units="px"
     inkscape:current-layer="layer1"
     showgrid="false"
     units="px"
     inkscape:window-width="1920"
     inkscape:window-height="1017"
     inkscape:window-x="-8"
     inkscape:window-y="-8"
     inkscape:window-maximized="1"
     showguides="true"
     inkscape:guide-bbox="true"
     inkscape:document-rotation="0"
     inkscape:pagecheckerboard="0" />
  <metadata
     id="metadata5">
    <rdf:RDF>
      <cc:Work
         rdf:about="">
        <dc:format>image/svg+xml</dc:format>
        <dc:type
           rdf:resource="http://purl.org/dc/dcmitype/StillImage" />
        <dc:title />
      </cc:Work>
    </rdf:RDF>
  </metadata>
  <g
     inkscape:label="Layer 1"
     inkscape:groupmode="layer"
     id="layer1"
     transform="translate(0,-291.70832)"
     style="display:inline">
    <path
       style="fill:#000000;stroke-width:0.26458332"
       d=""
       id="path4593"
       inkscape:connector-curvature="0" />
    <g
       transform="translate(0.23056954,0.03401239)"
       id="g933">
      <g
         id="path909">
        <path
           style="color:#000000;fill:#3a3a3a;fill-rule:evenodd;stroke-linecap:round;stroke-dashoffset:3.9;-inkscape-stroke:none;paint-order:stroke markers fill"
           d="m 3.6679688,292.11914 -0.1386719,0.0273 -1.0136719,0.20313 -2.30273437,2.30078 1.87109377,1.87109 2.3027343,-2.30078 0.2304688,-1.15429 z m -0.1738282,0.57422 0.5488281,0.54687 -0.1445312,0.71875 -1.8125,1.81446 -1.12304687,-1.12305 1.81249997,-1.81445 0.515625,-0.10157 0.00195,0.23438 c -0.165141,0.002 -0.3328318,-0.11437 -0.4570313,0.01 -0.2520283,0.25183 -0.2520283,0.66808 0,0.91992 0.2518387,0.25204 0.6680832,0.25204 0.9199219,0 0.054458,-0.0546 -0.030847,-0.1326 0,-0.19922 l 0.070312,0.0644 -0.00391,-0.60937 -0.066406,0.0293 c -0.031132,-0.0688 0.056134,-0.14898 0,-0.20507 -0.00458,-0.005 -0.00895,-0.009 -0.013672,-0.0137 l -0.00391,-0.004 -0.2734375,-0.26172 z m -0.1152343,0.65625 0.00195,0.002 0.00195,0.002 c 0.049578,0.0495 0.049512,0.12226 0,0.17187 -0.049594,0.0496 -0.1222813,0.0496 -0.171875,0 -0.049631,-0.0496 -0.049631,-0.12228 0,-0.17187 0.048049,-0.048 0.1181235,-0.0501 0.1679688,-0.004 z"
           id="path923" />
        <path
           style="color:#000000;fill:#bdbdbd;fill-rule:evenodd;stroke-width:0.529167;stroke-linecap:round;stroke-dashoffset:3.9;-inkscape-stroke:none;paint-order:stroke markers fill"
           d="m 3.5812766,292.40577 -0.9354433,0.18709 -2.05797534,2.05798 1.49670934,1.49671 2.0579753,-2.05798 0.1870887,-0.93544 z m -0.023021,0.75018 a 0.38587034,0.38587034 0 0 1 0.010597,0.0106 0.38587034,0.38587034 0 0 1 3.653e-4,0.54555 0.38587034,0.38587034 0 0 1 -0.5459188,0 0.38587034,0.38587034 0 0 1 0,-0.54591 0.38587034,0.38587034 0 0 1 0.5349567,-0.0102 z"
           id="path925" />
      </g>
      <g
         id="g919"
         transform="rotate(45,2.0618636,294.59604)">
        <rect
           style="fill:#3a3a3a;fill-rule:evenodd;stroke-width:0.529168;stroke-linecap:square;stroke-dashoffset:3.9;paint-order:stroke fill markers"
           id="rect857"
           width="1.0583333"
           height="0.26458007"
           x="1.8520833"
           y="293.82498" />
        <rect
           y="293.82498"
           x="1.3229166"
           height="0.26458332"
           width="0.26458332"
           id="rect855"
           style="fill:#3a3a3a;fill-rule:evenodd;stroke-width:0.529167;stroke-linecap:square;stroke-dashoffset:3.9;paint-order:stroke fill markers" />
        <rect
           y="294.35416"
           x="1.8520833"
           height="0.26458007"
           width="1.0583333"
           id="rect885"
           style="fill:#3a3a3a;fill-rule:evenodd;stroke-width:0.529168;stroke-linecap:square;stroke-dashoffset:3.9;paint-order:stroke fill markers" />
        <rect
           style="fill:#3a3a3a;fill-rule:evenodd;stroke-width:0.529167;stroke-linecap:square;stroke-dashoffset:3.9;paint-order:stroke fill markers"
           id="rect887"
           width="0.26458332"
           height="0.26458332"
           x="1.3229166"
           y="294.35416" />
        <rect
           style="fill:#3a3a3a;fill-rule:evenodd;stroke-width:0.529168;stroke-linecap:square;stroke-dashoffset:3.9;paint-order:stroke fill markers"
           id="rect889"
           width="1.0583333"
           height="0.26458007"
           x="1.8520833"
           y="294.88333" />
        <rect
           y="294.88333"
           x="1.3229166"
           height="0.26458332"
           width="0.26458332"
           id="rect891"
           style="fill:#3a3a3a;fill-rule:evenodd;stroke-width:0.529167;stroke-linecap:square;stroke-dashoffset:3.9;paint-order:stroke fill markers" />
      </g>
    </g>
  </g>
  <g
     inkscape:groupmode="layer"
     id="layer2"
     inkscape:label="Layer 2"
     style="display:none">
    <path
       style="display:inline;fill:none;stroke:#bdbdbd;stroke-width:0.238125;stroke-linecap:round;stroke-linejoin:round;stroke-miterlimit:4;stroke-dasharray:none;stroke-opacity:1;paint-order:stroke fill markers"
       d="M 0.34231953,3.6297402 2.6458448,2.3689501 4.9493786,3.6297502"
       id="path4673"
       inkscape:connector-curvature="0" />
    <path
       inkscape:connector-curvature="0"
       id="path4671"
       d="M 0.34230923,2.6458302 2.6458345,1.3850401 4.9493685,2.6458402"
       style="display:inline;fill:none;stroke:#bdbdbd;stroke-width:0.238125;stroke-linecap:round;stroke-linejoin:round;stroke-miterlimit:4;stroke-dasharray:none;stroke-opacity:1;paint-order:stroke fill markers" />
    <path
       style="display:inline;fill:none;stroke:#bdbdbd;stroke-width:0.238125;stroke-linecap:round;stroke-linejoin:round;stroke-miterlimit:4;stroke-dasharray:none;stroke-opacity:1;paint-order:stroke fill markers"
       d="m 0.34231953,1.6619001 2.30352527,-1.26079 2.3035338,1.2608"
       id="path4669"
       inkscape:connector-curvature="0" />
    <path
       style="display:inline;opacity:1;fill:none;stroke:#b6306a;stroke-width:0.238125;stroke-linecap:round;stroke-linejoin:round;stroke-miterlimit:4;stroke-dasharray:none;stroke-opacity:1"
       d="M 0.34230923,1.6619101 2.6458495,2.9227102 4.9493894,1.6619101"
       id="path4660"
       inkscape:connector-curvature="0" />
    <path
       style="display:inline;opacity:1;fill:none;stroke:#207971;stroke-width:0.238125;stroke-linecap:round;stroke-linejoin:round;stroke-miterlimit:4;stroke-dasharray:none;stroke-opacity:1"
       d="M 0.34230923,2.6458302 2.6458495,3.9066301 4.9493894,2.6458302"
       id="path4662"
       inkscape:connector-curvature="0" />
    <path
       style="display:inline;opacity:1;fill:none;stroke:#308cad;stroke-width:0.238125;stroke-linecap:round;stroke-linejoin:round;stroke-miterlimit:4;stroke-dasharray:none;stroke-opacity:1"
       d="M 0.34230923,3.6297502 2.6458495,4.8905501 4.9493894,3.6297502"
       id="path4664"
       inkscape:connector-curvature="0" />
  </g>
</svg>
