<?xml version="1.0" encoding="UTF-8" standalone="no"?>
<svg
   inkscape:export-ydpi="96"
   inkscape:export-xdpi="96"
   inkscape:export-filename="D:\projects\git\dcc_platform\icons\SceneLibPrune.png"
   sodipodi:docname="SceneLibPrune.svg"
   inkscape:version="1.1.1 (3bf5ae0d25, 2021-09-20)"
   id="svg8"
   version="1.1"
   viewBox="0 0 5.2916665 5.2916668"
   height="20"
   width="20"
   xmlns:inkscape="http://www.inkscape.org/namespaces/inkscape"
   xmlns:sodipodi="http://sodipodi.sourceforge.net/DTD/sodipodi-0.dtd"
   xmlns="http://www.w3.org/2000/svg"
   xmlns:svg="http://www.w3.org/2000/svg"
   xmlns:rdf="http://www.w3.org/1999/02/22-rdf-syntax-ns#"
   xmlns:cc="http://creativecommons.org/ns#"
   xmlns:dc="http://purl.org/dc/elements/1.1/">
  <defs
     id="defs2" />
  <sodipodi:namedview
     inkscape:document-rotation="0"
     inkscape:guide-bbox="true"
     showguides="true"
     inkscape:window-maximized="1"
     inkscape:window-y="-8"
     inkscape:window-x="-8"
     inkscape:window-height="1017"
     inkscape:window-width="1920"
     units="px"
     showgrid="false"
     inkscape:current-layer="layer1"
     inkscape:document-units="px"
     inkscape:cy="1.8561552"
     inkscape:cx="22.67161"
     inkscape:zoom="11.313709"
     inkscape:pageshadow="2"
     inkscape:pageopacity="0.0"
     borderopacity="1.0"
     bordercolor="#666666"
     pagecolor="#ffffff"
     id="base"
     inkscape:pagecheckerboard="0" />
  <metadata
     id="metadata5">
    <rdf:RDF>
      <cc:Work
         rdf:about="">
        <dc:format>image/svg+xml</dc:format>
        <dc:type
           rdf:resource="http://purl.org/dc/dcmitype/StillImage" />
        <dc:title />
      </cc:Work>
    </rdf:RDF>
  </metadata>
  <g
     style="display:inline"
     transform="translate(0,-291.70832)"
     id="layer1"
     inkscape:groupmode="layer"
     inkscape:label="Layer 1">
    <path
       inkscape:connector-curvature="0"
       id="path4593"
       d=""
       style="fill:#000000;stroke-width:0.26458332" />
    <g
       id="rect833">
      <path
         style="color:#000000;fill:#3a3a3a;fill-rule:evenodd;stroke-linecap:round;stroke-dashoffset:3.9;-inkscape-stroke:none;paint-order:stroke fill markers"
         d="m 1.4550781,293.29492 c -0.655029,0 -1.19140623,0.53638 -1.19140622,1.19141 0,0.65503 0.53637722,1.1914 1.19140622,1.1914 0.655029,0 1.1914063,-0.53637 1.1914063,-1.1914 0,-0.65503 -0.5363773,-1.19141 -1.1914063,-1.19141 z m 0,0.5293 c 0.3710239,0 0.6621094,0.29108 0.6621094,0.66211 0,0.37102 -0.2910855,0.66211 -0.6621094,0.66211 -0.3710239,0 -0.66210935,-0.29109 -0.66210935,-0.66211 0,-0.37103 0.29108545,-0.66211 0.66210935,-0.66211 z"
         id="path917" />
      <path
         style="color:#000000;fill:#8a8a8a;fill-rule:evenodd;stroke-width:0.529167;stroke-linecap:round;stroke-dashoffset:3.9;-inkscape-stroke:none;paint-order:stroke fill markers"
         d="m 1.4552083,293.56039 c 0.513027,0 0.9260415,0.41302 0.9260415,0.92605 0,0.51302 -0.4130145,0.92604 -0.9260415,0.92604 -0.51302698,0 -0.92604148,-0.41302 -0.92604148,-0.92604 0,-0.51303 0.4130145,-0.92605 0.92604148,-0.92605 z"
         id="path919" />
    </g>
    <g
       id="rect831">
      <path
         style="color:#000000;fill:#3a3a3a;fill-rule:evenodd;stroke-linecap:round;stroke-dashoffset:3.9;-inkscape-stroke:none;paint-order:stroke fill markers"
         d="m 1.5878906,291.97266 v 0.26562 2.11524 H 3.96875 v -2.38086 z m 0.5292969,0.52929 h 1.3222656 v 1.32227 H 2.1171875 Z"
         id="path923" />
      <path
         style="color:#000000;fill:#bdbdbd;fill-rule:evenodd;stroke-width:0.529167;stroke-linecap:round;stroke-dashoffset:3.9;-inkscape-stroke:none;paint-order:stroke fill markers"
         d="m 1.852083,292.23749 h 1.8520833 v 1.85208 H 1.852083 Z"
         id="path925" />
    </g>
    <g
       id="rect4485">
      <path
         style="color:#000000;fill:#3a3a3a;fill-rule:evenodd;stroke-linecap:round;stroke-dashoffset:3.9;-inkscape-stroke:none;paint-order:stroke fill markers"
         d="m 2.9550781,293.91602 -0.7480468,0.74804 0.1875,0.1875 0.5605468,0.56055 -0.7480468,0.74805 0.7480468,0.75 0.7480469,-0.75 0.75,0.75 0.7480469,-0.75 -0.7480469,-0.74805 0.7480469,-0.74805 -0.7480469,-0.74804 -0.75,0.74804 z"
         id="path929" />
      <path
         style="color:#000000;fill:#bdbdbd;fill-rule:evenodd;stroke-width:0.529169;stroke-linecap:round;stroke-dashoffset:3.9;-inkscape-stroke:none;paint-order:stroke fill markers"
         d="m 2.581637,294.66413 0.7484656,0.74847 -0.7483547,0.74835 0.3740665,0.37407 0.7483546,-0.74836 0.7483524,0.74836 0.3741773,-0.37418 -0.7483523,-0.74835 0.7483548,-0.74836 -0.3740666,-0.37407 -0.7483548,0.74836 -0.7484654,-0.74847 z"
         id="path931" />
    </g>
  </g>
  <g
     style="display:none"
     inkscape:label="Layer 2"
     id="layer2"
     inkscape:groupmode="layer">
    <path
       inkscape:connector-curvature="0"
       id="path4673"
       d="M 0.34231953,3.6297402 2.6458448,2.3689501 4.9493786,3.6297502"
       style="display:inline;fill:none;stroke:#bdbdbd;stroke-width:0.238125;stroke-linecap:round;stroke-linejoin:round;stroke-miterlimit:4;stroke-dasharray:none;stroke-opacity:1;paint-order:stroke fill markers" />
    <path
       style="display:inline;fill:none;stroke:#bdbdbd;stroke-width:0.238125;stroke-linecap:round;stroke-linejoin:round;stroke-miterlimit:4;stroke-dasharray:none;stroke-opacity:1;paint-order:stroke fill markers"
       d="M 0.34230923,2.6458302 2.6458345,1.3850401 4.9493685,2.6458402"
       id="path4671"
       inkscape:connector-curvature="0" />
    <path
       inkscape:connector-curvature="0"
       id="path4669"
       d="m 0.34231953,1.6619001 2.30352527,-1.26079 2.3035338,1.2608"
       style="display:inline;fill:none;stroke:#bdbdbd;stroke-width:0.238125;stroke-linecap:round;stroke-linejoin:round;stroke-miterlimit:4;stroke-dasharray:none;stroke-opacity:1;paint-order:stroke fill markers" />
    <path
       inkscape:connector-curvature="0"
       id="path4660"
       d="M 0.34230923,1.6619101 2.6458495,2.9227102 4.9493894,1.6619101"
       style="display:inline;opacity:1;fill:none;stroke:#b6306a;stroke-width:0.238125;stroke-linecap:round;stroke-linejoin:round;stroke-miterlimit:4;stroke-dasharray:none;stroke-opacity:1" />
    <path
       inkscape:connector-curvature="0"
       id="path4662"
       d="M 0.34230923,2.6458302 2.6458495,3.9066301 4.9493894,2.6458302"
       style="display:inline;opacity:1;fill:none;stroke:#207971;stroke-width:0.238125;stroke-linecap:round;stroke-linejoin:round;stroke-miterlimit:4;stroke-dasharray:none;stroke-opacity:1" />
    <path
       inkscape:connector-curvature="0"
       id="path4664"
       d="M 0.34230923,3.6297502 2.6458495,4.8905501 4.9493894,3.6297502"
       style="display:inline;opacity:1;fill:none;stroke:#308cad;stroke-width:0.238125;stroke-linecap:round;stroke-linejoin:round;stroke-miterlimit:4;stroke-dasharray:none;stroke-opacity:1" />
  </g>
</svg>
