<?xml version="1.0" encoding="UTF-8" standalone="no"?>
<svg
   width="20"
   height="20"
   viewBox="0 0 5.2916665 5.2916668"
   version="1.1"
   id="svg8"
   inkscape:version="1.1.1 (3bf5ae0d25, 2021-09-20)"
   sodipodi:docname="nurbspatch.svg"
   inkscape:export-filename="D:\projects\git\dcc_platform\icons\nurbspatch.png"
   inkscape:export-xdpi="96.000008"
   inkscape:export-ydpi="96.000008"
   xmlns:inkscape="http://www.inkscape.org/namespaces/inkscape"
   xmlns:sodipodi="http://sodipodi.sourceforge.net/DTD/sodipodi-0.dtd"
   xmlns="http://www.w3.org/2000/svg"
   xmlns:svg="http://www.w3.org/2000/svg"
   xmlns:rdf="http://www.w3.org/1999/02/22-rdf-syntax-ns#"
   xmlns:cc="http://creativecommons.org/ns#"
   xmlns:dc="http://purl.org/dc/elements/1.1/">
  <sodipodi:namedview
     id="base"
     pagecolor="#ffffff"
     bordercolor="#666666"
     borderopacity="1.0"
     inkscape:pageopacity="0.0"
     inkscape:pageshadow="2"
     inkscape:zoom="22.627418"
     inkscape:cx="5.0602327"
     inkscape:cy="9.1039994"
     inkscape:document-units="mm"
     inkscape:current-layer="layer1"
     showgrid="false"
     units="px"
     inkscape:window-width="1920"
     inkscape:window-height="1017"
     inkscape:window-x="-8"
     inkscape:window-y="-8"
     inkscape:window-maximized="1"
     showguides="false"
     inkscape:document-rotation="0"
     inkscape:pagecheckerboard="0" />
  <defs
     id="defs2" />
  <metadata
     id="metadata5">
    <rdf:RDF>
      <cc:Work
         rdf:about="">
        <dc:format>image/svg+xml</dc:format>
        <dc:type
           rdf:resource="http://purl.org/dc/dcmitype/StillImage" />
        <dc:title />
      </cc:Work>
    </rdf:RDF>
  </metadata>
  <g
     inkscape:label="Layer 1"
     inkscape:groupmode="layer"
     id="layer1"
     transform="translate(0,-291.70832)">
    <g
       aria-label="N"
       id="text836"
       style="font-weight:900;font-size:3.09196px;line-height:1.25;font-family:Arial;-inkscape-font-specification:'Arial Heavy';letter-spacing:0px;word-spacing:0px;stroke-width:0.264583" />
    <g
       id="path836">
      <path
         style="color:#000000;fill:#bdbdbd;stroke-width:0.264583px;-inkscape-stroke:none"
         d="m 0.53787989,295.75411 c 0,0 -0.0254571,-0.56098 0.26893996,-1.09914 0.29439705,-0.53816 1.04285485,-0.82247 1.43824405,-1.41486 0.3953892,-0.59239 0.3486861,-1.17761 0.3486861,-1.17761 0,0 0.7811232,-0.0863 1.3125001,0.12695 0.5313769,0.2132 0.8339844,0.65625 0.8339844,0.65625 0,0 0.048955,0.47603 -0.2734927,1.0726 -0.3224478,0.59657 -1.1449209,0.9467 -1.4850163,1.50841 -0.3400954,0.56171 -0.2806329,1.21607 -0.2806329,1.21607 0,0 -0.7298021,-0.0133 -1.3096207,-0.26894 -0.57981857,-0.25564 -0.85359201,-0.61973 -0.85359201,-0.61973 z"
         id="path827" />
      <path
         style="color:#000000;fill:#3a3a3a;-inkscape-stroke:none"
         d="m 2.5800781,291.93164 -0.1289062,0.0137 0.00977,0.12696 c 0,0 0.044213,0.53882 -0.3261719,1.09375 -0.1817218,0.27226 -0.4546967,0.48449 -0.7285156,0.69726 -0.2738189,0.21277 -0.54969886,0.42663 -0.71484375,0.72852 C 0.37689134,295.16673 0.40625,295.75977 0.40625,295.75977 l 0.001953,0.041 0.0234375,0.0332 c 0,0 0.29807101,0.39202 0.90624997,0.66016 0.615763,0.27149 1.3613282,0.28125 1.3613282,0.28125 l 0.1464843,0.002 -0.013672,-0.14648 c 0,0 -0.049309,-0.61784 0.2636718,-1.13477 0.1518839,-0.25085 0.4294282,-0.474 0.71875,-0.70703 0.2893219,-0.23303 0.5910833,-0.47844 0.7695313,-0.80859 0.3391078,-0.62739 0.2871093,-1.14844 0.2871093,-1.14844 l -0.00195,-0.0332 -0.019531,-0.0274 c 0,0 -0.3204805,-0.47475 -0.8945313,-0.70507 -0.5844131,-0.23454 -1.375,-0.13477 -1.375,-0.13477 z m 0.1035157,0.26953 c 0.084513,-0.007 0.7246572,-0.0689 1.1738281,0.11133 0.4692955,0.18829 0.7205526,0.55351 0.7421875,0.58398 0.00287,0.0305 0.044388,0.41433 -0.25,0.95899 -0.1439995,0.26642 -0.413622,0.49496 -0.7011719,0.72656 -0.2875499,0.2316 -0.5910857,0.46454 -0.7792969,0.77539 -0.320798,0.52984 -0.2697114,0.99122 -0.2617187,1.13281 -0.095744,-0.004 -0.6596108,-0.0167 -1.1621094,-0.23828 -0.52572107,-0.23179 -0.74133912,-0.52185 -0.76367188,-0.55078 -0.001236,-0.0449 -0.0195906,-0.50389 0.24218751,-0.98242 0.12925187,-0.23627 0.37167527,-0.43446 0.64453127,-0.64648 0.272856,-0.21203 0.5734424,-0.43769 0.7871094,-0.75782 0.3709972,-0.55584 0.3321298,-0.98999 0.328125,-1.11328 z"
         id="path829" />
    </g>
  </g>
</svg>
