<?xml version="1.0" encoding="UTF-8" standalone="no"?>
<svg
   inkscape:export-ydpi="96"
   inkscape:export-xdpi="96"
   inkscape:export-filename="D:\projects\git\dcc_platform\icons\backdrop.png"
   sodipodi:docname="palette.svg"
   inkscape:version="1.4 (86a8ad7, 2024-10-11)"
   id="svg8"
   version="1.1"
   viewBox="0 0 5.2916665 5.2916668"
   height="20"
   width="20"
   xml:space="preserve"
   xmlns:inkscape="http://www.inkscape.org/namespaces/inkscape"
   xmlns:sodipodi="http://sodipodi.sourceforge.net/DTD/sodipodi-0.dtd"
   xmlns="http://www.w3.org/2000/svg"
   xmlns:svg="http://www.w3.org/2000/svg"
   xmlns:rdf="http://www.w3.org/1999/02/22-rdf-syntax-ns#"
   xmlns:cc="http://creativecommons.org/ns#"
   xmlns:dc="http://purl.org/dc/elements/1.1/"><defs
     id="defs2" /><sodipodi:namedview
     inkscape:document-rotation="0"
     inkscape:guide-bbox="true"
     showguides="true"
     inkscape:window-maximized="1"
     inkscape:window-y="449"
     inkscape:window-x="3832"
     inkscape:window-height="1009"
     inkscape:window-width="1920"
     units="px"
     showgrid="false"
     inkscape:current-layer="layer1"
     inkscape:document-units="px"
     inkscape:cy="9.4796503"
     inkscape:cx="8.3416503"
     inkscape:zoom="45.254834"
     inkscape:pageshadow="2"
     inkscape:pageopacity="0.0"
     borderopacity="1.0"
     bordercolor="#666666"
     pagecolor="#ffffff"
     id="base"
     inkscape:showpageshadow="0"
     inkscape:pagecheckerboard="1"
     inkscape:deskcolor="#505050" /><metadata
     id="metadata5"><rdf:RDF><cc:Work
         rdf:about=""><dc:format>image/svg+xml</dc:format><dc:type
           rdf:resource="http://purl.org/dc/dcmitype/StillImage" /></cc:Work></rdf:RDF></metadata><g
     transform="translate(0,-291.70832)"
     id="layer1"
     inkscape:groupmode="layer"
     inkscape:label="Layer 1"><g
       id="path1"><path
         style="fill:#323232;paint-order:stroke fill markers"
         d="m 2.625,292.33398 c -0.9545548,0.007 -1.4885951,0.66313 -1.5898438,0.79883 -0.54435935,0.72892 -0.54435935,1.71249 0,2.44141 0.1010197,0.13528 0.2534052,0.28766 0.3886719,0.38867 0.2754346,0.20572 0.5900824,0.314 0.8652344,0.36133 0.137576,0.0237 0.2660011,0.0329 0.3808594,0.0254 0.1148582,-0.007 0.2164693,-0.01 0.3398437,-0.11328 0.096719,-0.081 0.1732003,-0.19155 0.1933594,-0.31055 0.020159,-0.119 -0.010556,-0.21106 -0.027344,-0.26758 -0.016143,-0.0543 -0.057501,-0.1339 -0.1074219,-0.20117 -0.034152,-0.0461 -0.01569,-0.0389 -0.015625,-0.0391 1.547e-4,0.003 0.011109,-0.008 0.015625,-0.0137 0.027047,-0.002 0.086738,-0.002 0.203125,-0.004 h 0.00195 c 0.2841171,-0.005 0.3943261,-0.0186 0.5253906,-0.0606 0.4283164,-0.1372 0.7455856,-0.49407 0.8398438,-0.9375 0.021906,-0.10298 0.1134926,-0.68009 -0.3242188,-1.26953 -0.1309923,-0.17638 -0.6431324,-0.76116 -1.5957031,-0.79687 -0.032859,-0.001 -0.064269,-0.002 -0.09375,-0.002 z m 0.00391,0.5293 c 0.024183,-1.8e-4 0.048009,0.001 0.070312,0.002 0.1327286,0.005 0.1034823,0.0759 0.2128906,0.10352 -0.1082174,0.0821 -0.2404112,0.12536 -0.2636719,0.26367 -0.022234,-0.13245 -0.1528752,-0.17016 -0.2539062,-0.25195 0.1173872,-0.0339 0.092377,-0.11613 0.234375,-0.11719 z m -0.4667969,0.41406 h 0.00195 c 0.00878,0 0.00977,9.9e-4 0.00977,0.01 -1.23e-5,0.009 -0.00101,0.01 -0.00977,0.01 h -0.00195 c -0.00876,10e-6 -0.00975,-0.001 -0.00977,-0.01 -4.3e-6,-0.009 9.834e-4,-0.01 0.00977,-0.01 z m 0.9707031,0 c 0.00878,0 0.011723,9.9e-4 0.011719,0.01 -1.24e-5,0.009 -0.00296,0.01 -0.011719,0.01 -0.00876,10e-6 -0.00975,-0.001 -0.00977,-0.01 -4.3e-6,-0.009 9.834e-4,-0.01 0.00977,-0.01 z m 0.5039063,0.0469 c 0.043872,0.0463 0.2375381,0.10296 0.2539062,0.125 0.1221924,0.16455 0.056918,0.18884 0.087891,0.32422 -0.096847,-0.0919 -0.1178178,-0.25957 -0.2597656,-0.25977 -0.2949462,-1.4e-4 -0.5392059,0.24412 -0.5390625,0.53906 -1.434e-4,0.29495 0.2441163,0.53921 0.5390625,0.53907 0.2081189,-2.9e-4 0.2914388,-0.20527 0.3808594,-0.38086 -0.00146,0.009 0.02189,0.0801 0.021484,0.082 -0.05772,0.27153 -0.2301387,0.46153 -0.4843749,0.54297 -0.1000889,0.032 -0.094242,0.0299 -0.3730469,0.0351 -0.1204176,0.002 -0.1856454,0.002 -0.2382813,0.006 -0.050588,0.003 -0.1156668,0.0183 -0.1484375,0.0312 -0.1541372,0.0617 -0.2653704,0.17461 -0.3222656,0.33203 -0.038193,0.10622 -0.059151,0.33292 0.087891,0.53125 0.046707,0.0629 0.016459,0.002 0.027344,0.0391 0.013583,0.0457 0.00787,0.0481 0.011719,0.0254 0.00384,-0.0227 0.024105,-0.0358 -0.011719,-0.006 0.057103,-0.0478 0.025844,-0.0138 -0.035156,-0.01 -0.061,0.004 -0.1534764,3e-5 -0.2558593,-0.0176 -0.2047659,-0.0352 -0.4507111,-0.12328 -0.6386719,-0.26367 -0.033997,-0.0254 -0.2558643,-0.24725 -0.28125,-0.28125 -0.2322166,-0.31095 -0.2982007,-0.66801 -0.2675782,-1.02344 0.091186,0.17109 0.1700844,0.3751 0.375,0.375 0.2945662,1.5e-4 0.5386483,-0.24449 0.5390626,-0.53906 1.433e-4,-0.29494 -0.2441164,-0.5392 -0.5390626,-0.53906 -0.1122077,-5e-5 -0.1181066,0.14495 -0.2050781,0.20508 0.044449,-0.094 0.032541,-0.19992 0.097656,-0.28711 0.00996,-0.0134 0.1827988,-0.0719 0.2167968,-0.10938 0.041743,0.25526 0.2224792,0.48646 0.4882813,0.48633 0.2640405,-6.6e-4 0.4414243,-0.23111 0.484375,-0.48437 0.043103,0.2537 0.2196923,0.4845 0.484375,0.48437 0.2743249,1.3e-4 0.4731158,-0.23493 0.5039063,-0.50195 z m 0.082031,0.71875 c 0.00876,10e-6 0.00977,0.001 0.00977,0.01 4.3e-6,0.009 -0.00101,0.01 -0.00977,0.01 -0.00878,0 -0.00977,-9.8e-4 -0.00977,-0.01 -4.3e-6,-0.009 9.834e-4,-0.01 0.00977,-0.01 z m -2.1523438,0.0176 c 0.00878,-10e-6 0.011723,9.8e-4 0.011719,0.01 -1.23e-5,0.009 -0.00296,0.01 -0.011719,0.01 -0.00876,0 -0.00975,-0.001 -0.00977,-0.01 -4.2e-6,-0.009 9.835e-4,-0.01 0.00977,-0.01 z"
         id="path4" /><path
         style="fill:#bdbdbd;paint-order:stroke fill markers"
         d="m 2.6272298,292.59922 c -0.8317989,0.006 -1.3028075,0.58864 -1.3802775,0.69247 -0.47734142,0.63918 -0.47734142,1.48575 0,2.12493 0.063203,0.0846 0.2497145,0.27115 0.3343465,0.33435 0.4633954,0.3461 1.1252624,0.39361 1.2578044,0.28267 0.132542,-0.11094 0.1140868,-0.19697 0.083716,-0.29921 -0.013514,-0.0455 -0.018865,-0.0548 -0.067179,-0.11989 -0.090597,-0.1222 -0.070289,-0.23205 -0.05116,-0.28525 0.027268,-0.0754 0.094331,-0.14437 0.1700154,-0.17467 0.034034,-0.0144 0.053361,-0.0156 0.2935222,-0.0196 0.2814609,-0.005 0.334525,-0.0105 0.4501017,-0.0475 0.3412763,-0.10932 0.5854693,-0.38252 0.6614583,-0.74 0.013044,-0.0613 0.1009507,-0.54733 -0.2769857,-1.05627 -0.1038658,-0.13986 -0.5454543,-0.65911 -1.3937133,-0.69091 -0.027581,-0.001 -0.054817,-0.001 -0.081649,-0.001 z m -0.4640544,0.4129 a 0.27478647,0.27478647 0 0 1 0.2749187,0.27492 0.27478647,0.27478647 0 0 1 -0.2749187,0.2744 0.27478647,0.27478647 0 0 1 -0.2749186,-0.2744 0.27478647,0.27478647 0 0 1 0.2749186,-0.27492 z m 0.9704834,0 a 0.27478647,0.27478647 0 0 1 0.2749187,0.27492 0.27478647,0.27478647 0 0 1 -0.2749187,0.2744 0.27478647,0.27478647 0 0 1 -0.2749186,-0.2744 0.27478647,0.27478647 0 0 1 0.2749186,-0.27492 z m 0.5849773,0.76584 a 0.27478647,0.27478647 0 0 1 0.2744018,0.27492 0.27478647,0.27478647 0 0 1 -0.2744018,0.27492 0.27478647,0.27478647 0 0 1 -0.2749187,-0.27492 0.27478647,0.27478647 0 0 1 0.2749187,-0.27492 z m -2.1518067,0.0176 a 0.27478647,0.27478647 0 0 1 0.2749186,0.27492 0.27478647,0.27478647 0 0 1 -0.2749186,0.2744 0.27478647,0.27478647 0 0 1 -0.2749186,-0.2744 0.27478647,0.27478647 0 0 1 0.2749186,-0.27492 z"
         id="path5" /></g></g></svg>
