<?xml version="1.0" encoding="UTF-8" standalone="no"?>
<svg
   inkscape:export-ydpi="96.000008"
   inkscape:export-xdpi="96.000008"
   inkscape:export-filename="D:\projects\git\dcc_platform\icons\points.png"
   sodipodi:docname="points.svg"
   inkscape:version="1.1.1 (3bf5ae0d25, 2021-09-20)"
   id="svg8"
   version="1.1"
   viewBox="0 0 5.2916665 5.2916668"
   height="20"
   width="20"
   xmlns:inkscape="http://www.inkscape.org/namespaces/inkscape"
   xmlns:sodipodi="http://sodipodi.sourceforge.net/DTD/sodipodi-0.dtd"
   xmlns="http://www.w3.org/2000/svg"
   xmlns:svg="http://www.w3.org/2000/svg"
   xmlns:rdf="http://www.w3.org/1999/02/22-rdf-syntax-ns#"
   xmlns:cc="http://creativecommons.org/ns#"
   xmlns:dc="http://purl.org/dc/elements/1.1/">
  <defs
     id="defs2" />
  <sodipodi:namedview
     inkscape:document-rotation="0"
     showguides="false"
     inkscape:window-maximized="1"
     inkscape:window-y="-8"
     inkscape:window-x="-8"
     inkscape:window-height="1017"
     inkscape:window-width="1920"
     units="px"
     showgrid="false"
     inkscape:current-layer="layer1"
     inkscape:document-units="mm"
     inkscape:cy="13.081475"
     inkscape:cx="4.4857086"
     inkscape:zoom="22.627417"
     inkscape:pageshadow="2"
     inkscape:pageopacity="0.0"
     borderopacity="1.0"
     bordercolor="#666666"
     pagecolor="#ffffff"
     id="base"
     inkscape:pagecheckerboard="0" />
  <metadata
     id="metadata5">
    <rdf:RDF>
      <cc:Work
         rdf:about="">
        <dc:format>image/svg+xml</dc:format>
        <dc:type
           rdf:resource="http://purl.org/dc/dcmitype/StillImage" />
        <dc:title />
      </cc:Work>
    </rdf:RDF>
  </metadata>
  <g
     transform="translate(0,-292.76665)"
     id="layer1"
     inkscape:groupmode="layer"
     inkscape:label="Layer 1">
    <g
       id="circle4516">
      <path
         style="color:#000000;fill:#3a3a3a;stroke-linecap:round;stroke-linejoin:round;stroke-dashoffset:3.9;-inkscape-stroke:none;paint-order:stroke fill markers"
         d="m 0.97460938,294.89258 c -0.30142158,0 -0.54882813,0.24936 -0.54882813,0.55078 0,0.30142 0.24740655,0.54883 0.54882813,0.54883 0.30142162,0 0.55078122,-0.24741 0.55078122,-0.54883 0,-0.30142 -0.2493596,-0.55078 -0.55078122,-0.55078 z m 0,0.4082 c 0.0805579,0 0.14257812,0.062 0.14257812,0.14258 0,0.0806 -0.06202,0.14062 -0.14257812,0.14062 -0.080558,0 -0.140625,-0.0601 -0.140625,-0.14062 0,-0.0806 0.060067,-0.14258 0.140625,-0.14258 z"
         id="path914" />
      <path
         style="color:#000000;fill:#bdbdbd;stroke-width:0.408674;stroke-linecap:round;stroke-linejoin:round;stroke-dashoffset:3.9;-inkscape-stroke:none;paint-order:stroke fill markers"
         d="m 1.3211924,295.44241 a 0.34581792,0.34581792 0 0 1 -0.34581794,0.34582 0.34581792,0.34581792 0 0 1 -0.34581792,-0.34582 0.34581792,0.34581792 0 0 1 0.34581792,-0.34581 0.34581792,0.34581792 0 0 1 0.34581794,0.34581 z"
         id="path916" />
    </g>
    <g
       id="circle4534">
      <path
         style="color:#000000;fill:#3a3a3a;stroke-linecap:round;stroke-linejoin:round;stroke-dashoffset:3.9;-inkscape-stroke:none;paint-order:stroke fill markers"
         d="m 2.3964844,293.07422 c -0.3014216,0 -0.5507813,0.24741 -0.5507813,0.54883 0,0.30142 0.2493597,0.55078 0.5507813,0.55078 0.3014216,0 0.5488281,-0.24936 0.5488281,-0.55078 0,-0.30142 -0.2474065,-0.54883 -0.5488281,-0.54883 z m 0,0.4082 c 0.080558,0 0.140625,0.0601 0.140625,0.14063 0,0.0806 -0.060067,0.14257 -0.140625,0.14257 -0.080558,0 -0.1425781,-0.062 -0.1425781,-0.14257 0,-0.0806 0.06202,-0.14063 0.1425781,-0.14063 z"
         id="path920" />
      <path
         style="color:#000000;fill:#bdbdbd;stroke-width:0.408674;stroke-linecap:round;stroke-linejoin:round;stroke-dashoffset:3.9;-inkscape-stroke:none;paint-order:stroke fill markers"
         d="m 2.7413379,293.62381 a 0.34581792,0.34581792 0 0 1 -0.3458179,0.34582 0.34581792,0.34581792 0 0 1 -0.345818,-0.34582 0.34581792,0.34581792 0 0 1 0.345818,-0.34582 0.34581792,0.34581792 0 0 1 0.3458179,0.34582 z"
         id="path922" />
    </g>
    <g
       id="circle4536">
      <path
         style="color:#000000;fill:#3a3a3a;stroke-linecap:round;stroke-linejoin:round;stroke-dashoffset:3.9;-inkscape-stroke:none;paint-order:stroke fill markers"
         d="m 2.4980469,295.12695 c -0.3014216,0 -0.5507813,0.24936 -0.5507813,0.55078 0,0.30143 0.2493597,0.55079 0.5507813,0.55079 0.3014216,0 0.5488281,-0.24936 0.5488281,-0.55079 0,-0.30142 -0.2474065,-0.55078 -0.5488281,-0.55078 z m 0,0.40821 c 0.080558,0 0.140625,0.062 0.140625,0.14257 0,0.0806 -0.060067,0.14063 -0.140625,0.14063 -0.080558,0 -0.1425781,-0.0601 -0.1425781,-0.14063 0,-0.0806 0.06202,-0.14257 0.1425781,-0.14257 z"
         id="path926" />
      <path
         style="color:#000000;fill:#bdbdbd;stroke-width:0.408674;stroke-linecap:round;stroke-linejoin:round;stroke-dashoffset:3.9;-inkscape-stroke:none;paint-order:stroke fill markers"
         d="m 2.8435067,295.6774 a 0.34581792,0.34581792 0 0 1 -0.3458179,0.34582 0.34581792,0.34581792 0 0 1 -0.345818,-0.34582 0.34581792,0.34581792 0 0 1 0.345818,-0.34582 0.34581792,0.34581792 0 0 1 0.3458179,0.34582 z"
         id="path928" />
    </g>
    <g
       id="circle4538">
      <path
         style="color:#000000;fill:#3a3a3a;stroke-linecap:round;stroke-linejoin:round;stroke-dashoffset:3.9;-inkscape-stroke:none;paint-order:stroke fill markers"
         d="m 3.3964844,296.65039 c -0.3014216,0 -0.5507813,0.24936 -0.5507813,0.55078 0,0.30142 0.2493597,0.55078 0.5507813,0.55078 0.3014216,0 0.5488281,-0.24936 0.5488281,-0.55078 0,-0.30142 -0.2474065,-0.55078 -0.5488281,-0.55078 z m 0,0.41016 c 0.080558,0 0.140625,0.0601 0.140625,0.14062 0,0.0806 -0.060067,0.14063 -0.140625,0.14063 -0.080558,0 -0.1425782,-0.0601 -0.1425781,-0.14063 0,-0.0806 0.06202,-0.14062 0.1425781,-0.14062 z"
         id="path932" />
      <path
         style="color:#000000;fill:#bdbdbd;stroke-width:0.408674;stroke-linecap:round;stroke-linejoin:round;stroke-dashoffset:3.9;-inkscape-stroke:none;paint-order:stroke fill markers"
         d="m 3.7418658,297.20117 a 0.34581792,0.34581792 0 0 1 -0.345818,0.34582 0.34581792,0.34581792 0 0 1 -0.3458179,-0.34582 0.34581792,0.34581792 0 0 1 0.3458179,-0.34582 0.34581792,0.34581792 0 0 1 0.345818,0.34582 z"
         id="path934" />
    </g>
    <g
       id="circle4540">
      <path
         style="color:#000000;fill:#3a3a3a;stroke-linecap:round;stroke-linejoin:round;stroke-dashoffset:3.9;-inkscape-stroke:none;paint-order:stroke fill markers"
         d="m 4.3164062,294.19727 c -0.3014215,0 -0.5507812,0.24936 -0.5507812,0.55078 0,0.30142 0.2493597,0.54882 0.5507812,0.54882 0.3014216,0 0.5507813,-0.2474 0.5507813,-0.54882 0,-0.30142 -0.2493597,-0.55078 -0.5507813,-0.55078 z m 0,0.4082 c 0.080558,0 0.140625,0.062 0.140625,0.14258 0,0.0806 -0.060067,0.14062 -0.140625,0.14062 -0.080558,0 -0.140625,-0.0601 -0.140625,-0.14062 0,-0.0806 0.060067,-0.14258 0.140625,-0.14258 z"
         id="path938" />
      <path
         style="color:#000000;fill:#bdbdbd;stroke-width:0.408674;stroke-linecap:round;stroke-linejoin:round;stroke-dashoffset:3.9;-inkscape-stroke:none;paint-order:stroke fill markers"
         d="m 4.6621102,294.74765 a 0.34581792,0.34581792 0 0 1 -0.3458179,0.34582 0.34581792,0.34581792 0 0 1 -0.3458179,-0.34582 0.34581792,0.34581792 0 0 1 0.3458179,-0.34582 0.34581792,0.34581792 0 0 1 0.3458179,0.34582 z"
         id="path940" />
    </g>
  </g>
</svg>
