<?xml version="1.0" encoding="UTF-8" standalone="no"?>
<svg
   width="20"
   height="20"
   viewBox="0 0 5.2916665 5.2916668"
   version="1.1"
   id="svg8"
   inkscape:version="1.1.1 (3bf5ae0d25, 2021-09-20)"
   sodipodi:docname="pointinstancer.svg"
   inkscape:export-filename="D:\projects\git\dcc_platform\icons\pointinstancer.png"
   inkscape:export-xdpi="96"
   inkscape:export-ydpi="96"
   xmlns:inkscape="http://www.inkscape.org/namespaces/inkscape"
   xmlns:sodipodi="http://sodipodi.sourceforge.net/DTD/sodipodi-0.dtd"
   xmlns="http://www.w3.org/2000/svg"
   xmlns:svg="http://www.w3.org/2000/svg"
   xmlns:rdf="http://www.w3.org/1999/02/22-rdf-syntax-ns#"
   xmlns:cc="http://creativecommons.org/ns#"
   xmlns:dc="http://purl.org/dc/elements/1.1/">
  <defs
     id="defs2">
    <pattern
       y="0"
       x="0"
       height="6"
       width="6"
       patternUnits="userSpaceOnUse"
       id="EMFhbasepattern" />
  </defs>
  <sodipodi:namedview
     id="base"
     pagecolor="#ffffff"
     bordercolor="#666666"
     borderopacity="1.0"
     inkscape:pageopacity="0.0"
     inkscape:pageshadow="2"
     inkscape:zoom="11.313709"
     inkscape:cx="-7.7339801"
     inkscape:cy="9.3691644"
     inkscape:document-units="px"
     inkscape:current-layer="layer1"
     showgrid="false"
     units="px"
     inkscape:window-width="1920"
     inkscape:window-height="1017"
     inkscape:window-x="-8"
     inkscape:window-y="-8"
     inkscape:window-maximized="1"
     showguides="true"
     inkscape:guide-bbox="true"
     inkscape:document-rotation="0"
     inkscape:pagecheckerboard="0" />
  <metadata
     id="metadata5">
    <rdf:RDF>
      <cc:Work
         rdf:about="">
        <dc:format>image/svg+xml</dc:format>
        <dc:type
           rdf:resource="http://purl.org/dc/dcmitype/StillImage" />
        <dc:title />
      </cc:Work>
    </rdf:RDF>
  </metadata>
  <g
     inkscape:label="Layer 1"
     inkscape:groupmode="layer"
     id="layer1"
     transform="translate(0,-291.70832)"
     style="display:inline">
    <path
       style="fill:#000000;stroke-width:0.26458332"
       d=""
       id="path4593"
       inkscape:connector-curvature="0" />
    <g
       id="path4581">
      <path
         style="color:#000000;fill:#3a3a3a;-inkscape-stroke:none;paint-order:stroke fill markers"
         d="m 2.6386719,293.53516 -2.5839844,1.68359 2.5839844,1.68555 0.1445312,-0.0937 2.4550781,-1.5918 z m 0.00195,0.63086 1.625,1.05273 -1.6269531,1.05469 -1.6152344,-1.05274 z"
         id="path836" />
      <path
         style="color:#000000;fill:#bdbdbd;stroke-width:0.529167;-inkscape-stroke:none;paint-order:stroke fill markers"
         d="m 2.6394239,296.58808 2.1118173,-1.36883 -2.1118173,-1.36882 -2.09962198,1.36882 z"
         id="path838" />
    </g>
    <g
       id="path4507">
      <path
         style="color:#000000;fill:#3a3a3a;stroke-linecap:round;stroke-dashoffset:3.9;-inkscape-stroke:none;paint-order:stroke fill markers"
         d="m 1.9394531,292.74023 c -0.7538477,0 -1.37109373,0.61752 -1.37109373,1.3711 10e-9,0.75358 0.61724603,1.36914 1.37109373,1.36914 0.7538478,0 1.3710938,-0.61556 1.3710938,-1.36914 0,-0.75358 -0.617246,-1.3711 -1.3710938,-1.3711 z m 0,0.5293 c 0.4680997,0 0.8417969,0.37443 0.8417969,0.8418 0,0.46736 -0.3736972,0.83984 -0.8417969,0.83984 -0.4680996,0 -0.8417968,-0.37248 -0.8417969,-0.83984 10e-8,-0.46737 0.3736973,-0.8418 0.8417969,-0.8418 z"
         id="path842" />
      <path
         style="color:#000000;fill:#9e7efc;stroke-width:0.529167;stroke-linecap:round;stroke-dashoffset:3.9;-inkscape-stroke:none;paint-order:stroke fill markers"
         d="m 3.0454342,294.11108 a 1.1062669,1.105359 0 0 1 -1.1062668,1.10536 1.1062669,1.105359 0 0 1 -1.10626688,-1.10536 1.1062669,1.105359 0 0 1 1.10626688,-1.10535 1.1062669,1.105359 0 0 1 1.1062668,1.10535 z"
         id="path844" />
    </g>
    <g
       id="path4639">
      <path
         style="color:#000000;fill:#3a3a3a;-inkscape-stroke:none;paint-order:stroke fill markers"
         d="m 3.1933594,291.85547 -0.2148438,0.30078 -1.2949219,1.82617 H 2.328125 l -0.7402344,1.04297 h 0.9648438 v 0.67383 h 1.2792969 v -0.67383 h 0.9882812 l -0.75,-1.04297 h 0.6542969 z m 0.00195,0.91015 0.4960938,0.6875 H 3.3535156 3.0371094 2.7089844 Z m 0,0.90821 0.5917969,0.82226 h -0.484375 v 0.67383 H 3.0820313 v -0.67383 H 2.6113281 Z"
         id="path848" />
      <path
         style="color:#000000;fill:#9e7efc;stroke-width:0.529167;-inkscape-stroke:none;paint-order:stroke fill markers"
         d="m 3.1949757,292.30996 -0.9992517,1.40716 c 0.2148878,0 0.4297704,0 0.6446584,0 l -0.7409923,1.04347 h 0.7181588 v 0.67409 h 0.7506557 v -0.67409 h 0.7357765 l -0.7509537,-1.04347 c 0.2182087,0 0.4364118,0 0.6546207,0 z"
         id="path850" />
    </g>
  </g>
  <g
     inkscape:groupmode="layer"
     id="layer2"
     inkscape:label="Layer 2"
     style="display:none">
    <path
       style="display:inline;fill:none;stroke:#bdbdbd;stroke-width:0.238125;stroke-linecap:round;stroke-linejoin:round;stroke-miterlimit:4;stroke-dasharray:none;stroke-opacity:1;paint-order:stroke fill markers"
       d="M 0.34231953,3.6297402 2.6458448,2.3689501 4.9493786,3.6297502"
       id="path4673"
       inkscape:connector-curvature="0" />
    <path
       inkscape:connector-curvature="0"
       id="path4671"
       d="M 0.34230923,2.6458302 2.6458345,1.3850401 4.9493685,2.6458402"
       style="display:inline;fill:none;stroke:#bdbdbd;stroke-width:0.238125;stroke-linecap:round;stroke-linejoin:round;stroke-miterlimit:4;stroke-dasharray:none;stroke-opacity:1;paint-order:stroke fill markers" />
    <path
       style="display:inline;fill:none;stroke:#bdbdbd;stroke-width:0.238125;stroke-linecap:round;stroke-linejoin:round;stroke-miterlimit:4;stroke-dasharray:none;stroke-opacity:1;paint-order:stroke fill markers"
       d="m 0.34231953,1.6619001 2.30352527,-1.26079 2.3035338,1.2608"
       id="path4669"
       inkscape:connector-curvature="0" />
    <path
       style="display:inline;opacity:1;fill:none;stroke:#b6306a;stroke-width:0.238125;stroke-linecap:round;stroke-linejoin:round;stroke-miterlimit:4;stroke-dasharray:none;stroke-opacity:1"
       d="M 0.34230923,1.6619101 2.6458495,2.9227102 4.9493894,1.6619101"
       id="path4660"
       inkscape:connector-curvature="0" />
    <path
       style="display:inline;opacity:1;fill:none;stroke:#207971;stroke-width:0.238125;stroke-linecap:round;stroke-linejoin:round;stroke-miterlimit:4;stroke-dasharray:none;stroke-opacity:1"
       d="M 0.34230923,2.6458302 2.6458495,3.9066301 4.9493894,2.6458302"
       id="path4662"
       inkscape:connector-curvature="0" />
    <path
       style="display:inline;opacity:1;fill:none;stroke:#308cad;stroke-width:0.238125;stroke-linecap:round;stroke-linejoin:round;stroke-miterlimit:4;stroke-dasharray:none;stroke-opacity:1"
       d="M 0.34230923,3.6297502 2.6458495,4.8905501 4.9493894,3.6297502"
       id="path4664"
       inkscape:connector-curvature="0" />
  </g>
</svg>
