<?xml version="1.0" encoding="UTF-8" standalone="no"?>
<svg
   width="20"
   height="20"
   viewBox="0 0 5.2916665 5.2916668"
   version="1.1"
   id="svg8"
   inkscape:version="1.2 (dc2aedaf03, 2022-05-15)"
   sodipodi:docname="render_materialx.svg"
   inkscape:export-filename="..\render_materialx.png"
   inkscape:export-xdpi="96.000008"
   inkscape:export-ydpi="96.000008"
   xml:space="preserve"
   xmlns:inkscape="http://www.inkscape.org/namespaces/inkscape"
   xmlns:sodipodi="http://sodipodi.sourceforge.net/DTD/sodipodi-0.dtd"
   xmlns:xlink="http://www.w3.org/1999/xlink"
   xmlns="http://www.w3.org/2000/svg"
   xmlns:svg="http://www.w3.org/2000/svg"
   xmlns:rdf="http://www.w3.org/1999/02/22-rdf-syntax-ns#"
   xmlns:cc="http://creativecommons.org/ns#"
   xmlns:dc="http://purl.org/dc/elements/1.1/"><defs
     id="defs2"><linearGradient
       inkscape:collect="always"
       id="linearGradient42191"><stop
         style="stop-color:#086175;stop-opacity:0;"
         offset="0"
         id="stop42187" /><stop
         style="stop-color:#ffffff;stop-opacity:0.45121947;"
         offset="0.5"
         id="stop42193" /><stop
         style="stop-color:#ffffff;stop-opacity:0.69512194;"
         offset="0.75"
         id="stop42195" /><stop
         style="stop-color:#25ceee;stop-opacity:0;"
         offset="1"
         id="stop42189" /></linearGradient><linearGradient
       inkscape:collect="always"
       id="linearGradient38164"><stop
         style="stop-color:#086175;stop-opacity:1;"
         offset="0"
         id="stop38160" /><stop
         style="stop-color:#25ceee;stop-opacity:1;"
         offset="1"
         id="stop38162" /></linearGradient><linearGradient
       inkscape:collect="always"
       id="linearGradient34432"><stop
         style="stop-color:#316285;stop-opacity:1;"
         offset="0"
         id="stop34428" /><stop
         style="stop-color:#0a7991;stop-opacity:1;"
         offset="1"
         id="stop34430" /></linearGradient><linearGradient
       inkscape:collect="always"
       id="linearGradient31416"><stop
         style="stop-color:#045c6a;stop-opacity:0;"
         offset="0"
         id="stop31410" /><stop
         style="stop-color:#445e86;stop-opacity:1;"
         offset="0.23671097"
         id="stop31418" /><stop
         style="stop-color:#445e86;stop-opacity:1;"
         offset="0.5"
         id="stop31412" /><stop
         style="stop-color:#445e86;stop-opacity:1;"
         offset="0.80647838"
         id="stop31420" /><stop
         style="stop-color:#045c6a;stop-opacity:0;"
         offset="1"
         id="stop31414" /></linearGradient><linearGradient
       inkscape:collect="always"
       id="linearGradient27600"><stop
         style="stop-color:#045c6a;stop-opacity:1;"
         offset="0"
         id="stop27598" /><stop
         style="stop-color:#0991a8;stop-opacity:1;"
         offset="0.5"
         id="stop27606" /><stop
         style="stop-color:#045c6a;stop-opacity:1;"
         offset="1"
         id="stop27596" /></linearGradient><pattern
       id="EMFhbasepattern"
       patternUnits="userSpaceOnUse"
       width="6"
       height="6"
       x="0"
       y="0" /><linearGradient
       inkscape:collect="always"
       xlink:href="#linearGradient27600"
       id="linearGradient27602"
       x1="0.6926558"
       y1="274.21042"
       x2="4.8493533"
       y2="272.30875"
       gradientUnits="userSpaceOnUse"
       spreadMethod="repeat" /><linearGradient
       inkscape:collect="always"
       xlink:href="#linearGradient31416"
       id="linearGradient31408"
       gradientUnits="userSpaceOnUse"
       x1="2.5829632"
       y1="273.84045"
       x2="3.1610017"
       y2="272.74274"
       spreadMethod="pad" /><linearGradient
       inkscape:collect="always"
       xlink:href="#linearGradient34432"
       id="linearGradient34434"
       x1="2.8165581"
       y1="273.91074"
       x2="4.6944572"
       y2="273.91074"
       gradientUnits="userSpaceOnUse" /><linearGradient
       inkscape:collect="always"
       xlink:href="#linearGradient38164"
       id="linearGradient38166"
       x1="5.1685801"
       y1="274.57492"
       x2="5.1685801"
       y2="271.9639"
       gradientUnits="userSpaceOnUse" /><linearGradient
       inkscape:collect="always"
       xlink:href="#linearGradient42191"
       id="linearGradient42185"
       gradientUnits="userSpaceOnUse"
       x1="4.9432015"
       y1="273.06177"
       x2="5.3712783"
       y2="272.12259" /></defs><sodipodi:namedview
     id="base"
     pagecolor="#ffffff"
     bordercolor="#666666"
     borderopacity="1.0"
     inkscape:pageopacity="0.0"
     inkscape:pageshadow="2"
     inkscape:zoom="24.678026"
     inkscape:cx="20.787724"
     inkscape:cy="13.817961"
     inkscape:document-units="px"
     inkscape:current-layer="path21268"
     showgrid="false"
     units="px"
     inkscape:window-width="1920"
     inkscape:window-height="1017"
     inkscape:window-x="-8"
     inkscape:window-y="-8"
     inkscape:window-maximized="1"
     showguides="false"
     inkscape:guide-bbox="true"
     inkscape:document-rotation="0"
     inkscape:pagecheckerboard="0"
     inkscape:snap-text-baseline="true"
     width="20px"
     inkscape:showpageshadow="0"
     inkscape:deskcolor="#d1d1d1" /><metadata
     id="metadata5"><rdf:RDF><cc:Work
         rdf:about=""><dc:format>image/svg+xml</dc:format><dc:type
           rdf:resource="http://purl.org/dc/dcmitype/StillImage" /></cc:Work></rdf:RDF></metadata><g
     inkscape:label="Layer 1"
     inkscape:groupmode="layer"
     id="layer1"
     transform="translate(0,-288.53332)"><g
       aria-label="A"
       transform="scale(0.93847014,1.065564)"
       id="text6745"
       style="font-weight:900;font-size:2.89596px;line-height:1.25;font-family:Arial;-inkscape-font-specification:'Arial Heavy';fill:#ffffff;stroke-width:0.264583"><g
         id="path21268"><path
           style="color:#000000;-inkscape-font-specification:'Arial Heavy';fill:#bc295a;stroke-width:0.0396875;stroke-linecap:round;stroke-linejoin:round;-inkscape-stroke:none"
           d="m 2.8303509,272.83346 -0.9271611,0.43493 -0.95904972,-0.45292 v -0.85069 z"
           id="path27524" /><path
           style="color:#000000;-inkscape-font-specification:'Arial Heavy';fill:#f182a3;stroke-linecap:round;stroke-linejoin:round;-inkscape-stroke:none"
           d="m 0.93359375,271.94727 a 0.01984573,0.01984573 0 0 0 -0.009766,0.0176 v 0.85157 a 0.01984573,0.01984573 0 0 0 0.0117188,0.0176 l 0.95898435,0.45313 a 0.01984573,0.01984573 0 0 0 0.017578,0 l 0.9257812,-0.43555 a 0.01984573,0.01984573 0 0 0 0,-0.0351 L 0.953125,271.94727 a 0.01984573,0.01984573 0 0 0 -0.0195313,0 z m 0.03125,0.0488 1.82031255,0.83789 -0.8828126,0.41211 -0.93749995,-0.44336 z"
           id="path27526" /><path
           style="color:#000000;-inkscape-font-specification:'Arial Heavy';fill:url(#linearGradient34434);stroke-width:0.0396875;stroke-linecap:round;stroke-linejoin:round;-inkscape-stroke:none;fill-opacity:1"
           d="m 2.8165581,273.68988 0.9235268,-0.42762 0.9543723,0.44628 v 0.85067 z"
           id="path27530" /><path
           style="color:#000000;-inkscape-font-specification:'Arial Heavy';fill:#81acc8;stroke-linecap:round;stroke-linejoin:round;-inkscape-stroke:none"
           d="m 3.7324219,273.24414 -0.9238281,0.42773 a 0.01984573,0.01984573 0 0 0 0,0.0352 l 1.8769531,0.87109 a 0.01984573,0.01984573 0 0 0 0.029297,-0.0195 v -0.84961 a 0.01984573,0.01984573 0 0 0 -0.011719,-0.0176 l -0.9550781,-0.44727 a 0.01984573,0.01984573 0 0 0 -0.015625,0 z m 0.00781,0.0391 0.9335937,0.4375 v 0.80664 l -1.8125,-0.83789 z"
           id="path27532" /><path
           style="color:#000000;-inkscape-font-specification:'Arial Heavy';fill:#f182a3;stroke-linecap:round;stroke-linejoin:round;-inkscape-stroke:none"
           d="m 1.8984375,272.40039 a 0.01984375,0.01984375 0 0 0 -0.019531,0.0195 v 0.83203 a 0.01984375,0.01984375 0 0 0 0.019531,0.0195 0.01984375,0.01984375 0 0 0 0.019531,-0.0195 v -0.83203 a 0.01984375,0.01984375 0 0 0 -0.019531,-0.0195 z"
           id="path24198" /><path
           style="color:#000000;-inkscape-font-specification:'Arial Heavy';fill:url(#linearGradient27602);stroke-width:0.0396875;stroke-linecap:round;stroke-linejoin:round;-inkscape-stroke:none;fill-opacity:1"
           d="m 0.94869729,274.56111 3.74273931,-1.7362 0.0094,-0.8568 -3.75684503,1.73623 z"
           id="path27540" /><path
           style="color:#000000;-inkscape-font-specification:'Arial Heavy';fill:url(#linearGradient31408);stroke-width:0.0396875;stroke-linecap:round;stroke-linejoin:round;-inkscape-stroke:none;fill-opacity:1;opacity:0.75"
           d="m 0.94869729,274.56111 3.74273931,-1.7362 0.0094,-0.8568 -3.75684503,1.73623 z"
           id="path31406" /><path
           style="color:#000000;-inkscape-font-specification:'Arial Heavy';fill:#81acc8;stroke-linecap:round;stroke-linejoin:round;-inkscape-stroke:none"
           d="m 4.6933594,271.94922 -3.75781252,1.73633 a 0.01984573,0.01984573 0 0 0 -0.0117188,0.0195 l 0.005859,0.85547 a 0.01984573,0.01984573 0 0 0 0.0273438,0.0195 l 3.74218742,-1.73633 a 0.01984573,0.01984573 0 0 0 0.011719,-0.0195 l 0.00977,-0.85547 a 0.01984573,0.01984573 0 0 0 -0.027344,-0.0195 z M 4.6816406,272 l -0.00977,0.8125 -3.703125,1.7168 -0.003906,-0.8125 z"
           id="path27542" /><path
           style="color:#000000;-inkscape-font-specification:'Arial Heavy';fill:url(#linearGradient38166);stroke-width:0.0396875;stroke-linecap:round;stroke-linejoin:round;-inkscape-stroke:none;stroke:none;fill-opacity:1"
           d="m 4.6944693,274.55894 0.9242964,-0.43236 v -1.72944 l -0.9242964,-0.43236 z"
           id="path27546" /><path
           style="color:#000000;-inkscape-font-specification:'Arial Heavy';fill:url(#linearGradient42185);stroke-width:0.0396875;stroke-linecap:round;stroke-linejoin:round;-inkscape-stroke:none;stroke:none;fill-opacity:1;opacity:0.76"
           d="m 4.6944693,274.55894 0.9242964,-0.43236 v -1.72944 l -0.9242964,-0.43236 z"
           id="path42181" /><path
           style="color:#000000;-inkscape-font-specification:'Arial Heavy';fill:#81acc8;stroke-linecap:round;stroke-linejoin:round;-inkscape-stroke:none"
           d="m 4.6835937,271.94727 a 0.01984573,0.01984573 0 0 0 -0.00977,0.0176 v 2.59375 a 0.01984573,0.01984573 0 0 0 0.029297,0.0176 l 0.9238281,-0.43164 a 0.01984573,0.01984573 0 0 0 0.011719,-0.0176 v -1.73047 a 0.01984573,0.01984573 0 0 0 -0.011719,-0.0176 L 4.703125,271.94727 a 0.01984573,0.01984573 0 0 0 -0.019531,0 z m 0.03125,0.0488 0.8847657,0.41407 v 1.70312 l -0.8847657,0.41406 z"
           id="path27548" /><path
           style="color:#000000;-inkscape-font-specification:'Arial Heavy';fill:#d84174;stroke-width:0.0396875;stroke-linecap:round;stroke-linejoin:round;-inkscape-stroke:none"
           d="m 0.94414008,274.55894 -0.92429631,-0.43236 v -1.72944 l 0.92429631,-0.43236 z"
           id="path27552" /><path
           style="color:#000000;-inkscape-font-specification:'Arial Heavy';fill:#f182a3;stroke-linecap:round;stroke-linejoin:round;-inkscape-stroke:none"
           d="m 0.93554688,271.94727 -0.92382813,0.43164 A 0.01984573,0.01984573 0 0 0 0,272.39648 v 1.73047 a 0.01984573,0.01984573 0 0 0 0.01171875,0.0176 l 0.92382813,0.43164 a 0.01984573,0.01984573 0 0 0 0.0292969,-0.0176 v -2.59375 a 0.01984573,0.01984573 0 0 0 -0.0292969,-0.0176 z m -0.0117188,0.0488 v 2.53125 L 0.0390625,274.11328 v -1.70312 z"
           id="path27554" /><path
           style="color:#000000;-inkscape-font-specification:'Arial Heavy';fill:#f182a3;stroke-linecap:round;stroke-linejoin:round;-inkscape-stroke:none"
           d="m 1.8867187,272.39453 -1.8710937,0.81445 a 0.01984573,0.01984573 0 0 0 -0.0019531,0.0352 l 0.88476562,0.45313 -0.8828125,0.40625 a 0.01984375,0.01984375 0 0 0 -0.00976562,0.0254 0.01984375,0.01984375 0 0 0 0.02539062,0.01 l 0.921875,-0.42187 a 0.01984573,0.01984573 0 0 0 0,-0.0352 l -0.8828125,-0.45312 1.8320312,-0.79883 a 0.01984375,0.01984375 0 0 0 0.00977,-0.0254 0.01984375,0.01984375 0 0 0 -0.025391,-0.01 z"
           id="path20929" /><path
           style="color:#000000;-inkscape-font-specification:'Arial Heavy';fill:#f182a3;stroke-linecap:round;stroke-linejoin:round;-inkscape-stroke:none"
           d="m 0.03320312,272.38672 a 0.01984375,0.01984375 0 0 0 -0.02539062,0.01 0.01984375,0.01984375 0 0 0 0.00976563,0.0274 l 0.921875,0.41211 a 0.01984375,0.01984375 0 0 0 0.0253906,-0.01 0.01984375,0.01984375 0 0 0 -0.009766,-0.0254 z"
           id="path26015" /></g></g></g></svg>
