<?xml version="1.0" encoding="UTF-8" standalone="no"?>
<!-- Created with Inkscape (http://www.inkscape.org/) -->

<svg
   width="20"
   height="20"
   viewBox="0 0 5.2916665 5.2916668"
   version="1.1"
   id="svg8"
   inkscape:version="1.3 (0e150ed6c4, 2023-07-21)"
   sodipodi:docname="render_settings.svg"
   inkscape:export-filename="..\render_settings.png"
   inkscape:export-xdpi="96.000008"
   inkscape:export-ydpi="96.000008"
   xmlns:inkscape="http://www.inkscape.org/namespaces/inkscape"
   xmlns:sodipodi="http://sodipodi.sourceforge.net/DTD/sodipodi-0.dtd"
   xmlns="http://www.w3.org/2000/svg"
   xmlns:svg="http://www.w3.org/2000/svg"
   xmlns:rdf="http://www.w3.org/1999/02/22-rdf-syntax-ns#"
   xmlns:cc="http://creativecommons.org/ns#"
   xmlns:dc="http://purl.org/dc/elements/1.1/">
  <defs
     id="defs2" />
  <sodipodi:namedview
     id="base"
     pagecolor="#ffffff"
     bordercolor="#666666"
     borderopacity="1.0"
     inkscape:pageopacity="0.0"
     inkscape:pageshadow="2"
     inkscape:zoom="16"
     inkscape:cx="6.65625"
     inkscape:cy="10.375"
     inkscape:document-units="px"
     inkscape:current-layer="layer1"
     showgrid="false"
     units="px"
     inkscape:window-width="1920"
     inkscape:window-height="1017"
     inkscape:window-x="-8"
     inkscape:window-y="-8"
     inkscape:window-maximized="1"
     showguides="true"
     inkscape:guide-bbox="true"
     inkscape:showpageshadow="0"
     inkscape:pagecheckerboard="0"
     inkscape:deskcolor="#d1d1d1" />
  <metadata
     id="metadata5">
    <rdf:RDF>
      <cc:Work
         rdf:about="">
        <dc:format>image/svg+xml</dc:format>
        <dc:type
           rdf:resource="http://purl.org/dc/dcmitype/StillImage" />
        <dc:title />
      </cc:Work>
    </rdf:RDF>
  </metadata>
  <g
     inkscape:label="Layer 1"
     inkscape:groupmode="layer"
     id="layer1"
     transform="translate(0,-291.70832)">
    <g
       id="rect4705">
      <path
         style="color:#000000;fill:#bdbdbd;fill-rule:evenodd;stroke-linecap:round;stroke-dashoffset:3.9;-inkscape-stroke:none;paint-order:fill markers stroke"
         d="M 0.95911461,296.14008 H 2.38125 v 0.47955 H 0.95911461 Z"
         id="path1" />
      <path
         style="color:#000000;fill:#3a3a3a;fill-rule:evenodd;stroke-linecap:round;stroke-dashoffset:3.9;-inkscape-stroke:none;paint-order:fill markers stroke"
         d="m 0.82617188,296.00781 v 0.13281 0.61133 H 2.5136719 v -0.74414 z m 0.26562502,0.26367 h 1.15625 v 0.2168 h -1.15625 z"
         id="path2" />
    </g>
    <g
       id="rect4703">
      <path
         style="color:#000000;fill:#bdbdbd;fill-rule:evenodd;stroke-linecap:round;stroke-dashoffset:3.9;-inkscape-stroke:none;paint-order:fill markers stroke"
         d="M 0.95911461,292.08865 H 2.38125 v 0.47956 H 0.95911461 Z"
         id="path3" />
      <path
         style="color:#000000;fill:#3a3a3a;fill-rule:evenodd;stroke-linecap:round;stroke-dashoffset:3.9;-inkscape-stroke:none;paint-order:fill markers stroke"
         d="m 0.82617188,291.95703 v 0.13086 0.61328 H 2.5136719 v -0.74414 z m 0.26562502,0.26367 h 1.15625 v 0.21485 h -1.15625 z"
         id="path4" />
    </g>
    <g
       id="rect4701">
      <path
         style="color:#000000;fill:#bdbdbd;fill-rule:evenodd;stroke-linecap:round;stroke-dashoffset:3.9;-inkscape-stroke:none;paint-order:fill markers stroke"
         d="M 0.65711766,292.47537 H 2.6832469 v 3.75754 H 0.65711766 Z"
         id="path5" />
      <path
         style="color:#000000;fill:#3a3a3a;fill-rule:evenodd;stroke-linecap:round;stroke-dashoffset:3.9;-inkscape-stroke:none;paint-order:fill markers stroke"
         d="m 0.52539062,292.34375 v 0.13086 3.89062 H 2.8164063 v -4.02148 z m 0.26367188,0.26367 h 1.7617188 v 3.49414 H 0.7890625 Z"
         id="path6" />
    </g>
    <g
       id="path4717">
      <path
         style="color:#000000;fill:#bdbdbd;-inkscape-stroke:none"
         d="m 1.4221354,292.90721 h 3.3403645 c 0,0 0,1.51155 0,2.13321 -1.1214631,0 -1.2402343,0.76067 -1.2402343,0.76067 H 1.4221354 Z"
         id="path7" />
      <path
         style="color:#000000;fill:#3a3a3a;-inkscape-stroke:none"
         d="m 1.2890625,292.77539 v 0.13086 3.02734 h 2.3457031 l 0.017578,-0.11132 c 0,0 0.022182,-0.1493 0.1679687,-0.3125 0.1457865,-0.16321 0.4105857,-0.3379 0.9414062,-0.3379 h 0.1328125 v -2.39648 z m 0.265625,0.26367 h 3.0761719 v 1.91797 c -0.4756154,0.0399 -0.8361457,0.18283 -1.0078125,0.375 -0.1450547,0.16238 -0.1539854,0.26048 -0.1738281,0.33594 H 1.5546875 Z"
         id="path8" />
    </g>
    <g
       id="path4719">
      <path
         style="color:#000000;fill:#bdbdbd;fill-rule:evenodd;stroke-linecap:round;stroke-dashoffset:3.9;-inkscape-stroke:none;paint-order:fill markers stroke"
         d="m 2.3736874,293.52716 a 0.18708867,0.18708867 0 0 1 -0.1870886,0.18709 0.18708867,0.18708867 0 0 1 -0.1870887,-0.18709 0.18708867,0.18708867 0 0 1 0.1870887,-0.18709 0.18708867,0.18708867 0 0 1 0.1870886,0.18709 z"
         id="path9" />
      <path
         style="color:#000000;fill:#3a3a3a;fill-rule:evenodd;stroke-linecap:round;stroke-dashoffset:3.9;-inkscape-stroke:none;paint-order:fill markers stroke"
         d="m 2.1875,293.20703 c -0.1748218,0 -0.3203125,0.14549 -0.3203125,0.32031 0,0.17483 0.1454907,0.31836 0.3203125,0.31836 0.1748218,0 0.3183594,-0.14353 0.3183594,-0.31836 0,-0.17482 -0.1435376,-0.32031 -0.3183594,-0.32031 z m 0,0.26563 c 0.03183,0 0.054687,0.0229 0.054687,0.0547 0,0.0318 -0.022857,0.0547 -0.054687,0.0547 -0.03183,0 -0.056641,-0.0229 -0.056641,-0.0547 0,-0.0318 0.02481,-0.0547 0.056641,-0.0547 z"
         id="path10" />
    </g>
    <g
       id="circle4721">
      <path
         style="color:#000000;fill:#bdbdbd;fill-rule:evenodd;stroke-linecap:round;stroke-dashoffset:3.9;-inkscape-stroke:none;paint-order:fill markers stroke"
         d="m 3.2740518,293.52716 a 0.18708867,0.18708867 0 0 1 -0.1870886,0.18709 0.18708867,0.18708867 0 0 1 -0.1870887,-0.18709 0.18708867,0.18708867 0 0 1 0.1870887,-0.18709 0.18708867,0.18708867 0 0 1 0.1870886,0.18709 z"
         id="path11" />
      <path
         style="color:#000000;fill:#3a3a3a;fill-rule:evenodd;stroke-linecap:round;stroke-dashoffset:3.9;-inkscape-stroke:none;paint-order:fill markers stroke"
         d="m 3.0878906,293.20703 c -0.1748217,0 -0.3203125,0.14549 -0.3203125,0.32031 0,0.17483 0.1454908,0.31836 0.3203125,0.31836 0.1748218,0 0.3183594,-0.14353 0.3183594,-0.31836 0,-0.17482 -0.1435376,-0.32031 -0.3183594,-0.32031 z m 0,0.26563 c 0.03183,0 0.054687,0.0229 0.054687,0.0547 0,0.0318 -0.022857,0.0547 -0.054687,0.0547 -0.03183,0 -0.056641,-0.0229 -0.056641,-0.0547 0,-0.0318 0.02481,-0.0547 0.056641,-0.0547 z"
         id="path12" />
    </g>
    <g
       id="circle4723">
      <path
         style="color:#000000;fill:#bdbdbd;fill-rule:evenodd;stroke-linecap:round;stroke-dashoffset:3.9;-inkscape-stroke:none;paint-order:fill markers stroke"
         d="m 4.174416,293.52716 a 0.18708867,0.18708867 0 0 1 -0.1870887,0.18709 0.18708867,0.18708867 0 0 1 -0.1870886,-0.18709 0.18708867,0.18708867 0 0 1 0.1870886,-0.18709 0.18708867,0.18708867 0 0 1 0.1870887,0.18709 z"
         id="path13" />
      <path
         style="color:#000000;fill:#3a3a3a;fill-rule:evenodd;stroke-linecap:round;stroke-dashoffset:3.9;-inkscape-stroke:none;paint-order:fill markers stroke"
         d="m 3.9882813,293.20703 c -0.1748218,0 -0.3203125,0.14549 -0.3203125,0.32031 0,0.17483 0.1454907,0.31836 0.3203125,0.31836 0.1748217,0 0.3183593,-0.14353 0.3183593,-0.31836 0,-0.17482 -0.1435376,-0.32031 -0.3183593,-0.32031 z m 0,0.26563 c 0.03183,0 0.054687,0.0229 0.054687,0.0547 0,0.0318 -0.022857,0.0547 -0.054687,0.0547 -0.031831,0 -0.056641,-0.0229 -0.056641,-0.0547 0,-0.0318 0.02481,-0.0547 0.056641,-0.0547 z"
         id="path14" />
    </g>
    <g
       id="path1075">
      <path
         style="color:#000000;fill:#3a3a3a;-inkscape-stroke:none;paint-order:stroke fill markers"
         d="m 3.5957031,293.82422 c -0.1574224,0 -0.2851562,0.006 -0.2851562,0.006 l -0.2207031,0.01 -0.03125,0.21875 c 0,0 -0.014041,0.1048 -0.029297,0.20899 -0.00456,0.0312 -0.0094,0.0559 -0.013672,0.084 -0.02535,0.0152 -0.058783,0.0286 -0.083984,0.0469 -0.021736,-0.006 -0.041929,-0.0105 -0.066406,-0.0195 -0.1754477,-0.065 -0.2089844,-0.0781 -0.2089844,-0.0781 l -0.2050781,-0.0684 -0.4765625,0.83203 0.1601562,0.14258 c 0,0 0.081778,0.0721 0.1835938,0.15039 l 0.064453,0.0508 v 0.002 c 0,0.0291 0.00132,0.0553 0.00195,0.082 -0.018192,0.0166 -0.012989,0.012 -0.052734,0.0449 -0.084301,0.0698 -0.1310535,0.11447 -0.1640625,0.14844 -0.016505,0.017 -0.030166,0.0299 -0.042969,0.0469 -0.0064,0.008 -0.012681,0.0177 -0.019531,0.0293 -0.00685,0.0116 -0.021484,0.0469 -0.021484,0.0469 l -0.042969,0.11719 0.4472657,0.75 0.2070312,-0.0781 c 0,0 0.098807,-0.0364 0.2089844,-0.082 0.046884,-0.0195 0.05385,-0.0217 0.078125,-0.0312 0.022263,0.0116 0.043651,0.0249 0.066406,0.0352 0.00277,0.0153 0.00484,0.0263 0.00781,0.043 0.0089,0.0496 0.016676,0.0963 0.023437,0.13281 0.00676,0.0365 0.00715,0.0469 0.013672,0.0762 v -0.008 l 0.042969,0.23828 0.4980468,-0.004 0.5019531,-0.006 0.058594,-0.42383 c 0.00359,-0.026 0.00654,-0.0437 0.00977,-0.0664 0.022057,-0.0113 0.043202,-0.0261 0.064453,-0.0391 0.026134,0.0101 0.049211,0.0191 0.080078,0.0312 0.1086498,0.043 0.203125,0.0781 0.203125,0.0781 l 0.2089843,0.0762 0.4785157,-0.82227 -0.1289063,-0.14453 c 0,0 -0.071838,-0.0778 -0.203125,-0.17773 l -0.066406,-0.0508 v -0.0312 -0.041 l 0.064453,-0.0547 c 0.091532,-0.0763 0.1699219,-0.14453 0.1699219,-0.14453 l 0.1601562,-0.14062 -0.4765625,-0.8418 -0.203125,0.0644 c 0,0 -0.1068318,0.0317 -0.2285156,0.082 l -0.064453,0.0273 0.064453,0.043 c -0.052128,-0.0368 -0.1088655,-0.0683 -0.1660156,-0.0977 l 0.017578,0.01 -0.011719,-0.0762 -0.072266,-0.42773 z m 0,0.5293 h 0.052734 l 0.054687,0.32421 0.2089844,0.10743 c 0.036627,0.0186 0.1067737,0.0612 0.1113281,0.0644 l 0.1757812,0.12305 0.3144532,-0.13086 0.048828,0.084 -0.25,0.20703 v 0.2793 c -0.019449,-0.37901 -0.3134813,-0.70177 -0.6972656,-0.70117 -0.1858948,3.2e-4 -0.3751025,0.0785 -0.5078125,0.20898 -0.2748471,0.27035 -0.2822468,0.72486 -0.017578,1.00586 0.183926,0.19547 0.4698574,0.26149 0.7265625,0.1875 0.00697,-0.002 0.012602,0.008 0.019531,0.006 l 0.00391,-0.002 c 0.00588,-0.002 0.00396,-0.0116 0.00977,-0.0137 0.00865,0.0173 0.1152344,0.22656 0.1152344,0.22656 -4.49e-5,6e-5 -0.2401845,-0.11144 -0.2402344,-0.11133 -9.98e-5,2.1e-4 -0.011512,0.0263 -0.013672,0.0332 -0.00432,0.0138 -0.00468,0.0201 -0.00586,0.0254 -0.00236,0.0106 -0.00458,0.0161 -0.00586,0.0234 -0.00256,0.0146 -0.0049,0.0314 -0.00781,0.0508 -0.00471,0.0314 -0.00963,0.0741 -0.015625,0.11719 h -0.046875 -0.052734 c -0.00885,-0.0496 -0.017191,-0.0934 -0.023437,-0.12695 -0.00312,-0.0168 -0.00567,-0.0321 -0.00781,-0.043 -0.00107,-0.005 -7.445e-4,-0.01 -0.00195,-0.0156 -6.044e-4,-0.003 -0.00228,-0.005 -0.00391,-0.0117 -8.145e-4,-0.003 -0.00385,-0.0154 -0.00391,-0.0156 -2.75e-5,-9e-5 -0.00975,-0.0273 -0.00977,-0.0273 -2.07e-5,-5e-5 -0.044922,-0.0684 -0.044922,-0.0684 l -0.068359,-0.0547 c -5.55e-5,-3e-5 -0.025306,-0.0128 -0.027344,-0.0137 -0.00204,-8.6e-4 -0.00286,-0.002 -0.00391,-0.002 -0.00209,-8.5e-4 -0.00372,-0.001 -0.00586,-0.002 -0.00429,-0.002 -0.00905,-0.003 -0.015625,-0.006 -0.013141,-0.005 -0.031909,-0.0119 -0.050781,-0.0195 -0.040445,-0.0162 -0.1301826,-0.066 -0.1425782,-0.0742 -0.034272,-0.0242 -0.1183269,-0.0535 -0.171875,-0.0527 -0.053548,7.5e-4 -0.081897,0.009 -0.1074218,0.0176 -0.047888,0.0152 -0.096163,0.036 -0.1738282,0.0684 l -0.044922,-0.0742 c 0.00124,-0.001 6.924e-4,-9.1e-4 0.00195,-0.002 0.086544,-0.0717 0.1281958,-0.10387 0.1777344,-0.16406 0.024769,-0.0301 0.059852,-0.0815 0.070312,-0.1543 0.01046,-0.0728 -0.00667,-0.12066 -0.00586,-0.11718 v -0.002 l -0.00195,-0.002 c 0.018198,0.0739 0.00475,0.0207 0.00391,-0.004 -8.478e-4,-0.0246 -0.00195,-0.0581 -0.00195,-0.0918 l 0.00195,-0.26172 -0.2617187,-0.20117 0.039063,-0.0703 c 0.061642,0.0222 0.1187388,0.0389 0.1621093,0.0488 0.022956,0.005 0.042538,0.009 0.058594,0.0117 0.00803,0.001 0.014127,0.003 0.021484,0.004 0.00736,0.001 0.042131,0.002 0.042969,0.002 3.964e-4,0 0.054106,-0.004 0.068359,-0.008 0.014253,-0.004 0.023584,-0.007 0.03125,-0.01 0.015331,-0.006 0.023554,-0.0116 0.03125,-0.0156 0.015391,-0.008 0.026589,-0.0129 0.037109,-0.0195 0.02104,-0.0133 0.041111,-0.0287 0.0625,-0.0449 0.00367,-0.003 0.1766925,-0.0924 0.1367187,-0.0781 l 0.00586,-0.002 0.00391,-0.002 c 0,0 0.074192,-0.0449 0.074219,-0.0449 2.63e-5,-2e-5 0.035128,-0.0371 0.035156,-0.0371 5.59e-5,-7e-5 0.029235,-0.0429 0.029297,-0.043 1.242e-4,-2.4e-4 0.013042,-0.0295 0.015625,-0.0371 0.00517,-0.0151 0.0064,-0.0215 0.00781,-0.0273 0.00282,-0.0117 0.00237,-0.0192 0.00391,-0.0274 0.00307,-0.0163 0.00638,-0.0336 0.00977,-0.0547 0.00623,-0.0388 0.014277,-0.0877 0.021484,-0.13672 0.022831,-2.3e-4 0.020072,-0.002 0.044922,-0.002 z m 0.021484,0.88671 c 0.1027978,-1.6e-4 0.1896436,0.0851 0.1894531,0.19336 -1.308e-4,0.077 -0.057825,0.15679 -0.1328125,0.18164 -0.07833,0.0258 -0.1359746,0.0124 -0.1972656,-0.0527 -0.088044,-0.0935 -0.087406,-0.17773 0.00195,-0.26563 0.053023,-0.0521 0.068779,-0.0565 0.1386719,-0.0566 z m 0.6953125,0.22852 -0.00195,0.24609 0.265625,0.20118 -0.046875,0.0801 c -0.047501,-0.0187 -0.093096,-0.0359 -0.1269532,-0.0488 -0.018779,-0.007 -0.033962,-0.0129 -0.046875,-0.0176 -0.00646,-0.002 -0.012679,-0.006 -0.019531,-0.008 -0.00343,-0.001 -0.00504,-0.002 -0.011719,-0.004 -0.00334,-9.8e-4 -0.00802,-0.002 -0.015625,-0.004 -0.0038,-8.9e-4 -0.015518,-0.004 -0.015625,-0.004 -1.071e-4,-2e-5 -0.037044,-0.002 -0.037109,-0.002 l -0.00391,-0.002 h -0.00391 c -2.38e-4,0 -0.066059,0.01 -0.066406,0.01 -3.475e-4,8e-5 -0.021886,0.005 -0.029297,0.008 -0.014822,0.006 -0.022209,0.0101 -0.029297,0.0137 -0.014176,0.007 -0.022691,0.0122 -0.03125,0.0176 -0.017117,0.0108 -0.034021,0.0218 -0.050781,0.0351 -0.00963,0.007 -0.096924,0.0606 -0.125,0.0723 h -0.00195 c -0.013787,0.006 -0.026779,0.0122 -0.039063,0.0176 -0.0036,0.002 -0.00797,0.002 -0.011719,0.004 0.2580218,-0.10348 0.4315952,-0.3379 0.4492187,-0.61523 z m -0.4824219,0.65234 -0.029297,0.004 h -0.00195 l -0.042969,0.006 h 0.035156 0.00977 z"
         id="path15" />
      <path
         style="color:#000000;fill:#bdbdbd;-inkscape-stroke:none;paint-order:stroke fill markers"
         d="m 3.5961053,294.08968 c -0.1516052,0 -0.2753519,0.005 -0.2753519,0.005 0,0 -0.058561,0.42032 -0.064904,0.42285 -0.043465,0.0155 -0.1620688,0.0824 -0.2091362,0.11801 -0.031844,0.0241 -0.063151,0.0439 -0.069493,0.0439 -0.0067,0 -0.098318,-0.0144 -0.2032359,-0.0533 -0.1747202,-0.0647 -0.2019247,-0.0739 -0.2019247,-0.0739 l -0.2609285,0.45695 c 0,0 0.075623,0.0676 0.168489,0.139 l 0.1691447,0.1298 -6.545e-4,0.13178 c 0,0.0725 0.00209,0.14449 0.0059,0.15996 0.00651,0.0278 0.014705,0.0324 -0.1529089,0.17122 -0.1595734,0.13221 -0.1689914,0.1579 -0.1689914,0.1579 l 0.2694514,0.4517 c 0,0 0.095589,-0.0362 0.201269,-0.08 0.1735911,-0.0722 0.1936799,-0.0783 0.2097919,-0.0669 0.044936,0.0316 0.1337967,0.0778 0.1979911,0.10358 0.038568,0.0155 0.071228,0.0284 0.072116,0.0289 8.857e-4,5e-4 0.015928,0.0814 0.033436,0.17963 0.017634,0.0982 0.034176,0.18724 0.036714,0.19864 l 0.00393,0.021 0.2746963,-0.002 0.2746962,-0.003 0.027535,-0.19865 c 0.015097,-0.10924 0.028276,-0.20065 0.030813,-0.20192 0.00216,-0.002 0.026081,-0.0122 0.053103,-0.0236 0.059894,-0.0249 0.1455726,-0.0741 0.1894683,-0.10884 0.017888,-0.0143 0.036185,-0.0256 0.039992,-0.0256 0.00421,1.3e-4 0.09375,0.0343 0.1993022,0.076 0.1056035,0.0418 0.1979911,0.0761 0.1979911,0.0761 l 0.2707626,-0.46482 c 0,0 -0.048558,-0.0539 -0.1671778,-0.14424 l -0.1717671,-0.13046 6.563e-4,-0.16325 v -0.1639 l 0.1606218,-0.13374 c 0.088299,-0.0736 0.1632443,-0.13964 0.1632443,-0.13964 l -0.2661733,-0.4681 c 0,0 -0.095569,0.0296 -0.2045471,0.0747 l -0.1979911,0.082 -0.055726,-0.0387 c -0.030423,-0.0216 -0.095537,-0.0596 -0.1448875,-0.0846 l -0.089817,-0.0459 -0.034746,-0.20651 -0.034746,-0.20717 z m 0.020323,0.88505 c 0.2497234,-3.9e-4 0.45543,0.2073 0.4549859,0.45959 -3.295e-4,0.19382 -0.1290583,0.37136 -0.3140322,0.43268 h -6.562e-4 c -0.1706942,0.0562 -0.3477746,0.0102 -0.473344,-0.12325 -0.1763567,-0.18724 -0.1716141,-0.45615 0.010489,-0.63527 0.092866,-0.0913 0.1946611,-0.13353 0.322555,-0.13375 z"
         id="path16" />
    </g>
  </g>
</svg>
