<?xml version="1.0" encoding="UTF-8" standalone="no"?>
<!-- Created with Inkscape (http://www.inkscape.org/) -->

<svg
   xmlns:dc="http://purl.org/dc/elements/1.1/"
   xmlns:cc="http://creativecommons.org/ns#"
   xmlns:rdf="http://www.w3.org/1999/02/22-rdf-syntax-ns#"
   xmlns:svg="http://www.w3.org/2000/svg"
   xmlns="http://www.w3.org/2000/svg"
   xmlns:sodipodi="http://sodipodi.sourceforge.net/DTD/sodipodi-0.dtd"
   xmlns:inkscape="http://www.inkscape.org/namespaces/inkscape"
   width="20"
   height="20"
   viewBox="0 0 5.2916665 5.2916668"
   version="1.1"
   id="svg8"
   inkscape:version="0.92.1 r15371"
   sodipodi:docname="clean.svg"
   inkscape:export-filename="D:\projects\git\dcc_platform\src\python\dcc\script_editor\resources\icons\clean.png"
   inkscape:export-xdpi="96.000008"
   inkscape:export-ydpi="96.000008">
  <defs
     id="defs2" />
  <sodipodi:namedview
     id="base"
     pagecolor="#ffffff"
     bordercolor="#666666"
     borderopacity="1.0"
     inkscape:pageopacity="0.0"
     inkscape:pageshadow="2"
     inkscape:zoom="16"
     inkscape:cx="4.7328609"
     inkscape:cy="9.9145491"
     inkscape:document-units="mm"
     inkscape:current-layer="layer1"
     showgrid="false"
     units="px"
     inkscape:window-width="1920"
     inkscape:window-height="1028"
     inkscape:window-x="-8"
     inkscape:window-y="-8"
     inkscape:window-maximized="1"
     showguides="true"
     inkscape:guide-bbox="true" />
  <metadata
     id="metadata5">
    <rdf:RDF>
      <cc:Work
         rdf:about="">
        <dc:format>image/svg+xml</dc:format>
        <dc:type
           rdf:resource="http://purl.org/dc/dcmitype/StillImage" />
        <dc:title></dc:title>
      </cc:Work>
    </rdf:RDF>
  </metadata>
  <g
     inkscape:label="Layer 1"
     inkscape:groupmode="layer"
     id="layer1"
     transform="translate(0,-291.70832)">
    <path
       style="display:inline;opacity:1;fill:#f2f2f2;fill-opacity:1;stroke:#2a2a2a;stroke-width:0.26458333;stroke-linecap:butt;stroke-linejoin:miter;stroke-miterlimit:4;stroke-dasharray:none;stroke-opacity:1"
       d="m 3.5693193,293.48496 c 0,0 0.690043,-1.33674 0.7266058,-1.36484 0.046111,-0.0354 0.1448829,-0.0269 0.2184727,0.0122 0.07359,0.0392 0.11969,0.0896 0.1153732,0.14484 -0.00432,0.0552 -0.510588,1.46303 -0.510588,1.46303 z"
       id="path4559"
       inkscape:connector-curvature="0"
       sodipodi:nodetypes="cszzcc" />
    <path
       style="display:inline;opacity:1;fill:#f2f2f2;fill-opacity:1;stroke:#2a2a2a;stroke-width:0.26458333;stroke-linecap:butt;stroke-linejoin:miter;stroke-miterlimit:4;stroke-dasharray:none;stroke-opacity:1"
       d="m 2.6681873,293.92031 c 0,0 0.080167,-0.24389 0.3540971,-0.29508 0.2739304,-0.0512 1.1890746,0.33013 1.3191855,0.5867 0.1301109,0.25656 0.024301,0.4756 0.024301,0.4756 z"
       id="path4561"
       inkscape:connector-curvature="0"
       sodipodi:nodetypes="czzcc" />
    <path
       style="display:inline;opacity:1;fill:#f2f2f2;fill-opacity:1;stroke:#2a2a2a;stroke-width:0.26458333;stroke-linecap:butt;stroke-linejoin:round;stroke-miterlimit:4;stroke-dasharray:none;stroke-opacity:1"
       d="m 2.6300004,294.18068 c -0.5348124,0.70083 -1.1862117,0.95315 -1.9683637,1.05535 0,0 0.5164939,0.63786 1.14908,0.98939 0.6325861,0.35153 1.4476326,0.38534 1.4476326,0.38534 0.4487705,-0.6595 0.7605972,-1.02568 0.9407876,-1.7323 z"
       id="path4563"
       inkscape:connector-curvature="0"
       sodipodi:nodetypes="cczccc" />
    <path
       style="display:inline;opacity:1;fill:#2a2a2a;fill-opacity:1;stroke:none;stroke-width:0.02134944px;stroke-linecap:butt;stroke-linejoin:miter;stroke-opacity:1"
       d="m 1.1759215,295.69559 c 0.3779277,-0.0459 0.5627459,-0.0984 0.8683802,-0.31234 -0.1031101,0.23465 -0.333273,0.48466 -0.4861913,0.59167 -0.018416,-0.008 -0.3821889,-0.27933 -0.3821889,-0.27933 z"
       id="path4565"
       inkscape:connector-curvature="0"
       sodipodi:nodetypes="cccc" />
    <path
       sodipodi:nodetypes="cccc"
       inkscape:connector-curvature="0"
       id="path4567"
       d="m 1.9925803,296.24718 c 0.5308749,-0.0781 0.8540135,-0.25353 1.2124252,-0.70677 -0.166549,0.45859 -0.3796176,0.80701 -0.6530709,0.93149 z"
       style="display:inline;opacity:1;fill:#2a2a2a;fill-opacity:1;stroke:none;stroke-width:0.0213407px;stroke-linecap:butt;stroke-linejoin:miter;stroke-opacity:1" />
  </g>
</svg>
