<?xml version="1.0" encoding="UTF-8" standalone="no"?>
<!-- Created with Inkscape (http://www.inkscape.org/) -->

<svg
   width="20"
   height="20"
   viewBox="0 0 5.2916665 5.2916668"
   version="1.1"
   id="svg8"
   inkscape:version="1.3 (0e150ed6c4, 2023-07-21)"
   sodipodi:docname="activation_on.svg"
   inkscape:export-filename="..\activation_on.png"
   inkscape:export-xdpi="96.000008"
   inkscape:export-ydpi="96.000008"
   xml:space="preserve"
   xmlns:inkscape="http://www.inkscape.org/namespaces/inkscape"
   xmlns:sodipodi="http://sodipodi.sourceforge.net/DTD/sodipodi-0.dtd"
   xmlns="http://www.w3.org/2000/svg"
   xmlns:svg="http://www.w3.org/2000/svg"
   xmlns:rdf="http://www.w3.org/1999/02/22-rdf-syntax-ns#"
   xmlns:cc="http://creativecommons.org/ns#"
   xmlns:dc="http://purl.org/dc/elements/1.1/"><defs
     id="defs2" /><sodipodi:namedview
     id="base"
     pagecolor="#ffffff"
     bordercolor="#666666"
     borderopacity="1.0"
     inkscape:pageopacity="0.0"
     inkscape:pageshadow="2"
     inkscape:zoom="5.6568543"
     inkscape:cx="3.2703689"
     inkscape:cy="-15.909903"
     inkscape:document-units="px"
     inkscape:current-layer="layer1"
     showgrid="false"
     units="px"
     inkscape:window-width="1920"
     inkscape:window-height="1017"
     inkscape:window-x="-8"
     inkscape:window-y="-8"
     inkscape:window-maximized="1"
     showguides="true"
     inkscape:guide-bbox="true"
     inkscape:showpageshadow="2"
     inkscape:pagecheckerboard="0"
     inkscape:deskcolor="#d1d1d1" /><metadata
     id="metadata5"><rdf:RDF><cc:Work
         rdf:about=""><dc:format>image/svg+xml</dc:format><dc:type
           rdf:resource="http://purl.org/dc/dcmitype/StillImage" /></cc:Work></rdf:RDF></metadata><g
     inkscape:label="Layer 1"
     inkscape:groupmode="layer"
     id="layer1"
     transform="translate(0,-291.70832)"><path
       style="color:#000000;fill:#bdbdbd;stroke-width:0.52916666;stroke-linecap:round;stroke-linejoin:round;paint-order:stroke fill markers;fill-opacity:1;stroke-dasharray:none;stroke:#3a3a3a;stroke-opacity:1"
       d="m 3.4355152,293.57247 a 0.18358577,0.18358577 0 0 0 -0.1298293,0.0537 0.18358577,0.18358577 0 0 0 0,0.25966 c 0.1690718,0.16907 0.2732105,0.40095 0.2732106,0.65971 3e-7,0.51754 -0.4156662,0.9332 -0.9331986,0.9332 -0.5175326,0 -0.9331991,-0.41566 -0.9331988,-0.9332 1e-7,-0.25876 0.1044098,-0.49064 0.2734817,-0.65971 a 0.18358577,0.18358577 0 0 0 0,-0.25966 0.18358577,0.18358577 0 0 0 -0.2596585,0 c -0.2351026,0.2351 -0.3808144,0.56139 -0.3808145,0.91937 -3e-7,0.71597 0.5842238,1.30046 1.3001901,1.30046 0.7159661,0 1.3004613,-0.58449 1.300461,-1.30046 -2e-7,-0.35798 -0.145712,-0.68427 -0.3808145,-0.91937 a 0.18358577,0.18358577 0 0 0 -0.1298292,-0.0537 z"
       id="path7" /><path
       style="color:#000000;fill:#bdbdbd;stroke-width:0.52916666;stroke-linecap:round;stroke-linejoin:round;fill-opacity:1;stroke-dasharray:none;stroke:#3a3a3a;stroke-opacity:1;paint-order:stroke fill markers"
       d="m 2.6456979,292.86234 a 0.18358577,0.18358577 0 0 0 -0.1834957,0.1835 v 1.13594 a 0.18358577,0.18358577 0 0 0 0.1834957,0.18349 0.18358577,0.18358577 0 0 0 0.1837666,-0.18349 v -1.13594 a 0.18358577,0.18358577 0 0 0 -0.1837666,-0.1835 z"
       id="path8" /></g></svg>
