<?xml version="1.0" encoding="UTF-8" standalone="no"?>
<svg
   width="20"
   height="20"
   viewBox="0 0 5.2916665 5.2916668"
   version="1.1"
   id="svg8"
   inkscape:version="1.2 (dc2aedaf03, 2022-05-15)"
   sodipodi:docname="back.svg"
   inkscape:export-filename="..\back.png"
   inkscape:export-xdpi="96.000008"
   inkscape:export-ydpi="96.000008"
   xml:space="preserve"
   xmlns:inkscape="http://www.inkscape.org/namespaces/inkscape"
   xmlns:sodipodi="http://sodipodi.sourceforge.net/DTD/sodipodi-0.dtd"
   xmlns="http://www.w3.org/2000/svg"
   xmlns:svg="http://www.w3.org/2000/svg"
   xmlns:rdf="http://www.w3.org/1999/02/22-rdf-syntax-ns#"
   xmlns:cc="http://creativecommons.org/ns#"
   xmlns:dc="http://purl.org/dc/elements/1.1/"><defs
     id="defs2"><pattern
       id="EMFhbasepattern"
       patternUnits="userSpaceOnUse"
       width="6"
       height="6"
       x="0"
       y="0" /></defs><sodipodi:namedview
     id="base"
     pagecolor="#ffffff"
     bordercolor="#666666"
     borderopacity="1.0"
     inkscape:pageopacity="0.0"
     inkscape:pageshadow="2"
     inkscape:zoom="8"
     inkscape:cx="23.625"
     inkscape:cy="1"
     inkscape:document-units="px"
     inkscape:current-layer="layer1"
     showgrid="false"
     units="px"
     inkscape:window-width="1920"
     inkscape:window-height="1017"
     inkscape:window-x="-8"
     inkscape:window-y="-8"
     inkscape:window-maximized="1"
     showguides="false"
     inkscape:guide-bbox="true"
     inkscape:document-rotation="0"
     inkscape:pagecheckerboard="0"
     inkscape:snap-text-baseline="true"
     width="20px"
     inkscape:showpageshadow="0"
     inkscape:deskcolor="#d1d1d1" /><metadata
     id="metadata5"><rdf:RDF><cc:Work
         rdf:about=""><dc:format>image/svg+xml</dc:format><dc:type
           rdf:resource="http://purl.org/dc/dcmitype/StillImage" /></cc:Work></rdf:RDF></metadata><g
     inkscape:label="Layer 1"
     inkscape:groupmode="layer"
     id="layer1"
     transform="translate(0,-288.53332)"><path
       style="fill:#bdbdbd;fill-opacity:1;stroke:#3a3a3a;stroke-width:0.529167;stroke-dasharray:none;stroke-opacity:1;paint-order:stroke fill markers"
       d="m 4.4364505,292.3838 c -0.01565,-0.004 -0.049181,-0.042 -0.074519,-0.0854 -0.1143209,-0.19569 -0.3625592,-0.3938 -0.6158463,-0.49148 -0.2505725,-0.0966 -0.6033984,-0.15071 -0.9840234,-0.15084 l -0.1720851,-6e-5 -0.00454,0.35746 c 0,0 0.00485,0.34369 -0.00454,0.35745 -0.00939,0.0138 -0.047863,0.005 -0.047863,0.005 -0.041827,-0.0125 -0.1382873,-0.0554 -0.5214654,-0.31347 -0.2604813,-0.17542 -0.6439201,-0.43361 -0.8520855,-0.57377 -0.20816577,-0.14015 -0.38497057,-0.26893 -0.39290017,-0.28617 -0.028368,-0.0617 -0.107298,-0.004 1.21250827,-0.89069 0.4861881,-0.32675 0.5707471,-0.37187 0.6020164,-0.32128 0.00584,0.009 0.00986,0.161 0.00896,0.33679 -0.00126,0.24595 0.00328,0.32104 0.019822,0.3258 0.01181,0.004 0.1072441,0.0222 0.2120735,0.0419 0.8496348,0.15928 1.4578023,0.59359 1.6496782,1.17808 0.040156,0.12232 0.076809,0.38806 0.061782,0.44794 -0.011221,0.0447 -0.040457,0.0762 -0.083534,0.0663 z"
       id="path13307"
       sodipodi:nodetypes="cccccczcccccccccsccc" /></g></svg>
