<?xml version="1.0" encoding="UTF-8" standalone="no"?>
<svg
   width="16"
   height="16"
   viewBox="0 0 4.2333332 4.2333334"
   version="1.1"
   id="svg8"
   inkscape:version="1.2 (dc2aedaf03, 2022-05-15)"
   sodipodi:docname="back_small.svg"
   inkscape:export-filename="..\back_small.png"
   inkscape:export-xdpi="96.000008"
   inkscape:export-ydpi="96.000008"
   xml:space="preserve"
   xmlns:inkscape="http://www.inkscape.org/namespaces/inkscape"
   xmlns:sodipodi="http://sodipodi.sourceforge.net/DTD/sodipodi-0.dtd"
   xmlns="http://www.w3.org/2000/svg"
   xmlns:svg="http://www.w3.org/2000/svg"
   xmlns:rdf="http://www.w3.org/1999/02/22-rdf-syntax-ns#"
   xmlns:cc="http://creativecommons.org/ns#"
   xmlns:dc="http://purl.org/dc/elements/1.1/"><defs
     id="defs2"><pattern
       id="EMFhbasepattern"
       patternUnits="userSpaceOnUse"
       width="6"
       height="6"
       x="0"
       y="0" /></defs><sodipodi:namedview
     id="base"
     pagecolor="#ffffff"
     bordercolor="#666666"
     borderopacity="1.0"
     inkscape:pageopacity="0.0"
     inkscape:pageshadow="2"
     inkscape:zoom="11.313709"
     inkscape:cx="-15.026019"
     inkscape:cy="5.6568542"
     inkscape:document-units="px"
     inkscape:current-layer="layer1"
     showgrid="false"
     units="px"
     inkscape:window-width="1920"
     inkscape:window-height="1017"
     inkscape:window-x="-8"
     inkscape:window-y="-8"
     inkscape:window-maximized="1"
     showguides="false"
     inkscape:guide-bbox="true"
     inkscape:document-rotation="0"
     inkscape:pagecheckerboard="0"
     inkscape:snap-text-baseline="true"
     width="20px"
     inkscape:showpageshadow="0"
     inkscape:deskcolor="#d1d1d1" /><metadata
     id="metadata5"><rdf:RDF><cc:Work
         rdf:about=""><dc:format>image/svg+xml</dc:format><dc:type
           rdf:resource="http://purl.org/dc/dcmitype/StillImage" /></cc:Work></rdf:RDF></metadata><g
     inkscape:label="Layer 1"
     inkscape:groupmode="layer"
     id="layer1"
     transform="translate(0,-288.53332)"><path
       style="fill:#bdbdbd;fill-opacity:1;stroke:#3a3a3a;stroke-width:0.460098;stroke-dasharray:none;stroke-opacity:1;paint-order:stroke fill markers"
       d="m 3.6698599,291.49751 c -0.013607,-0.003 -0.042762,-0.0365 -0.064793,-0.0743 -0.099399,-0.17015 -0.3152368,-0.3424 -0.535464,-0.42733 -0.217867,-0.084 -0.5246408,-0.13104 -0.8555854,-0.13115 l -0.149624,-6e-5 -0.00395,0.31081 c 0,0 0.00422,0.29883 -0.00395,0.31079 -0.00816,0.012 -0.041616,0.004 -0.041616,0.004 -0.036368,-0.0109 -0.1202376,-0.0482 -0.453402,-0.27256 -0.2264824,-0.15252 -0.5598735,-0.37701 -0.74086844,-0.49887 -0.18099528,-0.12186 -0.33472293,-0.23383 -0.34161753,-0.24882 -0.0246653,-0.0537 -0.0932931,-0.003 1.05424767,-0.77444 0.4227292,-0.2841 0.4962513,-0.32333 0.5234392,-0.27934 0.00508,0.008 0.00857,0.13998 0.00779,0.29283 -0.0011,0.21385 0.00285,0.27914 0.017235,0.28327 0.010269,0.003 0.093246,0.0193 0.1843929,0.0364 0.7387377,0.13849 1.2675251,0.51611 1.4343567,1.02431 0.034915,0.10635 0.066784,0.33741 0.053718,0.38947 -0.00976,0.0389 -0.035176,0.0663 -0.072631,0.0577 z"
       id="path13307"
       sodipodi:nodetypes="cccccczcccccccccsccc" /></g></svg>
