<?xml version="1.0" encoding="UTF-8" standalone="no"?>
<svg
   width="20"
   height="20"
   viewBox="0 0 5.2916665 5.2916668"
   version="1.1"
   id="svg8"
   inkscape:version="1.1.1 (3bf5ae0d25, 2021-09-20)"
   sodipodi:docname="bug.svg"
   inkscape:export-filename="D:\projects\dcc_platform\icons\bug.png"
   inkscape:export-xdpi="96.000008"
   inkscape:export-ydpi="96.000008"
   xmlns:inkscape="http://www.inkscape.org/namespaces/inkscape"
   xmlns:sodipodi="http://sodipodi.sourceforge.net/DTD/sodipodi-0.dtd"
   xmlns="http://www.w3.org/2000/svg"
   xmlns:svg="http://www.w3.org/2000/svg"
   xmlns:rdf="http://www.w3.org/1999/02/22-rdf-syntax-ns#"
   xmlns:cc="http://creativecommons.org/ns#"
   xmlns:dc="http://purl.org/dc/elements/1.1/">
  <defs
     id="defs2">
    <pattern
       id="EMFhbasepattern"
       patternUnits="userSpaceOnUse"
       width="6"
       height="6"
       x="0"
       y="0" />
  </defs>
  <sodipodi:namedview
     id="base"
     pagecolor="#ffffff"
     bordercolor="#666666"
     borderopacity="1.0"
     inkscape:pageopacity="0.0"
     inkscape:pageshadow="2"
     inkscape:zoom="22.627417"
     inkscape:cx="-0.30935922"
     inkscape:cy="11.667262"
     inkscape:document-units="px"
     inkscape:current-layer="layer1"
     showgrid="false"
     units="px"
     inkscape:window-width="1920"
     inkscape:window-height="1017"
     inkscape:window-x="-8"
     inkscape:window-y="-8"
     inkscape:window-maximized="1"
     showguides="false"
     inkscape:guide-bbox="true"
     inkscape:document-rotation="0"
     inkscape:pagecheckerboard="0"
     inkscape:snap-text-baseline="true"
     width="20px" />
  <metadata
     id="metadata5">
    <rdf:RDF>
      <cc:Work
         rdf:about="">
        <dc:format>image/svg+xml</dc:format>
        <dc:type
           rdf:resource="http://purl.org/dc/dcmitype/StillImage" />
      </cc:Work>
    </rdf:RDF>
  </metadata>
  <g
     inkscape:label="Layer 1"
     inkscape:groupmode="layer"
     id="layer1"
     transform="translate(0,-288.53332)">
    <path
       style="fill:#bdbdbd;fill-opacity:1;stroke:#3a3a3a;stroke-width:0.529167;stroke-miterlimit:4;stroke-dasharray:none;stroke-opacity:1;paint-order:stroke fill markers"
       d="m 2.3624803,293.11401 c -0.2595478,-0.0814 -0.5463367,-0.31731 -0.6884928,-0.56624 -0.039626,-0.0694 -0.081309,-0.12572 -0.09263,-0.12518 -0.01132,6.8e-4 -0.090057,0.0269 -0.1749682,0.0588 l -0.1543839,0.0577 -0.034728,0.11115 c -0.019101,0.0611 -0.054245,0.17849 -0.078099,0.2608 -0.052642,0.18161 -0.1118439,0.23742 -0.19437942,0.18324 -0.0274452,-0.0181 -0.0558033,-0.0514 -0.0630188,-0.0742 -0.0140792,-0.0444 0.12137652,-0.58144 0.16414682,-0.65075 0.016839,-0.0272 0.1005668,-0.0657 0.2450581,-0.11251 0.1515659,-0.0491 0.2163269,-0.0793 0.2092913,-0.0977 -0.0056,-0.0146 -0.025467,-0.10783 -0.044143,-0.20713 -0.032303,-0.17175 -0.032728,-0.28441 -0.00278,-0.74483 l 0.00451,-0.0694 -0.1916726,-0.067 c -0.1054199,-0.0368 -0.2005223,-0.0759 -0.2113387,-0.0867 -0.021018,-0.0211 -0.18277111,-0.59273 -0.18332029,-0.6479 -8.5705e-4,-0.085 0.15133249,-0.13474 0.20814369,-0.0679 0.01554,0.0182 0.060966,0.14587 0.1009503,0.28355 l 0.072699,0.25034 0.1546738,0.0544 0.1546739,0.0544 0.068202,-0.13179 0.068202,-0.13179 h 0.4197359 0.4197361 v 1.24766 1.24767 c -0.061472,0.004 -0.1227251,-0.02 -0.1760573,-0.0294 z m 0.4230709,-1.21873 v -1.24766 H 3.1943734 3.603196 l 0.065829,0.12373 c 0.036206,0.0681 0.071575,0.12374 0.0786,0.12374 0.00702,0 0.07612,-0.0205 0.1535475,-0.0455 l 0.1407766,-0.0455 0.039431,-0.13502 c 0.021686,-0.0743 0.054597,-0.18838 0.073132,-0.25359 0.041312,-0.14534 0.0774,-0.18467 0.1618798,-0.17642 0.04515,0.004 0.071651,0.022 0.089395,0.0593 0.021762,0.0457 0.013627,0.0947 -0.059319,0.35713 -0.046497,0.16727 -0.096996,0.3166 -0.1122207,0.33186 -0.015225,0.0152 -0.1142165,0.0566 -0.2199827,0.0919 l -0.1923021,0.0642 0.026856,0.12839 c 0.047789,0.22847 0.025961,0.65923 -0.044707,0.8823 -0.00954,0.0301 0.022104,0.0472 0.1900152,0.10265 0.1108066,0.0366 0.2164569,0.0795 0.2347788,0.0955 0.01832,0.0159 0.072823,0.1676 0.1211139,0.33701 0.084001,0.29468 0.086325,0.31026 0.053697,0.36016 -0.044882,0.0686 -0.1435722,0.0717 -0.1845249,0.005 -0.015845,-0.0255 -0.058695,-0.15383 -0.095219,-0.28515 l -0.066407,-0.23875 -0.1744795,-0.0569 c -0.095964,-0.0313 -0.1769612,-0.0538 -0.1799938,-0.05 -0.00302,0.004 -0.031285,0.0552 -0.062787,0.11411 -0.078707,0.14724 -0.2383108,0.32145 -0.3874534,0.42292 -0.1192521,0.0811 -0.4312761,0.18099 -0.4312761,0.18099 0,0 -0.036023,-0.0726 -0.036023,-1.24724 z m -1.0163166,-1.55935 c -0.032601,-0.16331 0.015224,-0.39119 0.1110879,-0.52928 0.033695,-0.0486 0.061264,-0.0954 0.061264,-0.10414 0,-0.0238 -0.3043059,-0.21875 -0.4212303,-0.26982 -0.056194,-0.0245 -0.1187193,-0.0596 -0.1389456,-0.0779 -0.077674,-0.0705 -0.024148,-0.19193 0.08455,-0.19193 0.077488,0 0.3955979,0.15897 0.5553989,0.27755 l 0.1312344,0.0974 0.1394063,-0.0644 c 0.284924,-0.13156 0.4575277,-0.1321 0.7344412,-0.003 l 0.1313567,0.0616 0.1277906,-0.0944 c 0.1663439,-0.12286 0.4704037,-0.27545 0.5488871,-0.27545 0.043354,0 0.071877,0.0156 0.095962,0.0524 0.053671,0.082 0.013404,0.14153 -0.1443451,0.2132 -0.1318799,0.0599 -0.4241744,0.23909 -0.4241744,0.26004 0,0.006 0.027268,0.0486 0.060593,0.0947 0.092319,0.12767 0.1274237,0.25729 0.1204279,0.44462 l -0.00606,0.16207 -0.8773713,0.005 -0.877371,0.005 z"
       id="path28"
       sodipodi:nodetypes="ccccccccccccscccccccccccccccccccccccsccccccscccccscsccccsccccccccsccsccccccsccscccccc" />
  </g>
</svg>
