<?xml version="1.0" encoding="UTF-8" standalone="no"?>
<svg
   xmlns:dc="http://purl.org/dc/elements/1.1/"
   xmlns:cc="http://creativecommons.org/ns#"
   xmlns:rdf="http://www.w3.org/1999/02/22-rdf-syntax-ns#"
   xmlns:svg="http://www.w3.org/2000/svg"
   xmlns="http://www.w3.org/2000/svg"
   xmlns:sodipodi="http://sodipodi.sourceforge.net/DTD/sodipodi-0.dtd"
   xmlns:inkscape="http://www.inkscape.org/namespaces/inkscape"
   inkscape:export-ydpi="96.000008"
   inkscape:export-xdpi="96.000008"
   inkscape:export-filename="D:\projects\git\dcc_platform\icons\color_picker.png"
   sodipodi:docname="color_picker.svg"
   inkscape:version="1.0 (4035a4fb49, 2020-05-01)"
   id="svg8"
   version="1.1"
   viewBox="0 0 4.2333332 4.2333334"
   height="16"
   width="16">
  <defs
     id="defs2" />
  <sodipodi:namedview
     inkscape:document-rotation="0"
     inkscape:window-maximized="1"
     inkscape:window-y="-8"
     inkscape:window-x="-8"
     inkscape:window-height="1018"
     inkscape:window-width="1920"
     units="px"
     showgrid="false"
     inkscape:current-layer="layer1"
     inkscape:document-units="px"
     inkscape:cy="10.304058"
     inkscape:cx="0.099926177"
     inkscape:zoom="22.627417"
     inkscape:pageshadow="2"
     inkscape:pageopacity="0.0"
     borderopacity="1.0"
     bordercolor="#666666"
     pagecolor="#ffffff"
     id="base" />
  <metadata
     id="metadata5">
    <rdf:RDF>
      <cc:Work
         rdf:about="">
        <dc:format>image/svg+xml</dc:format>
        <dc:type
           rdf:resource="http://purl.org/dc/dcmitype/StillImage" />
        <dc:title />
      </cc:Work>
    </rdf:RDF>
  </metadata>
  <g
     transform="translate(0,-292.76665)"
     id="layer1"
     inkscape:groupmode="layer"
     inkscape:label="Layer 1">
    <path
       id="path845"
       d="m 0.58288436,296.41859 c -0.065528,-0.0656 -0.066116,-0.11147 -0.00837,-0.65341 0.036921,-0.34654 0.051859,-0.42517 0.094382,-0.49683 0.027785,-0.0468 0.2953653,-0.32929 0.59462354,-0.62768 0.2992586,-0.29841 0.5441063,-0.5502 0.5441063,-0.55953 0,-0.009 -0.062252,-0.0832 -0.1383388,-0.16425 -0.1151927,-0.12265 -0.1383389,-0.15961 -0.1383389,-0.22089 0,-0.10297 0.017394,-0.13782 0.086654,-0.17363 0.1118276,-0.0579 0.1584772,-0.041 0.3313011,0.11919 l 0.1621394,0.15034 0.2172985,-0.21383 c 0.278325,-0.27389 0.4082467,-0.32845 0.5920011,-0.24864 0.087127,0.0378 0.7293938,0.68458 0.7591418,0.76443 0.02861,0.0768 0.02858,0.20817 -6.3e-5,0.28354 -0.01232,0.0324 -0.1241865,0.16219 -0.2485981,0.28844 l -0.2262031,0.22955 0.1528238,0.15761 c 0.1637208,0.16885 0.1810768,0.21604 0.1216871,0.33088 -0.035949,0.0696 -0.070617,0.0866 -0.1753106,0.0866 -0.064433,0 -0.097119,-0.0214 -0.2270506,-0.14822 l -0.1517819,-0.14821 -0.5959218,0.59339 c -0.5040847,0.50193 -0.6090509,0.5967 -0.6810617,0.61485 -0.095052,0.024 -0.76181614,0.0885 -0.91457844,0.0885 -0.075985,0 -0.1101517,-0.0119 -0.1505352,-0.0522 z m 1.78344894,-1.23996 0.2840169,-0.28127 -0.2671966,-0.2666 -0.267197,-0.26661 -0.5638644,0.5532 -0.56386484,0.5532 0.54704424,-0.005 0.5470445,-0.005 z"
       style="fill:#bdbdbd;stroke-width:0.52916666;fill-opacity:1;stroke:#3a3a3a;stroke-opacity:1;stroke-miterlimit:4;stroke-dasharray:none;paint-order:stroke markers fill" />
  </g>
</svg>
