<?xml version="1.0" encoding="UTF-8" standalone="no"?>
<svg
   inkscape:export-ydpi="96"
   inkscape:export-xdpi="96"
   inkscape:export-filename="..\connected.png"
   sodipodi:docname="connected.svg"
   inkscape:version="1.4 (86a8ad7, 2024-10-11)"
   id="svg8"
   version="1.1"
   viewBox="0 0 5.2916665 5.2916668"
   height="20"
   width="20"
   xmlns:inkscape="http://www.inkscape.org/namespaces/inkscape"
   xmlns:sodipodi="http://sodipodi.sourceforge.net/DTD/sodipodi-0.dtd"
   xmlns="http://www.w3.org/2000/svg"
   xmlns:svg="http://www.w3.org/2000/svg"
   xmlns:rdf="http://www.w3.org/1999/02/22-rdf-syntax-ns#"
   xmlns:cc="http://creativecommons.org/ns#"
   xmlns:dc="http://purl.org/dc/elements/1.1/">
  <defs
     id="defs2">
    <pattern
       id="EMFhbasepattern"
       patternUnits="userSpaceOnUse"
       width="6"
       height="6"
       x="0"
       y="0" />
  </defs>
  <sodipodi:namedview
     inkscape:document-rotation="0"
     inkscape:guide-bbox="true"
     showguides="true"
     inkscape:window-maximized="1"
     inkscape:window-y="449"
     inkscape:window-x="3832"
     inkscape:window-height="1009"
     inkscape:window-width="1920"
     units="px"
     showgrid="false"
     inkscape:current-layer="svg8"
     inkscape:document-units="px"
     inkscape:cy="11.40625"
     inkscape:cx="6.890625"
     inkscape:zoom="32"
     inkscape:pageshadow="2"
     inkscape:pageopacity="0.0"
     borderopacity="1.0"
     bordercolor="#666666"
     pagecolor="#ffffff"
     id="base"
     inkscape:showpageshadow="0"
     inkscape:pagecheckerboard="0"
     inkscape:deskcolor="#d1d1d1" />
  <metadata
     id="metadata5">
    <rdf:RDF>
      <cc:Work
         rdf:about="">
        <dc:format>image/svg+xml</dc:format>
        <dc:type
           rdf:resource="http://purl.org/dc/dcmitype/StillImage" />
        <dc:title />
      </cc:Work>
    </rdf:RDF>
  </metadata>
  <g
     style="display:inline"
     transform="translate(0,-291.70832)"
     id="layer1"
     inkscape:groupmode="layer"
     inkscape:label="Layer 1">
    <path
       inkscape:connector-curvature="0"
       id="path4593"
       d=""
       style="fill:#000000;stroke-width:0.26458332" />
    <g
       id="g199"
       transform="matrix(0.00377976,0,0,0.00377976,0.75595332,292.46427)"
       style="fill:#bdbdbd;fill-opacity:1;stroke-width:70">
      <path
         d="m 565.8,639 c -52.4,0 -104.9,-20 -144.8,-59.9 -10.8,-10.8 -10.8,-28.5 0,-39.3 10.8,-10.8 28.5,-10.8 39.3,0 58.2,58.2 152.8,58.2 211,0 L 873.5,337.6 c 58.2,-58.2 58.2,-152.8 0,-211 -58.2,-58.2 -152.8,-58.2 -211,0 L 491.9,297.2 c -10.8,10.8 -28.5,10.8 -39.3,0 -10.8,-10.8 -10.8,-28.5 0,-39.3 L 623.2,87.2 C 703,7.4 833,7.4 912.8,87.2 c 79.8,79.9 79.9,209.8 0,289.6 L 710.6,579.1 C 670.6,619 618.2,639 565.8,639 Z M 232.1,972.7 c -52.5,0 -104.9,-20 -144.8,-59.9 C 7.4,832.9 7.4,703 87.2,623.2 L 289.4,421 c 79.9,-79.9 209.8,-79.9 289.6,0 10.8,10.8 10.8,28.5 0,39.3 -10.8,10.8 -28.5,10.8 -39.3,0 -58.2,-58.2 -152.8,-58.2 -211,0 L 126.6,662.5 c -58.2,58.2 -58.2,152.8 0,211 58.2,58.2 152.8,58.2 211,0 L 508.2,702.9 c 10.8,-10.8 28.5,-10.8 39.3,0 10.8,10.8 10.8,28.5 0,39.3 L 376.8,912.8 c -39.9,39.9 -92.3,59.9 -144.7,59.9 z"
         id="path195"
         style="fill:#bdbdbd;fill-opacity:1;stroke-width:70" />
      <path
         d="m 232.1,990 v 0 C 172.7,990 116.9,966.9 75,925 33.1,883.1 10,827.3 10,767.9 10,708.5 33.1,652.7 75,610.8 L 277.2,408.6 c 41.9,-41.9 97.7,-65 157.1,-65 59.4,0 115.2,23.1 157,65 17.6,17.6 17.6,46.2 0,63.8 -8.5,8.5 -19.9,13.2 -31.9,13.2 -12,0 -23.4,-4.7 -31.9,-13.2 -24.9,-24.9 -58,-38.6 -93.2,-38.6 -35.3,0 -68.4,13.7 -93.2,38.6 L 138.8,674.8 c -24.9,24.9 -38.6,58 -38.6,93.2 0,35.2 13.7,68.4 38.6,93.2 24.9,24.9 58,38.6 93.2,38.6 35.3,0 68.4,-13.7 93.2,-38.6 L 495.8,690.6 c 8.5,-8.5 19.9,-13.2 31.9,-13.2 12.1,0 23.4,4.7 31.9,13.2 8.5,8.5 13.2,19.9 13.2,31.9 0,12.1 -4.7,23.4 -13.2,31.9 L 389.1,925 c -41.9,41.9 -97.6,65 -157,65 z M 565.8,656.3 v 0 c -59.4,0 -115.2,-23.1 -157.1,-65 -8.5,-8.5 -13.2,-19.9 -13.2,-31.9 0,-12.1 4.7,-23.4 13.2,-31.9 8.5,-8.5 19.9,-13.2 31.9,-13.2 12.1,0 23.4,4.7 31.9,13.2 24.9,24.9 58,38.6 93.2,38.6 35.3,0 68.4,-13.7 93.2,-38.6 L 861.1,325.3 c 24.9,-24.9 38.6,-58 38.6,-93.2 0,-35.2 -13.7,-68.4 -38.6,-93.2 -24.9,-24.9 -58,-38.6 -93.2,-38.6 -35.2,0 -68.4,13.7 -93.2,38.6 L 504.1,309.4 c -8.5,8.5 -19.9,13.2 -31.9,13.2 -12.1,0 -23.4,-4.7 -31.9,-13.2 -17.6,-17.6 -17.6,-46.2 0,-63.8 L 610.9,75 C 652.8,33.1 708.6,10 768,10 c 59.4,0 115.2,23.1 157,65 41.9,41.9 64.9,97.7 65,157.1 0,59.4 -23.1,115.2 -65,157.1 L 722.8,591.3 c -41.9,41.9 -97.6,65 -157,65 z"
         id="path197"
         style="fill:#bdbdbd;fill-opacity:1;stroke:#3a3a3a;stroke-width:70;stroke-opacity:1;paint-order:stroke fill markers"
         sodipodi:nodetypes="ssssssscssssccscscssssccssssssssscsscsccsssssccccs" />
    </g>
  </g>
</svg>
