<?xml version="1.0" encoding="UTF-8" standalone="no"?>
<svg
   inkscape:export-ydpi="96"
   inkscape:export-xdpi="96"
   inkscape:export-filename="D:\projects\git\dcc_platform\icons\connect.png"
   sodipodi:docname="connect.svg"
   inkscape:version="1.4 (86a8ad7, 2024-10-11)"
   id="svg8"
   version="1.1"
   viewBox="0 0 5.2916665 5.2916668"
   height="20"
   width="20"
   xmlns:inkscape="http://www.inkscape.org/namespaces/inkscape"
   xmlns:sodipodi="http://sodipodi.sourceforge.net/DTD/sodipodi-0.dtd"
   xmlns="http://www.w3.org/2000/svg"
   xmlns:svg="http://www.w3.org/2000/svg"
   xmlns:rdf="http://www.w3.org/1999/02/22-rdf-syntax-ns#"
   xmlns:cc="http://creativecommons.org/ns#"
   xmlns:dc="http://purl.org/dc/elements/1.1/">
  <defs
     id="defs2">
    <pattern
       id="EMFhbasepattern"
       patternUnits="userSpaceOnUse"
       width="6"
       height="6"
       x="0"
       y="0" />
  </defs>
  <sodipodi:namedview
     inkscape:document-rotation="0"
     inkscape:guide-bbox="true"
     showguides="true"
     inkscape:window-maximized="1"
     inkscape:window-y="449"
     inkscape:window-x="3832"
     inkscape:window-height="1009"
     inkscape:window-width="1920"
     units="px"
     showgrid="false"
     inkscape:current-layer="svg8"
     inkscape:document-units="px"
     inkscape:cy="15.374999"
     inkscape:cx="10.281249"
     inkscape:zoom="16.000001"
     inkscape:pageshadow="2"
     inkscape:pageopacity="0.0"
     borderopacity="1.0"
     bordercolor="#666666"
     pagecolor="#ffffff"
     id="base"
     inkscape:showpageshadow="2"
     inkscape:pagecheckerboard="0"
     inkscape:deskcolor="#d1d1d1" />
  <metadata
     id="metadata5">
    <rdf:RDF>
      <cc:Work
         rdf:about="">
        <dc:format>image/svg+xml</dc:format>
        <dc:type
           rdf:resource="http://purl.org/dc/dcmitype/StillImage" />
        <dc:title />
      </cc:Work>
    </rdf:RDF>
  </metadata>
  <g
     style="display:inline"
     transform="translate(0,-291.70832)"
     id="layer1"
     inkscape:groupmode="layer"
     inkscape:label="Layer 1">
    <path
       inkscape:connector-curvature="0"
       id="path4593"
       d=""
       style="fill:#000000;stroke-width:0.26458332" />
    <g
       inkscape:export-ydpi="96"
       inkscape:export-xdpi="96"
       inkscape:export-filename="D:\projects\git\dcc_platform\icons\connect.png"
       transform="matrix(0.00985184,0,0,0.00985184,0.52916673,292.23748)"
       id="g8"
       style="display:inline;opacity:1;fill:#bdbdbd;fill-opacity:1;stroke:#3a3a3a;stroke-width:53.71247046;stroke-miterlimit:4;stroke-dasharray:none;stroke-opacity:1;paint-order:stroke markers fill">
      <g
         id="g6"
         style="fill:#bdbdbd;fill-opacity:1;stroke:#3a3a3a;stroke-width:53.71247046;stroke-miterlimit:4;stroke-dasharray:none;stroke-opacity:1;paint-order:stroke markers fill">
        <path
           inkscape:connector-curvature="0"
           d="m 233.137,234.36 -30.939,30.94 -37.799,-37.8 30.939,-30.938 c 6.856,-6.855 6.856,-18.012 0,-24.867 -6.855,-6.856 -18.011,-6.856 -24.867,0 l -30.94,30.939 -15.539,-15.538 c -4.12,-4.122 -10.801,-4.121 -14.921,0 L 86.625,209.54 c -4.12,4.12 -4.12,10.801 0,14.921 l 3.35,3.351 -50.72,50.718 c -2.361,2.362 -3.465,5.702 -2.976,9.005 l 7.816,52.813 -41.005,41.005 c -4.12,4.119 -4.12,10.8 0,14.92 l 30.337,30.336 c 4.12,4.121 10.8,4.121 14.92,0 l 41.006,-41.006 52.813,7.817 c 3.303,0.488 6.644,-0.614 9.004,-2.977 l 50.719,-50.719 3.35,3.35 c 4.12,4.119 10.801,4.119 14.921,0 l 22.445,-22.447 c 4.121,-4.117 4.121,-10.801 0,-14.92 l -15.539,-15.539 30.939,-30.939 c 6.855,-6.856 6.855,-18.012 0,-24.868 -6.857,-6.856 -18.011,-6.856 -24.868,-10e-4 z"
           id="path2"
           style="fill:#bdbdbd;fill-opacity:1;stroke:#3a3a3a;stroke-width:53.71247046;stroke-miterlimit:4;stroke-dasharray:none;stroke-opacity:1;paint-order:stroke markers fill" />
        <path
           inkscape:connector-curvature="0"
           d="M 426.609,33.428 396.273,3.089 c -4.119,-4.118 -10.801,-4.118 -14.92,0 l -41.006,41.007 -52.814,-7.817 c -3.303,-0.488 -6.643,0.615 -9.004,2.978 l -50.719,50.719 -3.35,-3.351 c -4.119,-4.119 -10.8,-4.121 -14.921,0 l -22.446,22.446 c -4.12,4.12 -4.12,10.8 0,14.921 l 118.613,118.613 c 4.119,4.119 10.801,4.119 14.922,0 l 22.445,-22.447 c 4.119,-4.12 4.119,-10.801 0,-14.92 l -3.35,-3.35 50.719,-50.72 c 2.361,-2.36 3.465,-5.699 2.977,-9.004 l -7.816,-52.812 41.006,-41.006 c 4.121,-4.119 4.121,-10.801 0,-14.918 z"
           id="path4"
           style="fill:#bdbdbd;fill-opacity:1;stroke:#3a3a3a;stroke-width:53.71247046;stroke-miterlimit:4;stroke-dasharray:none;stroke-opacity:1;paint-order:stroke markers fill" />
      </g>
    </g>
  </g>
</svg>
