<?xml version="1.0" encoding="UTF-8" standalone="no"?>
<svg
   inkscape:export-ydpi="96.000008"
   inkscape:export-xdpi="96.000008"
   inkscape:export-filename="D:\projects\git\dcc_platform\icons\exposure.png"
   sodipodi:docname="exposure.svg"
   inkscape:version="1.4 (86a8ad7, 2024-10-11)"
   id="svg8"
   version="1.1"
   viewBox="0 0 4.2333332 4.2333334"
   height="16"
   width="16"
   xmlns:inkscape="http://www.inkscape.org/namespaces/inkscape"
   xmlns:sodipodi="http://sodipodi.sourceforge.net/DTD/sodipodi-0.dtd"
   xmlns="http://www.w3.org/2000/svg"
   xmlns:svg="http://www.w3.org/2000/svg"
   xmlns:rdf="http://www.w3.org/1999/02/22-rdf-syntax-ns#"
   xmlns:cc="http://creativecommons.org/ns#"
   xmlns:dc="http://purl.org/dc/elements/1.1/">
  <defs
     id="defs2" />
  <sodipodi:namedview
     inkscape:document-rotation="0"
     showguides="false"
     inkscape:window-maximized="1"
     inkscape:window-y="449"
     inkscape:window-x="3832"
     inkscape:window-height="1009"
     inkscape:window-width="1920"
     units="px"
     showgrid="false"
     inkscape:current-layer="layer1"
     inkscape:document-units="mm"
     inkscape:cy="8.3082776"
     inkscape:cx="7.8275315"
     inkscape:zoom="40.561957"
     inkscape:pageshadow="2"
     inkscape:pageopacity="0.0"
     borderopacity="1.0"
     bordercolor="#666666"
     pagecolor="#ffffff"
     id="base"
     inkscape:showpageshadow="2"
     inkscape:pagecheckerboard="0"
     inkscape:deskcolor="#d1d1d1" />
  <metadata
     id="metadata5">
    <rdf:RDF>
      <cc:Work
         rdf:about="">
        <dc:format>image/svg+xml</dc:format>
        <dc:type
           rdf:resource="http://purl.org/dc/dcmitype/StillImage" />
        <dc:title />
      </cc:Work>
    </rdf:RDF>
  </metadata>
  <g
     style="display:inline"
     transform="translate(0,-291.70832)"
     id="layer1"
     inkscape:groupmode="layer"
     inkscape:label="Layer 1">
    <path
       id="path847"
       d="m 1.8557894,295.39784 c -0.042302,-0.008 -0.07852,-0.0154 -0.080484,-0.0173 -0.00197,-0.002 0.1663748,-0.30053 0.3740863,-0.66348 0.2800396,-0.48933 0.3816109,-0.65552 0.3929519,-0.64292 0.00841,0.009 0.1414788,0.23229 0.2957045,0.49545 l 0.2804102,0.47846 -0.040984,0.034 c -0.1527686,0.12681 -0.4055102,0.24524 -0.619384,0.29024 -0.1505947,0.0317 -0.4880465,0.046 -0.6023014,0.0256 z m -0.4132418,-0.14576 c -0.3515381,-0.15266 -0.65830053,-0.47862 -0.79692586,-0.84677 -0.0198283,-0.0527 -0.0360513,-0.0988 -0.0360513,-0.1025 0,-0.004 0.34387262,-0.007 0.76416146,-0.007 0.4202888,0 0.7641614,0.005 0.7641614,0.009 0,0.0122 -0.5515351,0.95384 -0.5718455,0.9763 -0.01212,0.0134 -0.039694,0.007 -0.1235002,-0.0296 z m 1.4510478,-1.04363 c -0.2171664,-0.37475 -0.3969706,-0.68646 -0.3995651,-0.6927 -0.0026,-0.006 0.2625091,-0.0113 0.5891189,-0.0113 H 3.676985 l 0.017831,0.15981 c 0.032837,0.29432 -0.019533,0.58632 -0.1551555,0.8651 -0.064935,0.13347 -0.2161925,0.36048 -0.2401917,0.36048 -0.00606,0 -0.1887067,-0.30661 -0.4058731,-0.68136 z m -2.35507772,-0.2277 c -0.032838,-0.29432 0.0195328,-0.58632 0.15515543,-0.8651 0.0648717,-0.13334 0.21618518,-0.36048 0.24014311,-0.36048 0.006038,0 0.14696068,0.23697 0.31316368,0.52659 0.1662032,0.28962 0.3454987,0.59845 0.3984346,0.68627 0.052936,0.0878 0.096247,0.16257 0.096247,0.1661 0,0.003 -0.2666955,0.007 -0.5926565,0.007 H 0.5563483 Z m 0.86410892,-0.89479 -0.2875806,-0.48914 0.040898,-0.0339 c 0.1539903,-0.12784 0.4044905,-0.24469 0.626492,-0.29225 0.1453252,-0.0312 0.4765756,-0.0393 0.6134753,-0.0151 l 0.066978,0.0118 -0.3783031,0.65375 c -0.2080665,0.35955 -0.3819201,0.65377 -0.3863411,0.65381 -0.00442,5e-5 -0.1374495,-0.22003 -0.2956188,-0.48906 z m 0.7109587,0.24528 c 0.010801,-0.0272 0.5481525,-0.96345 0.5595499,-0.97496 0.00552,-0.005 0.058526,0.0109 0.1177914,0.0367 0.3513913,0.1526 0.6581835,0.47861 0.796785,0.84672 0.019828,0.0527 0.036052,0.0988 0.036052,0.10249 0,0.004 -0.3413699,0.007 -0.7586,0.007 -0.6011909,0 -0.7571427,-0.004 -0.7515777,-0.0177 z"
       style="fill:#bdbdbd;fill-opacity:1;stroke:#3a3a3a;stroke-width:0.529167;stroke-linejoin:round;stroke-miterlimit:4;stroke-dasharray:none;stroke-opacity:1;paint-order:stroke fill markers" />
  </g>
</svg>
