<?xml version="1.0" encoding="UTF-8" standalone="no"?>
<svg
   inkscape:export-ydpi="96.000008"
   inkscape:export-xdpi="96.000008"
   inkscape:export-filename="..\expression.png"
   sodipodi:docname="expression.svg"
   inkscape:version="1.4 (86a8ad7, 2024-10-11)"
   id="svg8"
   version="1.1"
   viewBox="0 0 5.2916665 3.1750001"
   height="12"
   width="20"
   xml:space="preserve"
   xmlns:inkscape="http://www.inkscape.org/namespaces/inkscape"
   xmlns:sodipodi="http://sodipodi.sourceforge.net/DTD/sodipodi-0.dtd"
   xmlns="http://www.w3.org/2000/svg"
   xmlns:svg="http://www.w3.org/2000/svg"
   xmlns:rdf="http://www.w3.org/1999/02/22-rdf-syntax-ns#"
   xmlns:cc="http://creativecommons.org/ns#"
   xmlns:dc="http://purl.org/dc/elements/1.1/"><defs
     id="defs2" /><sodipodi:namedview
     inkscape:document-rotation="0"
     inkscape:lockguides="false"
     inkscape:guide-bbox="true"
     showguides="true"
     inkscape:window-maximized="1"
     inkscape:window-y="449"
     inkscape:window-x="3832"
     inkscape:window-height="1009"
     inkscape:window-width="1920"
     units="px"
     showgrid="false"
     inkscape:current-layer="layer1"
     inkscape:document-units="px"
     inkscape:cy="3.802427"
     inkscape:cx="8.2112756"
     inkscape:zoom="30.506831"
     inkscape:pageshadow="2"
     inkscape:pageopacity="0.0"
     borderopacity="1.0"
     bordercolor="#666666"
     pagecolor="#ffffff"
     id="base"
     inkscape:showpageshadow="0"
     inkscape:pagecheckerboard="0"
     inkscape:deskcolor="#d1d1d1" /><metadata
     id="metadata5"><rdf:RDF><cc:Work
         rdf:about=""><dc:format>image/svg+xml</dc:format><dc:type
           rdf:resource="http://purl.org/dc/dcmitype/StillImage" /></cc:Work></rdf:RDF></metadata><g
     transform="translate(0,-293.82498)"
     id="layer1"
     inkscape:groupmode="layer"
     inkscape:label="Layer 1"><path
       inkscape:connector-curvature="0"
       d=""
       cx="2.6458333"
       cy="294.35416"
       r="1.699422"
       id="path4567"
       style="opacity:1;fill:#bdbdbd;fill-opacity:1;fill-rule:evenodd;stroke:#3a3a3a;stroke-width:0.264583;stroke-linecap:round;stroke-linejoin:round;stroke-miterlimit:4;stroke-dasharray:none;stroke-dashoffset:3.9;stroke-opacity:1;paint-order:fill markers stroke" /><text
       xml:space="preserve"
       style="font-style:normal;font-weight:normal;font-size:3.61244px;line-height:1.25;font-family:sans-serif;opacity:0.7;fill:#ff6b00;fill-opacity:1;stroke:none;stroke-width:0.264583"
       x="-0.01940085"
       y="296.71774"
       id="text14652"><tspan
         sodipodi:role="line"
         id="tspan14650"
         x="-0.01940085"
         y="296.71774"
         style="font-style:normal;font-variant:normal;font-weight:normal;font-stretch:normal;font-family:'Lucida Calligraphy';-inkscape-font-specification:'Lucida Calligraphy';fill:#ff6b00;fill-opacity:1;stroke-width:0.264583" /></text><path
       style="opacity:0.7;fill:#ffc700;fill-opacity:1;stroke:#3a3a3a;stroke-width:0.264583;stroke-dasharray:none;stroke-opacity:1;paint-order:stroke fill markers"
       d="m 0.55564367,296.86255 c -0.0689931,-0.0261 -0.16943403,-0.16728 -0.11548464,-0.27554 0.0270905,-0.0543 0.0674225,-0.0877 0.13255021,-0.10927 0.1885553,-0.0627 0.304118,-0.23676 0.3898887,-0.58709 0.021256,-0.0868 0.099704,-0.49452 0.099704,-0.51816 0,-0.006 -0.073663,-0.008 -0.19594142,-0.008 -0.1419863,-2.6e-4 -0.2044653,-0.003 -0.2268962,-0.0112 -0.1317718,-0.047 -0.17886375,-0.20879 -0.093399,-0.32083 0.011628,-0.0153 0.040663,-0.0386 0.064506,-0.0518 l 0.043349,-0.024 0.2452731,-0.003 0.24527242,-0.003 0.00787,-0.0305 c 0.00432,-0.0167 0.012147,-0.0471 0.017388,-0.0675 0.059782,-0.23306 0.1640057,-0.46171 0.2724849,-0.59778 0.088166,-0.11054 0.1810197,-0.18722 0.2949886,-0.24347 0.1490186,-0.0735 0.2360545,-0.0837 0.3121762,-0.0368 0.1155551,0.0714 0.1333568,0.22405 0.037018,0.31733 -0.02903,0.0281 -0.055096,0.0434 -0.104231,0.0607 -0.1891773,0.0672 -0.305338,0.21711 -0.3931138,0.50744 -0.012913,0.0427 -0.023475,0.0806 -0.023475,0.084 0,0.004 0.1215871,0.007 0.2701934,0.008 0.3064538,0.003 0.3151859,0.004 0.375053,0.0709 0.092567,0.10282 0.055853,0.26869 -0.071895,0.32492 -0.018468,0.008 -0.104983,0.0126 -0.3422509,0.015 l -0.3175369,0.004 -0.02238,0.12793 c -0.084101,0.48051 -0.1374765,0.67499 -0.2456724,0.89514 -0.115433,0.23488 -0.26764668,0.36913 -0.46640092,0.45898 -0.057566,0.026 -0.12004503,0.0397 -0.18903831,0.0136 z m 2.13135773,-0.0775 c -0.1355474,-0.0446 -0.1418791,-0.15834 -0.2139539,-0.45061 -0.1288962,-0.52269 -0.1045691,-1.15758 0.062144,-1.62178 0.031759,-0.0884 0.092923,-0.20398 0.1248943,-0.23595 0.068152,-0.0682 0.2086794,-0.0496 0.2639699,0.0346 0.031531,0.0481 0.029037,0.0796 -0.018906,0.2382 -0.1231171,0.40744 -0.1576339,0.62778 -0.1491247,0.95185 0.00688,0.26179 0.036106,0.43064 0.1266252,0.73135 0.031065,0.0839 0.087981,0.21285 0.059348,0.26996 -0.075162,0.11474 -0.1827724,0.13496 -0.2549968,0.0824 -5.4e-6,0 0,-2e-5 0,-2e-5 z m 1.7327883,0.032 c -0.074014,-0.024 -0.098669,-0.0735 -0.098669,-0.14103 0,-0.019 0.024041,-0.11474 0.053422,-0.21278 0.1012571,-0.33778 0.1280265,-0.4889 0.1341577,-0.75724 0.00763,-0.33435 -0.025194,-0.54723 -0.1463547,-0.94896 -0.041966,-0.13915 -0.048096,-0.18122 -0.032425,-0.22258 0.026774,-0.0707 0.129693,-0.116 0.2125876,-0.0936 0.054663,0.0147 0.088495,0.0512 0.1334199,0.14395 0.094322,0.19469 0.1643691,0.48452 0.1901132,0.78665 0.012933,0.15175 0.00582,0.523 -0.012526,0.65333 -0.053761,0.38212 -0.1647133,0.70747 -0.2652301,0.77776 -0.038926,0.0409 -0.090935,0.0361 -0.1302999,0.0261 -0.015064,-0.004 -0.028277,-0.008 -0.038196,-0.0116 z M 3.1000422,296.3883 c -0.092394,-0.0281 -0.148915,-0.10506 -0.1480876,-0.20164 7.714e-4,-0.0884 0.00797,-0.0986 0.2536271,-0.36301 0.096586,-0.10394 0.174551,-0.19178 0.1732538,-0.19518 -0.00129,-0.003 -0.076003,-0.0854 -0.1660107,-0.18239 -0.090009,-0.0969 -0.1715655,-0.19107 -0.1812373,-0.20922 -0.0272,-0.0511 -0.024286,-0.12737 0.00707,-0.18502 0.042377,-0.078 0.1084013,-0.11263 0.2016879,-0.1059 0.089998,0.007 0.1086622,0.0214 0.2572773,0.20641 0.071997,0.0896 0.132539,0.16294 0.1345407,0.16294 0.00197,0 0.061214,-0.0715 0.1315866,-0.15882 0.1312288,-0.16289 0.1621584,-0.19213 0.2166278,-0.20477 0.1214534,-0.0282 0.2304308,0.0284 0.2626031,0.13621 0.031547,0.10576 0.015153,0.13634 -0.1941404,0.36204 l -0.1668674,0.17996 0.016345,0.0181 c 0.00899,0.01 0.096516,0.10478 0.1945056,0.2107 0.1963671,0.21234 0.2200488,0.24706 0.2200488,0.32258 0,0.0573 -0.01017,0.0936 -0.037279,0.13256 -0.042023,0.0606 -0.1466403,0.0956 -0.223512,0.0749 -0.049676,-0.014 -0.096116,-0.0587 -0.2651107,-0.2586 -0.0835,-0.0987 -0.1529548,-0.17957 -0.1543416,-0.17957 -0.0014,0 -0.069392,0.0791 -0.1511214,0.17581 -0.1641331,0.19417 -0.2192907,0.24866 -0.2645121,0.26121 -0.034666,0.01 -0.086746,0.01 -0.1169536,7.3e-4 z"
       id="path14679"
       sodipodi:nodetypes="zcccscccccccccccccccscccccccazcccccccccaccccccccccccscccccccscccccccscccsccccccc" /></g></svg>
