<?xml version="1.0" encoding="UTF-8" standalone="no"?>
<!-- Created with Inkscape (http://www.inkscape.org/) -->

<svg
   width="20"
   height="20"
   viewBox="0 0 5.2916666 5.2916668"
   version="1.1"
   id="svg3686"
   sodipodi:docname="fieldasset.svg"
   inkscape:version="1.4 (86a8ad7, 2024-10-11)"
   enable-background="new"
   inkscape:export-filename="..\fieldasset.png"
   inkscape:export-xdpi="96"
   inkscape:export-ydpi="96"
   xml:space="preserve"
   xmlns:inkscape="http://www.inkscape.org/namespaces/inkscape"
   xmlns:sodipodi="http://sodipodi.sourceforge.net/DTD/sodipodi-0.dtd"
   xmlns="http://www.w3.org/2000/svg"
   xmlns:svg="http://www.w3.org/2000/svg"
   xmlns:rdf="http://www.w3.org/1999/02/22-rdf-syntax-ns#"
   xmlns:cc="http://creativecommons.org/ns#"
   xmlns:dc="http://purl.org/dc/elements/1.1/"><defs
     id="defs3680"><linearGradient
       id="linearGradient6108"
       inkscape:swatch="solid"><stop
         style="stop-color:#92e1ff;stop-opacity:1;"
         offset="0"
         id="stop6106" /></linearGradient><inkscape:path-effect
       effect="simplify"
       id="path-effect3708"
       is_visible="true"
       steps="11"
       threshold="0.002"
       smooth_angles="0"
       helper_size="5"
       simplify_individual_paths="false"
       simplify_just_coalesce="false"
       lpeversion="0" /></defs><sodipodi:namedview
     id="base"
     pagecolor="#ffffff"
     bordercolor="#666666"
     borderopacity="1.0"
     inkscape:pageopacity="0.0"
     inkscape:pageshadow="2"
     inkscape:zoom="22.627418"
     inkscape:cx="14.208426"
     inkscape:cy="10.253048"
     inkscape:document-units="px"
     inkscape:current-layer="svg3686"
     showgrid="false"
     units="px"
     inkscape:lockguides="false"
     showguides="false"
     inkscape:guide-bbox="true"
     inkscape:window-width="1920"
     inkscape:window-height="1009"
     inkscape:window-x="3832"
     inkscape:window-y="449"
     inkscape:window-maximized="1"
     inkscape:showpageshadow="2"
     inkscape:pagecheckerboard="0"
     inkscape:deskcolor="#d1d1d1"><sodipodi:guide
       position="33.866667,67.997918"
       orientation="1,0"
       id="guide3692"
       inkscape:locked="false"
       inkscape:label=""
       inkscape:color="rgb(0,0,255)" /><sodipodi:guide
       position="38.166087,22.263552"
       orientation="0,1"
       id="guide4569"
       inkscape:locked="false" /><sodipodi:guide
       position="17.399245,15.434815"
       orientation="1,0"
       id="guide4571"
       inkscape:locked="false" /><sodipodi:guide
       position="49.672039,13.189751"
       orientation="1,0"
       id="guide4573"
       inkscape:locked="false" /><sodipodi:guide
       position="27.87621,32.272795"
       orientation="0,1"
       id="guide4575"
       inkscape:locked="false" /><sodipodi:guide
       position="42.749759,2.0579754"
       orientation="0,1"
       id="guide4577"
       inkscape:locked="false" /><sodipodi:guide
       position="41.440138,42.469128"
       orientation="0,1"
       id="guide4579"
       inkscape:locked="false" /><sodipodi:guide
       position="42.749759,12.909118"
       orientation="0,1"
       id="guide4585"
       inkscape:locked="false" /></sodipodi:namedview><metadata
     id="metadata3683"><rdf:RDF><cc:Work
         rdf:about=""><dc:format>image/svg+xml</dc:format><dc:type
           rdf:resource="http://purl.org/dc/dcmitype/StillImage" /></cc:Work></rdf:RDF></metadata><g
     inkscape:groupmode="layer"
     id="layer4"
     inkscape:label="scatter"
     style="display:inline"><path
       id="rect1"
       style="fill:#bdbdbd;fill-opacity:1;stroke:#3a3a3a;stroke-width:0.529167;stroke-dasharray:none;stroke-opacity:1;paint-order:markers stroke fill"
       d="m 2.3524224,2.5822276 c -0.451051,0.00101 -0.821795,0.3560915 -0.842264,0.8066787 -0.0225,-0.00235 -0.04511,-0.00354 -0.06774,-0.00357 -0.365945,-1.22e-5 -0.66261305,0.2966343 -0.66262605,0.6625792 -1.2e-5,0.3659631 0.29666205,0.6626378 0.66262605,0.6626257 0.859122,-1.166e-4 2.577479,-0.00449 2.577479,-0.00449 0.277839,-0.024133 0.491298,-0.2563692 0.491977,-0.5352529 3e-6,-0.2974555 -0.241133,-0.5385915 -0.538589,-0.5385889 -0.0073,3.757e-4 -0.01465,9.007e-4 -0.02196,0.00158 -0.01954,-0.3708248 -0.325899,-0.6614893 -0.697238,-0.6615136 -0.05914,4.115e-4 -0.117996,0.00834 -0.175143,0.023584 -0.152232,-0.2564036 -0.42833,-0.4135932 -0.72652,-0.4136256 z"
       sodipodi:nodetypes="ccccccccccccc" /><g
       id="g17"
       style="display:inline"
       transform="translate(0,-0.95882939)"><path
         d="M 1.6376261,3.4680054 2.0164144,3.841626 C 2.199238,3.7171152 2.4151786,3.6447388 2.6463501,3.6447388 c 0.2282141,0 0.4417969,0.070659 0.6232178,0.1922363 L 3.65094,3.4649048 C 3.3695904,3.247814 3.0236089,3.1171224 2.6463501,3.1171224 c -0.3790856,0 -0.7267541,0.1318851 -1.008724,0.350883 z"
         style="opacity:1;fill:#bdbdbd;stroke:#3a3a3a;stroke-width:0.529167;stroke-dasharray:none;stroke-opacity:1;paint-order:markers stroke fill"
         id="path14" /><path
         d="M 1.0691854,2.9073161 1.4464233,3.2793864 C 1.7778638,3.00408 2.19443,2.8396199 2.6463501,2.83962 c 0.450621,0 0.8658464,0.1638276 1.1968262,0.4376994 l 0.379305,-0.3705201 c -0.427289,-0.371714 -0.9760266,-0.596346 -1.5761312,-0.596346 -0.6003615,0 -1.1494628,0.2248635 -1.5771647,0.5968628 z"
         style="opacity:1;fill:#bdbdbd;stroke:#3a3a3a;stroke-width:0.529167;stroke-dasharray:none;stroke-opacity:1;paint-order:markers stroke fill"
         id="path10" /><path
         d="m 2.6463501,1.4939657 c -0.8240208,0 -1.5745743,0.3225348 -2.14715576,0.8511108 L 0.874882,2.7155965 C 1.3521229,2.284153 1.9708982,2.0236491 2.6463501,2.0236491 c 0.6755854,0 1.2945345,0.2603507 1.7714681,0.6919474 L 4.7950562,2.3471436 C 4.2225579,1.8173882 3.4714021,1.4939657 2.6463501,1.4939657 Z"
         style="opacity:1;fill:#bdbdbd;stroke:#3a3a3a;stroke-width:0.529167;stroke-dasharray:none;stroke-opacity:1;paint-order:markers stroke fill"
         id="path5" /></g></g></svg>
