<?xml version="1.0" encoding="UTF-8" standalone="no"?>
<svg
   inkscape:export-ydpi="384"
   inkscape:export-xdpi="384"
   inkscape:export-filename="..\function.png"
   sodipodi:docname="function.svg"
   inkscape:version="1.4 (86a8ad7, 2024-10-11)"
   id="svg8"
   version="1.1"
   viewBox="0 0 5.2916665 5.2916668"
   height="20"
   width="20"
   xmlns:inkscape="http://www.inkscape.org/namespaces/inkscape"
   xmlns:sodipodi="http://sodipodi.sourceforge.net/DTD/sodipodi-0.dtd"
   xmlns="http://www.w3.org/2000/svg"
   xmlns:svg="http://www.w3.org/2000/svg"
   xmlns:rdf="http://www.w3.org/1999/02/22-rdf-syntax-ns#"
   xmlns:cc="http://creativecommons.org/ns#"
   xmlns:dc="http://purl.org/dc/elements/1.1/">
  <defs
     id="defs2">
    <pattern
       id="EMFhbasepattern"
       patternUnits="userSpaceOnUse"
       width="6"
       height="6"
       x="0"
       y="0" />
  </defs>
  <sodipodi:namedview
     inkscape:document-rotation="0"
     inkscape:window-maximized="1"
     inkscape:window-y="449"
     inkscape:window-x="3832"
     inkscape:window-height="1009"
     inkscape:window-width="1920"
     units="px"
     showgrid="false"
     inkscape:current-layer="layer1"
     inkscape:document-units="px"
     inkscape:cy="14.25"
     inkscape:cx="0.28125"
     inkscape:zoom="16"
     inkscape:pageshadow="2"
     inkscape:pageopacity="0.0"
     borderopacity="1.0"
     bordercolor="#666666"
     pagecolor="#ffffff"
     id="base"
     inkscape:showpageshadow="2"
     inkscape:pagecheckerboard="0"
     inkscape:deskcolor="#d1d1d1" />
  <metadata
     id="metadata5">
    <rdf:RDF>
      <cc:Work
         rdf:about="">
        <dc:format>image/svg+xml</dc:format>
        <dc:type
           rdf:resource="http://purl.org/dc/dcmitype/StillImage" />
      </cc:Work>
    </rdf:RDF>
  </metadata>
  <g
     transform="translate(0,-292.76665)"
     id="layer1"
     inkscape:groupmode="layer"
     inkscape:label="Layer 1">
    <path
       class="cls-1"
       d="M 4.796249,297.07646 H 4.2327792 l -0.3217847,-0.45992 -0.3306443,0.45992 H 3.0282273 l 0.5942316,-0.76906 -0.5848163,-0.76696 h 0.5633551 l 0.3165234,0.45067 0.3182615,-0.45067 h 0.5538252 l -0.5862212,0.75654 z m -1.5970743,-2.85847 h -0.083508 a 1.1257928,1.1257928 0 0 0 -0.1412464,-0.0358 0.88005403,0.88005403 0 0 0 -0.1729508,-0.018 0.4733244,0.4733244 0 0 0 -0.2982089,0.0865 0.4780159,0.4780159 0 0 0 -0.1452211,0.32077 l -0.046011,0.33577 h 0.6618334 v 0.45946 h -0.753836 l -0.1347594,0.88248 a 1.2822499,1.2822499 0 0 1 -0.165582,0.48622 0.92566436,0.92566436 0 0 1 -0.280855,0.28962 1.0806054,1.0806054 0 0 1 -0.3364469,0.1388 1.7284038,1.7284038 0 0 1 -0.38253739,0.0407 q -0.098511,0 -0.2253636,-0.0108 a 1.2646738,1.2646738 0 0 1 -0.199064,-0.0279 v -0.6505 h 0.042965 a 0.20084524,0.20084524 0 0 0 0.1519054,0.0876 0.90964738,0.90964738 0 0 0 0.179255,0.0183 0.46741434,0.46741434 0 0 0 0.32177389,-0.10359 0.56770976,0.56770976 0 0 0 0.1519053,-0.35312 l 0.1181725,-0.7978 H 0.94604441 v -0.45949 H 1.5883771 l 0.06409,-0.41639 a 1.0545638,1.0545638 0 0 1 0.1590447,-0.44618 0.90163341,0.90163341 0 0 1 0.2723646,-0.26293 0.94737637,0.94737637 0 0 1 0.3370238,-0.12747 2.0109075,2.0109075 0 0 1 0.352833,-0.0338 q 0.1053704,0 0.2107408,0.009 0.1053704,0.009 0.2147082,0.0271 z"
       id="path1"
       style="stroke-width:0.52916666;fill:#bdbdbd;fill-opacity:1;stroke:#3a3a3a;stroke-opacity:1;stroke-dasharray:none;paint-order:stroke markers fill;stroke-linejoin:round" />
  </g>
</svg>
