<?xml version="1.0" encoding="UTF-8" standalone="no"?>
<svg
   xmlns:dc="http://purl.org/dc/elements/1.1/"
   xmlns:cc="http://creativecommons.org/ns#"
   xmlns:rdf="http://www.w3.org/1999/02/22-rdf-syntax-ns#"
   xmlns:svg="http://www.w3.org/2000/svg"
   xmlns="http://www.w3.org/2000/svg"
   xmlns:sodipodi="http://sodipodi.sourceforge.net/DTD/sodipodi-0.dtd"
   xmlns:inkscape="http://www.inkscape.org/namespaces/inkscape"
   inkscape:export-ydpi="96.000008"
   inkscape:export-xdpi="96.000008"
   inkscape:export-filename="D:\projects\git\dcc_platform\icons\gear.png"
   sodipodi:docname="gear.svg"
   inkscape:version="1.0 (4035a4fb49, 2020-05-01)"
   id="svg8"
   version="1.1"
   viewBox="0 0 3.1749999 3.1750001"
   height="12"
   width="12">
  <defs
     id="defs2">
    <pattern
       id="EMFhbasepattern"
       patternUnits="userSpaceOnUse"
       width="6"
       height="6"
       x="0"
       y="0" />
  </defs>
  <sodipodi:namedview
     inkscape:document-rotation="0"
     inkscape:window-maximized="1"
     inkscape:window-y="-8"
     inkscape:window-x="-8"
     inkscape:window-height="1018"
     inkscape:window-width="1920"
     units="px"
     showgrid="false"
     inkscape:current-layer="layer1"
     inkscape:document-units="px"
     inkscape:cy="8.280453"
     inkscape:cx="2.0379428"
     inkscape:zoom="16"
     inkscape:pageshadow="2"
     inkscape:pageopacity="0.0"
     borderopacity="1.0"
     bordercolor="#666666"
     pagecolor="#ffffff"
     id="base" />
  <metadata
     id="metadata5">
    <rdf:RDF>
      <cc:Work
         rdf:about="">
        <dc:format>image/svg+xml</dc:format>
        <dc:type
           rdf:resource="http://purl.org/dc/dcmitype/StillImage" />
        <dc:title></dc:title>
      </cc:Work>
    </rdf:RDF>
  </metadata>
  <g
     transform="translate(0,-292.76665)"
     id="layer1"
     inkscape:groupmode="layer"
     inkscape:label="Layer 1">
    <path
       d="m 1.5703889,293.03135 c -0.1516052,0 -0.2753519,0.002 -0.2753519,0.005 0,0.0431 -0.058561,0.42032 -0.064904,0.42285 -0.043465,0.0155 -0.1620688,0.0824 -0.2091362,0.11801 -0.0318435,0.0241 -0.0631505,0.0439 -0.0694933,0.0439 -0.0067,0 -0.0983175,-0.0319 -0.20323588,-0.0708 -0.17472019,-0.0647 -0.19177536,-0.0702 -0.20192465,-0.0564 -0.020565,0.0266 -0.2609286,0.44807 -0.2609286,0.45695 0,0.005 0.075623,0.0676 0.16848907,0.139 l 0.16914466,0.1298 -6.5442e-4,0.13178 c 0,0.0725 0.002094,0.14449 0.005901,0.15996 0.006509,0.0278 0.004371,0.0303 -0.16324427,0.16915 -0.15957338,0.13221 -0.16880539,0.1417 -0.15865609,0.15997 0.0860914,0.15591 0.26183944,0.45177 0.26945139,0.4517 0.005075,0 0.0955895,-0.0362 0.20126907,-0.08 0.17359111,-0.0722 0.19367982,-0.0783 0.20979183,-0.0669 0.0449363,0.0316 0.13379669,0.0778 0.19799109,0.10358 0.038568,0.0155 0.071228,0.0284 0.072116,0.0289 8.857e-4,5e-4 0.015928,0.0814 0.033436,0.17963 0.017634,0.0982 0.034176,0.18724 0.036714,0.19864 l 0.00393,0.021 0.2746963,-0.002 0.2746962,-0.003 0.027535,-0.19865 c 0.015097,-0.10924 0.028276,-0.20065 0.030813,-0.20192 0.00216,-0.002 0.026081,-0.0122 0.053103,-0.0236 0.059894,-0.0249 0.1455726,-0.0741 0.1894683,-0.10884 0.017888,-0.0143 0.036185,-0.0256 0.039992,-0.0256 0.00421,1.3e-4 0.09375,0.0343 0.1993022,0.076 0.1056035,0.0418 0.1954538,0.0761 0.1979911,0.0761 0.00589,0 0.2631506,-0.44097 0.2707626,-0.46482 0.00311,-0.009 -0.048558,-0.0539 -0.1671778,-0.14424 l -0.1717671,-0.13046 6.563e-4,-0.16325 v -0.1639 l 0.1606218,-0.13374 c 0.088299,-0.0736 0.1619757,-0.13584 0.1632443,-0.13964 0.00223,-0.006 -0.2514568,-0.45186 -0.2661733,-0.4681 -0.00361,-0.004 -0.095569,0.0296 -0.2045471,0.0747 l -0.1979911,0.082 -0.055726,-0.0387 c -0.030423,-0.0216 -0.095537,-0.0596 -0.1448875,-0.0846 l -0.089817,-0.0459 -0.034746,-0.20651 -0.034746,-0.20717 z m 0.020323,0.88505 c 0.2497234,-3.9e-4 0.45543,0.2073 0.4549859,0.45959 -3.295e-4,0.19382 -0.1290583,0.37136 -0.3140322,0.43268 0,0 -6.562e-4,0 -6.562e-4,0 -0.1706942,0.0562 -0.3477746,0.0102 -0.473344,-0.12325 -0.1763567,-0.18724 -0.1716141,-0.45615 0.010489,-0.63527 0.092866,-0.0913 0.1946611,-0.13353 0.322555,-0.13375 z"
       style="fill:#bdbdbd;fill-opacity:1;stroke-width:0.999996"
       id="path1075" />
  </g>
</svg>
