<?xml version="1.0" encoding="UTF-8" standalone="no"?>
<!-- Created with Inkscape (http://www.inkscape.org/) -->

<svg
   width="20"
   height="20"
   viewBox="0 0 5.2916665 5.2916668"
   version="1.1"
   id="svg8"
   inkscape:version="1.2 (dc2aedaf03, 2022-05-15)"
   sodipodi:docname="goto_end.svg"
   inkscape:export-filename="..\goto_end.png"
   inkscape:export-xdpi="96"
   inkscape:export-ydpi="96"
   xmlns:inkscape="http://www.inkscape.org/namespaces/inkscape"
   xmlns:sodipodi="http://sodipodi.sourceforge.net/DTD/sodipodi-0.dtd"
   xmlns="http://www.w3.org/2000/svg"
   xmlns:svg="http://www.w3.org/2000/svg"
   xmlns:rdf="http://www.w3.org/1999/02/22-rdf-syntax-ns#"
   xmlns:cc="http://creativecommons.org/ns#"
   xmlns:dc="http://purl.org/dc/elements/1.1/">
  <defs
     id="defs2" />
  <sodipodi:namedview
     id="base"
     pagecolor="#ffffff"
     bordercolor="#666666"
     borderopacity="1.0"
     inkscape:pageopacity="0.0"
     inkscape:pageshadow="2"
     inkscape:zoom="32"
     inkscape:cx="12"
     inkscape:cy="10.75"
     inkscape:document-units="px"
     inkscape:current-layer="path2350"
     showgrid="false"
     units="px"
     inkscape:window-width="1920"
     inkscape:window-height="1017"
     inkscape:window-x="-8"
     inkscape:window-y="-8"
     inkscape:window-maximized="1"
     inkscape:showpageshadow="0"
     inkscape:pagecheckerboard="0"
     inkscape:deskcolor="#d1d1d1" />
  <metadata
     id="metadata5">
    <rdf:RDF>
      <cc:Work
         rdf:about="">
        <dc:format>image/svg+xml</dc:format>
        <dc:type
           rdf:resource="http://purl.org/dc/dcmitype/StillImage" />
      </cc:Work>
    </rdf:RDF>
  </metadata>
  <g
     inkscape:label="Layer 1"
     inkscape:groupmode="layer"
     id="layer1"
     transform="translate(0,-291.70832)">
    <g
       id="path2350">
      <g
         id="path2350-2">
        <path
           style="color:#000000;fill:#bdbdbd;fill-rule:evenodd;stroke-width:0.264583;stroke-linecap:round;stroke-linejoin:round;stroke-dashoffset:3.9;-inkscape-stroke:none"
           d="m 1.0583333,293.03124 v 1.32291 1.32292 l 1.0583334,-0.66146 0.2645833,-0.16536 v 0.82682 l 1.0583333,-0.66146 0.5539714,-0.34623 v -0.63045 L 3.4395833,293.69269 2.38125,293.03124 v 0.82682 l -0.2645833,-0.16537 z"
           id="path22286" />
        <path
           style="color:#000000;fill:#3a3a3a;fill-rule:evenodd;stroke-linecap:round;stroke-linejoin:round;stroke-dashoffset:3.9;-inkscape-stroke:none"
           d="m 0.99414063,292.91602 a 0.13230472,0.13230472 0 0 0 -0.0683594,0.11523 v 1.32227 1.32421 a 0.13230472,0.13230472 0 0 0 0.20312495,0.11133 l 1.0585938,-0.66211 0.060547,-0.0371 v 0.58789 a 0.13230472,0.13230472 0 0 0 0.203125,0.11133 l 1.0585937,-0.66211 0.5546875,-0.3457 A 0.13230472,0.13230472 0 0 0 4.125,294.66992 v -0.63086 a 0.13230472,0.13230472 0 0 0 -0.060547,-0.11328 l -0.5546875,-0.3457 -1.0585937,-0.66016 a 0.13230472,0.13230472 0 0 0 -0.203125,0.11133 v 0.58789 L 2.1875,293.58008 1.1289062,292.91992 a 0.13230472,0.13230472 0 0 0 -0.13476557,-0.004 z m 0.19726557,0.35351 0.8554688,0.53516 0.2636719,0.16601 a 0.13230472,0.13230472 0 0 0 0.203125,-0.11328 v -0.58789 l 0.8554687,0.53516 0.4921875,0.30664 v 0.48437 l -0.4921875,0.3086 -0.8554687,0.5332 v -0.58789 a 0.13230472,0.13230472 0 0 0 -0.203125,-0.11133 l -0.2636719,0.16602 -0.8554688,0.5332 v -1.08398 z"
           id="path22288" />
      </g>
      <path
         style="fill:#bdbdbd;fill-opacity:1;fill-rule:evenodd;stroke:#3a3a3a;stroke-width:0.264583;stroke-linecap:round;stroke-linejoin:miter;stroke-miterlimit:4;stroke-dasharray:none;stroke-dashoffset:3.9;stroke-opacity:1;paint-order:normal"
         d="m 3.5718748,292.63436 h 0.7937504 v 3.43958 H 3.5718748 Z"
         id="rect4487"
         inkscape:connector-curvature="0" />
    </g>
  </g>
</svg>
