<?xml version="1.0" encoding="UTF-8" standalone="no"?>
<svg
   width="20"
   height="20"
   viewBox="0 0 5.2916665 5.2916668"
   version="1.1"
   id="svg8"
   inkscape:version="1.4 (86a8ad7, 2024-10-11)"
   sodipodi:docname="HydraOpMerge.svg"
   inkscape:export-filename="..\HydraOpMerge.png"
   inkscape:export-xdpi="384"
   inkscape:export-ydpi="384"
   xmlns:inkscape="http://www.inkscape.org/namespaces/inkscape"
   xmlns:sodipodi="http://sodipodi.sourceforge.net/DTD/sodipodi-0.dtd"
   xmlns="http://www.w3.org/2000/svg"
   xmlns:svg="http://www.w3.org/2000/svg"
   xmlns:rdf="http://www.w3.org/1999/02/22-rdf-syntax-ns#"
   xmlns:cc="http://creativecommons.org/ns#"
   xmlns:dc="http://purl.org/dc/elements/1.1/">
  <defs
     id="defs2" />
  <sodipodi:namedview
     id="base"
     pagecolor="#ffffff"
     bordercolor="#666666"
     borderopacity="1.0"
     inkscape:pageopacity="0.0"
     inkscape:pageshadow="2"
     inkscape:zoom="31.127883"
     inkscape:cx="9.1718412"
     inkscape:cy="9.2842806"
     inkscape:document-units="px"
     inkscape:current-layer="svg8"
     showgrid="false"
     units="px"
     inkscape:window-width="1920"
     inkscape:window-height="1009"
     inkscape:window-x="3832"
     inkscape:window-y="449"
     inkscape:window-maximized="1"
     showguides="true"
     inkscape:guide-bbox="true"
     inkscape:document-rotation="0"
     inkscape:showpageshadow="2"
     inkscape:pagecheckerboard="0"
     inkscape:deskcolor="#d1d1d1" />
  <metadata
     id="metadata5">
    <rdf:RDF>
      <cc:Work
         rdf:about="">
        <dc:format>image/svg+xml</dc:format>
        <dc:type
           rdf:resource="http://purl.org/dc/dcmitype/StillImage" />
        <dc:title />
      </cc:Work>
    </rdf:RDF>
  </metadata>
  <g
     inkscape:label="Layer 1"
     inkscape:groupmode="layer"
     id="layer1"
     transform="translate(0,-291.70832)"
     style="display:inline">
    <path
       style="fill:#000000;stroke-width:0.26458332"
       d=""
       id="path4593"
       inkscape:connector-curvature="0" />
    <path
       sodipodi:nodetypes="ccccsccsccscsccscccccccccscccc"
       id="path877"
       d="m 4.0522824,292.33632 c 0.00856,0.0218 0.052128,0.12457 0.096831,0.22824 l 0.081277,0.18848 -0.2149717,0.11311 c -0.5998719,0.31561 -0.9298246,0.67435 -1.038097,1.12867 -0.029629,0.12432 -0.035437,0.21269 -0.035542,0.54085 l -1.355e-4,0.39223 h 0.2958032 c 0.1687506,0 0.2958004,0.0166 0.2958004,0.0166 0,0 -0.1028579,0.17704 -0.228573,0.3731 -0.125715,0.19606 -0.3219971,0.50305 -0.4361821,0.68219 -0.1141855,0.17914 -0.2226457,0.32571 -0.2226457,0.32571 0,0 -0.1084601,-0.14657 -0.2226456,-0.32571 -0.1141849,-0.17914 -0.3104667,-0.48613 -0.4361819,-0.68219 -0.1257151,-0.19606 -0.2285724,-0.3731 -0.2285724,-0.3731 0,0 0.1270492,-0.0166 0.2957996,-0.0166 h 0.2958011 l -1.357e-4,-0.39223 c -1.352e-4,-0.45814 -0.025346,-0.60392 -0.1440573,-0.83346 -0.1703288,-0.32935 -0.4584422,-0.58819 -0.9321109,-0.8374 l -0.2124468,-0.11177 0.096856,-0.22456 c 0.059479,-0.13788 0.1194235,-0.21873 0.1194235,-0.21873 0,0 0.4066983,0.19936 0.5256793,0.27415 0.3034336,0.19076 0.5710198,0.42361 0.7363587,0.64077 0.056225,0.0739 0.1040268,0.13426 0.1062228,0.13426 0.00219,0 0.049997,-0.0604 0.1062235,-0.13426 0.2426636,-0.31871 0.6786358,-0.64644 1.1536133,-0.86721 l 0.1310374,-0.0609 z"
       style="fill:#bdbdbd;fill-opacity:1;stroke:#3a3a3a;stroke-width:0.529167;stroke-miterlimit:4;stroke-dasharray:none;stroke-opacity:1;paint-order:stroke markers fill" />
  </g>
</svg>
