<?xml version="1.0" encoding="UTF-8" standalone="no"?>
<svg
   inkscape:export-ydpi="384"
   inkscape:export-xdpi="384"
   inkscape:export-filename="..\HydraOpUsdIn.png"
   sodipodi:docname="HydraOpUsdIn.svg"
   inkscape:version="1.4 (86a8ad7, 2024-10-11)"
   id="svg8"
   version="1.1"
   viewBox="0 0 5.2916665 5.2916668"
   height="20"
   width="20"
   xmlns:inkscape="http://www.inkscape.org/namespaces/inkscape"
   xmlns:sodipodi="http://sodipodi.sourceforge.net/DTD/sodipodi-0.dtd"
   xmlns="http://www.w3.org/2000/svg"
   xmlns:svg="http://www.w3.org/2000/svg"
   xmlns:rdf="http://www.w3.org/1999/02/22-rdf-syntax-ns#"
   xmlns:cc="http://creativecommons.org/ns#"
   xmlns:dc="http://purl.org/dc/elements/1.1/">
  <defs
     id="defs2" />
  <sodipodi:namedview
     inkscape:document-rotation="0"
     inkscape:guide-bbox="true"
     showguides="true"
     inkscape:window-maximized="1"
     inkscape:window-y="449"
     inkscape:window-x="3832"
     inkscape:window-height="1009"
     inkscape:window-width="1920"
     units="px"
     showgrid="false"
     inkscape:current-layer="svg8"
     inkscape:document-units="px"
     inkscape:cy="9.849562"
     inkscape:cx="9.1319511"
     inkscape:zoom="35.534575"
     inkscape:pageshadow="2"
     inkscape:pageopacity="0.0"
     borderopacity="1.0"
     bordercolor="#666666"
     pagecolor="#ffffff"
     id="base"
     inkscape:showpageshadow="2"
     inkscape:pagecheckerboard="0"
     inkscape:deskcolor="#d1d1d1" />
  <metadata
     id="metadata5">
    <rdf:RDF>
      <cc:Work
         rdf:about="">
        <dc:format>image/svg+xml</dc:format>
        <dc:type
           rdf:resource="http://purl.org/dc/dcmitype/StillImage" />
        <dc:title />
      </cc:Work>
    </rdf:RDF>
  </metadata>
  <g
     style="display:inline"
     transform="translate(0,-291.70832)"
     id="layer1"
     inkscape:groupmode="layer"
     inkscape:label="Layer 1">
    <path
       inkscape:connector-curvature="0"
       id="path4593"
       d=""
       style="fill:#000000;stroke-width:0.26458332" />
    <path
       d="m 0.78378746,292.69934 c -0.001503,0 -0.00248,0.65012 -0.00248,1.44484 v 1.44526 l 0.0401,0.0107 c 0.0221652,0.006 0.0453508,0.0115 0.0512619,0.0116 0.005911,1.6e-4 0.0237339,0.007 0.0396866,0.0153 0.015953,0.008 0.0570731,0.0231 0.0913619,0.0331 0.034289,0.01 0.067261,0.0212 0.073172,0.026 0.00591,0.004 0.042193,0.0168 0.080614,0.0273 0.03842,0.0105 0.074702,0.0217 0.080613,0.0265 0.00591,0.004 0.032519,0.0143 0.059117,0.0215 0.026599,0.008 0.062467,0.0201 0.0802,0.0273 0.017732,0.008 0.099973,0.0359 0.1827239,0.0632 0.082752,0.0273 0.2278812,0.0768 0.3224539,0.10955 0.094573,0.0328 0.2010014,0.069 0.2364662,0.0802 0.1074628,0.0341 0.3855173,0.129 0.4084416,0.13932 0.011821,0.005 0.048104,0.0175 0.080614,0.0273 0.032509,0.01 0.068792,0.0225 0.080614,0.0273 0.011821,0.005 0.081968,0.0292 0.1558526,0.0533 0.073885,0.0241 0.1440314,0.0486 0.1558527,0.0542 0.011821,0.006 0.052941,0.0197 0.091362,0.031 0.03842,0.0113 0.1158229,0.0374 0.1719754,0.0579 v 4.3e-4 c 0.056153,0.0205 0.1031188,0.0378 0.1045907,0.0384 0.00148,5.9e-4 0.00289,-0.64896 0.00289,-1.44319 v -1.44402 l -0.051261,-0.0136 c -0.028076,-0.008 -0.055685,-0.0171 -0.061597,-0.0219 -0.00591,-0.004 -0.039845,-0.0165 -0.075239,-0.0269 -0.035394,-0.0103 -0.071675,-0.0229 -0.080613,-0.0277 -0.00894,-0.005 -0.1177142,-0.0429 -0.2418404,-0.0843 -0.3007938,-0.10047 -0.5252473,-0.178 -0.5378367,-0.1852 -0.00564,-0.003 -0.039362,-0.0142 -0.074826,-0.024 -0.035465,-0.01 -0.074166,-0.0225 -0.085988,-0.0281 -0.011822,-0.006 -0.05536,-0.0214 -0.096736,-0.0351 -0.2694407,-0.0898 -0.3788479,-0.12703 -0.3976931,-0.13559 -0.011821,-0.005 -0.048104,-0.0179 -0.080614,-0.0277 -0.032509,-0.01 -0.073629,-0.0242 -0.091362,-0.0323 -0.017733,-0.008 -0.054015,-0.0197 -0.080614,-0.0269 -0.026599,-0.007 -0.053205,-0.0167 -0.059117,-0.0215 -0.00591,-0.005 -0.036942,-0.0162 -0.069452,-0.0252 -0.03251,-0.009 -0.1437754,-0.046 -0.2472146,-0.0823 -0.17463393,-0.0612 -0.24869573,-0.086 -0.25548278,-0.086 z m 0.48120044,0.72263 0.093842,0.0314 c 0.05172,0.0174 0.103518,0.0365 0.1153393,0.0413 0.011821,0.005 0.081967,0.0296 0.1558527,0.0537 0.073885,0.0242 0.1416123,0.0472 0.1504785,0.0504 0.040609,0.0159 0.5164538,0.17791 0.5642944,0.19223 0.029553,0.009 0.063418,0.0209 0.075239,0.0265 0.022225,0.0106 0.1346908,0.049 0.2472146,0.0847 0.035465,0.0113 0.09452,0.0311 0.131462,0.0438 l 0.067385,0.0231 v 0.89667 c 0,0.71001 -0.003,0.8963 -0.013642,0.89626 -0.00739,-8e-5 -0.026551,-0.007 -0.042994,-0.0157 -0.016443,-0.009 -0.059982,-0.0237 -0.096737,-0.0339 -0.036756,-0.0102 -0.069385,-0.0216 -0.072345,-0.0256 -0.00296,-0.004 -0.029563,-0.0131 -0.059117,-0.0211 -0.029554,-0.008 -0.068255,-0.0205 -0.085988,-0.0277 -0.017733,-0.008 -0.058852,-0.022 -0.091362,-0.0318 -0.032509,-0.01 -0.068791,-0.0225 -0.080613,-0.0273 -0.011821,-0.005 -0.086805,-0.0313 -0.1666011,-0.0579 -0.079796,-0.0265 -0.2587895,-0.0875 -0.3976932,-0.13518 -0.1389039,-0.0477 -0.2840339,-0.0963 -0.3224539,-0.10832 -0.03842,-0.012 -0.084725,-0.0291 -0.1033506,-0.0376 -0.018626,-0.008 -0.041811,-0.0153 -0.051262,-0.0153 -0.015617,0 -0.016949,-0.0823 -0.016949,-0.90122 z"
       style="fill:#bdbdbd;fill-opacity:1;stroke-width:1"
       id="path883" />
    <path
       id="path890"
       d="m 2.6468259,295.4738 c -0.00306,-0.005 -0.038419,-0.0177 -0.07855,-0.0284 -0.040129,-0.0107 -0.077799,-0.023 -0.08371,-0.0276 -0.00591,-0.005 -0.039764,-0.0165 -0.075228,-0.0267 -0.035465,-0.0102 -0.069318,-0.0222 -0.075228,-0.027 -0.00591,-0.005 -0.042182,-0.0166 -0.080602,-0.0266 -0.038421,-0.01 -0.074691,-0.0218 -0.080602,-0.0264 -0.00591,-0.005 -0.047017,-0.0191 -0.091349,-0.0323 -0.044331,-0.0132 -0.085437,-0.0278 -0.091348,-0.0322 -0.00591,-0.005 -0.034927,-0.0141 -0.064482,-0.0213 -0.029554,-0.007 -0.068243,-0.0196 -0.085975,-0.0276 -0.017733,-0.008 -0.09511,-0.0349 -0.1719505,-0.0599 -0.07684,-0.025 -0.144546,-0.0489 -0.1504569,-0.0531 -0.00591,-0.005 -0.024045,-0.0109 -0.040301,-0.0147 l -0.029554,-0.007 v -0.67799 c 0,-0.55261 0.00259,-0.67701 0.014,-0.67263 0.0077,0.003 0.04518,0.0138 0.083289,0.0244 0.038108,0.0104 0.074126,0.0226 0.080035,0.027 0.00591,0.005 0.039764,0.0163 0.075228,0.0265 0.035464,0.0101 0.069318,0.022 0.075228,0.0262 0.00591,0.005 0.034927,0.0141 0.064482,0.0217 0.029554,0.008 0.068243,0.0204 0.085975,0.0284 0.017733,0.008 0.099946,0.0362 0.1826973,0.0631 0.082751,0.0268 0.1601291,0.0531 0.1719509,0.0585 0.011821,0.005 0.050511,0.0182 0.085975,0.0286 0.035465,0.0103 0.069318,0.0222 0.075228,0.0264 0.00591,0.005 0.039763,0.016 0.075228,0.0262 0.035464,0.0102 0.069318,0.0222 0.075228,0.027 0.00591,0.005 0.026465,0.0118 0.045675,0.016 l 0.034928,0.007 v 0.68158 c 0,0.62615 -0.00318,0.70914 -0.025811,0.67253 z"
       style="fill:#bdbdbd;fill-opacity:1;stroke-width:1" />
    <path
       id="path894"
       d="m 4.4619977,294.43544 c -0.017733,-0.008 -0.1011552,-0.0378 -0.1853841,-0.0656 l -0.1531434,-0.0506 v -0.6423 -0.64231 l -0.026394,-0.006 c -0.014516,-0.004 -0.039906,-0.0121 -0.056422,-0.0187 -0.045098,-0.0182 -0.3217939,-0.11499 -0.3954227,-0.13831 -0.035465,-0.0112 -0.1055884,-0.0352 -0.1558303,-0.0533 -0.050241,-0.0181 -0.1566362,-0.0548 -0.236432,-0.0816 -0.079796,-0.0268 -0.1608008,-0.0559 -0.1800108,-0.0648 l -0.034927,-0.016 v -0.20906 c 0,-0.11497 0.00289,-0.20906 0.00641,-0.20906 0.014724,0 0.1287936,0.0355 0.1386773,0.0432 0.00591,0.005 0.047017,0.019 0.091348,0.032 0.044332,0.013 0.085438,0.0274 0.091349,0.0318 0.00591,0.005 0.030092,0.0132 0.053734,0.0196 0.05403,0.0145 0.2292666,0.0742 0.2579259,0.0879 0.011822,0.006 0.045675,0.0174 0.075228,0.0262 0.029554,0.009 0.1383664,0.0454 0.2418056,0.0814 0.1034388,0.036 0.2461045,0.085 0.3170341,0.10879 0.07093,0.0238 0.1446801,0.0505 0.1638901,0.0592 l 0.034928,0.016 v 0.85387 c 0,0.46963 -0.00363,0.85376 -0.00806,0.85362 -0.00443,-1.2e-4 -0.022569,-0.007 -0.040301,-0.0154 z"
       style="fill:#bdbdbd;fill-opacity:1;stroke-width:1" />
    <path
       id="path892"
       d="m 3.7956892,295.40172 c -0.07093,-0.0258 -0.1567706,-0.055 -0.190758,-0.0653 l -0.061795,-0.0184 v -0.92577 -0.92579 l -0.040301,-0.017 c -0.022166,-0.009 -0.1007522,-0.0376 -0.1746371,-0.0629 -0.073886,-0.0253 -0.2165503,-0.0743 -0.3170341,-0.10918 -0.3574119,-0.12388 -0.4962202,-0.17135 -0.6394415,-0.21872 -0.079796,-0.0264 -0.1547556,-0.0524 -0.1665771,-0.0578 -0.011821,-0.005 -0.048093,-0.0179 -0.080602,-0.0278 -0.03251,-0.01 -0.073616,-0.0242 -0.091349,-0.032 -0.017733,-0.008 -0.052795,-0.0197 -0.077915,-0.0264 l -0.045675,-0.0121 v -0.22105 c 0,-0.17241 0.00296,-0.21992 0.013433,-0.21591 0.00738,0.002 0.073886,0.0258 0.1477701,0.051 0.073885,0.0253 0.209296,0.0719 0.3009134,0.10373 0.091618,0.0318 0.195594,0.0672 0.2310589,0.0786 0.035464,0.0114 0.1418593,0.0478 0.2364322,0.0808 0.094573,0.033 0.2372382,0.0816 0.3170339,0.10799 0.079796,0.0264 0.1529061,0.0526 0.1624677,0.0578 0.00956,0.005 0.038578,0.0154 0.064482,0.0224 0.025903,0.007 0.061605,0.0187 0.079337,0.0262 0.017733,0.008 0.1023645,0.037 0.188071,0.0655 0.085707,0.0286 0.187265,0.0624 0.2256851,0.0752 l 0.069855,0.0234 0.00274,1.14597 c 0.00218,0.91371 2.8e-6,1.14579 -0.010746,1.14499 -0.00742,-4.5e-4 -0.071515,-0.0221 -0.1424451,-0.0478 z"
       style="fill:#bdbdbd;fill-opacity:1;stroke-width:1" />
    <path
       d=""
       id="path881"
       style="fill:#000000;stroke-width:1" />
  </g>
</svg>
