<?xml version="1.0" encoding="UTF-8" standalone="no"?>
<!-- Created with Inkscape (http://www.inkscape.org/) -->

<svg
   xmlns:dc="http://purl.org/dc/elements/1.1/"
   xmlns:cc="http://creativecommons.org/ns#"
   xmlns:rdf="http://www.w3.org/1999/02/22-rdf-syntax-ns#"
   xmlns:svg="http://www.w3.org/2000/svg"
   xmlns="http://www.w3.org/2000/svg"
   xmlns:sodipodi="http://sodipodi.sourceforge.net/DTD/sodipodi-0.dtd"
   xmlns:inkscape="http://www.inkscape.org/namespaces/inkscape"
   width="20"
   height="20"
   viewBox="0 0 5.2916665 5.2916668"
   version="1.1"
   id="svg8"
   inkscape:version="0.92.1 r15371"
   sodipodi:docname="light_environment.svg"
   inkscape:export-filename="D:\projects\git\dcc_platform\icons\light_environment.png"
   inkscape:export-xdpi="96.000008"
   inkscape:export-ydpi="96.000008">
  <defs
     id="defs2" />
  <sodipodi:namedview
     id="base"
     pagecolor="#ffffff"
     bordercolor="#666666"
     borderopacity="1.0"
     inkscape:pageopacity="0.0"
     inkscape:pageshadow="2"
     inkscape:zoom="22.627417"
     inkscape:cx="1.1083882"
     inkscape:cy="9.6609564"
     inkscape:document-units="px"
     inkscape:current-layer="layer1"
     showgrid="false"
     units="px"
     inkscape:window-width="1920"
     inkscape:window-height="1018"
     inkscape:window-x="-8"
     inkscape:window-y="-8"
     inkscape:window-maximized="1"
     showguides="true"
     inkscape:guide-bbox="true" />
  <metadata
     id="metadata5">
    <rdf:RDF>
      <cc:Work
         rdf:about="">
        <dc:format>image/svg+xml</dc:format>
        <dc:type
           rdf:resource="http://purl.org/dc/dcmitype/StillImage" />
        <dc:title />
      </cc:Work>
    </rdf:RDF>
  </metadata>
  <g
     inkscape:label="Layer 1"
     inkscape:groupmode="layer"
     id="layer1"
     transform="translate(0,-291.70832)">
    <circle
       style="display:inline;opacity:1;fill:#bdbdbd;fill-opacity:1;fill-rule:evenodd;stroke:#3a3a3a;stroke-width:0.52916666;stroke-linecap:round;stroke-linejoin:round;stroke-miterlimit:4;stroke-dasharray:none;stroke-dashoffset:3.9000001;stroke-opacity:1;paint-order:stroke markers fill"
       id="path4544"
       cx="2.6458335"
       cy="294.35416"
       r="1.7149487" />
    <path
       style="display:inline;opacity:1;fill:#3a3a3a;fill-opacity:1;fill-rule:evenodd;stroke:none;stroke-width:0.30624086;stroke-linecap:round;stroke-linejoin:round;stroke-miterlimit:4;stroke-dasharray:none;stroke-dashoffset:3.9000001;stroke-opacity:1;paint-order:stroke markers fill"
       d="m 2.4197702,292.82955 c -0.030954,8.3e-4 -0.079132,0.0129 -0.1636176,0.0342 -0.1256211,0.0319 -0.3572192,0.13744 -0.471294,0.21493 -0.074638,0.0507 -0.3249921,0.28569 -0.3249921,0.30502 0,0.0242 0.1920013,-0.0379 0.2126938,-0.0687 0.053681,-0.0802 0.2333219,-0.23572 0.3315716,-0.28707 0.092205,-0.0482 0.2672728,-0.1124 0.2672728,-0.098 0,0.002 -0.07235,0.0549 -0.1607764,0.11594 -0.088427,0.0611 -0.1607765,0.11288 -0.1607765,0.11512 0,0.002 0.074826,-0.0149 0.1662791,-0.038 0.1072533,-0.0272 0.2103179,-0.0658 0.2903608,-0.1091 l 0.1241113,-0.067 -0.036396,-0.0615 c -0.023341,-0.0395 -0.034639,-0.0568 -0.074436,-0.0558 z m 0.6514494,0.0377 c -0.017401,-0.001 -0.019024,0.009 -0.01926,0.0443 -4.897e-4,0.0721 -0.047681,0.16337 -0.1208812,0.23363 l -0.063611,0.061 -0.08009,-0.0419 c -0.044043,-0.0231 -0.085174,-0.042 -0.091424,-0.042 -0.015129,0 -0.2854618,0.15394 -0.2936801,0.16725 -0.00353,0.006 0.018276,0.0301 0.048448,0.0542 0.046936,0.0374 0.05729,0.0405 0.071745,0.0211 0.00929,-0.0124 0.043331,-0.0532 0.075663,-0.0904 l 0.058796,-0.0678 -0.010921,0.10721 c -0.006,0.0589 -0.013333,0.11144 -0.016329,0.11667 -0.003,0.006 -0.059157,0.0127 -0.1247693,0.0164 -0.1565015,0.009 -0.2890409,0.0659 -0.3031305,0.12994 -0.01771,0.0806 -0.016556,0.0796 -0.078654,0.0651 -0.032138,-0.008 -0.06296,-0.0138 -0.068485,-0.014 -0.013569,-5.1e-4 -0.06016,0.1383 -0.051259,0.1527 0.00388,0.007 0.028626,0.0158 0.054967,0.021 0.041352,0.008 0.057888,5.7e-4 0.1210008,-0.0562 0.040203,-0.0362 0.097103,-0.0731 0.1264443,-0.0821 0.052072,-0.016 0.05486,-0.0146 0.1171429,0.0577 l 0.063821,0.0741 -0.040074,0.01 c -0.037168,0.009 -0.03825,0.0119 -0.014774,0.0349 0.023383,0.0229 0.028069,0.0214 0.061667,-0.0203 l 0.036366,-0.0451 -0.045757,-0.062 c -0.037395,-0.0507 -0.041311,-0.063 -0.021353,-0.0671 0.052158,-0.0111 0.1056451,0.0467 0.1455243,0.15652 l 0.016059,0.0443 0.084036,-0.1208 c 0.046221,-0.0665 0.091097,-0.12317 0.099707,-0.12609 0.01828,-0.007 0.2136385,0.0744 0.2132919,0.088 -9.362e-4,0.0366 -0.037417,0.0508 -0.1507578,0.0586 l -0.1246198,0.009 v 0.0493 c 0,0.0485 0.00122,0.0494 0.085831,0.0582 0.047205,0.004 0.089271,0.0123 0.093487,0.0165 0.00422,0.004 -0.00435,0.0391 -0.01902,0.0775 l -0.026646,0.0698 H 2.7447322 c -0.209939,0 -0.2851747,-0.0213 -0.3614479,-0.10255 l -0.064179,-0.0683 -0.1451655,-0.009 -0.1451652,-0.009 -0.077847,0.0572 c -0.1311242,0.0962 -0.2247994,0.23191 -0.2619196,0.37933 -0.016733,0.0665 -0.014886,0.0736 0.054639,0.21261 0.039564,0.0791 0.074392,0.14652 0.077397,0.14979 0.00301,0.003 0.099271,0.0148 0.2139199,0.0255 0.1146489,0.0111 0.2106487,0.0219 0.2133518,0.0246 0.00271,0.003 0.054118,0.1911 0.1142422,0.41849 0.060124,0.22737 0.1129035,0.42548 0.1172926,0.44022 0.00685,0.023 0.027854,0.0267 0.1485747,0.0266 l 0.1406195,-1.4e-4 0.1655019,-0.20277 0.1655014,-0.20276 -0.0102,-0.11938 -0.010233,-0.11936 0.074946,-0.072 c 0.041228,-0.0396 0.095927,-0.103 0.1215393,-0.14092 0.047763,-0.0707 0.1040724,-0.19787 0.09265,-0.20929 -0.00352,-0.003 -0.05229,0.006 -0.1083808,0.0192 -0.05609,0.0141 -0.1042145,0.023 -0.1069447,0.0198 -0.00273,-0.003 -0.06786,-0.10521 -0.1447167,-0.22656 -0.136756,-0.21602 -0.13905,-0.22121 -0.1080212,-0.24294 0.037353,-0.0262 0.022863,-0.041 0.1808735,0.18423 0.069453,0.099 0.1321739,0.17991 0.1393635,0.17991 0.00719,0 0.071226,-0.0507 0.1422944,-0.11266 l 0.1291953,-0.11268 -0.081525,-0.0258 c -0.059137,-0.0186 -0.096444,-0.0432 -0.1358346,-0.0891 -0.059155,-0.0691 -0.070834,-0.11076 -0.027514,-0.0981 0.014738,0.004 0.125418,0.023 0.2459497,0.0414 l 0.2191236,0.0336 0.093248,0.18542 c 0.051277,0.10199 0.09508,0.17855 0.097346,0.17013 0.00226,-0.009 0.019474,-0.11695 0.03825,-0.24116 0.018775,-0.12423 0.038274,-0.2256 0.043334,-0.22526 0.00506,3.7e-4 0.035294,0.0331 0.06717,0.0727 0.031876,0.0396 0.079017,0.0962 0.1047616,0.12572 l 0.046803,0.0536 -0.010854,-0.0842 c -0.025967,-0.20148 -0.1220242,-0.44824 -0.2503459,-0.6431 -0.1809522,-0.27479 -0.555331,-0.54775 -0.8479042,-0.61823 -0.00984,-0.002 -0.017407,-0.004 -0.023207,-0.004 z m -0.7998149,0.43899 -0.084156,0.065 -0.084126,0.0649 0.064986,0.0177 c 0.1041923,0.0283 0.1032966,0.0288 0.1032966,-0.0635 z m 0.896861,0.26016 c 0.00845,0 0.116158,0.23265 0.1100856,0.23778 -0.00222,0.002 -0.018781,0.008 -0.036845,0.0135 -0.028253,0.009 -0.04109,-0.004 -0.091872,-0.0938 -0.032466,-0.0572 -0.060958,-0.10788 -0.063282,-0.11272 -0.00377,-0.008 0.063659,-0.0447 0.081913,-0.0447 z m -2.0507969,0.79622 c -0.00175,0 0.00195,0.0637 0.00822,0.14167 0.013705,0.17027 0.069535,0.37135 0.1443577,0.51992 0.056633,0.11246 0.1296052,0.23056 0.1375394,0.22263 0.00247,-0.002 -0.011235,-0.11112 -0.030444,-0.24147 l -0.03493,-0.23698 -0.1107726,-0.20288 c -0.060925,-0.11159 -0.1122176,-0.20289 -0.1139742,-0.20289 z m 2.2052929,0.74793 c -0.011215,0.001 -0.038563,0.0216 -0.082422,0.0513 -0.05199,0.0352 -0.069164,0.0592 -0.087984,0.12251 -0.012863,0.0433 -0.021695,0.08 -0.019619,0.0816 0.00913,0.007 0.065491,0.0371 0.069712,0.0375 0.00257,2.1e-4 0.022358,-0.0392 0.043962,-0.0876 0.068972,-0.15459 0.095043,-0.20701 0.076351,-0.20526 z"
       id="rect4520"
       inkscape:connector-curvature="0"
       sodipodi:nodetypes="sssssssssscccssccccscscccccsssccscccccccccscccscccsccccscccccsscscsccccccccccccscsscccccccccscccccsssccccscscsccsscscccsscsccccc" />
  </g>
</svg>
