<?xml version="1.0" encoding="UTF-8" standalone="no"?>
<!-- Created with Inkscape (http://www.inkscape.org/) -->

<svg
   xmlns:dc="http://purl.org/dc/elements/1.1/"
   xmlns:cc="http://creativecommons.org/ns#"
   xmlns:rdf="http://www.w3.org/1999/02/22-rdf-syntax-ns#"
   xmlns:svg="http://www.w3.org/2000/svg"
   xmlns="http://www.w3.org/2000/svg"
   xmlns:sodipodi="http://sodipodi.sourceforge.net/DTD/sodipodi-0.dtd"
   xmlns:inkscape="http://www.inkscape.org/namespaces/inkscape"
   width="20"
   height="20"
   viewBox="0 0 5.2916665 5.2916668"
   version="1.1"
   id="svg8"
   inkscape:version="0.92.1 r15371"
   sodipodi:docname="light_cylinder.svg"
   inkscape:export-filename="D:\projects\git\dcc_platform\icons\light_cylinder.png"
   inkscape:export-xdpi="96.000008"
   inkscape:export-ydpi="96.000008">
  <defs
     id="defs2" />
  <sodipodi:namedview
     id="base"
     pagecolor="#ffffff"
     bordercolor="#666666"
     borderopacity="1.0"
     inkscape:pageopacity="0.0"
     inkscape:pageshadow="2"
     inkscape:zoom="16"
     inkscape:cx="1.153669"
     inkscape:cy="8.4621039"
     inkscape:document-units="px"
     inkscape:current-layer="layer1"
     showgrid="false"
     units="px"
     inkscape:window-width="1920"
     inkscape:window-height="1018"
     inkscape:window-x="-8"
     inkscape:window-y="-8"
     inkscape:window-maximized="1"
     showguides="true"
     inkscape:guide-bbox="true" />
  <metadata
     id="metadata5">
    <rdf:RDF>
      <cc:Work
         rdf:about="">
        <dc:format>image/svg+xml</dc:format>
        <dc:type
           rdf:resource="http://purl.org/dc/dcmitype/StillImage" />
        <dc:title />
      </cc:Work>
    </rdf:RDF>
  </metadata>
  <g
     inkscape:label="Layer 1"
     inkscape:groupmode="layer"
     id="layer1"
     transform="translate(0,-291.70832)">
    <path
       style="fill:#bdbdbd;fill-opacity:1;fill-rule:evenodd;stroke:#3a3a3a;stroke-width:0.26458333;stroke-linecap:round;stroke-linejoin:round;stroke-miterlimit:4;stroke-dasharray:none;stroke-opacity:1"
       d="m 1.0741444,293.06425 v 2.57981 h -0.00141 c 0,0.37769 0.703847,0.68488 1.571495,0.68488 0.8676479,0 1.5732529,-0.30719 1.5732529,-0.68488 v -2.57981 z"
       id="path4549"
       inkscape:connector-curvature="0"
       sodipodi:nodetypes="cccsscc" />
    <path
       inkscape:connector-curvature="0"
       style="fill:#bdbdbd;fill-opacity:1;fill-rule:evenodd;stroke:#3a3a3a;stroke-width:0.26458333;stroke-linecap:round;stroke-linejoin:round;stroke-miterlimit:4;stroke-dasharray:none;stroke-opacity:1"
       d="m 2.644233,292.37937 c -0.8485972,0 -1.5401138,0.29391 -1.5700886,0.66017 h -0.00141 c 0,0.004 5.351e-4,0.008 7.032e-4,0.0123 -1.688e-4,0.004 -7.032e-4,0.008 -7.032e-4,0.0124 h 0.00141 c 0.029975,0.36626 0.7214914,0.66017 1.5700886,0.66017 0.8485973,0 1.5417962,-0.29391 1.5718466,-0.66017 h 0.00141 c 0,-0.004 -5.332e-4,-0.008 -7.02e-4,-0.0124 1.575e-4,-0.004 7.02e-4,-0.008 7.02e-4,-0.0123 h -0.00141 c -0.03005,-0.36626 -0.7232493,-0.66017 -1.5718466,-0.66017 z"
       id="path4565" />
    <path
       sodipodi:nodetypes="csc"
       id="path4551"
       d="m 4.2189176,295.64406 c 0,-0.3777 -0.705639,-0.68486 -1.5732869,-0.68486 -0.8676478,0 -1.5714866,0.30716 -1.5714866,0.68486"
       style="fill:none;fill-opacity:1;fill-rule:evenodd;stroke:#3a3a3a;stroke-width:0.2594232;stroke-linecap:round;stroke-linejoin:round;stroke-miterlimit:4;stroke-dasharray:none;stroke-opacity:0.65714288"
       inkscape:connector-curvature="0" />
  </g>
</svg>
