<?xml version="1.0" encoding="UTF-8" standalone="no"?>
<svg
   xmlns:dc="http://purl.org/dc/elements/1.1/"
   xmlns:cc="http://creativecommons.org/ns#"
   xmlns:rdf="http://www.w3.org/1999/02/22-rdf-syntax-ns#"
   xmlns:svg="http://www.w3.org/2000/svg"
   xmlns="http://www.w3.org/2000/svg"
   xmlns:sodipodi="http://sodipodi.sourceforge.net/DTD/sodipodi-0.dtd"
   xmlns:inkscape="http://www.inkscape.org/namespaces/inkscape"
   inkscape:export-ydpi="96.000008"
   inkscape:export-xdpi="96.000008"
   inkscape:export-filename="D:\projects\git\dcc_platform\icons\match_case.png"
   sodipodi:docname="match_case.svg"
   inkscape:version="1.0 (4035a4fb49, 2020-05-01)"
   id="svg8"
   version="1.1"
   viewBox="0 0 4.2333332 4.2333334"
   height="16"
   width="16">
  <defs
     id="defs2" />
  <sodipodi:namedview
     inkscape:document-rotation="0"
     inkscape:window-maximized="1"
     inkscape:window-y="-8"
     inkscape:window-x="-8"
     inkscape:window-height="1018"
     inkscape:window-width="1920"
     units="px"
     showgrid="false"
     inkscape:current-layer="layer1"
     inkscape:document-units="px"
     inkscape:cy="9.7786581"
     inkscape:cx="9.4397343"
     inkscape:zoom="16"
     inkscape:pageshadow="2"
     inkscape:pageopacity="0.0"
     borderopacity="1.0"
     bordercolor="#666666"
     pagecolor="#ffffff"
     id="base" />
  <metadata
     id="metadata5">
    <rdf:RDF>
      <cc:Work
         rdf:about="">
        <dc:format>image/svg+xml</dc:format>
        <dc:type
           rdf:resource="http://purl.org/dc/dcmitype/StillImage" />
        <dc:title />
      </cc:Work>
    </rdf:RDF>
  </metadata>
  <g
     transform="translate(0,-292.76665)"
     id="layer1"
     inkscape:groupmode="layer"
     inkscape:label="Layer 1">
    <path
       d="m 2.6445314,293.2462 c -0.1371631,0 -0.2644224,0.01 -0.3823338,0.0301 -0.1179119,0.0203 -0.2106828,0.0497 -0.278061,0.0868 -0.093848,0.0514 -0.1656419,0.11241 -0.2161756,0.18303 -0.049331,0.0693 -0.087976,0.16512 -0.1144455,0.28701 l 0.7027825,0.073 c 0.028876,-0.0827 0.066673,-0.13852 0.1135974,-0.16843 0.060158,-0.0384 0.1501131,-0.0575 0.2704315,-0.0575 0.093848,0 0.1593786,0.0183 0.1966773,0.0542 0.0373,0.0359 0.05595,0.0984 0.05595,0.18819 -0.091441,0.0359 -0.1775936,0.0648 -0.2594105,0.0876 -0.081816,0.0215 -0.2610955,0.0602 -0.5366239,0.11524 -0.2298073,0.0454 -0.3867693,0.11457 -0.472195,0.20794 -0.085425,0.0933 -0.1288573,0.21193 -0.1288573,0.35661 0,0.15415 0.059268,0.28396 0.1771791,0.38926 0.1191144,0.10526 0.2927603,0.15814 0.5213647,0.15814 0.1720548,0 0.3236009,-0.0264 0.4535443,-0.079 0.095052,-0.0394 0.1902848,-0.1046 0.286539,-0.19679 0.00842,0.055 0.017,0.0956 0.025432,0.12206 0.00842,0.0249 0.026582,0.0617 0.054256,0.11091 h 0.6892185 c -0.038502,-0.079 -0.063418,-0.14317 -0.075449,-0.19334 -0.010827,-0.0514 -0.016954,-0.12255 -0.016954,-0.21225 v -0.84126 c 0,-0.0898 -0.017312,-0.183 -0.053408,-0.281 -0.036096,-0.0993 -0.085791,-0.17653 -0.1483562,-0.23029 -0.089036,-0.0777 -0.2004596,-0.12821 -0.3340127,-0.15216 -0.1335524,-0.0251 -0.3105077,-0.0377 -0.5306896,-0.0377 z m 0.348424,1.04404 v 0.1169 c 0,0.0908 -0.014846,0.16512 -0.04493,0.22258 -0.028876,0.056 -0.079063,0.10392 -0.1500507,0.1435 -0.069785,0.0394 -0.1453803,0.0584 -0.2271965,0.0584 -0.078207,0 -0.1379653,-0.0173 -0.1788746,-0.0532 -0.039705,-0.0371 -0.059341,-0.0843 -0.059341,-0.14185 0,-0.0502 0.020129,-0.0954 0.061038,-0.13485 0.039705,-0.0382 0.1348008,-0.0775 0.2839954,-0.1169 0.1094896,-0.0274 0.2142956,-0.0587 0.3153617,-0.0944 z"
       style="font-style:normal;font-variant:normal;font-weight:900;font-stretch:normal;font-size:2.23099px;line-height:1.25;font-family:Arial;-inkscape-font-specification:'Arial Heavy';letter-spacing:0px;word-spacing:0px;fill:#8a8a8a;fill-opacity:1;stroke:#3a3a3a;stroke-width:0.529167;stroke-linejoin:round;stroke-miterlimit:4;stroke-dasharray:none;stroke-opacity:1;paint-order:stroke fill markers"
       id="path837" />
    <path
       d="m 1.3165348,294.40469 -0.78737924,2.06612 H 1.1910106 l 0.1013591,-0.34098 h 0.7370354 l 0.1033728,0.34098 h 0.6772939 l -0.7873792,-2.06612 z m 0.3456951,0.53544 0.2315822,0.74271 H 1.4319902 Z"
       style="font-style:normal;font-variant:normal;font-weight:900;font-stretch:normal;font-size:2.23099px;line-height:1.25;font-family:Arial;-inkscape-font-specification:'Arial Heavy';letter-spacing:0px;word-spacing:0px;fill:#bdbdbd;fill-opacity:1;stroke:#3a3a3a;stroke-width:0.529166;stroke-linejoin:round;stroke-miterlimit:4;stroke-dasharray:none;stroke-opacity:1;paint-order:stroke fill markers"
       id="path846" />
  </g>
</svg>
