<?xml version="1.0" encoding="UTF-8" standalone="no"?>
<svg
   inkscape:export-ydpi="96.000008"
   inkscape:export-xdpi="96.000008"
   inkscape:export-filename="D:\projects\git\dcc_platform\icons\nurbscurves.png"
   sodipodi:docname="nurbscurves.svg"
   inkscape:version="1.4 (86a8ad7, 2024-10-11)"
   id="svg8"
   version="1.1"
   viewBox="0 0 5.2916665 5.2916668"
   height="20"
   width="20"
   xmlns:inkscape="http://www.inkscape.org/namespaces/inkscape"
   xmlns:sodipodi="http://sodipodi.sourceforge.net/DTD/sodipodi-0.dtd"
   xmlns="http://www.w3.org/2000/svg"
   xmlns:svg="http://www.w3.org/2000/svg"
   xmlns:rdf="http://www.w3.org/1999/02/22-rdf-syntax-ns#"
   xmlns:cc="http://creativecommons.org/ns#"
   xmlns:dc="http://purl.org/dc/elements/1.1/">
  <sodipodi:namedview
     inkscape:document-rotation="0"
     showguides="false"
     inkscape:window-maximized="1"
     inkscape:window-y="449"
     inkscape:window-x="3832"
     inkscape:window-height="1009"
     inkscape:window-width="1920"
     units="px"
     showgrid="false"
     inkscape:current-layer="layer1"
     inkscape:document-units="mm"
     inkscape:cy="10.783378"
     inkscape:cx="10.275145"
     inkscape:zoom="22.627418"
     inkscape:pageshadow="2"
     inkscape:pageopacity="0.0"
     borderopacity="1.0"
     bordercolor="#666666"
     pagecolor="#ffffff"
     id="base"
     inkscape:showpageshadow="2"
     inkscape:pagecheckerboard="0"
     inkscape:deskcolor="#d1d1d1" />
  <defs
     id="defs2" />
  <metadata
     id="metadata5">
    <rdf:RDF>
      <cc:Work
         rdf:about="">
        <dc:format>image/svg+xml</dc:format>
        <dc:type
           rdf:resource="http://purl.org/dc/dcmitype/StillImage" />
        <dc:title />
      </cc:Work>
    </rdf:RDF>
  </metadata>
  <g
     transform="translate(0,-291.70832)"
     id="layer1"
     inkscape:groupmode="layer"
     inkscape:label="Layer 1">
    <path
       inkscape:connector-curvature="0"
       id="path4491"
       d="m 3.90625,292.18945 a 0.13230489,0.13230489 0 0 0 -0.125,0.0957 c 0,0 -0.2849268,0.91978 -0.6464844,1.39843 -0.1796363,0.23781 -0.4634401,0.47082 -0.7519531,0.70118 -0.288513,0.23036 -0.5808706,0.45798 -0.7792969,0.71484 -0.4015495,0.51978 -0.3359375,1.15625 -0.3359375,1.15625 a 0.13244577,0.13244577 0 1 0 0.2636719,-0.0254 c 0,0 -0.04695,-0.54391 0.28125,-0.96875 0.1664498,-0.21547 0.4450078,-0.43888 0.734375,-0.66992 0.2893672,-0.23105 0.5893218,-0.4707 0.7988281,-0.74805 0.4167165,-0.55168 0.6894531,-1.48242 0.6894531,-1.48242 A 0.13230489,0.13230489 0 0 0 3.90625,292.18945 Z"
       style="color:#000000;font-style:normal;font-variant:normal;font-weight:normal;font-stretch:normal;font-size:medium;line-height:normal;font-family:sans-serif;font-variant-ligatures:normal;font-variant-position:normal;font-variant-caps:normal;font-variant-numeric:normal;font-variant-alternates:normal;font-feature-settings:normal;text-indent:0;text-align:start;text-decoration:none;text-decoration-line:none;text-decoration-style:solid;text-decoration-color:#000000;letter-spacing:normal;word-spacing:normal;text-transform:none;writing-mode:lr-tb;direction:ltr;text-orientation:mixed;dominant-baseline:auto;baseline-shift:baseline;text-anchor:start;white-space:normal;shape-padding:0;clip-rule:nonzero;display:inline;overflow:visible;visibility:visible;opacity:1;isolation:auto;mix-blend-mode:normal;color-interpolation:sRGB;color-interpolation-filters:linearRGB;solid-color:#000000;solid-opacity:1;vector-effect:none;fill:#bdbdbd;fill-opacity:1;fill-rule:nonzero;stroke:#3a3a3a;stroke-width:0.52916667;stroke-linecap:round;stroke-linejoin:miter;stroke-miterlimit:4;stroke-dasharray:none;stroke-dashoffset:0;stroke-opacity:1;color-rendering:auto;image-rendering:auto;shape-rendering:auto;text-rendering:auto;enable-background:accumulate;paint-order:stroke fill markers" />
    <path
       inkscape:connector-curvature="0"
       id="path4497"
       d="m 2.59375,292.0625 a 0.13230489,0.13230489 0 0 0 -0.1289062,0.12305 c 0,0 -0.055565,0.57881 -0.4179688,1.05859 -0.371478,0.49176 -0.8956156,0.82952 -1.27929688,1.32617 -0.40024115,0.5181 -0.36523437,1.16407 -0.36523437,1.16407 a 0.13294172,0.13294172 0 1 0 0.265625,-0.0117 c 0,0 -0.0189624,-0.5637 0.31054687,-0.99024 0.34607078,-0.44797 0.87248948,-0.7896 1.27929688,-1.32812 0.4158698,-0.55056 0.4707031,-1.19532 0.4707031,-1.19532 A 0.13230489,0.13230489 0 0 0 2.59375,292.0625 Z"
       style="color:#000000;font-style:normal;font-variant:normal;font-weight:normal;font-stretch:normal;font-size:medium;line-height:normal;font-family:sans-serif;font-variant-ligatures:normal;font-variant-position:normal;font-variant-caps:normal;font-variant-numeric:normal;font-variant-alternates:normal;font-feature-settings:normal;text-indent:0;text-align:start;text-decoration:none;text-decoration-line:none;text-decoration-style:solid;text-decoration-color:#000000;letter-spacing:normal;word-spacing:normal;text-transform:none;writing-mode:lr-tb;direction:ltr;text-orientation:mixed;dominant-baseline:auto;baseline-shift:baseline;text-anchor:start;white-space:normal;shape-padding:0;clip-rule:nonzero;display:inline;overflow:visible;visibility:visible;opacity:1;isolation:auto;mix-blend-mode:normal;color-interpolation:sRGB;color-interpolation-filters:linearRGB;solid-color:#000000;solid-opacity:1;vector-effect:none;fill:#bdbdbd;fill-opacity:1;fill-rule:nonzero;stroke:#3a3a3a;stroke-width:0.52916667;stroke-linecap:round;stroke-linejoin:miter;stroke-miterlimit:4;stroke-dasharray:none;stroke-dashoffset:0;stroke-opacity:1;color-rendering:auto;image-rendering:auto;shape-rendering:auto;text-rendering:auto;enable-background:accumulate;paint-order:stroke fill markers" />
    <path
       inkscape:connector-curvature="0"
       id="path4520"
       d="M 4.7402344,292.8457 A 0.13230489,0.13230489 0 0 0 4.625,292.9668 c 0,0 -0.055563,0.58075 -0.4179688,1.06054 -0.3714774,0.49176 -0.8956151,0.82951 -1.2792968,1.32618 -0.4002409,0.5181 -0.3652344,1.16406 -0.3652344,1.16406 a 0.13294172,0.13294172 0 1 0 0.265625,-0.0117 c 0,0 -0.018962,-0.56565 0.3105469,-0.99219 0.34607,-0.44797 0.8724889,-0.7896 1.2792969,-1.32812 0.4158687,-0.55057 0.4707031,-1.19336 0.4707031,-1.19336 A 0.13230489,0.13230489 0 0 0 4.7402344,292.8457 Z"
       style="color:#000000;font-style:normal;font-variant:normal;font-weight:normal;font-stretch:normal;font-size:medium;line-height:normal;font-family:sans-serif;font-variant-ligatures:normal;font-variant-position:normal;font-variant-caps:normal;font-variant-numeric:normal;font-variant-alternates:normal;font-feature-settings:normal;text-indent:0;text-align:start;text-decoration:none;text-decoration-line:none;text-decoration-style:solid;text-decoration-color:#000000;letter-spacing:normal;word-spacing:normal;text-transform:none;writing-mode:lr-tb;direction:ltr;text-orientation:mixed;dominant-baseline:auto;baseline-shift:baseline;text-anchor:start;white-space:normal;shape-padding:0;clip-rule:nonzero;display:inline;overflow:visible;visibility:visible;opacity:1;isolation:auto;mix-blend-mode:normal;color-interpolation:sRGB;color-interpolation-filters:linearRGB;solid-color:#000000;solid-opacity:1;vector-effect:none;fill:#bdbdbd;fill-opacity:1;fill-rule:nonzero;stroke:#3a3a3a;stroke-width:0.52916667;stroke-linecap:round;stroke-linejoin:miter;stroke-miterlimit:4;stroke-dasharray:none;stroke-dashoffset:0;stroke-opacity:1;color-rendering:auto;image-rendering:auto;shape-rendering:auto;text-rendering:auto;enable-background:accumulate;paint-order:stroke fill markers" />
    <g
       style="font-weight:900;font-size:3.09196px;line-height:1.25;font-family:Arial;-inkscape-font-specification:'Arial Heavy';letter-spacing:0px;word-spacing:0px;stroke-width:0.264583"
       id="text836"
       aria-label="N">
      <path
         id="path838"
         style="stroke-width:0.26458333;fill:#bdbdbd;fill-opacity:1;stroke:#3a3a3a;stroke-opacity:1;stroke-miterlimit:4;stroke-dasharray:none;paint-order:stroke fill markers"
         d="m 2.9104166,294.52216 h 0.6386226 l 0.8333798,1.2244 v -1.2244 h 0.6446616 v 2.21328 H 4.382419 L 3.5535685,295.5201 v 1.21534 H 2.9104166 Z" />
    </g>
  </g>
</svg>
