<?xml version="1.0" encoding="UTF-8" standalone="no"?>
<!-- Created with Inkscape (http://www.inkscape.org/) -->

<svg
   width="20"
   height="20"
   viewBox="0 0 5.2916665 5.2916668"
   version="1.1"
   id="svg8"
   inkscape:version="1.4 (86a8ad7, 2024-10-11)"
   sodipodi:docname="openvdbasset.svg"
   inkscape:export-filename="..\openvdbasset.png"
   inkscape:export-xdpi="96"
   inkscape:export-ydpi="96"
   xmlns:inkscape="http://www.inkscape.org/namespaces/inkscape"
   xmlns:sodipodi="http://sodipodi.sourceforge.net/DTD/sodipodi-0.dtd"
   xmlns="http://www.w3.org/2000/svg"
   xmlns:svg="http://www.w3.org/2000/svg"
   xmlns:rdf="http://www.w3.org/1999/02/22-rdf-syntax-ns#"
   xmlns:cc="http://creativecommons.org/ns#"
   xmlns:dc="http://purl.org/dc/elements/1.1/">
  <defs
     id="defs2" />
  <sodipodi:namedview
     id="base"
     pagecolor="#ffffff"
     bordercolor="#666666"
     borderopacity="1.0"
     inkscape:pageopacity="0.0"
     inkscape:pageshadow="2"
     inkscape:zoom="22.627418"
     inkscape:cx="10.54031"
     inkscape:cy="9.5901351"
     inkscape:document-units="px"
     inkscape:current-layer="svg8"
     showgrid="false"
     units="px"
     inkscape:window-width="1920"
     inkscape:window-height="1009"
     inkscape:window-x="3832"
     inkscape:window-y="449"
     inkscape:window-maximized="1"
     showguides="true"
     inkscape:guide-bbox="true"
     inkscape:showpageshadow="0"
     inkscape:pagecheckerboard="0"
     inkscape:deskcolor="#d1d1d1" />
  <metadata
     id="metadata5">
    <rdf:RDF>
      <cc:Work
         rdf:about="">
        <dc:format>image/svg+xml</dc:format>
        <dc:type
           rdf:resource="http://purl.org/dc/dcmitype/StillImage" />
      </cc:Work>
    </rdf:RDF>
  </metadata>
  <g
     inkscape:label="Layer 1"
     inkscape:groupmode="layer"
     id="layer1"
     transform="translate(0,-291.70832)"
     style="display:inline">
    <path
       style="display:inline;fill:#bdbdbd;fill-opacity:1;stroke:#3a3a3a;stroke-width:0.529166;stroke-dasharray:none;stroke-opacity:1;paint-order:markers stroke fill"
       d="m 1.1108311,295.52458 c -0.05803,-0.67078 0.1447562,-0.76961 0.3190086,-1.21265 0.074243,-0.18876 0.1308362,-0.4291 0.1185259,-0.66927 0.2491823,0.14285 0.2946965,0.69233 0.2989097,0.69231 0.1961362,-0.19229 0.2401821,-0.50425 0.263201,-0.77333 0.046849,-0.61144 0.097884,-0.88415 0.6080176,-1.19752 -0.041106,0.1828 -0.057502,0.26104 -0.028292,0.416 0.034954,0.18543 0.1465778,0.42499 0.2942248,0.63146 0.357381,0.49976 0.409937,0.58271 0.4644736,0.73308 0.084787,0.23378 0.1019549,0.56412 0.1337966,0.55275 0.195318,-0.0697 0.1471444,-0.91131 0.14632,-0.92547 0.564082,0.7775 0.489566,1.71589 0.3883645,1.9757 -0.2780209,0.71373 -1.246436,1.00699 -1.1028548,0.84404 0.043916,-0.0498 0.4914679,-0.62217 -0.044248,-1.32749 -0.3880515,-0.5109 -0.1267866,-0.74448 -0.2389154,-0.74448 -0.4372246,0.26225 -0.4031283,1.27884 -0.4613805,1.29187 -0.058252,0.013 -0.168593,-0.23092 -0.2021003,-0.37997 -0.080507,0.17607 -0.090295,0.36649 -0.066642,0.55875 0.068734,0.48573 0.3136159,0.65509 0.2746312,0.6511 -0.2555939,-0.0262 -1.1070098,-0.4461 -1.16504,-1.11688 z"
       id="path1"
       sodipodi:nodetypes="zscsscsssscsssszcssz" />
    <path
       style="fill:#000000;stroke-width:0.264583"
       d=""
       id="path4593"
       inkscape:connector-curvature="0" />
    <g
       id="g1"
       transform="translate(-0.26458287)">
      <path
         id="rect30007"
         style="fill:#bdbdbd;stroke:#3a3a3a;stroke-width:0.529167;stroke-linecap:round;paint-order:stroke markers fill"
         d="m 2.3812497,295.1479 v 1.32292 h 0.7937498 v -0.26458 H 2.645833 v -0.79375 h 0.5291665 v -0.26459 z m 0.7937498,0.26459 v 0.79375 h 0.2645833 v -0.79375 z"
         sodipodi:nodetypes="cccccccccccccc" />
      <path
         id="path32559"
         style="fill:#bdbdbd;stroke:#3a3a3a;stroke-width:0.529167;stroke-linecap:round;paint-order:stroke markers fill"
         d="m 3.7041664,295.1479 v 1.32292 h 0.2645834 0.5291667 v -1.05833 H 4.2333331 v 0.26458 H 3.9687498 v -0.26458 h 0.2645833 v -0.26459 z m 0.2645834,0.79375 h 0.2645833 v 0.26459 H 3.9687498 Z"
         sodipodi:nodetypes="ccccccccccccccccc" />
      <path
         id="rect1"
         style="fill:#bdbdbd;stroke:#3a3a3a;stroke-width:0.529167;paint-order:markers stroke fill"
         d="m 1.3229164,295.1479 v 1.05834 h 0.2645833 v -1.05834 z m 0.2645833,1.05834 v 0.26458 h 0.2645834 v -0.26458 z m 0.2645834,0 H 2.1166665 V 295.1479 H 1.8520831 Z" />
    </g>
  </g>
</svg>
