<?xml version="1.0" encoding="UTF-8" standalone="no"?>
<!-- Created with Inkscape (http://www.inkscape.org/) -->

<svg
   width="24"
   height="24"
   viewBox="0 0 24 24"
   version="1.1"
   id="svg8"
   sodipodi:docname="loki.svg"
   inkscape:version="1.4 (86a8ad7, 2024-10-11)"
   inkscape:export-filename="..\loki.png"
   inkscape:export-xdpi="1024"
   inkscape:export-ydpi="1024"
   xmlns:inkscape="http://www.inkscape.org/namespaces/inkscape"
   xmlns:sodipodi="http://sodipodi.sourceforge.net/DTD/sodipodi-0.dtd"
   xmlns="http://www.w3.org/2000/svg"
   xmlns:svg="http://www.w3.org/2000/svg">
  <sodipodi:namedview
     id="namedview1"
     pagecolor="#3c7a7e"
     bordercolor="#000000"
     borderopacity="0.25"
     inkscape:showpageshadow="2"
     inkscape:pageopacity="0.0"
     inkscape:pagecheckerboard="0"
     inkscape:deskcolor="#d1d1d1"
     inkscape:zoom="8"
     inkscape:cx="-17.0625"
     inkscape:cy="8.75"
     inkscape:window-width="1920"
     inkscape:window-height="1009"
     inkscape:window-x="-8"
     inkscape:window-y="-8"
     inkscape:window-maximized="1"
     inkscape:current-layer="svg8" />
  <defs
     id="defs1" />
  <path
     id="path8"
     style="color:#000000;font-style:normal;font-variant:normal;font-weight:normal;font-stretch:normal;font-size:medium;line-height:normal;font-family:sans-serif;font-variant-ligatures:normal;font-variant-position:normal;font-variant-caps:normal;font-variant-numeric:normal;font-variant-alternates:normal;font-variant-east-asian:normal;font-feature-settings:normal;font-variation-settings:normal;text-indent:0;text-align:start;text-decoration-line:none;text-decoration-style:solid;text-decoration-color:#000000;letter-spacing:normal;word-spacing:normal;text-transform:none;writing-mode:lr-tb;direction:ltr;text-orientation:mixed;dominant-baseline:auto;baseline-shift:baseline;text-anchor:start;white-space:normal;shape-padding:0;shape-margin:0;inline-size:0;clip-rule:nonzero;display:inline;overflow:visible;visibility:visible;isolation:auto;mix-blend-mode:normal;color-interpolation:sRGB;color-interpolation-filters:linearRGB;solid-color:#000000;solid-opacity:1;vector-effect:none;fill:#282828;fill-opacity:1;fill-rule:evenodd;stroke:none;stroke-linecap:round;stroke-linejoin:round;stroke-miterlimit:4;stroke-dasharray:none;stroke-dashoffset:3.9;stroke-opacity:1;-inkscape-stroke:none;color-rendering:auto;image-rendering:auto;shape-rendering:auto;text-rendering:auto;enable-background:accumulate;stop-color:#000000"
     d="M 11.986328 1.265625 A 0.50005 0.50005 0 0 0 11.746094 1.3261719 L 1.2421875 7.0742188 A 0.50005 0.50005 0 0 0 1.2421875 7.953125 L 4.5390625 9.7578125 L 1.2421875 11.5625 A 0.50005 0.50005 0 0 0 1.2421875 12.439453 L 4.5390625 14.244141 L 1.2421875 16.048828 A 0.50005 0.50005 0 0 0 1.2421875 16.925781 L 11.746094 22.675781 A 0.50005 0.50005 0 0 0 12.226562 22.675781 L 22.730469 16.925781 A 0.50005 0.50005 0 0 0 22.730469 16.048828 L 19.433594 14.244141 L 22.730469 12.439453 A 0.50005 0.50005 0 0 0 22.730469 11.5625 L 19.433594 9.7578125 L 22.730469 7.953125 A 0.50005 0.50005 0 0 0 22.730469 7.0742188 L 12.226562 1.3261719 A 0.50005 0.50005 0 0 0 11.986328 1.265625 z " />
  <path
     style="fill:#000000;stroke-width:0.264583"
     d=""
     id="path4593" />
  <path
     style="fill:none;fill-opacity:1;fill-rule:evenodd;stroke:none;stroke-width:2.41094;stroke-linecap:round;stroke-linejoin:round;stroke-miterlimit:4;stroke-dasharray:none;stroke-dashoffset:3.9;stroke-opacity:1;paint-order:normal"
     d="m 12.000015,1.77233 -10.4960725,5.74484 4.094363,2.24143 -4.094363,2.24142 4.094363,2.24142 -4.094363,2.24143 10.4960725,5.7448 10.496072,-5.7448 -4.094362,-2.24143 4.094362,-2.24142 -4.094362,-2.24142 4.094362,-2.24143 z"
     id="path4717" />
  <path
     id="rect4639"
     style="fill:#434343;fill-opacity:1;fill-rule:evenodd;stroke:none;stroke-width:0.602739;stroke-linecap:round;stroke-linejoin:miter;stroke-miterlimit:4;stroke-dasharray:none;stroke-dashoffset:3.9;stroke-opacity:1;paint-order:stroke fill markers"
     d="m 4.1338164,15.04194 -2.6299033,1.44093 10.4961139,5.7448 10.496035,-5.7448 -2.629905,-1.44093 -7.86613,4.30625 z" />
  <path
     id="rect4637"
     style="fill:#757575;fill-opacity:1;fill-rule:evenodd;stroke:none;stroke-width:0.602739;stroke-linecap:round;stroke-linejoin:miter;stroke-miterlimit:4;stroke-dasharray:none;stroke-dashoffset:3.9;stroke-opacity:1;paint-order:stroke fill markers"
     d="m 4.1338164,10.55909 -2.6299033,1.44093 10.4960739,5.7448 10.496075,-5.7448 -2.629905,-1.44093 -7.86613,4.30626 z" />
  <path
     id="rect4635"
     style="fill:#e7e7e7;fill-opacity:1;fill-rule:evenodd;stroke:none;stroke-width:0.602739;stroke-linecap:butt;stroke-linejoin:miter;stroke-miterlimit:4;stroke-dasharray:none;stroke-dashoffset:3.9;stroke-opacity:1;paint-order:stroke fill markers"
     d="m 12.000027,1.77233 -10.496074,5.74484 10.496034,5.7448 10.496075,-5.7448 z m 0,2.6346 5.681252,3.11024 -5.681252,3.1102 -5.6812517,-3.1102 z" />
  <g
     id="layer2"
     style="display:none">
    <path
       style="display:inline;fill:none;stroke:#bdbdbd;stroke-width:0.238125;stroke-linecap:round;stroke-linejoin:round;stroke-miterlimit:4;stroke-dasharray:none;stroke-opacity:1;paint-order:stroke fill markers"
       d="M 0.34231953,3.6297402 2.6458448,2.3689501 4.9493786,3.6297502"
       id="path4673" />
    <path
       id="path4671"
       d="M 0.34230923,2.6458302 2.6458345,1.3850401 4.9493685,2.6458402"
       style="display:inline;fill:none;stroke:#bdbdbd;stroke-width:0.238125;stroke-linecap:round;stroke-linejoin:round;stroke-miterlimit:4;stroke-dasharray:none;stroke-opacity:1;paint-order:stroke fill markers" />
    <path
       style="display:inline;fill:none;stroke:#bdbdbd;stroke-width:0.238125;stroke-linecap:round;stroke-linejoin:round;stroke-miterlimit:4;stroke-dasharray:none;stroke-opacity:1;paint-order:stroke fill markers"
       d="m 0.34231953,1.6619001 2.30352527,-1.26079 2.3035338,1.2608"
       id="path4669" />
    <path
       style="display:inline;opacity:1;fill:none;stroke:#b6306a;stroke-width:0.238125;stroke-linecap:round;stroke-linejoin:round;stroke-miterlimit:4;stroke-dasharray:none;stroke-opacity:1"
       d="M 0.34230923,1.6619101 2.6458495,2.9227102 4.9493894,1.6619101"
       id="path4660" />
    <path
       style="display:inline;opacity:1;fill:none;stroke:#207971;stroke-width:0.238125;stroke-linecap:round;stroke-linejoin:round;stroke-miterlimit:4;stroke-dasharray:none;stroke-opacity:1"
       d="M 0.34230923,2.6458302 2.6458495,3.9066301 4.9493894,2.6458302"
       id="path4662" />
    <path
       style="display:inline;opacity:1;fill:none;stroke:#308cad;stroke-width:0.238125;stroke-linecap:round;stroke-linejoin:round;stroke-miterlimit:4;stroke-dasharray:none;stroke-opacity:1"
       d="M 0.34230923,3.6297502 2.6458495,4.8905501 4.9493894,3.6297502"
       id="path4664" />
  </g>
</svg>
