<?xml version="1.0" encoding="UTF-8" standalone="no"?>
<svg
   inkscape:export-ydpi="96"
   inkscape:export-xdpi="96"
   inkscape:export-filename="D:\projects\git\dcc_platform\icons\paint.png"
   sodipodi:docname="paint.svg"
   inkscape:version="1.4 (86a8ad7, 2024-10-11)"
   id="svg8"
   version="1.1"
   viewBox="0 0 5.2916665 5.2916668"
   height="20"
   width="20"
   xmlns:inkscape="http://www.inkscape.org/namespaces/inkscape"
   xmlns:sodipodi="http://sodipodi.sourceforge.net/DTD/sodipodi-0.dtd"
   xmlns="http://www.w3.org/2000/svg"
   xmlns:svg="http://www.w3.org/2000/svg"
   xmlns:rdf="http://www.w3.org/1999/02/22-rdf-syntax-ns#"
   xmlns:cc="http://creativecommons.org/ns#"
   xmlns:dc="http://purl.org/dc/elements/1.1/">
  <defs
     id="defs2">
    <pattern
       id="EMFhbasepattern"
       patternUnits="userSpaceOnUse"
       width="6"
       height="6"
       x="0"
       y="0" />
  </defs>
  <sodipodi:namedview
     inkscape:document-rotation="0"
     inkscape:guide-bbox="true"
     showguides="true"
     inkscape:window-maximized="1"
     inkscape:window-y="449"
     inkscape:window-x="3832"
     inkscape:window-height="1009"
     inkscape:window-width="1920"
     units="px"
     showgrid="false"
     inkscape:current-layer="svg8"
     inkscape:document-units="px"
     inkscape:cy="12.125"
     inkscape:cx="7.09375"
     inkscape:zoom="16"
     inkscape:pageshadow="2"
     inkscape:pageopacity="0.0"
     borderopacity="1.0"
     bordercolor="#666666"
     pagecolor="#ffffff"
     id="base"
     inkscape:showpageshadow="2"
     inkscape:pagecheckerboard="0"
     inkscape:deskcolor="#d1d1d1" />
  <metadata
     id="metadata5">
    <rdf:RDF>
      <cc:Work
         rdf:about="">
        <dc:format>image/svg+xml</dc:format>
        <dc:type
           rdf:resource="http://purl.org/dc/dcmitype/StillImage" />
        <dc:title />
      </cc:Work>
    </rdf:RDF>
  </metadata>
  <g
     style="display:inline"
     transform="translate(0,-291.70832)"
     id="layer1"
     inkscape:groupmode="layer"
     inkscape:label="Layer 1">
    <path
       inkscape:connector-curvature="0"
       id="path4593"
       d=""
       style="fill:#000000;stroke-width:0.26458332" />
    <path
       id="path898"
       d="m 1.1882939,296.70076 c -0.469135,-0.12634 -0.774499,-0.49979 -0.886769,-1.0845 -0.03293,-0.17148 -0.04416,-0.37859 -0.02054,-0.37859 0.0069,0 0.09526,0.058 0.196445,0.12892 0.350773,0.24579 0.406858,0.24275 0.539954,-0.0292 0.101686,-0.2078 0.227431,-0.36065 0.361199,-0.43904 0.114449,-0.0671 0.400208,-0.14229 0.61406,-0.16162 l 0.14293,-0.0129 0.07486,0.11552 c 0.101438,0.15655 0.238606,0.27109 0.441594,0.36874 l 0.169831,0.0817 -3.45e-4,0.20237 c -6.73e-4,0.39206 -0.09995,0.64717 -0.348607,0.89583 -0.256952,0.25695 -0.503339,0.35006 -0.919383,0.34741 -0.13342,-8.8e-4 -0.29777,-0.0164 -0.365223,-0.0346 z m 1.664578,-1.68421 c -0.137592,-0.043 -0.243851,-0.11349 -0.358217,-0.23757 -0.159552,-0.17309 -0.199866,-0.28611 -0.199866,-0.5603 0,-0.36564 -0.0242,-0.33547 1.056375,-1.31696 0.505447,-0.45909 0.948851,-0.85036 0.985342,-0.86948 0.183137,-0.096 0.389444,-0.0745 0.542462,0.0565 0.184537,0.15796 0.191597,0.36997 0.02387,0.71671 -0.05814,0.12019 -0.21432,0.41355 -0.347057,0.6519 -0.602898,1.0826 -0.878431,1.43739 -1.203551,1.54975 -0.140817,0.0487 -0.360599,0.0528 -0.499356,0.009 z"
       style="fill:#bdbdbd;stroke-width:0.52916666;fill-opacity:1;stroke:#3a3a3a;stroke-opacity:1;stroke-miterlimit:4;stroke-dasharray:none;paint-order:stroke fill markers" />
  </g>
</svg>
