<?xml version="1.0" encoding="UTF-8" standalone="no"?>
<svg
   width="16"
   height="16"
   viewBox="0 0 4.2333332 4.2333334"
   version="1.1"
   id="svg8"
   inkscape:version="1.4 (86a8ad7, 2024-10-11)"
   sodipodi:docname="paint_small.svg"
   inkscape:export-filename="..\paint_small.png"
   inkscape:export-xdpi="96"
   inkscape:export-ydpi="96"
   xmlns:inkscape="http://www.inkscape.org/namespaces/inkscape"
   xmlns:sodipodi="http://sodipodi.sourceforge.net/DTD/sodipodi-0.dtd"
   xmlns="http://www.w3.org/2000/svg"
   xmlns:svg="http://www.w3.org/2000/svg"
   xmlns:rdf="http://www.w3.org/1999/02/22-rdf-syntax-ns#"
   xmlns:cc="http://creativecommons.org/ns#"
   xmlns:dc="http://purl.org/dc/elements/1.1/">
  <defs
     id="defs2">
    <pattern
       y="0"
       x="0"
       height="6"
       width="6"
       patternUnits="userSpaceOnUse"
       id="EMFhbasepattern" />
  </defs>
  <sodipodi:namedview
     id="base"
     pagecolor="#ffffff"
     bordercolor="#666666"
     borderopacity="1.0"
     inkscape:pageopacity="0.0"
     inkscape:pageshadow="2"
     inkscape:zoom="22.627417"
     inkscape:cx="13.766485"
     inkscape:cy="12.020815"
     inkscape:document-units="px"
     inkscape:current-layer="svg8"
     showgrid="false"
     units="px"
     inkscape:window-width="1920"
     inkscape:window-height="1009"
     inkscape:window-x="3832"
     inkscape:window-y="449"
     inkscape:window-maximized="1"
     showguides="true"
     inkscape:guide-bbox="true"
     inkscape:document-rotation="0"
     inkscape:showpageshadow="0"
     inkscape:pagecheckerboard="0"
     inkscape:deskcolor="#d1d1d1" />
  <metadata
     id="metadata5">
    <rdf:RDF>
      <cc:Work
         rdf:about="">
        <dc:format>image/svg+xml</dc:format>
        <dc:type
           rdf:resource="http://purl.org/dc/dcmitype/StillImage" />
      </cc:Work>
    </rdf:RDF>
  </metadata>
  <g
     inkscape:label="Layer 1"
     inkscape:groupmode="layer"
     id="layer1"
     transform="translate(0,-291.70832)"
     style="display:inline">
    <path
       style="fill:#000000;stroke-width:0.264583"
       d=""
       id="path4593"
       inkscape:connector-curvature="0" />
    <path
       sodipodi:nodetypes="ccsccccccccccccccccscccccccc"
       style="display:inline;fill:#bdbdbd;fill-opacity:1;stroke:#3a3a3a;stroke-width:0.529167;stroke-miterlimit:4;stroke-dasharray:none;stroke-opacity:1;paint-order:stroke fill markers"
       d="m 1.0317749,295.57012 c -0.34921454,-0.0941 -0.57652124,-0.37217 -0.66009264,-0.80755 -0.024513,-0.12769 -0.032871,-0.28192 -0.015289,-0.28192 0.00513,0 0.070909,0.0432 0.1462295,0.096 0.2611083,0.18303 0.3028568,0.18077 0.4019308,-0.0217 0.075694,-0.15474 0.16929504,-0.26855 0.26886914,-0.32692 0.085193,-0.0499 0.2979066,-0.106 0.4570937,-0.12035 l 0.1063939,-0.009 0.055724,0.086 c 0.075508,0.11657 0.1776135,0.20185 0.3287135,0.27457 l 0.1264187,0.0607 -2.561e-4,0.1507 c -4.923e-4,0.29193 -0.074401,0.48189 -0.2594957,0.66706 -0.19127,0.19133 -0.3746754,0.26066 -0.68437,0.25869 -0.099315,-6.5e-4 -0.2216539,-0.0123 -0.2718645,-0.0258 m 0,0 -5.4e-6,4.1e-4 m 1.2390777,-1.25412 C 2.1684313,294.28489 2.0893349,294.23249 2.0042033,294.14 1.885436,294.01112 1.855427,293.92696 1.855427,293.72278 c 0,-0.27226 -0.018014,-0.24979 0.786344,-0.98065 0.3762444,-0.34184 0.7063051,-0.63319 0.7334683,-0.64743 0.1363233,-0.0714 0.2898941,-0.0555 0.4037976,0.0421 0.1373657,0.11762 0.1426208,0.2755 0.017769,0.53368 -0.043278,0.0896 -0.1595353,0.30794 -0.258342,0.48542 -0.448785,0.80614 -0.6538861,1.07032 -0.8958986,1.154 -0.1048213,0.0362 -0.2684227,0.0392 -0.3717104,0.006 z"
       id="path898" />
  </g>
</svg>
