<?xml version="1.0" encoding="UTF-8" standalone="no"?>
<svg
   width="20"
   height="20"
   viewBox="0 0 5.2916665 5.2916668"
   version="1.1"
   id="svg8"
   inkscape:version="1.4 (86a8ad7, 2024-10-11)"
   sodipodi:docname="paint_instance.svg"
   inkscape:export-filename="D:\projects\git\dcc_platform\icons\paint_instance.png"
   inkscape:export-xdpi="96"
   inkscape:export-ydpi="96"
   xmlns:inkscape="http://www.inkscape.org/namespaces/inkscape"
   xmlns:sodipodi="http://sodipodi.sourceforge.net/DTD/sodipodi-0.dtd"
   xmlns="http://www.w3.org/2000/svg"
   xmlns:svg="http://www.w3.org/2000/svg"
   xmlns:rdf="http://www.w3.org/1999/02/22-rdf-syntax-ns#"
   xmlns:cc="http://creativecommons.org/ns#"
   xmlns:dc="http://purl.org/dc/elements/1.1/">
  <defs
     id="defs2">
    <pattern
       y="0"
       x="0"
       height="6"
       width="6"
       patternUnits="userSpaceOnUse"
       id="EMFhbasepattern" />
  </defs>
  <sodipodi:namedview
     id="base"
     pagecolor="#ffffff"
     bordercolor="#666666"
     borderopacity="1.0"
     inkscape:pageopacity="0.0"
     inkscape:pageshadow="2"
     inkscape:zoom="32"
     inkscape:cx="11.703125"
     inkscape:cy="9.5"
     inkscape:document-units="px"
     inkscape:current-layer="svg8"
     showgrid="false"
     units="px"
     inkscape:window-width="1920"
     inkscape:window-height="1009"
     inkscape:window-x="3832"
     inkscape:window-y="449"
     inkscape:window-maximized="1"
     showguides="true"
     inkscape:guide-bbox="true"
     inkscape:document-rotation="0"
     inkscape:showpageshadow="2"
     inkscape:pagecheckerboard="0"
     inkscape:deskcolor="#d1d1d1" />
  <metadata
     id="metadata5">
    <rdf:RDF>
      <cc:Work
         rdf:about="">
        <dc:format>image/svg+xml</dc:format>
        <dc:type
           rdf:resource="http://purl.org/dc/dcmitype/StillImage" />
        <dc:title />
      </cc:Work>
    </rdf:RDF>
  </metadata>
  <g
     inkscape:label="Layer 1"
     inkscape:groupmode="layer"
     id="layer1"
     transform="translate(0,-291.70832)"
     style="display:inline">
    <path
       style="fill:#000000;stroke-width:0.26458332"
       d=""
       id="path4593"
       inkscape:connector-curvature="0" />
    <g
       style="stroke-width:0.893485"
       transform="matrix(1.1204381,0,0,1.1179909,-0.3122373,-34.733037)"
       id="g887">
      <path
         sodipodi:nodetypes="ccccc"
         inkscape:connector-curvature="0"
         id="path4514"
         d="m 0.3968748,292.80797 1.1456086,-0.68135 1.1638502,0.68507 -1.1565538,0.70368 z"
         style="fill:#9e7efc;fill-opacity:1;stroke:none;stroke-width:0.236401;stroke-linecap:round;stroke-linejoin:round;stroke-miterlimit:4;stroke-dasharray:none;stroke-opacity:1;paint-order:fill markers stroke" />
      <path
         sodipodi:nodetypes="ccccc"
         inkscape:connector-curvature="0"
         id="path4516"
         d="m 0.3968748,292.80797 v 1.40735 l 1.152905,0.69252 v -1.39247 z"
         style="fill:#9e7efc;fill-opacity:1;stroke:none;stroke-width:0.236401;stroke-linecap:round;stroke-linejoin:round;stroke-miterlimit:4;stroke-dasharray:none;stroke-opacity:1;paint-order:fill markers stroke" />
      <path
         style="fill:#9e7efc;fill-opacity:1;stroke:none;stroke-width:0.236401;stroke-linecap:round;stroke-linejoin:round;stroke-miterlimit:4;stroke-dasharray:none;stroke-opacity:1;paint-order:fill markers stroke"
         d="m 2.7063336,292.81169 v 1.40736 l -1.1565538,0.68879 v -1.39247 z"
         id="path4518"
         inkscape:connector-curvature="0"
         sodipodi:nodetypes="ccccc" />
      <path
         style="fill:none;stroke:#3a3a3a;stroke-width:0.236401;stroke-linecap:butt;stroke-linejoin:miter;stroke-miterlimit:4;stroke-dasharray:none;stroke-opacity:1"
         d="m 0.3968748,294.21532 1.152905,0.69252 1.1565537,-0.68879 v -1.40736 l -1.1638501,-0.68507 -1.1456086,0.68135 z"
         id="path4520"
         inkscape:connector-curvature="0" />
      <path
         style="fill:none;stroke:#3a3a3a;stroke-width:0.236401px;stroke-linecap:butt;stroke-linejoin:miter;stroke-opacity:1"
         d="m 1.5497798,294.90784 v -1.39247"
         id="path4522"
         inkscape:connector-curvature="0" />
      <path
         style="fill:none;stroke:#3a3a3a;stroke-width:0.236401px;stroke-linecap:butt;stroke-linejoin:miter;stroke-opacity:1"
         d="m 2.7063335,292.81169 -1.1565537,0.70368"
         id="path4525"
         inkscape:connector-curvature="0" />
      <path
         style="fill:none;stroke:#3a3a3a;stroke-width:0.236401px;stroke-linecap:butt;stroke-linejoin:miter;stroke-opacity:1"
         d="m 0.3968748,292.80797 1.152905,0.7074"
         id="path4527"
         inkscape:connector-curvature="0" />
    </g>
    <path
       sodipodi:nodetypes="ccsccccccccccccccccscccccccc"
       style="display:inline;fill:#bdbdbd;fill-opacity:1;stroke:#3a3a3a;stroke-width:0.529167;stroke-miterlimit:4;stroke-dasharray:none;stroke-opacity:1;paint-order:stroke fill markers"
       d="m 2.1723792,296.7091 c -0.3492145,-0.0941 -0.5765212,-0.37217 -0.6600926,-0.80755 -0.024513,-0.12769 -0.032871,-0.28192 -0.015289,-0.28192 0.00513,0 0.070909,0.0432 0.1462295,0.096 0.2611083,0.18303 0.3028568,0.18077 0.4019308,-0.0217 0.075694,-0.15474 0.169295,-0.26855 0.2688691,-0.32692 0.085193,-0.0499 0.2979066,-0.106 0.4570937,-0.12035 l 0.1063939,-0.009 0.055724,0.086 c 0.075508,0.11657 0.1776135,0.20185 0.3287135,0.27457 l 0.1264187,0.0607 -2.561e-4,0.1507 c -4.923e-4,0.29193 -0.074401,0.48189 -0.2594957,0.66706 -0.19127,0.19133 -0.3746754,0.26066 -0.68437,0.25869 -0.099315,-6.5e-4 -0.2216539,-0.0123 -0.2718645,-0.0258 m 0,0 -5.4e-6,4.1e-4 m 1.2390777,-1.25412 c -0.1024212,-0.032 -0.1815176,-0.0844 -0.2666492,-0.17689 -0.1187673,-0.12888 -0.1487763,-0.21304 -0.1487763,-0.41722 0,-0.27226 -0.018014,-0.24979 0.786344,-0.98065 0.3762444,-0.34184 0.7063051,-0.63319 0.7334683,-0.64743 0.1363233,-0.0714 0.2898941,-0.0555 0.4037976,0.0421 0.1373657,0.11762 0.1426208,0.2755 0.017769,0.53368 -0.043278,0.0896 -0.1595353,0.30794 -0.258342,0.48542 -0.448785,0.80614 -0.6538861,1.07032 -0.8958986,1.154 -0.1048213,0.0362 -0.2684227,0.0392 -0.3717104,0.006 z"
       id="path898" />
  </g>
</svg>
