<?xml version="1.0" encoding="UTF-8" standalone="no"?>
<!-- Created with Inkscape (http://www.inkscape.org/) -->

<svg
   width="16"
   height="16"
   viewBox="0 0 4.2333332 4.2333334"
   version="1.1"
   id="svg8"
   inkscape:version="1.4 (86a8ad7, 2024-10-11)"
   sodipodi:docname="panel_channel_editor.svg"
   inkscape:export-filename="..\panel_channel_editor.png"
   inkscape:export-xdpi="96"
   inkscape:export-ydpi="96"
   xmlns:inkscape="http://www.inkscape.org/namespaces/inkscape"
   xmlns:sodipodi="http://sodipodi.sourceforge.net/DTD/sodipodi-0.dtd"
   xmlns="http://www.w3.org/2000/svg"
   xmlns:svg="http://www.w3.org/2000/svg"
   xmlns:rdf="http://www.w3.org/1999/02/22-rdf-syntax-ns#"
   xmlns:cc="http://creativecommons.org/ns#"
   xmlns:dc="http://purl.org/dc/elements/1.1/">
  <defs
     id="defs2" />
  <sodipodi:namedview
     id="base"
     pagecolor="#ffffff"
     bordercolor="#666666"
     borderopacity="1.0"
     inkscape:pageopacity="0.0"
     inkscape:pageshadow="2"
     inkscape:zoom="32"
     inkscape:cx="8.203125"
     inkscape:cy="8.59375"
     inkscape:document-units="px"
     inkscape:current-layer="svg8"
     showgrid="false"
     units="px"
     inkscape:window-width="1920"
     inkscape:window-height="1009"
     inkscape:window-x="3832"
     inkscape:window-y="449"
     inkscape:window-maximized="1"
     showguides="true"
     inkscape:guide-bbox="true"
     inkscape:showpageshadow="0"
     inkscape:pagecheckerboard="0"
     inkscape:deskcolor="#d1d1d1" />
  <metadata
     id="metadata5">
    <rdf:RDF>
      <cc:Work
         rdf:about="">
        <dc:format>image/svg+xml</dc:format>
        <dc:type
           rdf:resource="http://purl.org/dc/dcmitype/StillImage" />
      </cc:Work>
    </rdf:RDF>
  </metadata>
  <g
     inkscape:label="Layer 1"
     inkscape:groupmode="layer"
     id="layer1"
     transform="translate(0,-291.70832)"
     style="display:inline">
    <path
       d="m 2.8769168,293.19185 c -0.1516052,0 -0.2753519,0.002 -0.2753519,0.005 0,0.0431 -0.058561,0.42032 -0.064904,0.42285 -0.043465,0.0155 -0.1620688,0.0824 -0.2091362,0.11801 -0.031843,0.0241 -0.063151,0.0439 -0.069493,0.0439 -0.0067,0 -0.098318,-0.0319 -0.2032359,-0.0708 -0.1747202,-0.0647 -0.1917753,-0.0702 -0.2019246,-0.0564 -0.020565,0.0266 -0.2609286,0.44807 -0.2609286,0.45695 0,0.005 0.075623,0.0676 0.168489,0.139 l 0.1691447,0.1298 -6.544e-4,0.13178 c 0,0.0725 0.00209,0.14449 0.0059,0.15996 0.00651,0.0278 0.00437,0.0303 -0.1632443,0.16915 -0.1595734,0.13221 -0.1688054,0.1417 -0.1586561,0.15997 0.086091,0.15591 0.2618395,0.45177 0.2694514,0.4517 0.00507,0 0.095589,-0.0362 0.2012691,-0.08 0.1735911,-0.0722 0.1936798,-0.0783 0.2097918,-0.0669 0.044936,0.0316 0.1337967,0.0778 0.1979911,0.10358 0.038568,0.0155 0.071228,0.0284 0.072116,0.0289 8.857e-4,5e-4 0.015928,0.0814 0.033436,0.17963 0.017634,0.0982 0.034176,0.18724 0.036714,0.19864 l 0.00393,0.021 0.2746963,-0.002 0.2746962,-0.003 0.027535,-0.19865 c 0.015097,-0.10924 0.028276,-0.20065 0.030813,-0.20192 0.00216,-0.002 0.026081,-0.0122 0.053103,-0.0236 0.059894,-0.0249 0.1455726,-0.0741 0.1894683,-0.10884 0.017888,-0.0143 0.036185,-0.0256 0.039992,-0.0256 0.00421,1.3e-4 0.09375,0.0343 0.1993022,0.076 0.1056035,0.0418 0.1954538,0.0761 0.1979911,0.0761 0.00589,0 0.2631506,-0.44097 0.2707626,-0.46482 0.00311,-0.009 -0.048558,-0.0539 -0.1671778,-0.14424 l -0.1717671,-0.13046 6.563e-4,-0.16325 v -0.1639 l 0.1606218,-0.13374 c 0.088299,-0.0736 0.1619757,-0.13584 0.1632443,-0.13964 0.00223,-0.006 -0.2514568,-0.45186 -0.2661733,-0.4681 -0.00361,-0.004 -0.095569,0.0296 -0.2045471,0.0747 l -0.1979911,0.082 -0.055726,-0.0387 c -0.030423,-0.0216 -0.095537,-0.0596 -0.1448875,-0.0846 l -0.089817,-0.0459 -0.034746,-0.20651 -0.034746,-0.20717 z m 0.020323,0.88505 c 0.2497234,-3.9e-4 0.45543,0.2073 0.4549859,0.45959 -3.295e-4,0.19382 -0.1290583,0.37136 -0.3140322,0.43268 0,0 -6.562e-4,0 -6.562e-4,0 -0.1706942,0.0562 -0.3477746,0.0102 -0.473344,-0.12325 -0.1763567,-0.18724 -0.1716141,-0.45615 0.010489,-0.63527 0.092866,-0.0913 0.1946611,-0.13353 0.322555,-0.13375 z"
       style="fill:#bdbdbd;fill-opacity:1;stroke-width:0.999996"
       id="path1075" />
    <path
       style="fill:#000000;stroke-width:0.264583"
       d=""
       id="path4593"
       inkscape:connector-curvature="0" />
    <path
       id="rect30007"
       style="fill:#bdbdbd;stroke:#3a3a3a;stroke-width:0.529167;stroke-linecap:round;paint-order:stroke markers fill"
       d="M 0.52916666 291.9729 L 0.52916666 292.23749 L 1.0583333 292.23749 L 1.0583333 291.9729 L 0.52916666 291.9729 z M 1.0583333 292.23749 L 1.0583333 292.50207 L 1.3229167 292.50207 L 1.3229167 292.23749 L 1.0583333 292.23749 z M 0.52916666 292.23749 L 0.26458333 292.23749 L 0.26458333 293.03124 L 0.52916666 293.03124 L 0.52916666 292.23749 z M 0.52916666 293.03124 L 0.52916666 293.29582 L 1.0583333 293.29582 L 1.0583333 293.03124 L 0.52916666 293.03124 z M 1.0583333 293.03124 L 1.3229167 293.03124 L 1.3229167 292.76665 L 1.0583333 292.76665 L 1.0583333 293.03124 z " />
    <path
       id="rect7089"
       style="fill:#bdbdbd;stroke:#3a3a3a;stroke-width:0.529167;stroke-linecap:round;stroke-dasharray:none;stroke-opacity:1;paint-order:stroke fill markers"
       d="M 1.5875 291.9729 L 1.5875 293.29582 L 1.8520833 293.29582 L 1.8520833 293.03124 L 1.8520833 292.76665 L 2.38125 292.76665 L 2.38125 292.50207 L 2.2753133 292.50207 L 1.8520833 292.50207 L 1.8520833 291.9729 L 1.5875 291.9729 z M 2.38125 292.76665 L 2.38125 293.29582 L 2.6458333 293.29582 L 2.6458333 293.18988 L 2.6458333 292.76665 L 2.38125 292.76665 z " />
  </g>
</svg>
