<?xml version="1.0" encoding="UTF-8" standalone="no"?>
<!-- Created with Inkscape (http://www.inkscape.org/) -->

<svg
   width="16"
   height="16"
   viewBox="0 0 4.2333332 4.2333334"
   version="1.1"
   id="svg8"
   inkscape:version="1.4 (86a8ad7, 2024-10-11)"
   sodipodi:docname="panel_script_editor.svg"
   inkscape:export-filename="..\panel_script_editor.png"
   inkscape:export-xdpi="96"
   inkscape:export-ydpi="96"
   xmlns:inkscape="http://www.inkscape.org/namespaces/inkscape"
   xmlns:sodipodi="http://sodipodi.sourceforge.net/DTD/sodipodi-0.dtd"
   xmlns="http://www.w3.org/2000/svg"
   xmlns:svg="http://www.w3.org/2000/svg"
   xmlns:rdf="http://www.w3.org/1999/02/22-rdf-syntax-ns#"
   xmlns:cc="http://creativecommons.org/ns#"
   xmlns:dc="http://purl.org/dc/elements/1.1/">
  <defs
     id="defs2" />
  <sodipodi:namedview
     id="base"
     pagecolor="#ffffff"
     bordercolor="#666666"
     borderopacity="1.0"
     inkscape:pageopacity="0.0"
     inkscape:pageshadow="2"
     inkscape:zoom="13.420545"
     inkscape:cx="3.0177612"
     inkscape:cy="13.896604"
     inkscape:document-units="px"
     inkscape:current-layer="layer1"
     showgrid="false"
     units="px"
     inkscape:window-width="1258"
     inkscape:window-height="758"
     inkscape:window-x="4208"
     inkscape:window-y="638"
     inkscape:window-maximized="0"
     showguides="true"
     inkscape:guide-bbox="true"
     inkscape:showpageshadow="0"
     inkscape:pagecheckerboard="0"
     inkscape:deskcolor="#d1d1d1" />
  <metadata
     id="metadata5">
    <rdf:RDF>
      <cc:Work
         rdf:about="">
        <dc:format>image/svg+xml</dc:format>
        <dc:type
           rdf:resource="http://purl.org/dc/dcmitype/StillImage" />
      </cc:Work>
    </rdf:RDF>
  </metadata>
  <g
     inkscape:label="Layer 1"
     inkscape:groupmode="layer"
     id="layer1"
     transform="translate(0,-291.70832)"
     style="display:inline">
    <path
       style="fill:#000000;stroke-width:0.264583"
       d=""
       id="path4593"
       inkscape:connector-curvature="0" />
    <g
       style="stroke:#3a3a3a;stroke-width:0.587963;stroke-miterlimit:4;stroke-dasharray:none;stroke-opacity:1;paint-order:stroke fill markers"
       transform="matrix(0.7202651,0,0,0.7202651,0.21044885,81.050467)"
       id="g864">
      <path
         d="m 2.6146698,292.76669 c -0.2158155,9.9e-4 -0.4219132,0.0194 -0.6032574,0.0515 -0.5342198,0.0944 -0.6312126,0.29192 -0.6312126,0.65623 v 0.48113 H 2.642625 v 0.16038 H 1.3801998 0.90642238 c -0.36689585,0 -0.68816067,0.22052 -0.78864785,0.64003 -0.11591182,0.48087 -0.12105304,0.78094 0,1.28303 0.0897389,0.37374 0.30404302,0.64004 0.67093887,0.64004 h 0.4340502 v -0.57677 c 0,-0.41669 0.3605252,-0.78424 0.7886488,-0.78424 h 1.2609535 c 0.3510054,0 0.6312126,-0.28899 0.6312126,-0.6415 v -1.2021 c 0,-0.34213 -0.2886203,-0.59913 -0.6312126,-0.65623 -0.2168658,-0.0361 -0.4418827,-0.0525 -0.6576961,-0.0515 z m -0.6827109,0.38697 c 0.1303998,0 0.2368887,0.10822 0.2368887,0.24131 0,0.1326 -0.1064889,0.23982 -0.2368887,0.23982 -0.1308676,0 -0.2368887,-0.10722 -0.2368887,-0.23982 0,-0.13309 0.1060211,-0.24131 0.2368887,-0.24131 z"
         style="fill:#bdbdbd;fill-opacity:1;stroke:#3a3a3a;stroke-width:0.587963;stroke-miterlimit:4;stroke-dasharray:none;stroke-opacity:1;paint-order:stroke fill markers"
         id="path1948" />
      <path
         d="m 4.0610147,294.11593 v 0.56059 c 0,0.43462 -0.3684704,0.80042 -0.7886488,0.80042 H 2.0114124 c -0.3453963,0 -0.6312126,0.2956 -0.6312126,0.64151 v 1.2021 c 0,0.34213 0.2975003,0.54336 0.6312126,0.64151 0.3996125,0.1175 0.7828202,0.13874 1.2609535,0 0.3178209,-0.092 0.6312126,-0.27721 0.6312126,-0.64151 v -0.48113 H 2.642625 v -0.16039 h 1.2609535 0.6312136 c 0.3668959,0 0.5036159,-0.25591 0.6312117,-0.64004 0.1318023,-0.39544 0.1261942,-0.77573 0,-1.28302 -0.090669,-0.36524 -0.2638499,-0.64004 -0.6312117,-0.64004 z m -0.7091953,3.04424 c 0.1308676,0 0.2368887,0.10722 0.2368887,0.23983 0,0.13308 -0.1060211,0.2413 -0.2368887,0.2413 -0.1303998,0 -0.2368887,-0.10822 -0.2368887,-0.2413 0,-0.13261 0.1064889,-0.23983 0.2368887,-0.23983 z"
         style="fill:#bdbdbd;fill-opacity:1;stroke:#3a3a3a;stroke-width:0.587963;stroke-miterlimit:4;stroke-dasharray:none;stroke-opacity:1;paint-order:stroke fill markers"
         id="path1950" />
    </g>
  </g>
</svg>
