<?xml version="1.0" encoding="UTF-8" standalone="no"?>
<!-- Created with Inkscape (http://www.inkscape.org/) -->

<svg
   width="16"
   height="16"
   viewBox="0 0 4.2333332 4.2333334"
   version="1.1"
   id="svg8"
   inkscape:version="1.4 (86a8ad7, 2024-10-11)"
   sodipodi:docname="panel_usd_details_view.svg"
   inkscape:export-filename="..\panel_usd_details_view.png"
   inkscape:export-xdpi="96"
   inkscape:export-ydpi="96"
   xmlns:inkscape="http://www.inkscape.org/namespaces/inkscape"
   xmlns:sodipodi="http://sodipodi.sourceforge.net/DTD/sodipodi-0.dtd"
   xmlns="http://www.w3.org/2000/svg"
   xmlns:svg="http://www.w3.org/2000/svg"
   xmlns:rdf="http://www.w3.org/1999/02/22-rdf-syntax-ns#"
   xmlns:cc="http://creativecommons.org/ns#"
   xmlns:dc="http://purl.org/dc/elements/1.1/">
  <defs
     id="defs2" />
  <sodipodi:namedview
     id="base"
     pagecolor="#ffffff"
     bordercolor="#666666"
     borderopacity="1.0"
     inkscape:pageopacity="0.0"
     inkscape:pageshadow="2"
     inkscape:zoom="32"
     inkscape:cx="7.359375"
     inkscape:cy="7.46875"
     inkscape:document-units="px"
     inkscape:current-layer="svg8"
     showgrid="false"
     units="px"
     inkscape:window-width="1920"
     inkscape:window-height="1009"
     inkscape:window-x="3832"
     inkscape:window-y="449"
     inkscape:window-maximized="1"
     showguides="true"
     inkscape:guide-bbox="true"
     inkscape:showpageshadow="0"
     inkscape:pagecheckerboard="0"
     inkscape:deskcolor="#d1d1d1" />
  <metadata
     id="metadata5">
    <rdf:RDF>
      <cc:Work
         rdf:about="">
        <dc:format>image/svg+xml</dc:format>
        <dc:type
           rdf:resource="http://purl.org/dc/dcmitype/StillImage" />
      </cc:Work>
    </rdf:RDF>
  </metadata>
  <g
     inkscape:label="Layer 1"
     inkscape:groupmode="layer"
     id="layer1"
     transform="translate(0,-291.70832)"
     style="display:inline">
    <path
       style="fill:#000000;stroke-width:0.264583"
       d=""
       id="path4593"
       inkscape:connector-curvature="0" />
    <path
       d="m 0.07839141,292.08929 c -0.001133,0 -0.001873,0.49111 -0.001873,1.09146 v 1.09177 l 0.0302923,0.008 c 0.0167439,0.005 0.034259,0.009 0.0387243,0.009 0.004465,1.2e-4 0.0179291,0.005 0.0299803,0.0116 0.0120512,0.006 0.043114,0.0174 0.0690165,0.025 0.0259026,0.008 0.0508102,0.016 0.0552755,0.0196 0.004465,0.003 0.0318734,0.0127 0.0608973,0.0206 0.0290232,0.008 0.0564313,0.0164 0.0608966,0.02 0.004465,0.003 0.0245654,0.0108 0.0446581,0.0162 0.0200934,0.006 0.0471887,0.0152 0.0605846,0.0206 0.0133951,0.006 0.0755215,0.0271 0.13803303,0.0477 0.062512,0.0206 0.1721457,0.058 0.2435876,0.0828 0.071442,0.0248 0.15184016,0.0521 0.17863096,0.0606 0.081179,0.0258 0.2912269,0.0974 0.3085444,0.10525 0.00893,0.004 0.036339,0.0132 0.060897,0.0206 0.024558,0.008 0.051967,0.017 0.060897,0.0206 0.00893,0.004 0.06192,0.0221 0.117734,0.0403 0.055814,0.0182 0.108804,0.0367 0.117734,0.041 0.00893,0.005 0.039993,0.0149 0.069017,0.0234 0.029023,0.009 0.087495,0.0283 0.1299134,0.0437 v 3.2e-4 c 0.042419,0.0155 0.077898,0.0285 0.07901,0.029 0.00112,4.4e-4 0.00218,-0.49024 0.00218,-1.09021 v -1.09084 l -0.038724,-0.0103 c -0.021209,-0.006 -0.042066,-0.0129 -0.046531,-0.0165 -0.00446,-0.003 -0.0301,-0.0125 -0.056837,-0.0203 -0.026737,-0.008 -0.054145,-0.0173 -0.060896,-0.0209 -0.00675,-0.004 -0.088923,-0.0324 -0.1826908,-0.0637 -0.2272252,-0.0759 -0.3967816,-0.13446 -0.4062918,-0.1399 -0.00426,-0.002 -0.029735,-0.0107 -0.056525,-0.0181 -0.026791,-0.008 -0.056026,-0.017 -0.064957,-0.0212 -0.00893,-0.005 -0.04182,-0.0162 -0.073076,-0.0265 -0.20354046,-0.0678 -0.28618866,-0.096 -0.30042466,-0.10242 -0.00893,-0.004 -0.036339,-0.0135 -0.060897,-0.0209 -0.024558,-0.008 -0.055621,-0.0183 -0.069017,-0.0244 -0.013396,-0.006 -0.0408039,-0.0149 -0.0608973,-0.0203 -0.0200934,-0.005 -0.0401921,-0.0126 -0.0446581,-0.0162 -0.004465,-0.004 -0.0279067,-0.0122 -0.0524653,-0.019 -0.0245587,-0.007 -0.10861061,-0.0348 -0.18675051,-0.0622 -0.13192184,-0.0462 -0.18786951,-0.065 -0.19299661,-0.065 z m 0.36350773,0.54588 0.07089,0.0237 c 0.0390703,0.0131 0.0781994,0.0276 0.0871294,0.0312 0.00893,0.004 0.061919,0.0224 0.1177341,0.0406 0.055814,0.0183 0.1069765,0.0357 0.1136742,0.0381 0.030677,0.012 0.39013876,0.1344 0.42627846,0.14522 0.022325,0.007 0.047907,0.0158 0.056837,0.02 0.016789,0.008 0.101748,0.037 0.1867505,0.064 0.026791,0.009 0.071402,0.0235 0.099309,0.0331 l 0.050904,0.0174 v 0.67736 c 0,0.53635 -0.00227,0.67708 -0.010306,0.67705 -0.00558,-6e-5 -0.020057,-0.005 -0.032478,-0.0119 -0.012421,-0.007 -0.045311,-0.0179 -0.073077,-0.0256 -0.027766,-0.008 -0.052415,-0.0163 -0.054651,-0.0193 -0.00224,-0.003 -0.022332,-0.01 -0.044658,-0.0159 -0.022326,-0.006 -0.051561,-0.0155 -0.064957,-0.0209 -0.013396,-0.006 -0.044458,-0.0166 -0.069017,-0.024 -0.024558,-0.008 -0.051966,-0.017 -0.060896,-0.0206 -0.00893,-0.004 -0.065574,-0.0236 -0.1258536,-0.0437 -0.060279,-0.02 -0.19549436,-0.0661 -0.30042476,-0.10211 -0.1049306,-0.036 -0.2145645,-0.0728 -0.24358771,-0.0818 -0.0290232,-0.009 -0.0640028,-0.022 -0.078073,-0.0284 -0.0140704,-0.006 -0.0315848,-0.0116 -0.0387243,-0.0116 -0.0117974,0 -0.0128036,-0.0622 -0.0128036,-0.6808 z"
       style="display:inline;fill:#bdbdbd;fill-opacity:1;stroke-width:1"
       id="path883" />
    <path
       id="path890"
       d="m 1.4857652,294.18517 c -0.00231,-0.004 -0.029022,-0.0134 -0.059338,-0.0215 -0.030314,-0.008 -0.058771,-0.0174 -0.063236,-0.0208 -0.00446,-0.004 -0.030038,-0.0125 -0.056829,-0.0202 -0.026791,-0.008 -0.052364,-0.0168 -0.056829,-0.0204 -0.00446,-0.004 -0.031865,-0.0125 -0.060888,-0.0201 -0.029024,-0.008 -0.056423,-0.0165 -0.060888,-0.0199 -0.00446,-0.004 -0.035517,-0.0144 -0.069007,-0.0244 -0.033489,-0.01 -0.064541,-0.021 -0.069006,-0.0243 -0.00446,-0.004 -0.026385,-0.0106 -0.048711,-0.0161 -0.022326,-0.005 -0.051552,-0.0148 -0.064947,-0.0208 -0.013396,-0.006 -0.071848,-0.0264 -0.1298946,-0.0453 -0.058046,-0.0189 -0.1091927,-0.0369 -0.1136579,-0.0401 -0.00446,-0.004 -0.018164,-0.008 -0.030444,-0.0111 l -0.0223256,-0.005 V 293.363 c 0,-0.41745 0.001957,-0.51142 0.0105759,-0.50811 0.005817,0.002 0.0341298,0.0104 0.062918,0.0184 0.028787,0.008 0.055996,0.0171 0.06046,0.0204 0.00446,0.004 0.030039,0.0123 0.056829,0.02 0.02679,0.008 0.052364,0.0166 0.056829,0.0198 0.00446,0.004 0.026385,0.0106 0.048711,0.0164 0.022326,0.006 0.051552,0.0154 0.064947,0.0215 0.013396,0.006 0.075501,0.0274 0.13801296,0.0477 0.062512,0.0202 0.1209645,0.0401 0.1298949,0.0442 0.00893,0.004 0.038157,0.0138 0.064947,0.0216 0.026791,0.008 0.052364,0.0168 0.056829,0.0199 0.00446,0.004 0.030038,0.0121 0.056829,0.0198 0.02679,0.008 0.052364,0.0168 0.056829,0.0204 0.00446,0.004 0.019992,0.009 0.034504,0.0121 l 0.026385,0.005 v 0.51488 c 0,0.473 -0.0024,0.5357 -0.019498,0.50804 z"
       style="display:inline;fill:#bdbdbd;fill-opacity:1;stroke-width:1" />
    <path
       id="path894"
       d="m 2.8569797,293.40077 c -0.013396,-0.006 -0.076414,-0.0286 -0.1400426,-0.0496 l -0.1156873,-0.0382 v -0.48521 -0.48521 l -0.019939,-0.005 c -0.010966,-0.003 -0.030146,-0.009 -0.042622,-0.0141 -0.034068,-0.0138 -0.2430891,-0.0869 -0.2987096,-0.10448 -0.026791,-0.008 -0.079763,-0.0266 -0.1177171,-0.0403 -0.037953,-0.0137 -0.1183259,-0.0414 -0.1786052,-0.0616 -0.060279,-0.0202 -0.1214719,-0.0422 -0.1359835,-0.0489 l -0.026384,-0.0121 v -0.15793 c 0,-0.0868 0.00218,-0.15793 0.00484,-0.15793 0.011123,0 0.097293,0.0268 0.1047594,0.0326 0.00446,0.004 0.035518,0.0144 0.069006,0.0242 0.033489,0.01 0.064542,0.0207 0.069007,0.024 0.00446,0.004 0.022732,0.01 0.040592,0.0148 0.040815,0.0109 0.1731923,0.056 0.1948421,0.0664 0.00893,0.005 0.034504,0.0131 0.056829,0.0198 0.022326,0.007 0.1045245,0.0343 0.1826644,0.0615 0.07814,0.0272 0.1859119,0.0642 0.2394935,0.0822 0.053582,0.018 0.109294,0.0382 0.1238056,0.0447 l 0.026385,0.0121 v 0.64503 c 0,0.35477 -0.00274,0.64495 -0.00609,0.64484 -0.00335,-9e-5 -0.017049,-0.005 -0.030444,-0.0116 z"
       style="display:inline;fill:#bdbdbd;fill-opacity:1;stroke-width:1" />
    <path
       id="path892"
       d="m 2.3536379,294.13071 c -0.053582,-0.0195 -0.1184274,-0.0415 -0.1441021,-0.0493 l -0.046681,-0.0139 v -0.69935 -0.69936 l -0.030444,-0.0128 c -0.016745,-0.007 -0.07611,-0.0284 -0.1319241,-0.0475 -0.055815,-0.0191 -0.1635861,-0.0561 -0.2394934,-0.0825 -0.2699956,-0.0936 -0.374854,-0.12944 -0.483046,-0.16523 -0.060279,-0.0199 -0.1169053,-0.0396 -0.1258355,-0.0437 -0.00893,-0.004 -0.03633,-0.0135 -0.060888,-0.021 -0.024559,-0.008 -0.055611,-0.0183 -0.069007,-0.0242 -0.013396,-0.006 -0.039882,-0.0149 -0.058859,-0.0199 l -0.034504,-0.009 v -0.16698 c 0,-0.13024 0.00224,-0.16613 0.010147,-0.1631 0.00558,0.002 0.055815,0.0195 0.11162826,0.0385 0.055814,0.0191 0.1581061,0.0543 0.2273156,0.0784 0.06921,0.024 0.1477553,0.0508 0.1745462,0.0594 0.02679,0.009 0.1071631,0.0361 0.1786052,0.061 0.071442,0.0249 0.1792142,0.0616 0.2394933,0.0816 0.060279,0.0199 0.1155082,0.0397 0.1227312,0.0437 0.00722,0.004 0.029142,0.0116 0.048711,0.0169 0.019568,0.005 0.046537,0.0141 0.059933,0.0198 0.013396,0.006 0.077328,0.028 0.1420723,0.0495 0.064745,0.0216 0.1414635,0.0471 0.1704868,0.0568 l 0.05277,0.0177 0.00207,0.86569 c 0.00165,0.69023 2.1e-6,0.86555 -0.00812,0.86495 -0.00561,-3.4e-4 -0.054024,-0.0167 -0.1076056,-0.0361 z"
       style="display:inline;fill:#bdbdbd;fill-opacity:1;stroke-width:1" />
    <path
       d="m 2.4419451,293.18033 a 0.95824764,0.95824764 0 0 0 -0.9582477,0.95824 0.95824764,0.95824764 0 0 0 0.9582477,0.95825 0.95824764,0.95824764 0 0 0 0.5281592,-0.15908 l 0.6681532,0.66815 0.2710043,-0.271 -0.6677788,-0.66779 a 0.95824764,0.95824764 0 0 0 0.1587098,-0.52853 0.95824764,0.95824764 0 0 0 -0.9582477,-0.95824 z m -0.010107,0.38329 a 0.57494861,0.57494861 0 0 1 3.743e-4,0 0.57494861,0.57494861 0 0 1 0.00973,0 0.57494861,0.57494861 0 0 1 0.5749486,0.57495 0.57494861,0.57494861 0 0 1 -0.5749486,0.57495 0.57494861,0.57494861 0 0 1 -0.5749486,-0.57495 0.57494861,0.57494861 0 0 1 0.564842,-0.57495 z"
       style="fill:#bdbdbd;fill-opacity:1;fill-rule:evenodd;stroke:#3a3a3a;stroke-width:0.383299;stroke-linecap:round;stroke-miterlimit:4;stroke-dasharray:none;stroke-dashoffset:3.9;stroke-opacity:1;paint-order:stroke markers fill"
       id="path831" />
  </g>
</svg>
