<?xml version="1.0" encoding="UTF-8" standalone="no"?>
<!-- Created with Inkscape (http://www.inkscape.org/) -->

<svg
   width="16"
   height="16"
   viewBox="0 0 4.2333332 4.2333334"
   version="1.1"
   id="svg8"
   inkscape:version="1.4 (86a8ad7, 2024-10-11)"
   sodipodi:docname="panel_tool_settings.svg"
   inkscape:export-filename="..\panel_tool_settings.png"
   inkscape:export-xdpi="96"
   inkscape:export-ydpi="96"
   xml:space="preserve"
   xmlns:inkscape="http://www.inkscape.org/namespaces/inkscape"
   xmlns:sodipodi="http://sodipodi.sourceforge.net/DTD/sodipodi-0.dtd"
   xmlns="http://www.w3.org/2000/svg"
   xmlns:svg="http://www.w3.org/2000/svg"
   xmlns:rdf="http://www.w3.org/1999/02/22-rdf-syntax-ns#"
   xmlns:cc="http://creativecommons.org/ns#"
   xmlns:dc="http://purl.org/dc/elements/1.1/"><defs
     id="defs2" /><sodipodi:namedview
     id="base"
     pagecolor="#ffffff"
     bordercolor="#666666"
     borderopacity="1.0"
     inkscape:pageopacity="0.0"
     inkscape:pageshadow="2"
     inkscape:zoom="45.254834"
     inkscape:cx="7.8997086"
     inkscape:cy="7.5793008"
     inkscape:document-units="px"
     inkscape:current-layer="svg8"
     showgrid="false"
     units="px"
     inkscape:window-width="1920"
     inkscape:window-height="1009"
     inkscape:window-x="3832"
     inkscape:window-y="449"
     inkscape:window-maximized="1"
     showguides="true"
     inkscape:guide-bbox="true"
     inkscape:showpageshadow="0"
     inkscape:pagecheckerboard="0"
     inkscape:deskcolor="#d1d1d1" /><metadata
     id="metadata5"><rdf:RDF><cc:Work
         rdf:about=""><dc:format>image/svg+xml</dc:format><dc:type
           rdf:resource="http://purl.org/dc/dcmitype/StillImage" /></cc:Work></rdf:RDF></metadata><g
     inkscape:label="Layer 1"
     inkscape:groupmode="layer"
     id="layer1"
     transform="translate(0,-291.70832)"
     style="display:inline"><path
       style="fill:#000000;stroke-width:0.264583"
       d=""
       id="path4593"
       inkscape:connector-curvature="0" /><path
       style="fill:#bdbdbd;fill-opacity:1;stroke:#3a3a3a;stroke-width:0.249859;stroke-dasharray:none;stroke-opacity:1;paint-order:stroke markers fill"
       d="m 2.8669385,295.41277 c -0.068446,-0.0179 -0.1219883,-0.0464 -0.1719367,-0.0912 -0.020863,-0.0188 -0.2592245,-0.29265 -0.5296899,-0.60865 l -0.4917551,-0.57454 -0.027604,-0.0131 c -0.050104,-0.0238 -0.097048,-0.0229 -0.2520802,0.004 l -0.1452499,0.0257 -0.114671,-2.3e-4 -0.1146709,-2.3e-4 -0.053513,-0.0142 c -0.081509,-0.0216 -0.16490574,-0.0594 -0.23888435,-0.1083 -0.0849211,-0.0561 -0.22291477,-0.19324 -0.27621039,-0.27447 -0.10649528,-0.16233 -0.17066645,-0.35509 -0.17222168,-0.5173 l -7.0394e-4,-0.0738 0.0159914,-0.0216 c 0.0368346,-0.0499 0.10422347,-0.0712 0.15078313,-0.0476 0.009183,0.005 0.11865038,0.11001 0.24325872,0.23416 l 0.22656111,0.2257 0.2588793,-0.087 0.2588789,-0.087 0.086967,-0.25879 0.086967,-0.25879 -0.2258105,-0.22666 -0.2258105,-0.22664 -0.00931,-0.0317 c -0.017132,-0.0584 0.00852,-0.11669 0.06405,-0.14541 l 0.023688,-0.0123 0.080516,0.004 c 0.1770395,0.01 0.377967,0.0847 0.5316126,0.19818 0.1469105,0.10851 0.2698883,0.26688 0.3254559,0.41913 0.051762,0.14184 0.055351,0.26541 0.01473,0.50716 -0.012643,0.0753 -0.022838,0.15094 -0.022654,0.16818 3.992e-4,0.0376 0.015846,0.0838 0.03525,0.10551 0.00775,0.008 0.2730495,0.23248 0.5895371,0.49732 0.3164874,0.26485 0.5892386,0.49723 0.6061134,0.5164 0.1598178,0.18156 0.1176564,0.50315 -0.08835,0.6739 -0.051747,0.0429 -0.1490036,0.0899 -0.2140522,0.10355 -0.072401,0.0152 -0.1442445,0.0179 -0.2116397,3.6e-4 z m 0.2396587,-0.26157 c 0.051768,-0.0265 0.097132,-0.0775 0.1179079,-0.13256 l 0.017077,-0.0452 -0.00338,-0.0534 -0.00338,-0.0534 -0.020192,-0.0397 c -0.026213,-0.0515 -0.067558,-0.0915 -0.1190964,-0.11542 l -0.041342,-0.0192 -0.050395,-2.3e-4 c -0.100601,-6e-4 -0.184566,0.0505 -0.2276489,0.13854 l -0.021306,0.0435 v 0.0578 0.0578 l 0.025066,0.0509 c 0.028914,0.0587 0.07018,0.0978 0.1270489,0.12039 l 0.038802,0.0154 0.061158,-0.003 0.061158,-0.003 0.03853,-0.0197 z"
       id="path24133"
       sodipodi:nodetypes="ccscccccccccccccccccccccccccccccccccccccccccccccccccccccccc" /></g></svg>
