<?xml version="1.0" encoding="UTF-8" standalone="no"?>
<!-- Created with Inkscape (http://www.inkscape.org/) -->

<svg
   width="20"
   height="20"
   viewBox="0 0 5.2916665 5.2916668"
   version="1.1"
   id="svg8"
   inkscape:version="1.4 (86a8ad7, 2024-10-11)"
   sodipodi:docname="payload_on.svg"
   inkscape:export-filename="..\payload_on.png"
   inkscape:export-xdpi="96.000008"
   inkscape:export-ydpi="96.000008"
   xml:space="preserve"
   xmlns:inkscape="http://www.inkscape.org/namespaces/inkscape"
   xmlns:sodipodi="http://sodipodi.sourceforge.net/DTD/sodipodi-0.dtd"
   xmlns="http://www.w3.org/2000/svg"
   xmlns:svg="http://www.w3.org/2000/svg"
   xmlns:rdf="http://www.w3.org/1999/02/22-rdf-syntax-ns#"
   xmlns:cc="http://creativecommons.org/ns#"
   xmlns:dc="http://purl.org/dc/elements/1.1/"><defs
     id="defs2" /><sodipodi:namedview
     id="base"
     pagecolor="#ffffff"
     bordercolor="#666666"
     borderopacity="1.0"
     inkscape:pageopacity="0.0"
     inkscape:pageshadow="2"
     inkscape:zoom="31.974346"
     inkscape:cx="6.4270274"
     inkscape:cy="10.6648"
     inkscape:document-units="px"
     inkscape:current-layer="layer1"
     showgrid="false"
     units="px"
     inkscape:window-width="1920"
     inkscape:window-height="1009"
     inkscape:window-x="3832"
     inkscape:window-y="449"
     inkscape:window-maximized="1"
     showguides="true"
     inkscape:guide-bbox="true"
     inkscape:showpageshadow="2"
     inkscape:pagecheckerboard="0"
     inkscape:deskcolor="#d1d1d1" /><metadata
     id="metadata5"><rdf:RDF><cc:Work
         rdf:about=""><dc:format>image/svg+xml</dc:format><dc:type
           rdf:resource="http://purl.org/dc/dcmitype/StillImage" /></cc:Work></rdf:RDF></metadata><g
     inkscape:label="Layer 1"
     inkscape:groupmode="layer"
     id="layer1"
     transform="translate(0,-291.70832)"><path
       id="rect15"
       style="fill:#bdbdbd;fill-opacity:1;stroke:#3a3a3a;stroke-width:0.529167;stroke-linecap:round;stroke-linejoin:round;stroke-dasharray:none;stroke-opacity:1;paint-order:stroke fill markers"
       d="m 1.9937428,292.76665 c -0.1214086,0 -0.219155,0.0918 -0.219155,0.20598 0,0.11411 0.097747,0.20597 0.219155,0.20597 h 0.1630227 c 0.1121376,0 0.1700892,0.20293 0.1630227,0.32655 -0.00707,0.12362 -0.06093,0.32655 -0.2111382,0.32655 H 1.897512 c -0.1717484,0 -0.3100118,0.12995 -0.3100118,0.29137 v 1.52721 c 0,0.16141 0.1382634,0.29137 0.3100118,0.29137 h 1.4966427 c 0.1717484,0 0.3100117,-0.12996 0.3100117,-0.29137 v -1.52721 c 0,-0.16142 -0.1382633,-0.29137 -0.3100117,-0.29137 h -0.211138 c -0.2001088,0 -0.2040715,-0.20293 -0.211138,-0.32655 -0.00707,-0.12362 0.00973,-0.32655 0.1630225,-0.32655 H 3.297924 c 0.1214084,0 0.2191547,-0.0918 0.2191547,-0.20597 0,-0.11412 -0.097746,-0.20598 -0.2191547,-0.20598 z"
       sodipodi:nodetypes="ssszzzsssssssszzzssss" /><rect
       style="fill:#3a3a3a;fill-opacity:1;stroke:none;stroke-width:0.529167;stroke-linecap:round;stroke-linejoin:round;stroke-dasharray:none;stroke-opacity:1;paint-order:stroke fill markers"
       id="rect18"
       width="0.26458332"
       height="1.3229166"
       x="2.1166666"
       y="294.35416" /><rect
       style="fill:#3a3a3a;fill-opacity:1;stroke:none;stroke-width:0.529167;stroke-linecap:round;stroke-linejoin:round;stroke-dasharray:none;stroke-opacity:1;paint-order:stroke fill markers"
       id="rect21"
       width="0.26458332"
       height="0.79374999"
       x="295.41248"
       y="-3.175"
       transform="rotate(90)" /></g></svg>
