<?xml version="1.0" encoding="UTF-8" standalone="no"?>
<!-- Created with Inkscape (http://www.inkscape.org/) -->

<svg
   width="20"
   height="20"
   viewBox="0 0 5.2916665 5.2916668"
   version="1.1"
   id="svg8"
   inkscape:version="1.4 (86a8ad7, 2024-10-11)"
   sodipodi:docname="PortalLight.svg"
   inkscape:export-filename="..\PortalLight.png"
   inkscape:export-xdpi="384"
   inkscape:export-ydpi="384"
   xml:space="preserve"
   xmlns:inkscape="http://www.inkscape.org/namespaces/inkscape"
   xmlns:sodipodi="http://sodipodi.sourceforge.net/DTD/sodipodi-0.dtd"
   xmlns="http://www.w3.org/2000/svg"
   xmlns:svg="http://www.w3.org/2000/svg"
   xmlns:rdf="http://www.w3.org/1999/02/22-rdf-syntax-ns#"
   xmlns:cc="http://creativecommons.org/ns#"
   xmlns:dc="http://purl.org/dc/elements/1.1/"><defs
     id="defs2" /><sodipodi:namedview
     id="base"
     pagecolor="#ffffff"
     bordercolor="#666666"
     borderopacity="1.0"
     inkscape:pageopacity="0.0"
     inkscape:pageshadow="2"
     inkscape:zoom="22.627417"
     inkscape:cx="8.8609319"
     inkscape:cy="6.1429902"
     inkscape:document-units="mm"
     inkscape:current-layer="layer1"
     showgrid="false"
     units="px"
     inkscape:window-width="1920"
     inkscape:window-height="1009"
     inkscape:window-x="3832"
     inkscape:window-y="449"
     inkscape:window-maximized="1"
     showguides="false"
     inkscape:showpageshadow="2"
     inkscape:pagecheckerboard="0"
     inkscape:deskcolor="#d1d1d1" /><metadata
     id="metadata5"><rdf:RDF><cc:Work
         rdf:about=""><dc:format>image/svg+xml</dc:format><dc:type
           rdf:resource="http://purl.org/dc/dcmitype/StillImage" /><dc:title /></cc:Work></rdf:RDF></metadata><g
     inkscape:label="Layer 1"
     inkscape:groupmode="layer"
     id="layer1"
     transform="translate(0,-291.70832)"><g
       id="path1"><path
         style="fill:#3a3a3a;paint-order:stroke fill markers"
         d="m 2.6464844,292.50391 c -1.0184336,0 -1.85156357,0.83077 -1.85156253,1.84961 -1.04e-6,1.01882 0.83273393,1.85156 1.85156253,1.85156 1.0188285,0 1.8496104,-0.83313 1.8496093,-1.85156 1.1e-6,-1.01844 -0.8311758,-1.84961 -1.8496093,-1.84961 z m 0,0.79101 c 0.5900438,0 1.0585944,0.46855 1.0585937,1.0586 7e-7,0.59003 -0.4690197,1.06054 -1.0585937,1.06054 -0.5895742,0 -1.0605475,-0.47098 -1.0605469,-1.06054 -6e-7,-0.58958 0.470503,-1.0586 1.0605469,-1.0586 z"
         id="path6" /><path
         style="fill:#bdbdbd;paint-order:stroke fill markers"
         d="m 2.6464844,292.76758 c -0.8751858,0 -1.5878916,0.71075 -1.5878907,1.58594 -9e-7,0.87518 0.7127049,1.58789 1.5878907,1.58789 0.8751857,0 1.5859384,-0.71271 1.5859375,-1.58789 9e-7,-0.87519 -0.7107518,-1.58594 -1.5859375,-1.58594 z m 0,0.26367 c 0.7321943,0 1.3222664,0.59007 1.3222656,1.32227 8e-7,0.73219 -0.5900713,1.32421 -1.3222656,1.32421 -0.7321944,0 -1.3242195,-0.59202 -1.3242188,-1.32421 -7e-7,-0.7322 0.5920244,-1.32227 1.3242188,-1.32227 z"
         id="path7" /></g></g></svg>
