<?xml version="1.0" encoding="UTF-8" standalone="no"?>
<svg
   xmlns:dc="http://purl.org/dc/elements/1.1/"
   xmlns:cc="http://creativecommons.org/ns#"
   xmlns:rdf="http://www.w3.org/1999/02/22-rdf-syntax-ns#"
   xmlns:svg="http://www.w3.org/2000/svg"
   xmlns="http://www.w3.org/2000/svg"
   xmlns:xlink="http://www.w3.org/1999/xlink"
   xmlns:sodipodi="http://sodipodi.sourceforge.net/DTD/sodipodi-0.dtd"
   xmlns:inkscape="http://www.inkscape.org/namespaces/inkscape"
   inkscape:export-ydpi="96.000008"
   inkscape:export-xdpi="96.000008"
   inkscape:export-filename="D:\projects\git\dcc_platform\icons\python_color.png"
   sodipodi:docname="python_color.svg"
   inkscape:version="1.0 (4035a4fb49, 2020-05-01)"
   id="svg8"
   version="1.1"
   viewBox="0 0 5.2916665 5.2916668"
   height="20"
   width="20">
  <defs
     id="defs2">
    <linearGradient
       id="linearGradient2795">
      <stop
         style="stop-color:#b8b8b8;stop-opacity:0.49803922"
         offset="0"
         id="stop2797" />
      <stop
         style="stop-color:#7f7f7f;stop-opacity:0"
         offset="1"
         id="stop2799" />
    </linearGradient>
    <linearGradient
       id="linearGradient2787">
      <stop
         style="stop-color:#7f7f7f;stop-opacity:0.5"
         offset="0"
         id="stop2789" />
      <stop
         style="stop-color:#7f7f7f;stop-opacity:0"
         offset="1"
         id="stop2791" />
    </linearGradient>
    <linearGradient
       id="linearGradient3676">
      <stop
         style="stop-color:#b2b2b2;stop-opacity:0.5"
         offset="0"
         id="stop3678" />
      <stop
         style="stop-color:#b3b3b3;stop-opacity:0"
         offset="1"
         id="stop3680" />
    </linearGradient>
    <linearGradient
       id="linearGradient3236">
      <stop
         style="stop-color:#f4f4f4;stop-opacity:1"
         offset="0"
         id="stop3244" />
      <stop
         style="stop-color:#ffffff;stop-opacity:1"
         offset="1"
         id="stop3240" />
    </linearGradient>
    <linearGradient
       id="linearGradient4671">
      <stop
         style="stop-color:#ffd43b;stop-opacity:1"
         offset="0"
         id="stop4673" />
      <stop
         style="stop-color:#ffe873;stop-opacity:1"
         offset="1"
         id="stop4675" />
    </linearGradient>
    <linearGradient
       id="linearGradient4689">
      <stop
         style="stop-color:#5a9fd4;stop-opacity:1"
         offset="0"
         id="stop4691" />
      <stop
         style="stop-color:#306998;stop-opacity:1"
         offset="1"
         id="stop4693" />
    </linearGradient>
    <linearGradient
       x1="224.23996"
       y1="144.75717"
       x2="-65.308502"
       y2="144.75717"
       id="linearGradient2987"
       xlink:href="#linearGradient4671"
       gradientUnits="userSpaceOnUse"
       gradientTransform="translate(100.2702,99.61116)" />
    <linearGradient
       x1="172.94208"
       y1="77.475983"
       x2="26.670298"
       y2="76.313133"
       id="linearGradient2990"
       xlink:href="#linearGradient4689"
       gradientUnits="userSpaceOnUse"
       gradientTransform="translate(100.2702,99.61116)" />
    <linearGradient
       x1="224.23996"
       y1="144.75717"
       x2="-65.308502"
       y2="144.75717"
       id="linearGradient2255"
       xlink:href="#linearGradient4671"
       gradientUnits="userSpaceOnUse"
       gradientTransform="matrix(0.562541,0,0,0.567972,-11.5974,-7.60954)" />
    <linearGradient
       x1="172.94208"
       y1="76.176224"
       x2="26.670298"
       y2="76.313133"
       id="linearGradient2258"
       xlink:href="#linearGradient4689"
       gradientUnits="userSpaceOnUse"
       gradientTransform="matrix(0.562541,0,0,0.567972,-11.5974,-7.60954)" />
    <radialGradient
       cx="61.518883"
       cy="132.28575"
       r="29.036913"
       fx="61.518883"
       fy="132.28575"
       id="radialGradient2801"
       xlink:href="#linearGradient2795"
       gradientUnits="userSpaceOnUse"
       gradientTransform="matrix(1,0,0,0.177966,0,108.7434)" />
    <linearGradient
       x1="150.96111"
       y1="192.35176"
       x2="112.03144"
       y2="137.27299"
       id="linearGradient1475"
       xlink:href="#linearGradient4671"
       gradientUnits="userSpaceOnUse"
       gradientTransform="matrix(0.0267789,0,0,0.02703744,12.009261,297.75274)" />
    <linearGradient
       x1="26.648937"
       y1="20.603781"
       x2="135.66525"
       y2="114.39767"
       id="linearGradient1478"
       xlink:href="#linearGradient4689"
       gradientUnits="userSpaceOnUse"
       gradientTransform="matrix(0.0267789,0,0,0.02703744,12.009261,297.75274)" />
    <radialGradient
       cx="61.518883"
       cy="132.28575"
       r="29.036913"
       fx="61.518883"
       fy="132.28575"
       id="radialGradient1480"
       xlink:href="#linearGradient2795"
       gradientUnits="userSpaceOnUse"
       gradientTransform="matrix(0,-0.06348597,0.27904758,1.0031798e-7,-68.63651,335.50887)" />
  </defs>
  <sodipodi:namedview
     inkscape:document-rotation="0"
     inkscape:window-maximized="1"
     inkscape:window-y="-8"
     inkscape:window-x="-8"
     inkscape:window-height="1018"
     inkscape:window-width="1920"
     units="px"
     showgrid="false"
     inkscape:current-layer="layer1"
     inkscape:document-units="mm"
     inkscape:cy="11.427753"
     inkscape:cx="9.0271495"
     inkscape:zoom="22.627417"
     inkscape:pageshadow="2"
     inkscape:pageopacity="0.0"
     borderopacity="1.0"
     bordercolor="#666666"
     pagecolor="#ffffff"
     id="base" />
  <metadata
     id="metadata5">
    <rdf:RDF>
      <cc:Work
         rdf:about="">
        <dc:format>image/svg+xml</dc:format>
        <dc:type
           rdf:resource="http://purl.org/dc/dcmitype/StillImage" />
        <dc:title></dc:title>
      </cc:Work>
    </rdf:RDF>
  </metadata>
  <g
     transform="translate(0,-292.76665)"
     id="layer1"
     inkscape:groupmode="layer"
     inkscape:label="Layer 1">
    <g
       style="stroke-width:1.12338"
       transform="matrix(0.8901686,0,0,0.8901686,-11.034922,27.48521)"
       id="g925">
      <path
         id="path1948"
         style="fill:url(#linearGradient1478);fill-opacity:1;stroke-width:0.297228"
         d="m 15.337216,298.30985 c -0.218199,0.001 -0.426573,0.0196 -0.60992,0.0521 -0.54012,0.0954 -0.638184,0.29514 -0.638184,0.66347 v 0.48645 h 1.276368 v 0.16215 h -1.276368 -0.47901 c -0.370948,0 -0.695761,0.22296 -0.797358,0.6471 -0.117192,0.48618 -0.12239,0.78956 0,1.2972 0.09073,0.37787 0.307401,0.64711 0.678349,0.64711 h 0.438844 v -0.58314 c 0,-0.42129 0.364507,-0.7929 0.797359,-0.7929 h 1.27488 c 0.354882,0 0.638184,-0.29219 0.638184,-0.64859 v -1.21538 c 0,-0.3459 -0.291808,-0.60574 -0.638184,-0.66347 -0.219261,-0.0365 -0.446763,-0.0531 -0.66496,-0.0521 z m -0.690251,0.39124 c 0.13184,0 0.239505,0.10942 0.239505,0.24398 0,0.13406 -0.107665,0.24247 -0.239505,0.24247 -0.132313,0 -0.239505,-0.10841 -0.239505,-0.24247 0,-0.13456 0.107192,-0.24398 0.239505,-0.24398 z" />
      <path
         id="path1950"
         style="fill:url(#linearGradient1475);fill-opacity:1;stroke-width:0.297228"
         d="m 16.799535,299.67399 v 0.56678 c 0,0.43942 -0.37254,0.80926 -0.797359,0.80926 h -1.27488 c -0.349211,0 -0.638184,0.29887 -0.638184,0.6486 v 1.21537 c 0,0.34591 0.300786,0.54936 0.638184,0.6486 0.404026,0.1188 0.791466,0.14027 1.27488,0 0.321331,-0.093 0.638184,-0.28027 0.638184,-0.6486 v -0.48644 h -1.27488 v -0.16216 h 1.27488 0.638185 c 0.370948,0 0.509178,-0.25874 0.638183,-0.64711 0.133258,-0.39981 0.127588,-0.7843 0,-1.29719 -0.09167,-0.36928 -0.266764,-0.64711 -0.638183,-0.64711 z m -0.717028,3.07786 c 0.132313,0 0.239505,0.10841 0.239505,0.24248 0,0.13455 -0.107192,0.24397 -0.239505,0.24397 -0.13184,0 -0.239505,-0.10942 -0.239505,-0.24397 0,-0.13407 0.107665,-0.24248 0.239505,-0.24248 z" />
    </g>
  </g>
</svg>
