<?xml version="1.0" encoding="UTF-8" standalone="no"?>
<svg
   xmlns:dc="http://purl.org/dc/elements/1.1/"
   xmlns:cc="http://creativecommons.org/ns#"
   xmlns:rdf="http://www.w3.org/1999/02/22-rdf-syntax-ns#"
   xmlns:svg="http://www.w3.org/2000/svg"
   xmlns="http://www.w3.org/2000/svg"
   xmlns:xlink="http://www.w3.org/1999/xlink"
   xmlns:sodipodi="http://sodipodi.sourceforge.net/DTD/sodipodi-0.dtd"
   xmlns:inkscape="http://www.inkscape.org/namespaces/inkscape"
   width="20"
   height="20"
   viewBox="0 0 5.2916665 5.2916668"
   version="1.1"
   id="svg8"
   inkscape:version="1.0 (4035a4fb49, 2020-05-01)"
   sodipodi:docname="python.svg"
   inkscape:export-filename="D:\projects\git\dcc_platform\icons\python.png"
   inkscape:export-xdpi="96.000008"
   inkscape:export-ydpi="96.000008">
  <defs
     id="defs2">
    <linearGradient
       id="linearGradient2795">
      <stop
         id="stop2797"
         offset="0"
         style="stop-color:#b8b8b8;stop-opacity:0.49803922" />
      <stop
         id="stop2799"
         offset="1"
         style="stop-color:#7f7f7f;stop-opacity:0" />
    </linearGradient>
    <linearGradient
       id="linearGradient2787">
      <stop
         id="stop2789"
         offset="0"
         style="stop-color:#7f7f7f;stop-opacity:0.5" />
      <stop
         id="stop2791"
         offset="1"
         style="stop-color:#7f7f7f;stop-opacity:0" />
    </linearGradient>
    <linearGradient
       id="linearGradient3676">
      <stop
         id="stop3678"
         offset="0"
         style="stop-color:#b2b2b2;stop-opacity:0.5" />
      <stop
         id="stop3680"
         offset="1"
         style="stop-color:#b3b3b3;stop-opacity:0" />
    </linearGradient>
    <linearGradient
       id="linearGradient3236">
      <stop
         id="stop3244"
         offset="0"
         style="stop-color:#f4f4f4;stop-opacity:1" />
      <stop
         id="stop3240"
         offset="1"
         style="stop-color:#ffffff;stop-opacity:1" />
    </linearGradient>
    <linearGradient
       id="linearGradient4671">
      <stop
         id="stop4673"
         offset="0"
         style="stop-color:#ffd43b;stop-opacity:1" />
      <stop
         id="stop4675"
         offset="1"
         style="stop-color:#ffe873;stop-opacity:1" />
    </linearGradient>
    <linearGradient
       id="linearGradient4689">
      <stop
         id="stop4691"
         offset="0"
         style="stop-color:#5a9fd4;stop-opacity:1" />
      <stop
         id="stop4693"
         offset="1"
         style="stop-color:#306998;stop-opacity:1" />
    </linearGradient>
    <linearGradient
       gradientTransform="translate(100.2702,99.61116)"
       gradientUnits="userSpaceOnUse"
       xlink:href="#linearGradient4671"
       id="linearGradient2987"
       y2="144.75717"
       x2="-65.308502"
       y1="144.75717"
       x1="224.23996" />
    <linearGradient
       gradientTransform="translate(100.2702,99.61116)"
       gradientUnits="userSpaceOnUse"
       xlink:href="#linearGradient4689"
       id="linearGradient2990"
       y2="76.313133"
       x2="26.670298"
       y1="77.475983"
       x1="172.94208" />
    <linearGradient
       gradientTransform="matrix(0.562541,0,0,0.567972,-11.5974,-7.60954)"
       gradientUnits="userSpaceOnUse"
       xlink:href="#linearGradient4671"
       id="linearGradient2255"
       y2="144.75717"
       x2="-65.308502"
       y1="144.75717"
       x1="224.23996" />
    <linearGradient
       gradientTransform="matrix(0.562541,0,0,0.567972,-11.5974,-7.60954)"
       gradientUnits="userSpaceOnUse"
       xlink:href="#linearGradient4689"
       id="linearGradient2258"
       y2="76.313133"
       x2="26.670298"
       y1="76.176224"
       x1="172.94208" />
    <radialGradient
       gradientTransform="matrix(1,0,0,0.177966,0,108.7434)"
       gradientUnits="userSpaceOnUse"
       xlink:href="#linearGradient2795"
       id="radialGradient2801"
       fy="132.28575"
       fx="61.518883"
       r="29.036913"
       cy="132.28575"
       cx="61.518883" />
    <linearGradient
       gradientTransform="matrix(0.02648637,0,0,0.02674209,-0.67693141,292.21567)"
       gradientUnits="userSpaceOnUse"
       xlink:href="#linearGradient4671"
       id="linearGradient1475"
       y2="137.27299"
       x2="112.03144"
       y1="192.35176"
       x1="150.96111" />
    <linearGradient
       gradientTransform="matrix(0.02648637,0,0,0.02674209,-0.67693141,292.21567)"
       gradientUnits="userSpaceOnUse"
       xlink:href="#linearGradient4689"
       id="linearGradient1478"
       y2="114.39767"
       x2="135.66525"
       y1="20.603781"
       x1="26.648937" />
    <radialGradient
       gradientTransform="matrix(0,-0.06348597,0.27904758,1.0031798e-7,-68.63651,335.50887)"
       gradientUnits="userSpaceOnUse"
       xlink:href="#linearGradient2795"
       id="radialGradient1480"
       fy="132.28575"
       fx="61.518883"
       r="29.036913"
       cy="132.28575"
       cx="61.518883" />
  </defs>
  <sodipodi:namedview
     id="base"
     pagecolor="#ffffff"
     bordercolor="#666666"
     borderopacity="1.0"
     inkscape:pageopacity="0.0"
     inkscape:pageshadow="2"
     inkscape:zoom="22.627417"
     inkscape:cx="1.8676933"
     inkscape:cy="9.4832092"
     inkscape:document-units="mm"
     inkscape:current-layer="layer1"
     showgrid="false"
     units="px"
     inkscape:window-width="1920"
     inkscape:window-height="1018"
     inkscape:window-x="-8"
     inkscape:window-y="-8"
     inkscape:window-maximized="1"
     inkscape:document-rotation="0" />
  <metadata
     id="metadata5">
    <rdf:RDF>
      <cc:Work
         rdf:about="">
        <dc:format>image/svg+xml</dc:format>
        <dc:type
           rdf:resource="http://purl.org/dc/dcmitype/StillImage" />
        <dc:title />
      </cc:Work>
    </rdf:RDF>
  </metadata>
  <g
     inkscape:label="Layer 1"
     inkscape:groupmode="layer"
     id="layer1"
     transform="translate(0,-292.76665)">
    <g
       style="stroke-width:0.58796306;stroke:#3a3a3a;stroke-opacity:1;stroke-miterlimit:4;stroke-dasharray:none;paint-order:stroke fill markers"
       transform="matrix(0.89999985,0,0,0.89999985,0.26458396,29.541295)"
       id="g864">
      <path
         d="m 2.6146698,292.76669 c -0.2158155,9.9e-4 -0.4219132,0.0194 -0.6032574,0.0515 -0.5342198,0.0944 -0.6312126,0.29192 -0.6312126,0.65623 v 0.48113 H 2.642625 v 0.16038 H 1.3801998 0.90642238 c -0.36689585,0 -0.68816067,0.22052 -0.78864785,0.64003 -0.11591182,0.48087 -0.12105304,0.78094 0,1.28303 0.0897389,0.37374 0.30404302,0.64004 0.67093887,0.64004 h 0.4340502 v -0.57677 c 0,-0.41669 0.3605252,-0.78424 0.7886488,-0.78424 h 1.2609535 c 0.3510054,0 0.6312126,-0.28899 0.6312126,-0.6415 v -1.2021 c 0,-0.34213 -0.2886203,-0.59913 -0.6312126,-0.65623 -0.2168658,-0.0361 -0.4418827,-0.0525 -0.6576961,-0.0515 z m -0.6827109,0.38697 c 0.1303998,0 0.2368887,0.10822 0.2368887,0.24131 0,0.1326 -0.1064889,0.23982 -0.2368887,0.23982 -0.1308676,0 -0.2368887,-0.10722 -0.2368887,-0.23982 0,-0.13309 0.1060211,-0.24131 0.2368887,-0.24131 z"
         style="fill:#bdbdbd;fill-opacity:1;stroke-width:0.58796306;stroke:#3a3a3a;stroke-opacity:1;stroke-miterlimit:4;stroke-dasharray:none;paint-order:stroke fill markers"
         id="path1948" />
      <path
         d="m 4.0610147,294.11593 v 0.56059 c 0,0.43462 -0.3684704,0.80042 -0.7886488,0.80042 H 2.0114124 c -0.3453963,0 -0.6312126,0.2956 -0.6312126,0.64151 v 1.2021 c 0,0.34213 0.2975003,0.54336 0.6312126,0.64151 0.3996125,0.1175 0.7828202,0.13874 1.2609535,0 0.3178209,-0.092 0.6312126,-0.27721 0.6312126,-0.64151 v -0.48113 H 2.642625 v -0.16039 h 1.2609535 0.6312136 c 0.3668959,0 0.5036159,-0.25591 0.6312117,-0.64004 0.1318023,-0.39544 0.1261942,-0.77573 0,-1.28302 -0.090669,-0.36524 -0.2638499,-0.64004 -0.6312117,-0.64004 z m -0.7091953,3.04424 c 0.1308676,0 0.2368887,0.10722 0.2368887,0.23983 0,0.13308 -0.1060211,0.2413 -0.2368887,0.2413 -0.1303998,0 -0.2368887,-0.10822 -0.2368887,-0.2413 0,-0.13261 0.1064889,-0.23983 0.2368887,-0.23983 z"
         style="fill:#bdbdbd;fill-opacity:1;stroke-width:0.58796306;stroke:#3a3a3a;stroke-opacity:1;stroke-miterlimit:4;stroke-dasharray:none;paint-order:stroke fill markers"
         id="path1950" />
    </g>
  </g>
</svg>
