<?xml version="1.0" encoding="UTF-8" standalone="no"?>
<!-- Created with Inkscape (http://www.inkscape.org/) -->

<svg
   width="20"
   height="20"
   viewBox="0 0 5.2916665 5.2916668"
   version="1.1"
   id="svg8"
   inkscape:version="1.2 (dc2aedaf03, 2022-05-15)"
   sodipodi:docname="render_settings.svg"
   inkscape:export-filename="..\render_settings.png"
   inkscape:export-xdpi="96.000008"
   inkscape:export-ydpi="96.000008"
   xmlns:inkscape="http://www.inkscape.org/namespaces/inkscape"
   xmlns:sodipodi="http://sodipodi.sourceforge.net/DTD/sodipodi-0.dtd"
   xmlns="http://www.w3.org/2000/svg"
   xmlns:svg="http://www.w3.org/2000/svg"
   xmlns:rdf="http://www.w3.org/1999/02/22-rdf-syntax-ns#"
   xmlns:cc="http://creativecommons.org/ns#"
   xmlns:dc="http://purl.org/dc/elements/1.1/">
  <defs
     id="defs2" />
  <sodipodi:namedview
     id="base"
     pagecolor="#ffffff"
     bordercolor="#666666"
     borderopacity="1.0"
     inkscape:pageopacity="0.0"
     inkscape:pageshadow="2"
     inkscape:zoom="45.254834"
     inkscape:cx="12.208641"
     inkscape:cy="19.434388"
     inkscape:document-units="px"
     inkscape:current-layer="layer1"
     showgrid="false"
     units="px"
     inkscape:window-width="1920"
     inkscape:window-height="1017"
     inkscape:window-x="-8"
     inkscape:window-y="-8"
     inkscape:window-maximized="1"
     showguides="true"
     inkscape:guide-bbox="true"
     inkscape:showpageshadow="0"
     inkscape:pagecheckerboard="0"
     inkscape:deskcolor="#d1d1d1" />
  <metadata
     id="metadata5">
    <rdf:RDF>
      <cc:Work
         rdf:about="">
        <dc:format>image/svg+xml</dc:format>
        <dc:type
           rdf:resource="http://purl.org/dc/dcmitype/StillImage" />
        <dc:title />
      </cc:Work>
    </rdf:RDF>
  </metadata>
  <g
     inkscape:label="Layer 1"
     inkscape:groupmode="layer"
     id="layer1"
     transform="translate(0,-291.70832)">
    <rect
       y="296.14008"
       x="0.95911461"
       height="0.47955728"
       width="1.4221354"
       id="rect4705"
       style="opacity:1;fill:#bdbdbd;fill-opacity:1;fill-rule:evenodd;stroke:#3a3a3a;stroke-width:0.26458333;stroke-linecap:round;stroke-linejoin:miter;stroke-miterlimit:4;stroke-dasharray:none;stroke-dashoffset:3.9000001;stroke-opacity:1;paint-order:fill markers stroke" />
    <rect
       style="opacity:1;fill:#bdbdbd;fill-opacity:1;fill-rule:evenodd;stroke:#3a3a3a;stroke-width:0.26458333;stroke-linecap:round;stroke-linejoin:miter;stroke-miterlimit:4;stroke-dasharray:none;stroke-dashoffset:3.9000001;stroke-opacity:1;paint-order:fill markers stroke"
       id="rect4703"
       width="1.4221354"
       height="0.47955728"
       x="0.95911461"
       y="292.08865" />
    <rect
       style="opacity:1;fill:#bdbdbd;fill-opacity:1;fill-rule:evenodd;stroke:#3a3a3a;stroke-width:0.26458333;stroke-linecap:round;stroke-linejoin:miter;stroke-miterlimit:4;stroke-dasharray:none;stroke-dashoffset:3.9000001;stroke-opacity:1;paint-order:fill markers stroke"
       id="rect4701"
       width="2.0261292"
       height="3.7575343"
       x="0.65711766"
       y="292.47537" />
    <path
       style="fill:#bdbdbd;fill-opacity:1;stroke:#3a3a3a;stroke-width:0.26458332;stroke-linecap:butt;stroke-linejoin:miter;stroke-miterlimit:4;stroke-dasharray:none;stroke-opacity:1"
       d="m 1.4221354,292.90721 h 3.3403645 c 0,0 0,1.51155 0,2.13321 -1.1214631,0 -1.2402343,0.76067 -1.2402343,0.76067 H 1.4221354 Z"
       id="path4717"
       inkscape:connector-curvature="0"
       sodipodi:nodetypes="cccccc" />
    <circle
       style="opacity:1;fill:#bdbdbd;fill-opacity:1;fill-rule:evenodd;stroke:#3a3a3a;stroke-width:0.26458332;stroke-linecap:round;stroke-linejoin:miter;stroke-miterlimit:4;stroke-dasharray:none;stroke-dashoffset:3.9000001;stroke-opacity:1;paint-order:fill markers stroke"
       id="path4719"
       cx="2.1865988"
       cy="293.52716"
       r="0.18708867" />
    <circle
       r="0.18708867"
       cy="293.52716"
       cx="3.0869632"
       id="circle4721"
       style="opacity:1;fill:#bdbdbd;fill-opacity:1;fill-rule:evenodd;stroke:#3a3a3a;stroke-width:0.26458332;stroke-linecap:round;stroke-linejoin:miter;stroke-miterlimit:4;stroke-dasharray:none;stroke-dashoffset:3.9000001;stroke-opacity:1;paint-order:fill markers stroke" />
    <circle
       style="opacity:1;fill:#bdbdbd;fill-opacity:1;fill-rule:evenodd;stroke:#3a3a3a;stroke-width:0.26458332;stroke-linecap:round;stroke-linejoin:miter;stroke-miterlimit:4;stroke-dasharray:none;stroke-dashoffset:3.9000001;stroke-opacity:1;paint-order:fill markers stroke"
       id="circle4723"
       cx="3.9873273"
       cy="293.52716"
       r="0.18708867" />
    <path
       d="m 3.5961053,294.08968 c -0.1516052,0 -0.2753519,0.005 -0.2753519,0.005 0,0 -0.058561,0.42032 -0.064904,0.42285 -0.043465,0.0155 -0.1620688,0.0824 -0.2091362,0.11801 -0.031844,0.0241 -0.063151,0.0439 -0.069493,0.0439 -0.0067,0 -0.098318,-0.0144 -0.2032359,-0.0533 -0.1747202,-0.0647 -0.2019247,-0.0739 -0.2019247,-0.0739 l -0.2609285,0.45695 c 0,0 0.075623,0.0676 0.168489,0.139 l 0.1691447,0.1298 -6.545e-4,0.13178 c 0,0.0725 0.00209,0.14449 0.0059,0.15996 0.00651,0.0278 0.014705,0.0324 -0.1529089,0.17122 -0.1595734,0.13221 -0.1689914,0.1579 -0.1689914,0.1579 l 0.2694514,0.4517 c 0,0 0.095589,-0.0362 0.201269,-0.08 0.1735911,-0.0722 0.1936799,-0.0783 0.2097919,-0.0669 0.044936,0.0316 0.1337967,0.0778 0.1979911,0.10358 0.038568,0.0155 0.071228,0.0284 0.072116,0.0289 8.857e-4,5e-4 0.015928,0.0814 0.033436,0.17963 0.017634,0.0982 0.034176,0.18724 0.036714,0.19864 l 0.00393,0.021 0.2746963,-0.002 0.2746962,-0.003 0.027535,-0.19865 c 0.015097,-0.10924 0.028276,-0.20065 0.030813,-0.20192 0.00216,-0.002 0.026081,-0.0122 0.053103,-0.0236 0.059894,-0.0249 0.1455726,-0.0741 0.1894683,-0.10884 0.017888,-0.0143 0.036185,-0.0256 0.039992,-0.0256 0.00421,1.3e-4 0.09375,0.0343 0.1993022,0.076 0.1056035,0.0418 0.1979911,0.0761 0.1979911,0.0761 l 0.2707626,-0.46482 c 0,0 -0.048558,-0.0539 -0.1671778,-0.14424 l -0.1717671,-0.13046 6.563e-4,-0.16325 v -0.1639 l 0.1606218,-0.13374 c 0.088299,-0.0736 0.1632443,-0.13964 0.1632443,-0.13964 l -0.2661733,-0.4681 c 0,0 -0.095569,0.0296 -0.2045471,0.0747 l -0.1979911,0.082 -0.055726,-0.0387 c -0.030423,-0.0216 -0.095537,-0.0596 -0.1448875,-0.0846 l -0.089817,-0.0459 -0.034746,-0.20651 -0.034746,-0.20717 z m 0.020323,0.88505 c 0.2497234,-3.9e-4 0.45543,0.2073 0.4549859,0.45959 -3.295e-4,0.19382 -0.1290583,0.37136 -0.3140322,0.43268 h -6.562e-4 c -0.1706942,0.0562 -0.3477746,0.0102 -0.473344,-0.12325 -0.1763567,-0.18724 -0.1716141,-0.45615 0.010489,-0.63527 0.092866,-0.0913 0.1946611,-0.13353 0.322555,-0.13375 z"
       style="fill:#bdbdbd;fill-opacity:1;stroke:#3a3a3a;stroke-width:0.52916666;stroke-linejoin:miter;stroke-dasharray:none;stroke-opacity:1;paint-order:stroke fill markers"
       id="path1075"
       sodipodi:nodetypes="ccccscccccccccccccsccccccccccccccccccccccccccccscccccss" />
  </g>
</svg>
