<?xml version="1.0" encoding="UTF-8" standalone="no"?>
<svg
   width="20"
   height="20"
   viewBox="0 0 5.2916665 5.2916668"
   version="1.1"
   id="svg8"
   inkscape:version="1.2 (dc2aedaf03, 2022-05-15)"
   sodipodi:docname="render_cycles.svg"
   inkscape:export-filename="..\render_cycles.png"
   inkscape:export-xdpi="96.000008"
   inkscape:export-ydpi="96.000008"
   xml:space="preserve"
   xmlns:inkscape="http://www.inkscape.org/namespaces/inkscape"
   xmlns:sodipodi="http://sodipodi.sourceforge.net/DTD/sodipodi-0.dtd"
   xmlns="http://www.w3.org/2000/svg"
   xmlns:svg="http://www.w3.org/2000/svg"
   xmlns:rdf="http://www.w3.org/1999/02/22-rdf-syntax-ns#"
   xmlns:cc="http://creativecommons.org/ns#"
   xmlns:dc="http://purl.org/dc/elements/1.1/"><defs
     id="defs2"><pattern
       id="EMFhbasepattern"
       patternUnits="userSpaceOnUse"
       width="6"
       height="6"
       x="0"
       y="0" /></defs><sodipodi:namedview
     id="base"
     pagecolor="#ffffff"
     bordercolor="#666666"
     borderopacity="1.0"
     inkscape:pageopacity="0.0"
     inkscape:pageshadow="2"
     inkscape:zoom="32"
     inkscape:cx="11.25"
     inkscape:cy="11.75"
     inkscape:document-units="px"
     inkscape:current-layer="path21268"
     showgrid="false"
     units="px"
     inkscape:window-width="1920"
     inkscape:window-height="1017"
     inkscape:window-x="-8"
     inkscape:window-y="-8"
     inkscape:window-maximized="1"
     showguides="false"
     inkscape:guide-bbox="true"
     inkscape:document-rotation="0"
     inkscape:pagecheckerboard="0"
     inkscape:snap-text-baseline="true"
     width="20px"
     inkscape:showpageshadow="0"
     inkscape:deskcolor="#d1d1d1" /><metadata
     id="metadata5"><rdf:RDF><cc:Work
         rdf:about=""><dc:format>image/svg+xml</dc:format><dc:type
           rdf:resource="http://purl.org/dc/dcmitype/StillImage" /></cc:Work></rdf:RDF></metadata><g
     inkscape:label="Layer 1"
     inkscape:groupmode="layer"
     id="layer1"
     transform="translate(0,-288.53332)"><g
       aria-label="A"
       transform="scale(0.93847014,1.065564)"
       id="text6745"
       style="font-weight:900;font-size:2.89596px;line-height:1.25;font-family:Arial;-inkscape-font-specification:'Arial Heavy';fill:#ffffff;stroke-width:0.264583"><g
         id="path21268"><path
           style="color:#000000;-inkscape-font-specification:'Arial Heavy';clip-rule:evenodd;fill:#ffffff;stroke-linejoin:round;stroke-miterlimit:1.41421;-inkscape-stroke:none;paint-order:stroke fill markers;fill-opacity:1"
           d="m 2.5527344,271.35742 c -0.1287239,0.0794 -0.251753,0.22218 -0.2714844,0.41406 1.059e-4,0.0789 0.012753,0.1322 0.068359,0.18559 H 1.5332031 1.53125 c -0.3008548,2e-4 -0.60561383,0.11591 -0.703125,0.49024 -0.0490333,0.19004 0.0303745,0.41859 0.16210938,0.5371 0.0714793,0.0582 0.16406252,0.0738 0.19335932,0.0703 l -0.67968745,0.45898 c -0.001965,10e-4 -0.003918,0.003 -0.005859,0.004 -0.14452687,0.0975 -0.25728423,0.23602 -0.30664063,0.41211 -0.0491936,0.1755 -0.0132478,0.40547 0.125,0.5625 0.28269609,0.31911 0.69471368,0.26998 0.98632818,0.0625 6.523e-4,-6.6e-4 0.0013,-10e-4 0.00195,-0.002 l 0.4160156,-0.30078 c 0.08072,0.16045 0.1617897,0.32177 0.2949219,0.45117 0.1839462,0.1791 0.4070148,0.32069 0.65625,0.41797 0.2622379,0.10228 0.5456561,0.15277 0.8339844,0.15235 0.2881775,-3.7e-4 0.5700262,-0.0533 0.8320312,-0.15625 0.2488764,-0.0981 0.4708144,-0.23894 0.6542969,-0.41797 0.1788254,-0.17463 0.3157269,-0.3808 0.3964844,-0.60742 0.040466,-0.1142 0.067519,-0.23326 0.078125,-0.35352 0.010258,-0.117 0.00505,-0.23533 -0.013672,-0.35156 -0.036393,-0.22553 -0.1265324,-0.43892 -0.2578125,-0.625 -0.1191504,-0.16927 -0.2712895,-0.31303 -0.4433594,-0.43164 -0.0023,-0.002 -0.00355,-0.004 -0.00586,-0.006 1.6e-6,-6.7e-4 1.6e-6,-10e-4 0,-0.002 l -1.4003906,-0.94532 c -0.00321,-0.003 -0.00647,-0.005 -0.00977,-0.008 h -0.00195 c -6.477e-4,-6.7e-4 -0.0013,-10e-4 -0.00195,-0.002 -4.99e-5,-4e-5 -0.00197,-10e-6 -0.00195,0 -0.2631236,-0.17694 -0.5228273,-0.16648 -0.7773437,-0.01 z"
           id="path22031"
           sodipodi:nodetypes="cccccccccccccccccccccccccccccccccc" /><path
           style="color:#000000;-inkscape-font-specification:'Arial Heavy';clip-rule:evenodd;fill:#e87d0d;stroke-width:0.79375;stroke-linejoin:round;stroke-miterlimit:1.41421;-inkscape-stroke:none;paint-order:stroke fill markers"
           d="m 1.9455071,273.73164 c 0.00103,0.0519 0.019811,0.15262 0.047977,0.23131 0.059195,0.16657 0.1596041,0.32066 0.2993175,0.45646 0.1433736,0.13959 0.3199247,0.25171 0.523846,0.33131 0.2143439,0.0836 0.4465895,0.1262 0.6878258,0.12585 0.2408384,-3.1e-4 0.4730843,-0.0437 0.6874282,-0.12795 0.203921,-0.0804 0.3803132,-0.19298 0.5234479,-0.33264 0.1396337,-0.13636 0.2398837,-0.29074 0.299238,-0.4573 0.029837,-0.0842 0.048693,-0.16958 0.056251,-0.25528 0.0074,-0.0844 0.0043,-0.16902 -0.00931,-0.25352 -0.026574,-0.16468 -0.091259,-0.31919 -0.1908724,-0.46004 -0.0911,-0.12942 -0.2085359,-0.24273 -0.3481696,-0.3381 l 3.215e-4,-2.1e-4 -1.4091481,-0.95293 c -0.00127,-8.3e-4 -0.00231,-0.002 -0.00366,-0.003 -0.092453,-0.0625 -0.2479198,-0.0623 -0.3496018,3.1e-4 -0.102796,0.0634 -0.1145714,0.16811 -0.023073,0.23419 l -3.972e-4,3.1e-4 0.5877352,0.42093 -1.791371,0.002 c -8.751e-4,0 -0.00175,0 -0.00239,0 -0.1480676,10e-5 -0.2904066,0.0857 -0.318572,0.19382 -0.028961,0.11016 0.071607,0.20153 0.2255623,0.20203 l -2.384e-4,5.1e-4 0.9079779,-0.002 -1.62022985,1.09532 c -0.002069,10e-4 -0.004296,0.003 -0.006206,0.004 -0.15284138,0.10308 -0.20225029,0.27448 -0.10597855,0.38296 0.0977039,0.11029 0.30544406,0.1105 0.4598767,6.2e-4 l 0.884268,-0.63739 c 0,0 -0.012889,0.0861 -0.011855,0.13769 z m 2.2722524,0.28814 c -0.1822005,0.16348 -0.4372809,0.25619 -0.7132864,0.25668 -0.2764034,4.2e-4 -0.5314837,-0.0914 -0.7136839,-0.25464 -0.089032,-0.0795 -0.1544329,-0.17105 -0.1947716,-0.26853 -0.039543,-0.0958 -0.054899,-0.19746 -0.044714,-0.30005 0.00963,-0.10028 0.043521,-0.19593 0.097624,-0.28247 0.053149,-0.0851 0.1263468,-0.16194 0.2167309,-0.22697 0.1771084,-0.12711 0.402591,-0.19592 0.6384171,-0.1962 0.2360646,-3.1e-4 0.4613884,0.0679 0.6386556,0.19459 0.090225,0.0648 0.163344,0.14134 0.2164923,0.22627 0.054342,0.0865 0.087997,0.18177 0.098022,0.28233 0.010025,0.10244 -0.00533,0.20398 -0.044874,0.29984 -0.040418,0.0978 -0.1055807,0.18927 -0.194612,0.26915 z"
           id="path22033" /></g><g
         transform="matrix(0.07956344,0,0,0.07007352,-16.428873,296.84847)"
         id="g21266"
         style="clip-rule:evenodd;fill-rule:evenodd;stroke-width:8.51504;stroke-linejoin:round;stroke-miterlimit:1.41421">
                    <path
   d="m 243.13,-333.715 c 0.106,-1.891 1.032,-3.557 2.429,-4.738 1.37,-1.16 3.214,-1.869 5.226,-1.869 2.01,0 3.854,0.709 5.225,1.869 1.396,1.181 2.322,2.847 2.429,4.736 0.106,1.943 -0.675,3.748 -2.045,5.086 -1.397,1.361 -3.384,2.215 -5.609,2.215 -2.225,0 -4.216,-0.854 -5.612,-2.215 -1.371,-1.338 -2.15,-3.143 -2.043,-5.084 z"
   style="fill:#265787;fill-rule:nonzero;stroke-width:8.51504"
   id="path21264" />
                </g></g></g></svg>
