<?xml version="1.0" encoding="UTF-8" standalone="no"?>
<svg
   width="20"
   height="20"
   viewBox="0 0 5.2916665 5.2916668"
   version="1.1"
   id="svg8"
   inkscape:version="1.4 (86a8ad7, 2024-10-11)"
   sodipodi:docname="save.svg"
   inkscape:export-filename="D:\projects\git\dcc_platform\icons\save.png"
   inkscape:export-xdpi="96"
   inkscape:export-ydpi="96"
   xmlns:inkscape="http://www.inkscape.org/namespaces/inkscape"
   xmlns:sodipodi="http://sodipodi.sourceforge.net/DTD/sodipodi-0.dtd"
   xmlns="http://www.w3.org/2000/svg"
   xmlns:svg="http://www.w3.org/2000/svg"
   xmlns:rdf="http://www.w3.org/1999/02/22-rdf-syntax-ns#"
   xmlns:cc="http://creativecommons.org/ns#"
   xmlns:dc="http://purl.org/dc/elements/1.1/">
  <defs
     id="defs2" />
  <sodipodi:namedview
     id="base"
     pagecolor="#ffffff"
     bordercolor="#666666"
     borderopacity="1.0"
     inkscape:pageopacity="0.0"
     inkscape:pageshadow="2"
     inkscape:zoom="35.529961"
     inkscape:cx="7.8384549"
     inkscape:cy="10.244875"
     inkscape:document-units="px"
     inkscape:current-layer="layer1"
     showgrid="false"
     units="px"
     inkscape:window-width="1920"
     inkscape:window-height="1009"
     inkscape:window-x="3832"
     inkscape:window-y="449"
     inkscape:window-maximized="1"
     showguides="true"
     inkscape:guide-bbox="true"
     inkscape:document-rotation="0"
     inkscape:showpageshadow="2"
     inkscape:pagecheckerboard="0"
     inkscape:deskcolor="#d1d1d1" />
  <metadata
     id="metadata5">
    <rdf:RDF>
      <cc:Work
         rdf:about="">
        <dc:format>image/svg+xml</dc:format>
        <dc:type
           rdf:resource="http://purl.org/dc/dcmitype/StillImage" />
        <dc:title />
      </cc:Work>
    </rdf:RDF>
  </metadata>
  <g
     inkscape:label="Layer 1"
     inkscape:groupmode="layer"
     id="layer1"
     transform="translate(0,-291.70832)"
     style="display:inline">
    <path
       style="fill:#000000;stroke-width:0.26458332"
       d=""
       id="path4593"
       inkscape:connector-curvature="0" />
    <path
       sodipodi:nodetypes="ccscccccccccccccccc"
       id="path864"
       d="m 0.80327265,296.47108 c 0,0 -0.27410599,-0.0959 -0.27410599,-0.31795 0,-0.20429 0,-0.53348 0,-1.80921 0,-1.56668 0,-1.84185 0,-1.84185 0,0 0.16076726,-0.16384 0.27484074,-0.21776 l 0.0949124,-0.0468 1.5091086,-10e-6 1.5091085,-1e-5 0.1036594,0.0613 c 0.1207671,0.0693 0.5880886,0.52962 0.6801384,0.67002 l 0.061565,0.0939 3e-7,1.56069 v 1.56069 l -0.067618,0.0818 c -0.031613,0.045 -0.094276,0.10764 -0.1392522,0.13925 l -0.081775,0.0657 H 2.676892 l -1.87362714,-2.6e-4 z"
       style="fill:#3a3a3a;fill-opacity:1;stroke:none;stroke-width:0.529167;stroke-linecap:butt;stroke-linejoin:round;stroke-miterlimit:4;stroke-dasharray:none;stroke-opacity:1;paint-order:stroke fill markers" />
    <path
       id="path870"
       d="m 3.7382634,293.81607 0.055487,-0.0555 v -0.62633 c 0,-0.34449 -0.00531,-0.64016 -0.011792,-0.65706 -0.032455,-0.0846 -0.056571,-0.0863 -1.2278476,-0.0863 H 1.4454649 l -0.048111,0.0446 c -0.045834,0.0425 -0.048776,0.0579 -0.062146,0.32533 -0.00772,0.15441 -0.01018,0.44166 -0.00547,0.63833 0.00764,0.31916 0.012495,0.36196 0.045137,0.39825 0.020115,0.0224 0.053656,0.0477 0.074537,0.0562 0.020881,0.009 0.5319298,0.0161 1.1356644,0.0168 l 1.0976996,0.001 z"
       style="fill:#bdbdbd;stroke-width:1;fill-opacity:1" />
    <path
       id="path868"
       d="m 4.2407022,296.27371 0.046593,-0.0466 v -0.88442 -0.88441 l -0.046593,-0.0466 -0.046593,-0.0466 H 2.6494814 1.1048539 l -0.046019,0.049 -0.04602,0.049 v 0.87963 0.87962 l 0.04602,0.049 0.046019,0.049 h 1.5446275 1.5446275 z"
       style="fill:#bdbdbd;stroke-width:1;fill-opacity:1" />
    <path
       id="path872"
       d="m 2.9775033,293.13124 v -0.56947 h 0.2467726 0.2467724 v 0.56947 0.56948 H 3.2242759 2.9775033 Z"
       style="fill:#3a3a3a;stroke-width:1;fill-opacity:1" />
  </g>
</svg>
