<?xml version="1.0" encoding="UTF-8" standalone="no"?>
<!-- Created with Inkscape (http://www.inkscape.org/) -->

<svg
   width="32"
   height="32"
   viewBox="0 0 8.4666665 8.4666669"
   version="1.1"
   id="svg3686"
   sodipodi:docname="sculpt_tool_relax.svg"
   inkscape:version="1.1.1 (3bf5ae0d25, 2021-09-20)"
   inkscape:export-filename="D:\projects\dcc_platform\icons\sculpt_tool_relax.png"
   inkscape:export-xdpi="96"
   inkscape:export-ydpi="96"
   style="enable-background:new"
   xmlns:inkscape="http://www.inkscape.org/namespaces/inkscape"
   xmlns:sodipodi="http://sodipodi.sourceforge.net/DTD/sodipodi-0.dtd"
   xmlns="http://www.w3.org/2000/svg"
   xmlns:svg="http://www.w3.org/2000/svg"
   xmlns:rdf="http://www.w3.org/1999/02/22-rdf-syntax-ns#"
   xmlns:cc="http://creativecommons.org/ns#"
   xmlns:dc="http://purl.org/dc/elements/1.1/">
  <defs
     id="defs3680">
    <linearGradient
       id="linearGradient6108"
       inkscape:swatch="solid">
      <stop
         style="stop-color:#92e1ff;stop-opacity:1;"
         offset="0"
         id="stop6106" />
    </linearGradient>
    <inkscape:path-effect
       effect="simplify"
       id="path-effect3708"
       is_visible="true"
       steps="11"
       threshold="0.002"
       smooth_angles="0"
       helper_size="5"
       simplify_individual_paths="false"
       simplify_just_coalesce="false" />
  </defs>
  <sodipodi:namedview
     id="base"
     pagecolor="#ffffff"
     bordercolor="#666666"
     borderopacity="1.0"
     inkscape:pageopacity="0.0"
     inkscape:pageshadow="2"
     inkscape:zoom="16"
     inkscape:cx="19.34375"
     inkscape:cy="18.5"
     inkscape:document-units="px"
     inkscape:current-layer="layer3"
     showgrid="false"
     units="px"
     inkscape:lockguides="false"
     showguides="false"
     inkscape:guide-bbox="true"
     inkscape:window-width="1920"
     inkscape:window-height="1017"
     inkscape:window-x="-8"
     inkscape:window-y="-8"
     inkscape:window-maximized="1"
     inkscape:pagecheckerboard="0">
    <sodipodi:guide
       position="33.866667,67.997918"
       orientation="1,0"
       id="guide3692"
       inkscape:locked="false"
       inkscape:label=""
       inkscape:color="rgb(0,0,255)" />
    <sodipodi:guide
       position="38.166087,22.263552"
       orientation="0,1"
       id="guide4569"
       inkscape:locked="false" />
    <sodipodi:guide
       position="17.399245,15.434815"
       orientation="1,0"
       id="guide4571"
       inkscape:locked="false" />
    <sodipodi:guide
       position="49.672039,13.189751"
       orientation="1,0"
       id="guide4573"
       inkscape:locked="false" />
    <sodipodi:guide
       position="27.87621,32.272795"
       orientation="0,1"
       id="guide4575"
       inkscape:locked="false" />
    <sodipodi:guide
       position="41.440138,42.469128"
       orientation="0,1"
       id="guide4579"
       inkscape:locked="false" />
    <sodipodi:guide
       position="42.749759,12.909118"
       orientation="0,1"
       id="guide4585"
       inkscape:locked="false" />
  </sodipodi:namedview>
  <metadata
     id="metadata3683">
    <rdf:RDF>
      <cc:Work
         rdf:about="">
        <dc:format>image/svg+xml</dc:format>
        <dc:type
           rdf:resource="http://purl.org/dc/dcmitype/StillImage" />
        <dc:title />
      </cc:Work>
    </rdf:RDF>
  </metadata>
  <g
     inkscape:groupmode="layer"
     id="layer3"
     inkscape:label="new"
     style="display:inline;opacity:1"
     transform="translate(0,-59.266667)">
    <path
       style="display:inline;fill:#bdbdbd;fill-rule:evenodd;stroke:#3a3a3a;stroke-width:0.999999;enable-background:new"
       d="M 6.1640625,8.2851562 C 5.4844282,9.1503736 4.9169294,10.107474 4.4824219,11.134766 3.8498879,12.630245 3.4999998,14.274109 3.5,16 c 2e-7,1.725891 0.3498873,3.369755 0.9824219,4.865234 0.6325341,1.49548 1.5486601,2.841629 2.6796875,3.972657 1.1310274,1.131027 2.4771769,2.047153 3.9726566,2.679687 C 12.630245,28.150093 14.27411,28.5 16,28.5 c 1.72589,0 3.369755,-0.349888 4.865234,-0.982422 1.027291,-0.434507 1.984393,-1.002006 2.84961,-1.68164 z"
       transform="matrix(0.26458333,0,0,0.26458333,0,59.266667)"
       id="path2403" />
    <path
       id="path7681"
       style="fill:#3a3a3a;fill-opacity:1;stroke:none;stroke-width:1.36572;stroke-opacity:1"
       d="M 9,11.121094 V 12 L 3.7578125,13.101562 3.5273438,14.150391 9,13 7.8066406,18.513672 3.640625,18.207031 4.109375,19.240234 7.8066406,19.513672 9,26 H 8.5507812 c 0.5720637,0.265401 0.9838636,0.457176 1.8808598,0.873047 l 4.507812,-1.332031 1.137887,2.746246 h 1 L 15.939453,25.541016 22.193359,26.833984 23,26.304688 V 26 L 15.939453,24.541016 17,20 h 0.878906 L 16,18.121094 V 19 L 8.8066406,18.513672 10,13 h 0.878906 z M 8.8066406,19.513672 16,20 14.939453,24.541016 10,26 Z"
       transform="matrix(0.26458333,0,0,0.26458333,0,59.266667)"
       sodipodi:nodetypes="ccccccccccccccccccccccccccccccccc" />
    <path
       style="display:inline;fill:#58a5cc;fill-rule:evenodd;stroke:#3a3a3a;stroke-width:0.999999;enable-background:new;fill-opacity:1"
       d="M 16,3.5 C 14.27411,3.5 12.630245,3.8498877 11.134766,4.4824219 10.107475,4.9169291 9.1503727,5.4844281 8.2851562,6.1640625 L 25.835938,23.714844 c 0.679634,-0.865218 1.247133,-1.822318 1.68164,-2.84961 C 28.150114,19.369755 28.5,17.725891 28.5,16 28.5,14.274109 28.150113,12.630245 27.517578,11.134766 26.885044,9.6392859 25.968918,8.2931368 24.837891,7.1621094 23.706863,6.031082 22.360714,5.1149598 20.865234,4.4824219 19.369755,3.8498688 17.72589,3.5 16,3.5 Z"
       id="path51"
       transform="matrix(0.26458333,0,0,0.26458333,0,59.266667)" />
    <path
       id="rect5879"
       style="fill:#3a3a3a;fill-opacity:1;stroke:none;stroke-width:1.36572;stroke-opacity:1"
       d="M 14 4 L 14 5 L 10.726562 5 L 8.6289062 6 L 14 6 L 14 11.861328 L 15.142578 13 L 21 13 L 21 18.853516 L 22.140625 20 L 27.839844 20 L 28.158203 19 L 22 19 L 22 13 L 28.050781 13 L 27.669922 12 L 22 12 L 22 6 L 23.308594 6 L 21 4.7695312 L 21 5 L 15 5 L 15 4 L 14 4 z M 15 6 L 21 6 L 21 12 L 15 12 L 15 6 z "
       transform="matrix(0.26458333,0,0,0.26458333,0,59.266667)" />
  </g>
</svg>
