<?xml version="1.0" encoding="UTF-8" standalone="no"?>
<svg
   width="16"
   height="16"
   viewBox="0 0 4.2333332 4.2333334"
   version="1.1"
   id="svg8"
   inkscape:version="1.4 (86a8ad7, 2024-10-11)"
   sodipodi:docname="shading_mode_wireframe.svg"
   inkscape:export-filename="D:\projects\git\dcc_platform\icons\shading_mode_wireframe.png"
   inkscape:export-xdpi="96.000008"
   inkscape:export-ydpi="96.000008"
   xmlns:inkscape="http://www.inkscape.org/namespaces/inkscape"
   xmlns:sodipodi="http://sodipodi.sourceforge.net/DTD/sodipodi-0.dtd"
   xmlns="http://www.w3.org/2000/svg"
   xmlns:svg="http://www.w3.org/2000/svg"
   xmlns:rdf="http://www.w3.org/1999/02/22-rdf-syntax-ns#"
   xmlns:cc="http://creativecommons.org/ns#"
   xmlns:dc="http://purl.org/dc/elements/1.1/">
  <defs
     id="defs2" />
  <sodipodi:namedview
     id="base"
     pagecolor="#ffffff"
     bordercolor="#666666"
     borderopacity="1.0"
     inkscape:pageopacity="0.0"
     inkscape:pageshadow="2"
     inkscape:zoom="20.5281"
     inkscape:cx="-2.9471797"
     inkscape:cy="9.2068918"
     inkscape:document-units="mm"
     inkscape:current-layer="layer1"
     showgrid="false"
     units="px"
     inkscape:window-width="1920"
     inkscape:window-height="1009"
     inkscape:window-x="3832"
     inkscape:window-y="449"
     inkscape:window-maximized="1"
     showguides="false"
     inkscape:document-rotation="0"
     inkscape:showpageshadow="2"
     inkscape:pagecheckerboard="0"
     inkscape:deskcolor="#d1d1d1" />
  <metadata
     id="metadata5">
    <rdf:RDF>
      <cc:Work
         rdf:about="">
        <dc:format>image/svg+xml</dc:format>
        <dc:type
           rdf:resource="http://purl.org/dc/dcmitype/StillImage" />
        <dc:title />
      </cc:Work>
    </rdf:RDF>
  </metadata>
  <g
     inkscape:label="Layer 1"
     inkscape:groupmode="layer"
     id="layer1"
     transform="translate(0,-292.76665)">
    <path
       id="path870"
       style="color:#000000;font-style:normal;font-variant:normal;font-weight:normal;font-stretch:normal;font-size:medium;line-height:normal;font-family:sans-serif;font-variant-ligatures:normal;font-variant-position:normal;font-variant-caps:normal;font-variant-numeric:normal;font-variant-alternates:normal;font-variant-east-asian:normal;font-feature-settings:normal;font-variation-settings:normal;text-indent:0;text-align:start;text-decoration:none;text-decoration-line:none;text-decoration-style:solid;text-decoration-color:#000000;letter-spacing:normal;word-spacing:normal;text-transform:none;writing-mode:lr-tb;direction:ltr;text-orientation:mixed;dominant-baseline:auto;baseline-shift:baseline;text-anchor:start;white-space:normal;shape-padding:0;shape-margin:0;inline-size:0;clip-rule:nonzero;display:inline;overflow:visible;visibility:visible;opacity:1;isolation:auto;mix-blend-mode:normal;color-interpolation:sRGB;color-interpolation-filters:linearRGB;solid-color:#000000;solid-opacity:1;vector-effect:none;fill:#bdbdbd;fill-opacity:1;fill-rule:nonzero;stroke:#3a3a3a;stroke-width:0.50000001;stroke-linecap:round;stroke-linejoin:round;stroke-miterlimit:4;stroke-dasharray:none;stroke-dashoffset:0;stroke-opacity:1;color-rendering:auto;image-rendering:auto;shape-rendering:auto;text-rendering:auto;enable-background:accumulate;stop-color:#000000;stop-opacity:1;paint-order:stroke fill markers"
       d="M 7.9726562 0.3359375 A 0.50004934 0.50004934 0 0 0 7.7519531 0.40234375 L 1.8125 3.8808594 L 1.8007812 3.8867188 A 0.50004934 0.50004934 0 0 0 1.5019531 4.3007812 A 0.50004934 0.50004934 0 0 0 1.4980469 4.34375 L 1.4980469 11.599609 A 0.50004934 0.50004934 0 0 0 1.7421875 12.029297 L 7.7148438 15.564453 A 0.49999997 0.49999997 0 0 0 8.2753906 15.59375 L 14.253906 12.042969 A 0.50004998 0.50004998 0 0 0 14.498047 11.615234 L 14.498047 4.4492188 A 0.50004934 0.50004934 0 0 0 14.253906 3.9316406 L 8.2539062 0.40234375 A 0.50004934 0.50004934 0 0 0 8.03125 0.3359375 A 0.50004934 0.50004934 0 0 0 7.9726562 0.3359375 z M 8.0019531 1.4140625 L 13.021484 4.3730469 L 8.0019531 7.4140625 L 2.9785156 4.3535156 L 8.0019531 1.4140625 z M 2.5019531 5.2363281 L 7.5 8.2851562 L 7.5214844 14.287109 L 2.5019531 11.3125 L 2.5019531 5.2363281 z M 13.501953 5.2539062 L 13.501953 11.333984 L 8.5175781 14.292969 L 8.4960938 8.2832031 L 13.501953 5.2539062 z "
       transform="matrix(0.26458333,0,0,0.26458333,0,292.76665)" />
  </g>
</svg>
