<?xml version="1.0" encoding="UTF-8" standalone="no"?>
<svg
   xmlns:dc="http://purl.org/dc/elements/1.1/"
   xmlns:cc="http://creativecommons.org/ns#"
   xmlns:rdf="http://www.w3.org/1999/02/22-rdf-syntax-ns#"
   xmlns:svg="http://www.w3.org/2000/svg"
   xmlns="http://www.w3.org/2000/svg"
   xmlns:sodipodi="http://sodipodi.sourceforge.net/DTD/sodipodi-0.dtd"
   xmlns:inkscape="http://www.inkscape.org/namespaces/inkscape"
   inkscape:export-ydpi="96.000008"
   inkscape:export-xdpi="96.000008"
   inkscape:export-filename="D:\projects\git\dcc_platform\icons\small_search.png"
   sodipodi:docname="small_search.svg"
   inkscape:version="1.0 (4035a4fb49, 2020-05-01)"
   id="svg8"
   version="1.1"
   viewBox="0 0 4.2333332 4.2333334"
   height="16"
   width="16">
  <defs
     id="defs2" />
  <sodipodi:namedview
     inkscape:document-rotation="0"
     inkscape:window-maximized="1"
     inkscape:window-y="-8"
     inkscape:window-x="-8"
     inkscape:window-height="1018"
     inkscape:window-width="1920"
     units="px"
     showgrid="false"
     inkscape:current-layer="layer1"
     inkscape:document-units="px"
     inkscape:cy="16.300316"
     inkscape:cx="8.1072465"
     inkscape:zoom="16"
     inkscape:pageshadow="2"
     inkscape:pageopacity="0.0"
     borderopacity="1.0"
     bordercolor="#666666"
     pagecolor="#ffffff"
     id="base" />
  <metadata
     id="metadata5">
    <rdf:RDF>
      <cc:Work
         rdf:about="">
        <dc:format>image/svg+xml</dc:format>
        <dc:type
           rdf:resource="http://purl.org/dc/dcmitype/StillImage" />
        <dc:title />
      </cc:Work>
    </rdf:RDF>
  </metadata>
  <g
     transform="translate(0,-292.76665)"
     id="layer1"
     inkscape:groupmode="layer"
     inkscape:label="Layer 1">
    <path
       transform="matrix(0.26458333,0,0,0.26458333,0,292.76665)"
       d="M 7 2 A 4.9999998 4.9999998 0 0 0 2 7 A 4.9999998 4.9999998 0 0 0 7 12 A 4.9999998 4.9999998 0 0 0 9.7558594 11.169922 L 13.242188 14.65625 L 14.65625 13.242188 L 11.171875 9.7578125 A 4.9999998 4.9999998 0 0 0 12 7 A 4.9999998 4.9999998 0 0 0 7 2 z M 6.9472656 4 A 3 3 0 0 1 6.9492188 4 A 3 3 0 0 1 7 4 A 3 3 0 0 1 10 7 A 3 3 0 0 1 7 10 A 3 3 0 0 1 4 7 A 3 3 0 0 1 6.9472656 4 z "
       style="fill:#bdbdbd;fill-opacity:1;fill-rule:evenodd;stroke:#3a3a3a;stroke-width:2.00000001;stroke-linecap:round;stroke-dashoffset:3.9;stroke-opacity:1;paint-order:stroke markers fill;stroke-miterlimit:4;stroke-dasharray:none"
       id="path831" />
  </g>
</svg>
