<?xml version="1.0" encoding="UTF-8" standalone="no"?>
<!-- Created with Inkscape (http://www.inkscape.org/) -->

<svg
   width="16"
   height="16"
   viewBox="0 0 4.2333332 4.2333334"
   version="1.1"
   id="svg8"
   inkscape:version="1.1.1 (3bf5ae0d25, 2021-09-20)"
   sodipodi:docname="small_camera.svg"
   inkscape:export-filename="D:\projects\dcc_platform\icons\small_camera.png"
   inkscape:export-xdpi="96.000008"
   inkscape:export-ydpi="96.000008"
   xmlns:inkscape="http://www.inkscape.org/namespaces/inkscape"
   xmlns:sodipodi="http://sodipodi.sourceforge.net/DTD/sodipodi-0.dtd"
   xmlns="http://www.w3.org/2000/svg"
   xmlns:svg="http://www.w3.org/2000/svg"
   xmlns:rdf="http://www.w3.org/1999/02/22-rdf-syntax-ns#"
   xmlns:cc="http://creativecommons.org/ns#"
   xmlns:dc="http://purl.org/dc/elements/1.1/">
  <defs
     id="defs2" />
  <sodipodi:namedview
     id="base"
     pagecolor="#ffffff"
     bordercolor="#666666"
     borderopacity="1.0"
     inkscape:pageopacity="0.0"
     inkscape:pageshadow="2"
     inkscape:zoom="22.627417"
     inkscape:cx="14.71666"
     inkscape:cy="10.31934"
     inkscape:document-units="px"
     inkscape:current-layer="layer1"
     showgrid="false"
     units="px"
     inkscape:window-width="1920"
     inkscape:window-height="1017"
     inkscape:window-x="-8"
     inkscape:window-y="-8"
     inkscape:window-maximized="1"
     showguides="true"
     inkscape:guide-bbox="true"
     inkscape:pagecheckerboard="0"
     width="16px" />
  <metadata
     id="metadata5">
    <rdf:RDF>
      <cc:Work
         rdf:about="">
        <dc:format>image/svg+xml</dc:format>
        <dc:type
           rdf:resource="http://purl.org/dc/dcmitype/StillImage" />
      </cc:Work>
    </rdf:RDF>
  </metadata>
  <g
     inkscape:label="Layer 1"
     inkscape:groupmode="layer"
     id="layer1"
     transform="translate(0,-291.70832)">
    <path
       style="display:inline;opacity:1;fill:#bdbdbd;fill-opacity:1;stroke:#3a3a3a;stroke-width:0.529167;stroke-miterlimit:4;stroke-dasharray:none;stroke-opacity:1;paint-order:stroke fill markers"
       d="m 1.2351207,295.14575 c -0.027589,-0.0273 -0.038496,-0.0852 -0.038496,-0.20478 0,-0.0917 -0.00855,-0.16672 -0.018976,-0.16672 -0.010451,0 -0.155363,0.0329 -0.32204359,0.0729 -0.1666795,0.04 -0.3234647,0.0663 -0.3484081,0.0586 -0.0659456,-0.0219 -0.0724189,-0.0745 -0.0646922,-0.53781 0.008901,-0.53393 -0.0170255,-0.50999 0.4337302,-0.40056 0.28187889,0.0684 0.33365829,0.075 0.36307809,0.046 0.019083,-0.0192 0.082447,-0.0336 0.1427982,-0.0336 0.1234689,0 0.1476362,-0.0471 0.04729,-0.092 -0.1041687,-0.0465 -0.2685644,-0.21244 -0.3313049,-0.3339 -0.045469,-0.0881 -0.062057,-0.16399 -0.068978,-0.3162 -0.00844,-0.18562 -0.00345,-0.21164 0.069008,-0.35622 0.141438,-0.28242 0.4146529,-0.43578 0.7360786,-0.41318 0.3330913,0.0246 0.5780084,0.22012 0.6956132,0.55892 0.014704,0.0425 0.02058,0.0399 0.061289,-0.0274 0.098973,-0.1599 0.3491636,-0.29774 0.5407748,-0.29774 0.2027033,0 0.44723,0.14017 0.5615932,0.32215 0.181775,0.28914 0.070322,0.69245 -0.2420467,0.8757 -0.119553,0.0701 -0.1264759,0.0783 -0.065749,0.0783 0.102581,0 0.1626646,0.0413 0.1626646,0.11226 0,0.0657 0.014697,0.0671 0.1898477,0.0192 0.068715,-0.0192 0.072245,0.0274 0.014965,0.19657 -0.055033,0.16235 -0.075987,0.18287 -0.17774,0.1744 -0.098411,-0.008 -0.080076,-0.0602 -0.14898,0.42087 -0.016839,0.11662 -0.046374,0.2275 -0.066151,0.24694 -0.03031,0.0298 -0.1939907,0.0352 -1.0612016,0.0352 -0.8994919,0 -1.0300954,-0.005 -1.0638645,-0.0377 z m 1.6517871,-1.21433 c 0,-0.0465 -0.016304,-0.0482 -0.4517474,-0.0482 -0.433548,0 -0.505323,0.0109 -0.4668854,0.0723 0.00908,0.0137 0.192146,0.0246 0.4668854,0.0246 0.4354165,0 0.4517474,-0.002 0.4517474,-0.0482 z m 0.391949,-0.43344 c 0.048727,-0.0479 0.064601,-0.1566 0.030254,-0.20724 -0.024321,-0.0359 -0.1162126,-0.0819 -0.16336,-0.0819 -0.067194,0 -0.1363383,0.0908 -0.1363383,0.17931 0,0.1421 0.1673155,0.21027 0.2694665,0.10979 z m -1.3510077,-0.10895 c 0.093092,-0.0769 0.117228,-0.17687 0.066228,-0.27381 -0.1106531,-0.21026 -0.4299945,-0.14538 -0.4299945,0.0873 0,0.21108 0.2061566,0.31679 0.3637713,0.18644 z"
       id="path4507"
       inkscape:connector-curvature="0" />
  </g>
</svg>
