<?xml version="1.0" encoding="UTF-8" standalone="no"?>
<svg
   xmlns:dc="http://purl.org/dc/elements/1.1/"
   xmlns:cc="http://creativecommons.org/ns#"
   xmlns:rdf="http://www.w3.org/1999/02/22-rdf-syntax-ns#"
   xmlns:svg="http://www.w3.org/2000/svg"
   xmlns="http://www.w3.org/2000/svg"
   xmlns:sodipodi="http://sodipodi.sourceforge.net/DTD/sodipodi-0.dtd"
   xmlns:inkscape="http://www.inkscape.org/namespaces/inkscape"
   width="16"
   height="16"
   viewBox="0 0 4.2333332 4.2333334"
   version="1.1"
   id="svg8"
   inkscape:version="1.0 (4035a4fb49, 2020-05-01)"
   sodipodi:docname="small_snap.svg"
   inkscape:export-filename="D:\projects\git\dcc_platform\icons\small_snap.png"
   inkscape:export-xdpi="96.000008"
   inkscape:export-ydpi="96.000008">
  <defs
     id="defs2">
    <pattern
       y="0"
       x="0"
       height="6"
       width="6"
       patternUnits="userSpaceOnUse"
       id="EMFhbasepattern" />
    <pattern
       y="0"
       x="0"
       height="6"
       width="6"
       patternUnits="userSpaceOnUse"
       id="EMFhbasepattern-2" />
  </defs>
  <sodipodi:namedview
     id="base"
     pagecolor="#ffffff"
     bordercolor="#666666"
     borderopacity="1.0"
     inkscape:pageopacity="0.0"
     inkscape:pageshadow="2"
     inkscape:zoom="16"
     inkscape:cx="-0.30175376"
     inkscape:cy="15.512779"
     inkscape:document-units="px"
     inkscape:current-layer="layer1"
     showgrid="false"
     units="px"
     inkscape:window-width="1920"
     inkscape:window-height="1018"
     inkscape:window-x="-8"
     inkscape:window-y="-8"
     inkscape:window-maximized="1"
     showguides="false"
     inkscape:guide-bbox="true"
     inkscape:document-rotation="0" />
  <metadata
     id="metadata5">
    <rdf:RDF>
      <cc:Work
         rdf:about="">
        <dc:format>image/svg+xml</dc:format>
        <dc:type
           rdf:resource="http://purl.org/dc/dcmitype/StillImage" />
        <dc:title></dc:title>
      </cc:Work>
    </rdf:RDF>
  </metadata>
  <g
     inkscape:label="Layer 1"
     inkscape:groupmode="layer"
     id="layer1"
     transform="translate(0,-288.53332)">
    <path
       style="fill:#bdbdbd;fill-opacity:1;stroke:#3a3a3a;stroke-width:0.529167;stroke-miterlimit:4;stroke-dasharray:none;stroke-opacity:1;paint-order:stroke markers fill"
       d="m 0.53514874,290.28457 c 0.0193865,-0.30331 0.15875713,-0.60434 0.38411013,-0.82962 0.19692423,-0.19686 0.43449083,-0.32394 0.69583523,-0.3722 0.2625587,-0.0485 0.5285177,-0.01 0.7647968,0.11132 0.065389,0.0335 0.1666846,0.10165 0.2258053,0.15188 0.026895,0.0229 0.1913807,0.18415 0.3655234,0.35842 l 0.3166252,0.31687 -0.207664,0.20746 -0.2076628,0.20747 -0.3143371,-0.31372 c -0.1728851,-0.17254 -0.3269712,-0.32341 -0.3424123,-0.33525 -0.067751,-0.052 -0.1511801,-0.0913 -0.2424962,-0.11418 -0.04701,-0.0117 -0.061093,-0.0131 -0.1426242,-0.0133 -0.099597,-1.9e-4 -0.1354498,0.004 -0.2167983,0.0324 -0.2060932,0.0688 -0.3820948,0.2445 -0.4501736,0.44897 -0.028151,0.0845 -0.03451,0.12413 -0.03451,0.21477 0,0.13961 0.03092,0.24251 0.1086405,0.36157 0.022521,0.0346 0.081406,0.0959 0.3478026,0.36285 l 0.32069,0.32132 -0.2077309,0.20764 -0.207731,0.20761 -0.2998421,-0.29929 c -0.30435983,-0.30378 -0.37186573,-0.37476 -0.42539013,-0.44722 -0.13833334,-0.1873 -0.21553295,-0.40047 -0.2305221,-0.63658 -0.002807,-0.0443 -0.00479,-0.0825 -0.00441,-0.0852 3.8313e-4,-0.003 0.002399,-0.0315 0.00447,-0.064 z m 1.23317686,1.39183 0.2066229,-0.20644 0.1648351,0.16493 c 0.1110635,0.11112 0.1672848,0.17084 0.1723449,0.18308 0.00954,0.023 0.00952,0.0432 -5.56e-5,0.0663 -0.00939,0.0225 -0.3041741,0.31985 -0.3308644,0.3337 -0.022161,0.0115 -0.057486,0.0122 -0.078676,0.003 -0.013759,-0.007 -0.3408273,-0.32753 -0.3408273,-0.33411 0,-0.002 0.09298,-0.0954 0.2066218,-0.20899 z m 1.3826925,-1.38161 0.2054732,-0.2051 0.1682162,0.16854 c 0.1866082,0.18697 0.1850913,0.18493 0.1732682,0.23305 -0.00534,0.0217 -0.01689,0.0346 -0.1602712,0.17889 -0.084984,0.0854 -0.1611164,0.15952 -0.1691845,0.16449 -0.020907,0.0129 -0.046468,0.0165 -0.071001,0.01 -0.018606,-0.004 -0.041551,-0.0259 -0.1865947,-0.17038 -0.090959,-0.0906 -0.1653791,-0.16681 -0.1653791,-0.16945 0,-0.002 0.092462,-0.0971 0.2054732,-0.20989 z"
       id="path858"
       sodipodi:nodetypes="sssssscccscscssssscccsssssccsccccsccscssssssss" />
  </g>
</svg>
