<?xml version="1.0" encoding="UTF-8" standalone="no"?>
<!-- Created with Inkscape (http://www.inkscape.org/) -->

<svg
   width="16"
   height="16"
   viewBox="0 0 4.2333332 4.2333334"
   version="1.1"
   id="svg8"
   inkscape:version="1.3 (0e150ed6c4, 2023-07-21)"
   sodipodi:docname="small_textured.svg"
   inkscape:export-filename="..\small_textured.png"
   inkscape:export-xdpi="96.000008"
   inkscape:export-ydpi="96.000008"
   xmlns:inkscape="http://www.inkscape.org/namespaces/inkscape"
   xmlns:sodipodi="http://sodipodi.sourceforge.net/DTD/sodipodi-0.dtd"
   xmlns="http://www.w3.org/2000/svg"
   xmlns:svg="http://www.w3.org/2000/svg"
   xmlns:rdf="http://www.w3.org/1999/02/22-rdf-syntax-ns#"
   xmlns:cc="http://creativecommons.org/ns#"
   xmlns:dc="http://purl.org/dc/elements/1.1/">
  <defs
     id="defs2" />
  <sodipodi:namedview
     id="base"
     pagecolor="#ffffff"
     bordercolor="#666666"
     borderopacity="1.0"
     inkscape:pageopacity="0.0"
     inkscape:pageshadow="2"
     inkscape:zoom="32"
     inkscape:cx="6.234375"
     inkscape:cy="9.65625"
     inkscape:document-units="px"
     inkscape:current-layer="layer1"
     showgrid="false"
     units="px"
     inkscape:window-width="1920"
     inkscape:window-height="1017"
     inkscape:window-x="-8"
     inkscape:window-y="-8"
     inkscape:window-maximized="1"
     showguides="true"
     inkscape:guide-bbox="true"
     inkscape:pagecheckerboard="0"
     width="16px"
     inkscape:showpageshadow="2"
     inkscape:deskcolor="#d1d1d1" />
  <metadata
     id="metadata5">
    <rdf:RDF>
      <cc:Work
         rdf:about="">
        <dc:format>image/svg+xml</dc:format>
        <dc:type
           rdf:resource="http://purl.org/dc/dcmitype/StillImage" />
      </cc:Work>
    </rdf:RDF>
  </metadata>
  <g
     inkscape:label="Layer 1"
     inkscape:groupmode="layer"
     id="layer1"
     transform="translate(0,-291.70832)">
    <g
       id="g33"
       transform="matrix(0.87499994,0,0,0.87499994,0.26458333,36.72815)"
       style="stroke-width:0.30238097;stroke:#3a3a3a;stroke-opacity:1;stroke-dasharray:none;paint-order:markers fill stroke">
      <path
         id="path1"
         style="fill:#b3b3b3;stroke-width:0.30238097;stroke-linecap:round;stroke-linejoin:round;paint-order:markers fill stroke;stroke:#3a3a3a;stroke-opacity:1;stroke-dasharray:none"
         d="M 4.2333336,293.82498 A 2.1166668,2.1166668 0 0 1 2.1166668,295.94165 2.1166668,2.1166668 0 0 1 0,293.82498 a 2.1166668,2.1166668 0 0 1 2.1166668,-2.11667 2.1166668,2.1166668 0 0 1 2.1166668,2.11667 z" />
    </g>
    <g
       id="g34" />
    <path
       id="rect68"
       style="fill:#3a3a3a;stroke-width:0.529167;stroke-linecap:round;stroke-linejoin:round;paint-order:stroke markers fill"
       d="M 2.1166666 291.9729 L 2.1166666 292.23749 L 2.6458333 292.23749 L 2.6458333 292.05042 A 1.8520833 1.8520833 0 0 0 2.1166666 291.9729 z M 2.6458333 292.23749 L 2.6458333 292.76665 L 3.175 292.76665 L 3.175 292.3057 A 1.8520833 1.8520833 0 0 0 3.0706136 292.23749 L 2.6458333 292.23749 z M 3.175 292.76665 L 3.175 293.29582 L 3.7041666 293.29582 L 3.7041666 292.87104 A 1.8520833 1.8520833 0 0 0 3.6359537 292.76665 L 3.175 292.76665 z M 3.7041666 293.29582 L 3.7041666 293.82499 L 3.96875 293.82499 A 1.8520833 1.8520833 0 0 0 3.8912353 293.29582 L 3.7041666 293.29582 z M 3.7041666 293.82499 L 3.175 293.82499 L 3.175 294.35415 L 3.7041666 294.35415 L 3.7041666 293.82499 z M 3.7041666 294.35415 L 3.7041666 294.77893 A 1.8520833 1.8520833 0 0 0 3.8912353 294.35415 L 3.7041666 294.35415 z M 3.175 294.35415 L 2.6458333 294.35415 L 2.6458333 294.88332 L 3.175 294.88332 L 3.175 294.35415 z M 3.175 294.88332 L 3.175 295.34427 A 1.8520833 1.8520833 0 0 0 3.6359537 294.88332 L 3.175 294.88332 z M 2.6458333 294.88332 L 2.1166666 294.88332 L 2.1166666 295.41249 L 2.6458333 295.41249 L 2.6458333 294.88332 z M 2.6458333 295.41249 L 2.6458333 295.59956 A 1.8520833 1.8520833 0 0 0 3.0706136 295.41249 L 2.6458333 295.41249 z M 2.1166666 295.41249 L 1.5875 295.41249 L 1.5875 295.59956 A 1.8520833 1.8520833 0 0 0 2.1166666 295.67707 L 2.1166666 295.41249 z M 1.5875 295.41249 L 1.5875 294.88332 L 1.0583333 294.88332 L 1.0583333 295.34066 A 1.8520833 1.8520833 0 0 0 1.1689209 295.41249 L 1.5875 295.41249 z M 1.0583333 294.88332 L 1.0583333 294.35415 L 0.52916666 294.35415 L 0.52916666 294.77273 A 1.8520833 1.8520833 0 0 0 0.6009969 294.88332 L 1.0583333 294.88332 z M 0.52916666 294.35415 L 0.52916666 293.82499 L 0.26458333 293.82499 A 1.8520833 1.8520833 0 0 0 0.34209798 294.35415 L 0.52916666 294.35415 z M 0.52916666 293.82499 L 1.0583333 293.82499 L 1.0583333 293.29582 L 0.52916666 293.29582 L 0.52916666 293.82499 z M 0.52916666 293.29582 L 0.52916666 292.87724 A 1.8520833 1.8520833 0 0 0 0.34209798 293.29582 L 0.52916666 293.29582 z M 1.0583333 293.29582 L 1.5875 293.29582 L 1.5875 292.76665 L 1.0583333 292.76665 L 1.0583333 293.29582 z M 1.0583333 292.76665 L 1.0583333 292.30932 A 1.8520833 1.8520833 0 0 0 0.6009969 292.76665 L 1.0583333 292.76665 z M 1.5875 292.76665 L 2.1166666 292.76665 L 2.1166666 292.23749 L 1.5875 292.23749 L 1.5875 292.76665 z M 1.5875 292.23749 L 1.5875 292.05042 A 1.8520833 1.8520833 0 0 0 1.1689209 292.23749 L 1.5875 292.23749 z M 2.1166666 292.76665 L 2.1166666 293.29582 L 2.6458333 293.29582 L 2.6458333 292.76665 L 2.1166666 292.76665 z M 2.6458333 293.29582 L 2.6458333 293.82499 L 3.175 293.82499 L 3.175 293.29582 L 2.6458333 293.29582 z M 2.6458333 293.82499 L 2.1166666 293.82499 L 2.1166666 294.35415 L 2.6458333 294.35415 L 2.6458333 293.82499 z M 2.1166666 294.35415 L 1.5875 294.35415 L 1.5875 294.88332 L 2.1166666 294.88332 L 2.1166666 294.35415 z M 1.5875 294.35415 L 1.5875 293.82499 L 1.0583333 293.82499 L 1.0583333 294.35415 L 1.5875 294.35415 z M 1.5875 293.82499 L 2.1166666 293.82499 L 2.1166666 293.29582 L 1.5875 293.29582 L 1.5875 293.82499 z " />
  </g>
</svg>
