<?xml version="1.0" encoding="UTF-8" standalone="no"?>
<svg
   inkscape:export-ydpi="96"
   inkscape:export-xdpi="96"
   inkscape:export-filename="D:\projects\git\dcc_platform\icons\small_lock.png"
   sodipodi:docname="small_lock.svg"
   inkscape:version="1.4 (86a8ad7, 2024-10-11)"
   id="svg8"
   version="1.1"
   viewBox="0 0 3.1749999 3.1750001"
   height="12"
   width="12"
   xmlns:inkscape="http://www.inkscape.org/namespaces/inkscape"
   xmlns:sodipodi="http://sodipodi.sourceforge.net/DTD/sodipodi-0.dtd"
   xmlns="http://www.w3.org/2000/svg"
   xmlns:svg="http://www.w3.org/2000/svg"
   xmlns:rdf="http://www.w3.org/1999/02/22-rdf-syntax-ns#"
   xmlns:cc="http://creativecommons.org/ns#"
   xmlns:dc="http://purl.org/dc/elements/1.1/">
  <defs
     id="defs2">
    <pattern
       y="0"
       x="0"
       height="6"
       width="6"
       patternUnits="userSpaceOnUse"
       id="EMFhbasepattern" />
    <pattern
       y="0"
       x="0"
       height="6"
       width="6"
       patternUnits="userSpaceOnUse"
       id="EMFhbasepattern-0" />
  </defs>
  <sodipodi:namedview
     inkscape:document-rotation="0"
     inkscape:guide-bbox="true"
     showguides="false"
     inkscape:window-maximized="1"
     inkscape:window-y="449"
     inkscape:window-x="3832"
     inkscape:window-height="1009"
     inkscape:window-width="1920"
     units="px"
     showgrid="false"
     inkscape:current-layer="layer1"
     inkscape:document-units="px"
     inkscape:cy="4.8061209"
     inkscape:cx="5.9554107"
     inkscape:zoom="33.498949"
     inkscape:pageshadow="2"
     inkscape:pageopacity="0.0"
     borderopacity="1.0"
     bordercolor="#666666"
     pagecolor="#ffffff"
     id="base"
     inkscape:showpageshadow="2"
     inkscape:pagecheckerboard="0"
     inkscape:deskcolor="#d1d1d1" />
  <metadata
     id="metadata5">
    <rdf:RDF>
      <cc:Work
         rdf:about="">
        <dc:format>image/svg+xml</dc:format>
        <dc:type
           rdf:resource="http://purl.org/dc/dcmitype/StillImage" />
        <dc:title />
      </cc:Work>
    </rdf:RDF>
  </metadata>
  <g
     style="display:inline"
     transform="translate(0,-291.70832)"
     id="layer1"
     inkscape:groupmode="layer"
     inkscape:label="Layer 1">
    <path
       inkscape:connector-curvature="0"
       id="path4593"
       d=""
       style="fill:#000000;stroke-width:0.264583" />
    <path
       style="fill:#bdbdbd;fill-opacity:1;stroke:#3a3a3a;stroke-width:0.529167;stroke-miterlimit:4;stroke-dasharray:none;stroke-opacity:1;paint-order:stroke markers fill;opacity:0.7"
       d="m 0.74694852,294.59591 c -0.17987806,-0.0664 -0.18300868,-0.079 -0.18300868,-0.73836 0,-0.60196 0.003314,-0.62436 0.10384298,-0.70489 0.026525,-0.0213 0.073196,-0.0443 0.1037117,-0.0511 l 0.055481,-0.0124 v -0.23361 c 0,-0.44625 0.1166889,-0.68258 0.40925618,-0.82888 0.1003288,-0.0502 0.1229366,-0.0538 0.3422785,-0.0538 0.2156442,0 0.2436699,0.004 0.3426209,0.0514 0.1312649,0.0627 0.2732847,0.20356 0.3304134,0.32785 0.059685,0.12985 0.0785,0.25207 0.0785,0.50996 v 0.22396 l 0.071237,0.0217 c 0.084263,0.0257 0.159576,0.10246 0.1892441,0.19286 0.01376,0.0419 0.021345,0.24272 0.021345,0.56514 0,0.48071 -0.00166,0.5034 -0.042273,0.58503 -0.025034,0.0503 -0.06909,0.10072 -0.1080329,0.12363 -0.062807,0.037 -0.1011844,0.0389 -0.8548708,0.0431 -0.62744918,0.004 -0.80358228,-0.001 -0.85974618,-0.0217 m 0,0 6e-7,7e-5 m 0.88374778,-0.38549 c 0.035921,-0.0256 0.041758,-0.0473 0.041758,-0.15508 0,-0.10574 0.00733,-0.13417 0.046968,-0.18215 0.1266067,-0.15321 -0.040463,-0.36585 -0.2214709,-0.28186 -0.1067839,0.0496 -0.1354824,0.21703 -0.050589,0.29526 0.030128,0.0277 0.03721,0.059 0.03721,0.16417 0,0.11252 0.00558,0.13386 0.041758,0.15966 0.022966,0.0164 0.046453,0.0298 0.052185,0.0298 0.00571,0 0.02922,-0.0134 0.052185,-0.0298 z m 0.417525,-1.37428 c 0,-0.2429 -0.0027,-0.26139 -0.052357,-0.35873 -0.096717,-0.18958 -0.2917873,-0.27263 -0.5326611,-0.22677 -0.1339389,0.0255 -0.2377156,0.10216 -0.2970076,0.2194 -0.043317,0.0857 -0.048632,0.1206 -0.054499,0.35855 l -0.0065,0.26366 h 0.4715107 0.4715113 z"
       id="path890"
       sodipodi:nodetypes="cssscssscsscsssssccccssssssssssssscccscs" />
  </g>
</svg>
