<?xml version="1.0" encoding="UTF-8" standalone="no"?>
<svg
   inkscape:export-ydpi="96.000008"
   inkscape:export-xdpi="96.000008"
   inkscape:export-filename="D:\projects\git\dcc_platform\icons\snap_view_planes.png"
   sodipodi:docname="snap_view_planes.svg"
   inkscape:version="1.4 (86a8ad7, 2024-10-11)"
   id="svg8"
   version="1.1"
   viewBox="0 0 5.2916665 5.2916668"
   height="20"
   width="20"
   xmlns:inkscape="http://www.inkscape.org/namespaces/inkscape"
   xmlns:sodipodi="http://sodipodi.sourceforge.net/DTD/sodipodi-0.dtd"
   xmlns="http://www.w3.org/2000/svg"
   xmlns:svg="http://www.w3.org/2000/svg"
   xmlns:rdf="http://www.w3.org/1999/02/22-rdf-syntax-ns#"
   xmlns:cc="http://creativecommons.org/ns#"
   xmlns:dc="http://purl.org/dc/elements/1.1/">
  <defs
     id="defs2">
    <pattern
       id="EMFhbasepattern"
       patternUnits="userSpaceOnUse"
       width="6"
       height="6"
       x="0"
       y="0" />
    <pattern
       id="EMFhbasepattern-2"
       patternUnits="userSpaceOnUse"
       width="6"
       height="6"
       x="0"
       y="0" />
  </defs>
  <sodipodi:namedview
     inkscape:document-rotation="0"
     inkscape:guide-bbox="true"
     showguides="true"
     inkscape:window-maximized="1"
     inkscape:window-y="449"
     inkscape:window-x="3832"
     inkscape:window-height="1009"
     inkscape:window-width="1920"
     units="px"
     showgrid="false"
     inkscape:current-layer="layer1"
     inkscape:document-units="px"
     inkscape:cy="10.305529"
     inkscape:cx="10.454166"
     inkscape:zoom="30.275012"
     inkscape:pageshadow="2"
     inkscape:pageopacity="0.0"
     borderopacity="1.0"
     bordercolor="#666666"
     pagecolor="#ffffff"
     id="base"
     inkscape:showpageshadow="2"
     inkscape:pagecheckerboard="0"
     inkscape:deskcolor="#d1d1d1" />
  <metadata
     id="metadata5">
    <rdf:RDF>
      <cc:Work
         rdf:about="">
        <dc:format>image/svg+xml</dc:format>
        <dc:type
           rdf:resource="http://purl.org/dc/dcmitype/StillImage" />
        <dc:title />
      </cc:Work>
    </rdf:RDF>
  </metadata>
  <g
     transform="translate(0,-288.53332)"
     id="layer1"
     inkscape:groupmode="layer"
     inkscape:label="Layer 1">
    <path
       d="m 3.1750489,290.02457 -0.1870934,0.18709 -0.561266,0.56127 -0.1870863,0.18708 -0.561266,0.56127 -0.1870863,0.18709 0.1870887,0.18708 0.5612659,0.56127 0.1870887,0.18709 0.5612661,0.56126 0.1870886,0.18709 0.1870863,-0.18708 1.4967117,-1.49671 -1.4967093,-1.49671 z m -4.7e-6,0.37418 0.561266,0.56127 -0.561266,0.56126 -0.561266,-0.56126 z m 0.7483547,0.74835 0.561266,0.56127 -0.561266,0.56127 -0.561266,-0.56127 z m -1.496707,0 0.561266,0.56127 -0.5612661,0.56126 -0.5612659,-0.56126 z m 0.7483547,0.74836 0.561266,0.56126 -0.561266,0.56127 -0.561266,-0.56127 z"
       style="fill:#58a5cc;fill-opacity:1;fill-rule:evenodd;stroke:#3a3a3a;stroke-width:0.529167;stroke-linecap:round;stroke-dashoffset:3.9;stroke-opacity:1;paint-order:stroke fill markers"
       id="rect836" />
    <path
       sodipodi:nodetypes="sssssscccscscssssscccsssssccsccccsccscssssssss"
       id="path858"
       d="m 0.53394008,290.35205 c 0.0204429,-0.32009 0.16740875,-0.63776 0.40504255,-0.8755 0.20765587,-0.20775 0.45816887,-0.34186 0.73375547,-0.39279 0.2768672,-0.0511 0.5573198,-0.0104 0.8064753,0.11747 0.068953,0.0354 0.1757682,0.10728 0.2381107,0.16029 0.028361,0.0241 0.2018102,0.19433 0.385443,0.37824 l 0.3338801,0.3344 -0.2189809,0.21893 -0.2189797,0.21895 -0.3314671,-0.33108 c -0.1823067,-0.18208 -0.3447898,-0.34129 -0.3610725,-0.3538 -0.071443,-0.0548 -0.1594188,-0.0963 -0.2557113,-0.12048 -0.049573,-0.0124 -0.064423,-0.0138 -0.1503967,-0.014 -0.1050248,-2e-4 -0.1428311,0.005 -0.2286129,0.0342 -0.2173244,0.0727 -0.4029175,0.25802 -0.4747062,0.4738 -0.029685,0.0892 -0.036391,0.13099 -0.036391,0.22664 0,0.14734 0.032605,0.25593 0.114561,0.38157 0.023749,0.0365 0.085842,0.10125 0.3667565,0.38293 l 0.3381663,0.33909 -0.2190514,0.21911 -0.2190515,0.2191 -0.3161823,-0.31584 c -0.32094627,-0.32058 -0.39213097,-0.39549 -0.44857217,-0.47196 -0.145872,-0.19766 -0.22727869,-0.42262 -0.24308469,-0.67178 -0.002961,-0.0467 -0.005051,-0.0871 -0.00465,-0.0899 4.0401e-4,-0.003 0.002529,-0.0332 0.004713,-0.0676 z m 1.30038012,1.46881 0.2178829,-0.21785 0.173818,0.17404 c 0.1171161,0.11727 0.1764013,0.18029 0.181737,0.19321 0.010059,0.0243 0.010039,0.0456 -5.86e-5,0.0699 -0.0099,0.0237 -0.3207504,0.33754 -0.3488952,0.35215 -0.023369,0.0121 -0.060619,0.0129 -0.082964,0.002 -0.014509,-0.007 -0.359401,-0.34564 -0.359401,-0.35258 0,-0.002 0.098047,-0.10073 0.2178819,-0.22055 z m 1.4580437,-1.45802 0.2166708,-0.21645 0.1773833,0.17786 c 0.1967776,0.19731 0.1951779,0.19516 0.1827105,0.24594 -0.00564,0.0229 -0.01781,0.0365 -0.1690053,0.18878 -0.089615,0.0902 -0.1698965,0.16835 -0.1784044,0.1736 -0.022046,0.0136 -0.049001,0.0174 -0.074871,0.0104 -0.01962,-0.005 -0.043815,-0.0274 -0.1967633,-0.1798 -0.095916,-0.0956 -0.1743916,-0.17604 -0.1743916,-0.17882 0,-0.002 0.097501,-0.10246 0.216671,-0.22151 z"
       style="fill:#bdbdbd;fill-opacity:1;stroke:#3a3a3a;stroke-width:0.529167;stroke-miterlimit:4;stroke-dasharray:none;stroke-opacity:1;paint-order:stroke markers fill" />
  </g>
</svg>
