<?xml version="1.0" encoding="UTF-8" standalone="no"?>
<!-- Created with Inkscape (http://www.inkscape.org/) -->

<svg
   width="20"
   height="20"
   viewBox="0 0 5.2916665 5.2916668"
   version="1.1"
   id="svg8"
   inkscape:version="1.4 (86a8ad7, 2024-10-11)"
   sodipodi:docname="snapTime.svg"
   inkscape:export-filename="D:\projects\git\dcc_platform\icons\snapTime.png"
   inkscape:export-xdpi="96.000008"
   inkscape:export-ydpi="96.000008"
   xmlns:inkscape="http://www.inkscape.org/namespaces/inkscape"
   xmlns:sodipodi="http://sodipodi.sourceforge.net/DTD/sodipodi-0.dtd"
   xmlns="http://www.w3.org/2000/svg"
   xmlns:svg="http://www.w3.org/2000/svg"
   xmlns:rdf="http://www.w3.org/1999/02/22-rdf-syntax-ns#"
   xmlns:cc="http://creativecommons.org/ns#"
   xmlns:dc="http://purl.org/dc/elements/1.1/">
  <defs
     id="defs2" />
  <sodipodi:namedview
     id="base"
     pagecolor="#ffffff"
     bordercolor="#666666"
     borderopacity="1.0"
     inkscape:pageopacity="0.0"
     inkscape:pageshadow="2"
     inkscape:zoom="29.848632"
     inkscape:cx="11.508065"
     inkscape:cy="9.5146739"
     inkscape:document-units="mm"
     inkscape:current-layer="layer1"
     showgrid="false"
     units="px"
     inkscape:window-width="1920"
     inkscape:window-height="1009"
     inkscape:window-x="3832"
     inkscape:window-y="449"
     inkscape:window-maximized="1"
     inkscape:showpageshadow="2"
     inkscape:pagecheckerboard="0"
     inkscape:deskcolor="#d1d1d1" />
  <metadata
     id="metadata5">
    <rdf:RDF>
      <cc:Work
         rdf:about="">
        <dc:format>image/svg+xml</dc:format>
        <dc:type
           rdf:resource="http://purl.org/dc/dcmitype/StillImage" />
        <dc:title />
      </cc:Work>
    </rdf:RDF>
  </metadata>
  <g
     inkscape:label="Layer 1"
     inkscape:groupmode="layer"
     id="layer1"
     transform="translate(0,-291.70832)">
    <path
       style="color:#000000;font-style:normal;font-variant:normal;font-weight:normal;font-stretch:normal;font-size:medium;line-height:normal;font-family:sans-serif;font-variant-ligatures:normal;font-variant-position:normal;font-variant-caps:normal;font-variant-numeric:normal;font-variant-alternates:normal;font-feature-settings:normal;text-indent:0;text-align:start;text-decoration:none;text-decoration-line:none;text-decoration-style:solid;text-decoration-color:#000000;letter-spacing:normal;word-spacing:normal;text-transform:none;writing-mode:lr-tb;direction:ltr;text-orientation:mixed;dominant-baseline:auto;baseline-shift:baseline;text-anchor:start;white-space:normal;shape-padding:0;clip-rule:nonzero;display:inline;overflow:visible;visibility:visible;opacity:1;isolation:auto;mix-blend-mode:normal;color-interpolation:sRGB;color-interpolation-filters:linearRGB;solid-color:#000000;solid-opacity:1;vector-effect:none;fill:#bdbdbd;fill-opacity:1;fill-rule:nonzero;stroke:#3a3a3a;stroke-width:0.26458333;stroke-linecap:square;stroke-linejoin:miter;stroke-miterlimit:4;stroke-dasharray:none;stroke-dashoffset:0;stroke-opacity:1;paint-order:stroke fill markers;color-rendering:auto;image-rendering:auto;shape-rendering:auto;text-rendering:auto;enable-background:accumulate"
       d="m 0.27827757,295.33395 v 1.4025 H 5.0410358 v -1.39836 l -0.2614827,-0.004 v 1.13688 H 3.9294757 v -0.67024 H 3.6659261 v 0.67024 H 2.7838093 l 0.022738,-1.13274 -0.2656174,-0.004 -0.022738,1.13688 H 1.6815511 v -0.67024 H 1.4180013 v 0.67024 H 0.53381752 l 0.0227375,-1.13274 z"
       id="path4578"
       inkscape:connector-curvature="0"
       sodipodi:nodetypes="ccccccccccccccccccccc" />
    <path
       style="fill:#58a5cc;fill-opacity:1;stroke:#3a3a3a;stroke-width:0.26458332;stroke-linejoin:miter;stroke-miterlimit:4;stroke-dasharray:none;stroke-opacity:1;paint-order:stroke fill markers"
       d="m 0.29686988,292.78471 c 0.0841,-0.37658 0.38522002,-0.69155 0.75789002,-0.79257 0.13664,-0.037 0.38294,-0.0364 0.52365,10e-4 0.1408,0.0378 0.30942,0.12487 0.4279,0.22095 0.0558,0.0445 0.22418,0.20565 0.37519,0.35708 l 0.27441,0.27545 -0.20971,0.20977 c -0.11533,0.11538 -0.21665,0.20978 -0.21665,0.20978 0,0 -0.14627,-0.13779 -0.31631,-0.30642 -0.27074,-0.26932 -0.32014,-0.31165 -0.39689,-0.3495 -0.0801,-0.0391 -0.0979,-0.0429 -0.20128,-0.0429 -0.0886,-8e-5 -0.12585,0.006 -0.17002,0.0262 -0.0908,0.0421 -0.18304002,0.13436 -0.22715,0.227 -0.036,0.0756 -0.0387,0.0902 -0.0346,0.19104 0.004,0.0937 0.0106,0.12174 0.0475,0.19697 0.0375,0.0767 0.0817,0.1268 0.35065,0.39831 l 0.30838,0.30979 -0.42343,0.4169 c 0,0 -0.14516,-0.14464 -0.32145002,-0.32142 -0.17629,-0.17679 -0.34258999,-0.35391 -0.3696,-0.39351 -0.0624,-0.0916 -0.13812,-0.25154 -0.16522,-0.3489 -0.0297,-0.10702 -0.037,-0.37804 -0.013,-0.48582 z m 1.30967002,1.56274 0.2073,-0.207 0.11005,0.11004 0.11005,0.11004 -0.20705,0.20733 c -0.11387,0.11402 -0.21637,0.20413 -0.21637,0.20413 l -0.21119,-0.21016 c 0,0 0.0933,-0.1006 0.20728,-0.21445 z m 1.06149,-1.06147 0.21351,-0.21323 0.1101,0.11009 0.1100799,0.11009 -0.2136198,0.21363 -0.2136201,0.21362 -0.10998,-0.11048 -0.10999,-0.11049 z"
       id="path4745-4"
       inkscape:connector-curvature="0"
       sodipodi:nodetypes="cccccccccccccccccccccccccccccccccccccccc" />
  </g>
</svg>
