<?xml version="1.0" encoding="UTF-8" standalone="no"?>
<svg
   inkscape:export-ydpi="96.000008"
   inkscape:export-xdpi="96.000008"
   inkscape:export-filename="D:\projects\git\dcc_platform\icons\snap_curves.png"
   sodipodi:docname="snap_curves.svg"
   inkscape:version="1.4 (86a8ad7, 2024-10-11)"
   id="svg8"
   version="1.1"
   viewBox="0 0 5.2916665 5.2916668"
   height="20"
   width="20"
   xmlns:inkscape="http://www.inkscape.org/namespaces/inkscape"
   xmlns:sodipodi="http://sodipodi.sourceforge.net/DTD/sodipodi-0.dtd"
   xmlns="http://www.w3.org/2000/svg"
   xmlns:svg="http://www.w3.org/2000/svg"
   xmlns:rdf="http://www.w3.org/1999/02/22-rdf-syntax-ns#"
   xmlns:cc="http://creativecommons.org/ns#"
   xmlns:dc="http://purl.org/dc/elements/1.1/">
  <defs
     id="defs2">
    <pattern
       id="EMFhbasepattern"
       patternUnits="userSpaceOnUse"
       width="6"
       height="6"
       x="0"
       y="0" />
    <pattern
       id="EMFhbasepattern-2"
       patternUnits="userSpaceOnUse"
       width="6"
       height="6"
       x="0"
       y="0" />
  </defs>
  <sodipodi:namedview
     inkscape:document-rotation="0"
     inkscape:guide-bbox="true"
     showguides="true"
     inkscape:window-maximized="1"
     inkscape:window-y="449"
     inkscape:window-x="3832"
     inkscape:window-height="1009"
     inkscape:window-width="1920"
     units="px"
     showgrid="false"
     inkscape:current-layer="layer1"
     inkscape:document-units="px"
     inkscape:cy="10.995514"
     inkscape:cx="9.5172654"
     inkscape:zoom="30.103185"
     inkscape:pageshadow="2"
     inkscape:pageopacity="0.0"
     borderopacity="1.0"
     bordercolor="#666666"
     pagecolor="#ffffff"
     id="base"
     inkscape:showpageshadow="2"
     inkscape:pagecheckerboard="0"
     inkscape:deskcolor="#d1d1d1" />
  <metadata
     id="metadata5">
    <rdf:RDF>
      <cc:Work
         rdf:about="">
        <dc:format>image/svg+xml</dc:format>
        <dc:type
           rdf:resource="http://purl.org/dc/dcmitype/StillImage" />
        <dc:title />
      </cc:Work>
    </rdf:RDF>
  </metadata>
  <g
     transform="translate(0,-288.53332)"
     id="layer1"
     inkscape:groupmode="layer"
     inkscape:label="Layer 1">
    <path
       id="path844"
       d="M 4.7578125 289.20703 A 0.1322915 0.1322915 0 0 0 4.7050781 289.21875 C 4.7050781 289.21875 3.8608937 289.60353 3.7480469 290.61914 C 3.6923151 291.12072 3.8068817 291.52863 3.875 291.83008 C 3.9090591 291.9808 3.9304571 292.10406 3.9238281 292.19141 C 3.9171991 292.27875 3.8961024 292.32823 3.8222656 292.38477 C 3.749504 292.44048 3.7044401 292.44255 3.625 292.42578 C 3.5455599 292.40901 3.439237 292.35897 3.3144531 292.30273 C 3.0648854 292.19026 2.7177722 292.06685 2.2851562 292.24414 C 1.8577327 292.4193 1.6755207 292.72326 1.6210938 292.97461 C 1.5666668 293.22595 1.6269531 293.43359 1.6269531 293.43359 A 0.1322915 0.1322915 0 0 0 1.7910156 293.52539 A 0.1322915 0.1322915 0 0 0 1.8808594 293.36133 C 1.8808594 293.36133 1.8391215 293.21498 1.8789062 293.03125 C 1.918691 292.84752 2.0279929 292.63449 2.3847656 292.48828 C 2.7363459 292.3442 2.9699819 292.43809 3.2070312 292.54492 C 3.3255559 292.59834 3.4403648 292.65812 3.5703125 292.68555 C 3.7002602 292.71298 3.8527336 292.695 3.9824219 292.5957 C 4.111035 292.49723 4.1767637 292.35436 4.1875 292.21289 C 4.1982363 292.07142 4.168042 291.92739 4.1328125 291.77148 C 4.0623535 291.45968 3.9620592 291.09537 4.0117188 290.64844 C 4.1096541 289.76703 4.8125 289.46094 4.8125 289.46094 A 0.1322915 0.1322915 0 0 0 4.8789062 289.28711 A 0.1322915 0.1322915 0 0 0 4.7578125 289.20703 z "
       style="color:#000000;font-style:normal;font-variant:normal;font-weight:normal;font-stretch:normal;font-size:medium;line-height:normal;font-family:sans-serif;font-variant-ligatures:normal;font-variant-position:normal;font-variant-caps:normal;font-variant-numeric:normal;font-variant-alternates:normal;font-variant-east-asian:normal;font-feature-settings:normal;font-variation-settings:normal;text-indent:0;text-align:start;text-decoration:none;text-decoration-line:none;text-decoration-style:solid;text-decoration-color:#000000;letter-spacing:normal;word-spacing:normal;text-transform:none;writing-mode:lr-tb;direction:ltr;text-orientation:mixed;dominant-baseline:auto;baseline-shift:baseline;text-anchor:start;white-space:normal;shape-padding:0;shape-margin:0;inline-size:0;clip-rule:nonzero;display:inline;overflow:visible;visibility:visible;isolation:auto;mix-blend-mode:normal;color-interpolation:sRGB;color-interpolation-filters:linearRGB;solid-color:#000000;solid-opacity:1;vector-effect:none;fill:#58a5cc;fill-opacity:1;fill-rule:nonzero;stroke:#3a3a3a;stroke-width:0.52916666;stroke-linecap:round;stroke-linejoin:miter;stroke-miterlimit:4;stroke-dasharray:none;stroke-dashoffset:0;stroke-opacity:1;color-rendering:auto;image-rendering:auto;shape-rendering:auto;text-rendering:auto;enable-background:accumulate;stop-color:#000000;stop-opacity:1;opacity:1;paint-order:stroke fill markers" />
    <path
       sodipodi:nodetypes="sssssscccscscssssscccsssssccsccccsccscssssssss"
       id="path858"
       d="m 0.53394008,290.35205 c 0.0204429,-0.32009 0.16740875,-0.63776 0.40504255,-0.8755 0.20765587,-0.20775 0.45816887,-0.34186 0.73375547,-0.39279 0.2768672,-0.0511 0.5573198,-0.0104 0.8064753,0.11747 0.068953,0.0354 0.1757682,0.10728 0.2381107,0.16029 0.028361,0.0241 0.2018102,0.19433 0.385443,0.37824 l 0.3338801,0.3344 -0.2189809,0.21893 -0.2189797,0.21895 -0.3314671,-0.33108 c -0.1823067,-0.18208 -0.3447898,-0.34129 -0.3610725,-0.3538 -0.071443,-0.0548 -0.1594188,-0.0963 -0.2557113,-0.12048 -0.049573,-0.0124 -0.064423,-0.0138 -0.1503967,-0.014 -0.1050248,-2e-4 -0.1428311,0.005 -0.2286129,0.0342 -0.2173244,0.0727 -0.4029175,0.25802 -0.4747062,0.4738 -0.029685,0.0892 -0.036391,0.13099 -0.036391,0.22664 0,0.14734 0.032605,0.25593 0.114561,0.38157 0.023749,0.0365 0.085842,0.10125 0.3667565,0.38293 l 0.3381663,0.33909 -0.2190514,0.21911 -0.2190515,0.2191 -0.3161823,-0.31584 c -0.32094627,-0.32058 -0.39213097,-0.39549 -0.44857217,-0.47196 -0.145872,-0.19766 -0.22727869,-0.42262 -0.24308469,-0.67178 -0.002961,-0.0467 -0.005051,-0.0871 -0.00465,-0.0899 4.0401e-4,-0.003 0.002529,-0.0332 0.004713,-0.0676 z m 1.30038012,1.46881 0.2178829,-0.21785 0.173818,0.17404 c 0.1171161,0.11727 0.1764013,0.18029 0.181737,0.19321 0.010059,0.0243 0.010039,0.0456 -5.86e-5,0.0699 -0.0099,0.0237 -0.3207504,0.33754 -0.3488952,0.35215 -0.023369,0.0121 -0.060619,0.0129 -0.082964,0.002 -0.014509,-0.007 -0.359401,-0.34564 -0.359401,-0.35258 0,-0.002 0.098047,-0.10073 0.2178819,-0.22055 z m 1.4580437,-1.45802 0.2166708,-0.21645 0.1773833,0.17786 c 0.1967776,0.19731 0.1951779,0.19516 0.1827105,0.24594 -0.00564,0.0229 -0.01781,0.0365 -0.1690053,0.18878 -0.089615,0.0902 -0.1698965,0.16835 -0.1784044,0.1736 -0.022046,0.0136 -0.049001,0.0174 -0.074871,0.0104 -0.01962,-0.005 -0.043815,-0.0274 -0.1967633,-0.1798 -0.095916,-0.0956 -0.1743916,-0.17604 -0.1743916,-0.17882 0,-0.002 0.097501,-0.10246 0.216671,-0.22151 z"
       style="fill:#bdbdbd;fill-opacity:1;stroke:#3a3a3a;stroke-width:0.529167;stroke-miterlimit:4;stroke-dasharray:none;stroke-opacity:1;paint-order:stroke markers fill" />
  </g>
</svg>
