<?xml version="1.0" encoding="UTF-8" standalone="no"?>
<svg
   width="16"
   height="16"
   viewBox="0 0 4.2333332 4.2333334"
   version="1.1"
   id="svg8"
   inkscape:version="1.2 (dc2aedaf03, 2022-05-15)"
   sodipodi:docname="up_small.svg"
   inkscape:export-filename="..\up_small.png"
   inkscape:export-xdpi="96.000008"
   inkscape:export-ydpi="96.000008"
   xml:space="preserve"
   xmlns:inkscape="http://www.inkscape.org/namespaces/inkscape"
   xmlns:sodipodi="http://sodipodi.sourceforge.net/DTD/sodipodi-0.dtd"
   xmlns="http://www.w3.org/2000/svg"
   xmlns:svg="http://www.w3.org/2000/svg"
   xmlns:rdf="http://www.w3.org/1999/02/22-rdf-syntax-ns#"
   xmlns:cc="http://creativecommons.org/ns#"
   xmlns:dc="http://purl.org/dc/elements/1.1/"><defs
     id="defs2"><pattern
       id="EMFhbasepattern"
       patternUnits="userSpaceOnUse"
       width="6"
       height="6"
       x="0"
       y="0" /></defs><sodipodi:namedview
     id="base"
     pagecolor="#ffffff"
     bordercolor="#666666"
     borderopacity="1.0"
     inkscape:pageopacity="0.0"
     inkscape:pageshadow="2"
     inkscape:zoom="16"
     inkscape:cx="-7.625"
     inkscape:cy="11.125"
     inkscape:document-units="px"
     inkscape:current-layer="layer1"
     showgrid="false"
     units="px"
     inkscape:window-width="1920"
     inkscape:window-height="1017"
     inkscape:window-x="-8"
     inkscape:window-y="-8"
     inkscape:window-maximized="1"
     showguides="false"
     inkscape:guide-bbox="true"
     inkscape:document-rotation="0"
     inkscape:pagecheckerboard="0"
     inkscape:snap-text-baseline="true"
     width="20px"
     inkscape:showpageshadow="0"
     inkscape:deskcolor="#d1d1d1" /><metadata
     id="metadata5"><rdf:RDF><cc:Work
         rdf:about=""><dc:format>image/svg+xml</dc:format><dc:type
           rdf:resource="http://purl.org/dc/dcmitype/StillImage" /></cc:Work></rdf:RDF></metadata><g
     inkscape:label="Layer 1"
     inkscape:groupmode="layer"
     id="layer1"
     transform="translate(0,-288.53332)"><path
       style="fill:#bdbdbd;fill-opacity:1;stroke:#3a3a3a;stroke-width:0.460098;stroke-dasharray:none;stroke-opacity:1;paint-order:stroke fill markers"
       d="m 3.1099937,292.20675 c -0.003,-0.0136 -0.0365,-0.0428 -0.0743,-0.0648 -0.17015,-0.0994 -0.3424,-0.31524 -0.42733,-0.53546 -0.084,-0.21787 -0.13104,-0.52464 -0.13115,-0.85559 l -6e-5,-0.14962 0.31081,-0.004 c 0,0 0.2988301,0.004 0.3107901,-0.004 0.012,-0.008 0.004,-0.0416 0.004,-0.0416 -0.0109,-0.0364 -0.0482,-0.12024 -0.2725601,-0.4534 -0.15252,-0.22648 -0.37701,-0.55987 -0.49887,-0.74087 -0.12186,-0.18099 -0.23383,-0.33472 -0.24882,-0.34162 -0.0537,-0.0247 -0.003,-0.0933 -0.77444,1.05425 -0.2841,0.42273 -0.32333,0.49625 -0.27934,0.52344 0.008,0.005 0.13998,0.009 0.29283,0.008 0.21385,-10e-4 0.27914,0.003 0.28327,0.0172 0.003,0.0103 0.0193,0.0932 0.0364,0.18439 0.13849,0.73874 0.51611,1.26752 1.02431,1.43435 0.10635,0.0349 0.33741,0.0668 0.38947,0.0537 0.0389,-0.01 0.0663,-0.0352 0.0577,-0.0726 z"
       id="path13307"
       sodipodi:nodetypes="cccccczcccccccccsccc" /></g></svg>
