<?xml version="1.0" encoding="UTF-8" standalone="no"?>
<svg
   width="16"
   height="16"
   viewBox="0 0 4.2333332 4.2333334"
   version="1.1"
   id="svg8"
   inkscape:version="1.2 (dc2aedaf03, 2022-05-15)"
   sodipodi:docname="usd_small_disabled.svg"
   inkscape:export-filename="..\usd_small_disabled.png"
   inkscape:export-xdpi="96.000008"
   inkscape:export-ydpi="96.000008"
   xml:space="preserve"
   xmlns:inkscape="http://www.inkscape.org/namespaces/inkscape"
   xmlns:sodipodi="http://sodipodi.sourceforge.net/DTD/sodipodi-0.dtd"
   xmlns="http://www.w3.org/2000/svg"
   xmlns:svg="http://www.w3.org/2000/svg"
   xmlns:rdf="http://www.w3.org/1999/02/22-rdf-syntax-ns#"
   xmlns:cc="http://creativecommons.org/ns#"
   xmlns:dc="http://purl.org/dc/elements/1.1/"><defs
     id="defs2"><pattern
       id="EMFhbasepattern"
       patternUnits="userSpaceOnUse"
       width="6"
       height="6"
       x="0"
       y="0" /></defs><sodipodi:namedview
     id="base"
     pagecolor="#ffffff"
     bordercolor="#666666"
     borderopacity="1.0"
     inkscape:pageopacity="0.0"
     inkscape:pageshadow="2"
     inkscape:zoom="17.45"
     inkscape:cx="4.469914"
     inkscape:cy="-0.97421203"
     inkscape:document-units="px"
     inkscape:current-layer="path21268"
     showgrid="false"
     units="px"
     inkscape:window-width="1920"
     inkscape:window-height="1017"
     inkscape:window-x="-8"
     inkscape:window-y="-8"
     inkscape:window-maximized="1"
     showguides="false"
     inkscape:guide-bbox="true"
     inkscape:document-rotation="0"
     inkscape:pagecheckerboard="0"
     inkscape:snap-text-baseline="true"
     width="20px"
     inkscape:showpageshadow="0"
     inkscape:deskcolor="#d1d1d1" /><metadata
     id="metadata5"><rdf:RDF><cc:Work
         rdf:about=""><dc:format>image/svg+xml</dc:format><dc:type
           rdf:resource="http://purl.org/dc/dcmitype/StillImage" /></cc:Work></rdf:RDF></metadata><g
     inkscape:label="Layer 1"
     inkscape:groupmode="layer"
     id="layer1"
     transform="translate(0,-288.53332)"><g
       aria-label="A"
       transform="scale(0.93847014,1.065564)"
       id="text6745"
       style="font-weight:900;font-size:2.89596px;line-height:1.25;font-family:Arial;-inkscape-font-specification:'Arial Heavy';fill:#ffffff;stroke-width:0.264583"><g
         id="path21268"><path
           d="m 0.27131449,271.21336 c -0.001602,0 -0.002643,0.61012 -0.002643,1.35594 v 1.35633 l 0.0427291,0.01 c 0.0236184,0.006 0.0483242,0.0108 0.0546228,0.0109 0.006299,1.5e-4 0.02529,0.007 0.0422886,0.0144 0.0169989,0.008 0.060815,0.0217 0.0973519,0.0311 0.036537,0.009 0.071671,0.0199 0.07797,0.0244 0.0063,0.004 0.044959,0.0158 0.085899,0.0256 0.040939,0.01 0.0796,0.0204 0.085898,0.0249 0.0063,0.004 0.034651,0.0134 0.062993,0.0202 0.028343,0.008 0.066563,0.0189 0.085458,0.0256 0.018895,0.008 0.10652771,0.0337 0.19470401,0.0593 0.088178,0.0256 0.242822,0.0721 0.3435953,0.10281 0.1007736,0.0308 0.2141799,0.0648 0.2519699,0.0753 0.1145085,0.032 0.4107933,0.12107 0.4352206,0.13075 0.012596,0.005 0.051258,0.0164 0.085899,0.0256 0.03464,0.009 0.073302,0.0211 0.085899,0.0256 0.012596,0.005 0.087342,0.0274 0.1660709,0.05 0.078729,0.0226 0.1534747,0.0456 0.166071,0.0509 0.012596,0.006 0.056412,0.0185 0.097352,0.0291 0.040939,0.0106 0.1234167,0.0351 0.1832508,0.0543 v 4e-4 c 0.059835,0.0192 0.1098797,0.0355 0.1114481,0.036 0.00158,5.5e-4 0.00308,-0.60903 0.00308,-1.35439 v -1.35517 l -0.054622,-0.0128 c -0.029917,-0.008 -0.059336,-0.0161 -0.065636,-0.0206 -0.0063,-0.004 -0.042457,-0.0155 -0.080172,-0.0252 -0.037715,-0.01 -0.076374,-0.0215 -0.085898,-0.026 -0.00953,-0.005 -0.1254321,-0.0403 -0.2576965,-0.0791 -0.320515,-0.0943 -0.5596846,-0.16705 -0.5730994,-0.17381 -0.00601,-0.003 -0.041943,-0.0133 -0.079732,-0.0225 -0.03779,-0.009 -0.079029,-0.0211 -0.091626,-0.0264 -0.012597,-0.006 -0.05899,-0.0201 -0.1030784,-0.0329 -0.2871063,-0.0843 -0.4036867,-0.11921 -0.4237674,-0.12725 -0.012596,-0.005 -0.051258,-0.0168 -0.085899,-0.026 -0.03464,-0.009 -0.078456,-0.0227 -0.097352,-0.0303 -0.018896,-0.007 -0.057556,-0.0185 -0.085899,-0.0252 -0.028343,-0.007 -0.056693,-0.0157 -0.062993,-0.0202 -0.0063,-0.005 -0.039364,-0.0152 -0.074006,-0.0237 -0.034641,-0.008 -0.1532018,-0.0432 -0.2634229,-0.0772 -0.18608388,-0.0574 -0.26500146,-0.0807 -0.2722335,-0.0807 z m 0.5127499,0.67817 0.099995,0.0295 c 0.055111,0.0163 0.1103051,0.0343 0.12290141,0.0388 0.012596,0.005 0.087341,0.0278 0.1660711,0.0504 0.078729,0.0227 0.1508969,0.0443 0.1603444,0.0473 0.043272,0.0149 0.5503146,0.16696 0.6012918,0.1804 0.031491,0.008 0.067576,0.0196 0.080172,0.0249 0.023682,0.01 0.1435217,0.046 0.263423,0.0795 0.03779,0.0106 0.1007171,0.0292 0.1400811,0.0411 l 0.071803,0.0217 v 0.8415 c 0,0.66632 -0.0032,0.84115 -0.014536,0.84111 -0.00787,-7e-5 -0.028292,-0.007 -0.045813,-0.0147 -0.017521,-0.008 -0.063915,-0.0222 -0.1030795,-0.0318 -0.039166,-0.01 -0.073934,-0.0203 -0.077088,-0.024 -0.00315,-0.004 -0.031501,-0.0123 -0.062993,-0.0198 -0.031492,-0.008 -0.07273,-0.0192 -0.091626,-0.026 -0.018896,-0.008 -0.062711,-0.0206 -0.097352,-0.0298 -0.03464,-0.009 -0.073301,-0.0211 -0.085898,-0.0256 -0.012596,-0.005 -0.092496,-0.0294 -0.1775242,-0.0543 -0.085028,-0.0249 -0.2757567,-0.0821 -0.4237675,-0.12686 -0.148011,-0.0448 -0.3026563,-0.0904 -0.34359531,-0.10166 -0.040939,-0.0113 -0.09028,-0.0273 -0.1101267,-0.0353 -0.019847,-0.008 -0.044552,-0.0144 -0.054623,-0.0144 -0.016641,0 -0.01806,-0.0772 -0.01806,-0.84577 z"
           style="display:inline;fill:#898989;fill-opacity:1;stroke-width:1;opacity:0.5"
           id="path883" /><path
           id="path890"
           d="m 2.2565012,273.81711 c -0.00326,-0.005 -0.040938,-0.0166 -0.0837,-0.0267 -0.04276,-0.01 -0.0829,-0.0216 -0.089198,-0.0259 -0.0063,-0.005 -0.042371,-0.0155 -0.08016,-0.0251 -0.03779,-0.01 -0.073863,-0.0208 -0.08016,-0.0253 -0.0063,-0.005 -0.044948,-0.0156 -0.085887,-0.025 -0.04094,-0.009 -0.079588,-0.0205 -0.085887,-0.0248 -0.0063,-0.005 -0.0501,-0.0179 -0.097338,-0.0303 -0.047238,-0.0124 -0.091039,-0.0261 -0.097337,-0.0302 -0.0063,-0.005 -0.037217,-0.0132 -0.06871,-0.02 -0.031492,-0.007 -0.072717,-0.0184 -0.091612,-0.0259 -0.018896,-0.008 -0.1013458,-0.0328 -0.1832243,-0.0562 -0.081878,-0.0235 -0.154023,-0.0459 -0.1603214,-0.0498 -0.0063,-0.005 -0.025621,-0.0102 -0.042943,-0.0138 l -0.031492,-0.007 v -0.63627 c 0,-0.51861 0.00276,-0.63535 0.014918,-0.63124 0.0082,0.003 0.048142,0.0129 0.08875,0.0229 0.040606,0.01 0.078986,0.0212 0.085282,0.0253 0.0063,0.005 0.042371,0.0153 0.08016,0.0249 0.037789,0.009 0.073863,0.0206 0.08016,0.0246 0.0063,0.005 0.037217,0.0132 0.06871,0.0204 0.031492,0.007 0.072717,0.0191 0.091612,0.0266 0.018896,0.008 0.1064989,0.034 0.1946757,0.0592 0.088176,0.0251 0.1706278,0.0498 0.1832247,0.0549 0.012596,0.005 0.053823,0.0171 0.091612,0.0268 0.03779,0.01 0.073863,0.0208 0.08016,0.0248 0.0063,0.005 0.04237,0.015 0.08016,0.0246 0.037789,0.01 0.073863,0.0208 0.08016,0.0253 0.0063,0.005 0.0282,0.0111 0.04867,0.015 l 0.037218,0.007 v 0.63965 c 0,0.58762 -0.00339,0.6655 -0.027503,0.63115 z"
           style="display:inline;fill:#c2c2c2;fill-opacity:1;stroke-width:1;opacity:0.5" /><path
           id="path894"
           d="m 4.1906829,272.84264 c -0.018896,-0.008 -0.1077873,-0.0355 -0.1975386,-0.0616 l -0.1631841,-0.0475 v -0.60278 -0.60279 l -0.028125,-0.006 c -0.015468,-0.004 -0.042522,-0.0114 -0.060121,-0.0175 -0.048055,-0.0171 -0.342892,-0.10792 -0.4213482,-0.1298 -0.03779,-0.0105 -0.1125112,-0.033 -0.1660472,-0.05 -0.053535,-0.017 -0.1669059,-0.0514 -0.2519334,-0.0766 -0.085028,-0.0251 -0.1713436,-0.0525 -0.1918131,-0.0608 l -0.037217,-0.015 v -0.1962 c 0,-0.10789 0.00308,-0.19619 0.00683,-0.19619 0.015689,0 0.1372378,0.0333 0.1477695,0.0405 0.0063,0.005 0.0501,0.0178 0.097337,0.03 0.047239,0.0122 0.09104,0.0257 0.097338,0.0298 0.0063,0.005 0.032065,0.0124 0.057257,0.0184 0.057572,0.0136 0.2442982,0.0696 0.2748365,0.0825 0.012597,0.006 0.04867,0.0163 0.08016,0.0246 0.031492,0.008 0.1474382,0.0426 0.2576593,0.0764 0.1102207,0.0338 0.2622401,0.0798 0.3378201,0.10209 0.075581,0.0223 0.1541659,0.0474 0.1746354,0.0556 l 0.037218,0.015 v 0.80133 c 0,0.44073 -0.00387,0.80123 -0.00859,0.8011 -0.00472,-1.2e-4 -0.024049,-0.007 -0.042943,-0.0145 z"
           style="display:inline;fill:#c2c2c2;fill-opacity:1;stroke-width:1;opacity:0.5" /><path
           id="path892"
           d="m 3.4806886,273.74946 c -0.075581,-0.0242 -0.1670491,-0.0516 -0.2032649,-0.0613 l -0.065846,-0.0173 v -0.86881 -0.86882 l -0.042943,-0.016 c -0.023619,-0.008 -0.1073579,-0.0353 -0.186087,-0.059 -0.07873,-0.0237 -0.2307482,-0.0697 -0.3378201,-0.10246 -0.3808453,-0.11626 -0.5287544,-0.1608 -0.6813659,-0.20526 -0.085028,-0.0248 -0.164902,-0.0492 -0.1774985,-0.0542 -0.012596,-0.005 -0.051246,-0.0168 -0.085887,-0.0261 -0.034642,-0.009 -0.078443,-0.0227 -0.097338,-0.03 -0.018896,-0.008 -0.056256,-0.0185 -0.083023,-0.0248 l -0.04867,-0.0114 v -0.20744 c 0,-0.16181 0.00315,-0.20639 0.014314,-0.20263 0.00786,0.002 0.07873,0.0242 0.1574585,0.0479 0.078729,0.0238 0.2230183,0.0675 0.3206425,0.0974 0.097625,0.0298 0.2084179,0.0631 0.2462081,0.0738 0.037789,0.0107 0.1511601,0.0449 0.2519336,0.0758 0.1007736,0.031 0.2527925,0.0766 0.3378199,0.10135 0.085028,0.0248 0.1629312,0.0494 0.1731197,0.0542 0.010187,0.005 0.041107,0.0144 0.06871,0.021 0.027601,0.007 0.065644,0.0176 0.084539,0.0246 0.018896,0.008 0.1090759,0.0347 0.2004017,0.0615 0.091326,0.0268 0.1995428,0.0586 0.2404819,0.0706 l 0.074435,0.022 0.00292,1.07546 c 0.00232,0.85749 3e-6,1.07529 -0.01145,1.07454 -0.00791,-4.2e-4 -0.076204,-0.0207 -0.1517844,-0.0449 z"
           style="display:inline;fill:#a9a9a9;fill-opacity:1;stroke-width:1;opacity:0.5" /></g></g></g></svg>
